<svg id="din-condensed-bold" data-name="din-condensed-bold" xmlns="http://www.w3.org/2000/svg" viewBox="0 0 456 104"><path d="M126.19,50.76a3.71,3.71,0,0,0-1.36-.84,5,5,0,0,0-1.68-.28,4.61,4.61,0,0,0-1.76.32,4.06,4.06,0,0,0-1.34.88,4.67,4.67,0,0,0-1.29,3.08h2.77a1.73,1.73,0,0,1,.6-1.06,1.62,1.62,0,0,1,1-.36,1.23,1.23,0,0,1,1.12.48,2.18,2.18,0,0,1,.31,1.2v1.48l-0.76-.06-0.62,0a7,7,0,0,0-2.21.29,3.08,3.08,0,0,0-1.39.9,3.34,3.34,0,0,0-.71,1.51,10.11,10.11,0,0,0-.2,2.11,5.27,5.27,0,0,0,.29,1.92,2.94,2.94,0,0,0,.76,1.15,2.59,2.59,0,0,0,1,.56,3.76,3.76,0,0,0,1,.15,2.68,2.68,0,0,0,1.61-.42,5.27,5.27,0,0,0,1.13-1.2h0.06V64h2.86V54.12a5.25,5.25,0,0,0-.34-2A4,4,0,0,0,126.19,50.76Zm-1.61,9.07a2,2,0,0,1-.41,1.34,1.41,1.41,0,0,1-1.13.48,1.3,1.3,0,0,1-1.09-.5,2.08,2.08,0,0,1-.39-1.32,1.76,1.76,0,0,1,.66-1.58,2.81,2.81,0,0,1,1.58-.43,4.62,4.62,0,0,1,.78.08v1.93ZM290.67,24.22h1.46a5.28,5.28,0,0,0,2.58-.55,4.18,4.18,0,0,0,1.57-1.53,4.76,4.76,0,0,0,.66-1.75,14.28,14.28,0,0,0,.15-2.25,11.43,11.43,0,0,0-.28-2.84,4.25,4.25,0,0,0-1-1.83,4,4,0,0,0-1.62-1.09,6.38,6.38,0,0,0-2.07-.31h-4.29V32h2.86V24.22Zm0-9.46h1.48a2.55,2.55,0,0,1,1.29.27,1.61,1.61,0,0,1,.66.73,3.19,3.19,0,0,1,.25,1.09q0,0.63,0,1.33t0,1.37a2.71,2.71,0,0,1-.27,1,1.61,1.61,0,0,1-.7.69,2.92,2.92,0,0,1-1.34.25h-1.37V14.75ZM119.48,78.16v3l2.86-2.1V96h2.86V76.06h-2.86ZM83.94,39.24a15.88,15.88,0,0,0-5.82-3.6,21.29,21.29,0,0,0-7.2-1.2,19.76,19.76,0,0,0-7.56,1.38A17.38,17.38,0,0,0,57.6,39.6q-4.92,4.92-5.52,13.2H64a7.4,7.4,0,0,1,2.58-4.56,6.91,6.91,0,0,1,4.38-1.56q3.48,0,4.8,2A9.33,9.33,0,0,1,77,53.88v6.36Q75.12,60.12,73.8,60c-0.88-.08-1.76-0.12-2.64-0.12a30,30,0,0,0-9.48,1.26A13.22,13.22,0,0,0,55.74,65a14.36,14.36,0,0,0-3.06,6.48,43.36,43.36,0,0,0-.84,9.06,22.61,22.61,0,0,0,1.26,8.22,12.54,12.54,0,0,0,3.24,4.92,11.09,11.09,0,0,0,4.26,2.4,16,16,0,0,0,4.44.66,11.51,11.51,0,0,0,6.9-1.8,22.6,22.6,0,0,0,4.86-5.16H77V96H89.28V53.64a22.53,22.53,0,0,0-1.44-8.4A17.16,17.16,0,0,0,83.94,39.24ZM77,78.12a8.62,8.62,0,0,1-1.74,5.76,6,6,0,0,1-4.86,2,5.59,5.59,0,0,1-4.68-2.16,8.92,8.92,0,0,1-1.68-5.64q0-4.92,2.82-6.78a12,12,0,0,1,6.78-1.86,20.17,20.17,0,0,1,3.36.36v8.28ZM277.25,31a4.76,4.76,0,0,0,1.54.91,5,5,0,0,0,3.44,0,4.75,4.75,0,0,0,1.54-.91,4.46,4.46,0,0,0,1.11-1.51,5,5,0,0,0,.42-2.14V16.77a5.07,5.07,0,0,0-.42-2.13,4.44,4.44,0,0,0-1.11-1.53,4.77,4.77,0,0,0-1.54-.91,5,5,0,0,0-3.44,0,4.78,4.78,0,0,0-1.54.91,4.44,4.44,0,0,0-1.11,1.53,5.1,5.1,0,0,0-.42,2.13V27.3a5.08,5.08,0,0,0,.42,2.14A4.47,4.47,0,0,0,277.25,31Zm1.33-14.18a1.9,1.9,0,0,1,.57-1.53,2.12,2.12,0,0,1,2.71,0,1.9,1.9,0,0,1,.57,1.53V27.3a1.9,1.9,0,0,1-.57,1.53,2.12,2.12,0,0,1-2.71,0,1.9,1.9,0,0,1-.57-1.53V16.77ZM266.2,20h0.06l4.37,12h2.69V12.06h-2.86v12H270.4l-4.31-12h-2.74V32h2.86V20ZM137.63,50.92a3.06,3.06,0,0,0-.94-0.92,3,3,0,0,0-1.61-.36,3,3,0,0,0-1.5.38,3.46,3.46,0,0,0-1.13,1.08h-0.06v-7h-2.86V64h2.86V62.71a7,7,0,0,0,1.09,1,2.67,2.67,0,0,0,1.62.42,2.6,2.6,0,0,0,2.49-1.34,3.78,3.78,0,0,0,.36-1.18,12.34,12.34,0,0,0,.11-1.88v-5.4A21.72,21.72,0,0,0,138,52.1,2.82,2.82,0,0,0,137.63,50.92Zm-2.41,8.46a2.59,2.59,0,0,1-.34,1.4,1.17,1.17,0,0,1-1.06.53,1.26,1.26,0,0,1-1-.49,2,2,0,0,1-.39-1.27V54a1.55,1.55,0,0,1,.41-1.11,1.34,1.34,0,0,1,1-.43,1.17,1.17,0,0,1,1.11.5,2.3,2.3,0,0,1,.29,1.18v5.21ZM140,25.45a5.59,5.59,0,0,0-.48-2.51A3.09,3.09,0,0,0,138,21.53a5.35,5.35,0,0,0,.84-0.6,3.15,3.15,0,0,0,.62-0.74,3.3,3.3,0,0,0,.38-1,6.36,6.36,0,0,0,.13-1.37V17.1a6.72,6.72,0,0,0-.27-1.89,4.19,4.19,0,0,0-.88-1.61,4.41,4.41,0,0,0-1.58-1.12,5.85,5.85,0,0,0-2.34-.42h-4.17V32h3.89a5.26,5.26,0,0,0,4.07-1.4,5.79,5.79,0,0,0,1.27-4V25.45Zm-2.74,1.68a2.63,2.63,0,0,1-.31,1.06,1.74,1.74,0,0,1-.74.7,3,3,0,0,1-1.36.25H133.6V22.76h1.26a3.37,3.37,0,0,1,1.26.2,1.65,1.65,0,0,1,.74.57,2.16,2.16,0,0,1,.35.94,8.9,8.9,0,0,1,.08,1.32Q137.29,26.51,137.23,27.13Zm-0.43-7.6a2.18,2.18,0,0,1-1.92.71H133.6V14.75h1.18a2.43,2.43,0,0,1,2,.67,3.15,3.15,0,0,1,.55,2A3.69,3.69,0,0,1,136.8,19.53ZM345.09,30.81a4.7,4.7,0,0,0,1.47,1,4.6,4.6,0,0,0,3.58,0,4.68,4.68,0,0,0,2.46-2.46,4.53,4.53,0,0,0,.37-1.82V12.06h-2.86V27.24a2.14,2.14,0,0,1-.5,1.57,1.83,1.83,0,0,1-2.52,0,2.14,2.14,0,0,1-.5-1.57V12.06h-2.86V27.52a4.53,4.53,0,0,0,.36,1.82A4.69,4.69,0,0,0,345.09,30.81Zm-21.18,0a4.71,4.71,0,0,0,1.54,1,5.09,5.09,0,0,0,1.93.36,5.44,5.44,0,0,0,2.32-.45,4,4,0,0,0,1.53-1.22,4.92,4.92,0,0,0,.83-1.85,10.26,10.26,0,0,0,.25-2.34,15.19,15.19,0,0,0-.11-1.95,4.9,4.9,0,0,0-.43-1.51,3.49,3.49,0,0,0-.91-1.15,5.44,5.44,0,0,0-1.54-.85L327.13,20a4.42,4.42,0,0,1-.88-0.45,1.6,1.6,0,0,1-.49-0.52,1.73,1.73,0,0,1-.21-0.7q0-.41,0-1a5.34,5.34,0,0,1,.08-1,2.36,2.36,0,0,1,.29-0.81,1.66,1.66,0,0,1,.59-0.57,1.87,1.87,0,0,1,1-.22,1.71,1.71,0,0,1,1.55.71,3,3,0,0,1,.46,1.69V17.8h2.86V16.4a4.17,4.17,0,0,0-.34-1.64,4.58,4.58,0,0,0-1-1.44,4.83,4.83,0,0,0-1.51-1,4.74,4.74,0,0,0-1.95-.39,5,5,0,0,0-2.16.43,4.34,4.34,0,0,0-1.53,1.16,5,5,0,0,0-.91,1.74,7.25,7.25,0,0,0-.31,2.13,6.89,6.89,0,0,0,.63,3.12,4.53,4.53,0,0,0,2.48,2l2,0.84a6.7,6.7,0,0,1,.85.42,1.44,1.44,0,0,1,.5.5,2,2,0,0,1,.24.81,12.11,12.11,0,0,1,.06,1.29q0,0.67-.06,1.23a2.4,2.4,0,0,1-.27.94,1.45,1.45,0,0,1-.62.59,2.51,2.51,0,0,1-1.13.21,1.8,1.8,0,0,1-1.55-.63,2.34,2.34,0,0,1-.46-1.41v-0.9h-2.86v1.06A4.69,4.69,0,0,0,323.91,30.81ZM361.26,32l4.09-19.94h-3L360,26H360L357.7,12.06h-3L358.74,32h2.52ZM137.46,84a4.14,4.14,0,0,0,.28-0.9,7.41,7.41,0,0,0,.11-0.94q0-.49,0-1.22a7.37,7.37,0,0,0-.24-1.9,4.66,4.66,0,0,0-.76-1.6,3.71,3.71,0,0,0-1.32-1.11,4.2,4.2,0,0,0-1.92-.41,4.07,4.07,0,0,0-1.68.35,4.34,4.34,0,0,0-1.36.94,4.45,4.45,0,0,0-.91,1.37,4.22,4.22,0,0,0-.34,1.68V81.8h2.86V80.18a1.29,1.29,0,0,1,1.4-1.43,1.34,1.34,0,0,1,.81.21,1.22,1.22,0,0,1,.41.52,2.29,2.29,0,0,1,.15.71q0,0.41,0,.77,0,0.81-.06,1.36a3.54,3.54,0,0,1-.45,1.27l-5.15,9.72V96h8.51V93.14h-5.15l4.2-8.09Q137.26,84.41,137.46,84ZM336.31,32h2.86V14.75h3.3V12.06H333v2.69h3.3V32ZM122.51,12.06L118.06,32h2.86l0.84-4.28h3.89L126.48,32h2.86l-4.45-19.94h-2.38Zm-0.25,13,1.4-7.22h0.06l1.4,7.22h-2.86Zm91.05,35,1.37-2.16L217.26,64h3.11l-4.09-8.43,3.39-5.77h-2.86L213.36,56h-0.06V44.06h-2.86V64h2.86V60Zm15.15-34L230,23.15,233.25,32h3l-4.62-12,3.89-8h-2.86l-4.17,9.1h-0.06v-9.1H225.6V32h2.86V26Zm-25.56,18H200v2.86h2.86V44.06Zm-1.4-20.94H205V32h2.86V12.06H205V20.6h-3.53V12.06h-2.86V32h2.86V23.12ZM200,64h2.86V49.8H200V64Zm13.47-51.94h-2.86V32h2.86V12.06ZM194.75,49.64a2.78,2.78,0,0,0-1.61.43,4.08,4.08,0,0,0-1.08,1.11H192V44.06h-2.86V64H192V54.45a2.82,2.82,0,0,1,.31-1.46,1.2,1.2,0,0,1,1.12-.5,1.26,1.26,0,0,1,1,.45,1.9,1.9,0,0,1,.36,1.23V64h2.86V53.11a4.52,4.52,0,0,0-.25-1.61,3,3,0,0,0-.67-1.08,2.47,2.47,0,0,0-1-.6A3.27,3.27,0,0,0,194.75,49.64Zm10.5,14.81a8,8,0,0,1-.08,1.29,1.89,1.89,0,0,1-.29.8,1.07,1.07,0,0,1-.56.41,2.85,2.85,0,0,1-.85.11v2.69a5.13,5.13,0,0,0,3.33-1.06,3.83,3.83,0,0,0,1.32-3.16V49.8h-2.86V64.45Zm2.86-20.38h-2.86v2.86h2.86V44.06ZM218,32.17a5.06,5.06,0,0,0,2-.39,4.58,4.58,0,0,0,1.53-1.06,4.68,4.68,0,0,0,1-1.55,5.17,5.17,0,0,0,.34-1.86V12.06h-2.86V26.9a3,3,0,0,1-.21,1.22,2.17,2.17,0,0,1-.5.73,1.6,1.6,0,0,1-.63.36,2.12,2.12,0,0,1-.59.1,1.83,1.83,0,0,1-.85-0.21,2.85,2.85,0,0,1-.71-0.52l-2.24,1.79a7.57,7.57,0,0,0,1.44,1.19A4,4,0,0,0,218,32.17Zm-56.1-1.5a5.56,5.56,0,0,0,1.36-4.13V17.22A5.3,5.3,0,0,0,162,13.42a4.89,4.89,0,0,0-3.72-1.36h-4.23V32h4A5.35,5.35,0,0,0,161.94,30.67Zm-5-15.92h1.32a2,2,0,0,1,1.74.64,3,3,0,0,1,.48,1.82v9.6a2.92,2.92,0,0,1-.5,1.89,2.12,2.12,0,0,1-1.71.6h-1.32V14.75ZM19.32,10.56L0.24,96H12.48l3.6-18.36H32.76L36.36,96H48.6L29.52,10.56H19.32ZM18.24,66.12l6-31h0.24l6,31H18.24ZM264.38,49.8V69.74h2.86v-7h0.06a3.45,3.45,0,0,0,1.13,1.08,3,3,0,0,0,1.5.38,3,3,0,0,0,1.61-.36,3.07,3.07,0,0,0,.94-0.92,2.81,2.81,0,0,0,.36-1.18,21.7,21.7,0,0,0,.08-2.27V54a12.51,12.51,0,0,0-.11-1.88,3.79,3.79,0,0,0-.36-1.18A2.6,2.6,0,0,0,270,49.64a2.67,2.67,0,0,0-1.62.42,7.09,7.09,0,0,0-1.09,1V49.8h-2.86ZM267.63,53a1.26,1.26,0,0,1,1-.49,1.17,1.17,0,0,1,1.06.53,2.58,2.58,0,0,1,.34,1.4v5.21a2.3,2.3,0,0,1-.29,1.18,1.17,1.17,0,0,1-1.11.5,1.34,1.34,0,0,1-1-.43,1.55,1.55,0,0,1-.41-1.11V54.26A2,2,0,0,1,267.63,53ZM151.23,50.92a2.83,2.83,0,0,0-.36,1.18,22,22,0,0,0-.08,2.27v5.4a12.34,12.34,0,0,0,.11,1.88,3.78,3.78,0,0,0,.36,1.18,2.6,2.6,0,0,0,2.49,1.34,3.41,3.41,0,0,0,.92-0.11,2.66,2.66,0,0,0,.7-0.31,2.89,2.89,0,0,0,.56-0.46l0.53-.57V64h2.86V44.06h-2.86v7h-0.06A3.46,3.46,0,0,0,155.28,50a3,3,0,0,0-1.5-.38,3,3,0,0,0-1.61.36A3.05,3.05,0,0,0,151.23,50.92Zm2.41,3.25a2.29,2.29,0,0,1,.29-1.18,1.17,1.17,0,0,1,1.11-.5,1.34,1.34,0,0,1,1,.43,1.56,1.56,0,0,1,.41,1.11v5.52a2,2,0,0,1-.39,1.27,1.26,1.26,0,0,1-1,.49,1.17,1.17,0,0,1-1.06-.53,2.59,2.59,0,0,1-.34-1.4V54.17ZM188.07,31a4.76,4.76,0,0,0,1.54.91,5,5,0,0,0,3.44,0,4.76,4.76,0,0,0,1.54-.91,4.47,4.47,0,0,0,1.11-1.51,5.06,5.06,0,0,0,.42-2.14V21H191v2.52h2.27V27.3a1.9,1.9,0,0,1-.57,1.53,2.13,2.13,0,0,1-2.72,0,1.9,1.9,0,0,1-.57-1.53V16.77a1.9,1.9,0,0,1,.57-1.53,2.13,2.13,0,0,1,2.72,0,1.9,1.9,0,0,1,.57,1.53v1h2.86v-1a5.09,5.09,0,0,0-.42-2.13,4.44,4.44,0,0,0-1.11-1.53,4.78,4.78,0,0,0-1.54-.91,5,5,0,0,0-3.44,0,4.78,4.78,0,0,0-1.54.91A4.44,4.44,0,0,0,187,14.64a5.1,5.1,0,0,0-.42,2.13V27.3a5.08,5.08,0,0,0,.42,2.14A4.47,4.47,0,0,0,188.07,31Zm-44,.22a4,4,0,0,0,1.51.77,6.39,6.39,0,0,0,1.65.22,4.22,4.22,0,0,0,1.78-.38,4.78,4.78,0,0,0,1.44-1,4.64,4.64,0,0,0,1-1.47,4.56,4.56,0,0,0,.35-1.76V26.32h-2.86v1a2.49,2.49,0,0,1-.17,1,1.62,1.62,0,0,1-.43.62,1.65,1.65,0,0,1-.59.32,2.06,2.06,0,0,1-.6.1,1.49,1.49,0,0,1-1.36-.59,2.64,2.64,0,0,1-.38-1.46V17.08a3.52,3.52,0,0,1,.35-1.67,1.45,1.45,0,0,1,1.41-.66,1.54,1.54,0,0,1,1.29.62,2.31,2.31,0,0,1,.48,1.46v1h2.86V16.66a5.18,5.18,0,0,0-.35-1.92,4.53,4.53,0,0,0-1-1.51,4.35,4.35,0,0,0-1.46-1,4.68,4.68,0,0,0-1.82-.35,4.94,4.94,0,0,0-1.89.35,4.43,4.43,0,0,0-1.47,1,4.29,4.29,0,0,0-1,1.46,4.86,4.86,0,0,0-.34,1.82v11a5.19,5.19,0,0,0,.43,2.27A4.14,4.14,0,0,0,144,31.17Zm102-2h-5.66V12.06h-2.86V32H246V29.14Zm-66.84-5.66h4.93V20.8h-4.93v-6h5.66V12.06h-8.51V32h2.86V23.49Zm-4.7,5.66h-5.66V23.29h4.93V20.6h-4.93V14.75h5.66V12.06H166V32h8.51V29.14Zm76.24-9.27h0.05l2.8,8.57H255l2.83-8.57h0.06V32h2.86V12.06H258l-3.64,10.56H254.3l-3.67-10.56h-2.74V32h2.86V19.88Zm38.67,70-1.76-1.23-1.54,2.1q-0.73-1.06-1.41-2.21t-1.22-2a13.06,13.06,0,0,0,2-2.34,4.68,4.68,0,0,0,.87-2.67,3.84,3.84,0,0,0-.25-1.39,3.36,3.36,0,0,0-.73-1.15,3.55,3.55,0,0,0-1.18-.78,4.16,4.16,0,0,0-1.62-.29,4.34,4.34,0,0,0-1.71.31,3.42,3.42,0,0,0-1.21.83,3.55,3.55,0,0,0-.73,1.23,4.47,4.47,0,0,0-.25,1.5,6,6,0,0,0,.49,2.39,12,12,0,0,0,1.25,2.2,11.24,11.24,0,0,0-2,2.3,5.25,5.25,0,0,0-.79,2.88,5.32,5.32,0,0,0,.32,1.89,4.35,4.35,0,0,0,.88,1.46,4,4,0,0,0,1.32.94,3.87,3.87,0,0,0,1.6.34,4.84,4.84,0,0,0,2.06-.42,6.11,6.11,0,0,0,1.75-1.26l1,1.51h2.86l-2.16-3.42Zm-7.79-9.17a1.24,1.24,0,0,1,1-.52,1.23,1.23,0,0,1,1,.45,1.52,1.52,0,0,1,.36,1,2.86,2.86,0,0,1-.17,1,4.26,4.26,0,0,1-.42.85,4.77,4.77,0,0,1-.56.71l-0.56.57a9.92,9.92,0,0,1-.79-1.5,3.63,3.63,0,0,1-.31-1.39A1.88,1.88,0,0,1,281.63,80.67Zm2,12.85a2.14,2.14,0,0,1-1.23.41,1.88,1.88,0,0,1-1.53-.74,2.73,2.73,0,0,1-.6-1.78,3.24,3.24,0,0,1,.43-1.67,6.85,6.85,0,0,1,1.08-1.39l2.74,4.37A4.1,4.1,0,0,1,283.59,93.52Zm15.29-15.89-2.74,1.68,0.11-3.25h-1.79l0.11,3.25-2.74-1.68L291,79.09l2.8,1.57L291,82.2l0.79,1.48L294.56,82l-0.11,3.25h1.79L296.13,82l2.74,1.68,0.79-1.48-2.8-1.54,2.8-1.57Zm-6.08-25v-3a4.36,4.36,0,0,0-2.07.45A8.65,8.65,0,0,0,289,51.32V49.8h-2.86V64H289V55.57a3.39,3.39,0,0,1,.28-1.46,2.8,2.8,0,0,1,.71-1,2.66,2.66,0,0,1,1-.52,3.41,3.41,0,0,1,1-.15A2.3,2.3,0,0,1,292.8,52.66ZM302,59.88a4.62,4.62,0,0,0-.6-2.32,4.07,4.07,0,0,0-2.2-1.68l-1.68-.67a1.81,1.81,0,0,1-1-.69,1.66,1.66,0,0,1-.2-0.77,1.5,1.5,0,0,1,.37-1,1.28,1.28,0,0,1,1-.43,1.51,1.51,0,0,1,1,.36,1.43,1.43,0,0,1,.46,1.09h2.69a4.38,4.38,0,0,0-.31-1.64,3.95,3.95,0,0,0-3.72-2.51,4.24,4.24,0,0,0-3,1.16,4,4,0,0,0-.91,1.32,4.11,4.11,0,0,0-.34,1.67,3.83,3.83,0,0,0,.77,2.42,4.67,4.67,0,0,0,2.12,1.5l1.37,0.5a2.44,2.44,0,0,1,1.12.73,1.66,1.66,0,0,1,.31,1,1.39,1.39,0,0,1-.49,1.13,1.69,1.69,0,0,1-1.11.41,1.24,1.24,0,0,1-1.13-.5,2.7,2.7,0,0,1-.4-1.09h-2.69a4.78,4.78,0,0,0,.39,1.86,4.1,4.1,0,0,0,.94,1.33,4,4,0,0,0,1.33.81,4.59,4.59,0,0,0,1.6.28,4.28,4.28,0,0,0,1.71-.34,4,4,0,0,0,1.34-.92,4.43,4.43,0,0,0,.88-1.36A4.3,4.3,0,0,0,302,59.88Zm2.56,21.72a20.38,20.38,0,0,0-1-2.9A17,17,0,0,0,302,76.06h-1a41.87,41.87,0,0,1,1.05,5.1,38.6,38.6,0,0,1,.38,5.49q0,3.08-.31,6.17a34.89,34.89,0,0,1-1.12,6h1a17.51,17.51,0,0,0,1.4-2.55,22.13,22.13,0,0,0,1.05-2.86,22.38,22.38,0,0,0,.66-3,19.4,19.4,0,0,0,0-5.8A24.15,24.15,0,0,0,304.52,81.61ZM279.77,63.79a3.46,3.46,0,0,0,1.13-1.08H281v7h2.86V49.8H281v1.29l-0.53-.57a2.91,2.91,0,0,0-.56-0.46,2.65,2.65,0,0,0-.7-0.31,3.41,3.41,0,0,0-.92-0.11A2.6,2.6,0,0,0,275.75,51a3.79,3.79,0,0,0-.36,1.18,12.21,12.21,0,0,0-.11,1.88v5.4a22.27,22.27,0,0,0,.08,2.27,2.81,2.81,0,0,0,.37,1.18,3,3,0,0,0,.94.92,3,3,0,0,0,1.61.36A3,3,0,0,0,279.77,63.79Zm-1.64-9.37a2.58,2.58,0,0,1,.34-1.4,1.16,1.16,0,0,1,1.06-.53,1.26,1.26,0,0,1,1,.49,2,2,0,0,1,.39,1.27v5.52a1.56,1.56,0,0,1-.41,1.11,1.34,1.34,0,0,1-1,.43,1.17,1.17,0,0,1-1.11-.5,2.3,2.3,0,0,1-.29-1.18V54.42Zm-16,6.41a10.58,10.58,0,0,0,.11-1.6V54.56a10.62,10.62,0,0,0-.11-1.6,3.77,3.77,0,0,0-1.87-2.77,4.88,4.88,0,0,0-4.54,0A3.77,3.77,0,0,0,253.88,53a10.35,10.35,0,0,0-.11,1.6v4.68a10.32,10.32,0,0,0,.11,1.6,3.77,3.77,0,0,0,1.88,2.77,4.88,4.88,0,0,0,4.54,0A3.77,3.77,0,0,0,262.17,60.84Zm-2.74-1.15a1.73,1.73,0,0,1-.38,1.22,1.49,1.49,0,0,1-2,0,1.73,1.73,0,0,1-.38-1.22V54.12A1.73,1.73,0,0,1,257,52.9a1.49,1.49,0,0,1,2,0,1.73,1.73,0,0,1,.38,1.22v5.57ZM261.5,96h2.86V93.14H261.5V96Zm0.73-4.93h1.4l1.09-15h-3.58Zm44.44-45.58H303.8V49.8h-1.43V52h1.43v8.62a4,4,0,0,0,.18,1.16,3.07,3.07,0,0,0,.57,1.08,3,3,0,0,0,1.05.78,3.86,3.86,0,0,0,1.64.31h1.18V61.31c-0.32,0-.59,0-0.81,0a1.13,1.13,0,0,1-.54-0.17,0.79,0.79,0,0,1-.31-0.42,2.44,2.44,0,0,1-.1-0.78V52h1.76V49.8h-1.76V45.49Zm-31.4,32a4.69,4.69,0,0,0-3-1.58V73.8h-1.43v2.1a4.12,4.12,0,0,0-3.05,1.81,6.48,6.48,0,0,0-1,3.65,6.89,6.89,0,0,0,.63,3.12,4.53,4.53,0,0,0,2.48,2l1,0.39v6.44a1.49,1.49,0,0,1-1-.73,2.46,2.46,0,0,1-.31-1.2v-1h-2.86v1.12a4.82,4.82,0,0,0,.31,1.74,4.44,4.44,0,0,0,.87,1.43,4.57,4.57,0,0,0,1.33,1,5,5,0,0,0,1.69.5v2.35h1.43V96.17a4.67,4.67,0,0,0,2-.59,3.83,3.83,0,0,0,1.29-1.25,5.3,5.3,0,0,0,.7-1.79,11,11,0,0,0,.21-2.23,15.16,15.16,0,0,0-.11-1.95,4.84,4.84,0,0,0-.43-1.51,3.47,3.47,0,0,0-.91-1.15,5.44,5.44,0,0,0-1.54-.85l-1.18-.48V78.75a1.58,1.58,0,0,1,1,.87,3.7,3.7,0,0,1,.29,1.54V81.8h2.86V80.4a4.23,4.23,0,0,0-.29-1.54A4.71,4.71,0,0,0,275.26,77.48Zm-4.47,6.29a1.85,1.85,0,0,1-1-.91,4.54,4.54,0,0,1-.2-1.53,4.91,4.91,0,0,1,.24-1.6,1.55,1.55,0,0,1,1-1v5Zm2.1,4.1a1.57,1.57,0,0,1,.4.52,2.2,2.2,0,0,1,.2.78q0,0.48,0,1.18a7.71,7.71,0,0,1-.21,2,1.39,1.39,0,0,1-1.11,1V87.49A2.51,2.51,0,0,1,272.89,87.87ZM377.47,25h-0.06l-2.32-13h-2.18l-2.24,12.66h-0.05l-1.43-12.66h-3l3,19.94h2.69L374,19.06H374L376.21,32h2.69l3-19.94h-3Zm-119,53.91a3.68,3.68,0,0,0-.29-0.71,7.14,7.14,0,0,0-.46-0.73,3.85,3.85,0,0,0-1.41-1.18,4.42,4.42,0,0,0-3.57-.08,4.42,4.42,0,0,0-1.37.91,4.22,4.22,0,0,0-1.26,3V81.8H253V80.18a1.26,1.26,0,0,1,.47-1.06,1.6,1.6,0,0,1,1-.36,1.33,1.33,0,0,1,1,.42,1.4,1.4,0,0,1,.41,1v1.48a5.07,5.07,0,0,1-.07.84,2.17,2.17,0,0,1-.29.78l-1.79,2.91a6.43,6.43,0,0,0-.5,1.09,3.53,3.53,0,0,0-.2,1.18v2.6h2.86V88.83a2,2,0,0,1,.14-0.74,5,5,0,0,1,.34-0.69l1.93-3.3a2.14,2.14,0,0,0,.22-0.49,4.45,4.45,0,0,0,.14-0.63,7.13,7.13,0,0,0,.07-0.85q0-.49,0-1.22c0-.43,0-0.8,0-1.12A4.49,4.49,0,0,0,258.47,78.93ZM364.09,52.32h4.26l-4.62,9.41V64h7.87V61.31H367l4.62-9.24V49.8h-7.5v2.52ZM393,12.06h-3L387.75,18l-2.16-5.91h-3l3.72,9.49-4,10.44h3l2.46-6.72L390.24,32h3l-4.12-10.44ZM148,84.28a3.39,3.39,0,0,0,.22-1.08q0-.64,0-1.68a15.53,15.53,0,0,0-.07-1.61,7.17,7.17,0,0,0-.2-1.12,3.23,3.23,0,0,0-.34-0.81,5.59,5.59,0,0,0-.49-0.69,4.49,4.49,0,0,0-1.16-.94,3.73,3.73,0,0,0-1.95-.46,4.21,4.21,0,0,0-1.68.34,4.59,4.59,0,0,0-1.37.9,4,4,0,0,0-.92,1.34,4.15,4.15,0,0,0-.34,1.65v1.65h2.86V80.15a1.65,1.65,0,0,1,.32-0.92,1.21,1.21,0,0,1,1.08-.48,1.36,1.36,0,0,1,1,.39,1.39,1.39,0,0,1,.38,1v2.58a1.6,1.6,0,0,1-.49,1.43,3.61,3.61,0,0,1-1.78.31V87a7.36,7.36,0,0,1,1.13.07,1.4,1.4,0,0,1,.69.28,1.1,1.1,0,0,1,.35.57,3.76,3.76,0,0,1,.1,1v2.86a1.71,1.71,0,0,1-.38,1.16,1.42,1.42,0,0,1-2,0,1.62,1.62,0,0,1-.38-1.11V90.29h-2.86v1.62a4.4,4.4,0,0,0,.41,2,3.84,3.84,0,0,0,2.39,2,5,5,0,0,0,1.43.22,4,4,0,0,0,2.16-.52,4.47,4.47,0,0,0,1.37-1.3,4.64,4.64,0,0,0,.36-0.64,3.33,3.33,0,0,0,.22-0.74,9,9,0,0,0,.13-1.08q0-.64,0-1.62t0-1.75a4.2,4.2,0,0,0-.2-1.18,2.29,2.29,0,0,0-.52-0.85,5.44,5.44,0,0,0-1-.78,6.49,6.49,0,0,0,1-.67A2,2,0,0,0,148,84.28ZM398.67,20h-0.06l-2.29-7.92h-3l3.92,11.51V32h2.86V23.57L404,12.06h-3ZM413,12.06h-8.2v2.69h5.1l-5.38,14.73V32H413V29.31h-5.49l5.49-15V12.06ZM358.4,58.65h-0.06l-2-8.85h-5.88l-1.76,4-1.76-4H341l-1.71,8.82h-0.05l-1.51-8.82h-2.24l-1.6,8.82h-0.05l-1.74-8.82h-3L332.47,64H335l1.57-8.43h0.06L338.19,64h2.52L344,50l3.26,6.79L343.79,64h3l1.93-4.34L350.67,64h3l-3.55-7.25L353.42,50l3.83,13.34q-0.25,1.23-.45,2a4.2,4.2,0,0,1-.43,1.12,1.14,1.14,0,0,1-.55.49,2.14,2.14,0,0,1-.73.11h-0.64v2.69h0.78a5,5,0,0,0,1.25-.15,3.39,3.39,0,0,0,1.13-.53,3.64,3.64,0,0,0,.94-1,5,5,0,0,0,.63-1.58l4.09-16.66h-2.94Zm-43.2.7a2.82,2.82,0,0,1-.31,1.46,1.2,1.2,0,0,1-1.12.5,1.26,1.26,0,0,1-1-.45,1.89,1.89,0,0,1-.37-1.23V49.8h-2.86V60.7a4.52,4.52,0,0,0,.25,1.61,3,3,0,0,0,.67,1.08,2.46,2.46,0,0,0,1,.6,3.28,3.28,0,0,0,1.06.18,2.77,2.77,0,0,0,1.61-.43,4,4,0,0,0,1.08-1.11h0.06V64h2.86V49.8H315.2v9.55Zm3.11-36.45a4.21,4.21,0,0,0,1.92-2,7.37,7.37,0,0,0,.55-3q0-5.85-5-5.85h-4.59V32H314V23.49h1.71L318.37,32h3Zm-0.47-3.71a2.58,2.58,0,0,1-.32,1,1.55,1.55,0,0,1-.69.6,2.88,2.88,0,0,1-1.21.21H314V14.75h1.48a3.37,3.37,0,0,1,1.26.2,1.58,1.58,0,0,1,.74.6,2.41,2.41,0,0,1,.35,1A10.57,10.57,0,0,1,317.83,19.19Zm6.35,39.69h-0.06l-1.9-9.07h-3L322.9,64h2.52l3.7-14.2h-3Zm-16-29.54a4.63,4.63,0,0,0,.42-2V16.77a5.07,5.07,0,0,0-.42-2.13,4.44,4.44,0,0,0-1.11-1.53,4.77,4.77,0,0,0-1.54-.91,5,5,0,0,0-3.44,0,4.78,4.78,0,0,0-1.54.91,4.44,4.44,0,0,0-1.11,1.53,5.1,5.1,0,0,0-.42,2.13V27.3a5.08,5.08,0,0,0,.42,2.14A4.47,4.47,0,0,0,300.57,31a4.76,4.76,0,0,0,1.54.91,5,5,0,0,0,3.3.06,4.3,4.3,0,0,0,1.41-.78l1.68,1.37L310,30.77Zm-2.44-2-1.15-.92-1.46,1.74,1.29,1a1.51,1.51,0,0,1-.62.11,2,2,0,0,1-1.36-.49,1.9,1.9,0,0,1-.57-1.53V16.77a1.9,1.9,0,0,1,.57-1.53,2.12,2.12,0,0,1,2.71,0,1.9,1.9,0,0,1,.57,1.53V27.35ZM184.44,69.53a4,4,0,0,0,1.34-1,3.73,3.73,0,0,0,.77-1.34,4.77,4.77,0,0,0,.24-1.47V49.8h-2.86v1.29l-0.53-.57a2.94,2.94,0,0,0-.56-0.46,2.7,2.7,0,0,0-.69-0.31,3.25,3.25,0,0,0-.91-0.11,3,3,0,0,0-1.61.36,3.05,3.05,0,0,0-.94.92,2.83,2.83,0,0,0-.36,1.18,22,22,0,0,0-.08,2.27v5.4a12.34,12.34,0,0,0,.11,1.88,3.78,3.78,0,0,0,.36,1.18,2.6,2.6,0,0,0,2.49,1.34,3,3,0,0,0,1.53-.38,3.45,3.45,0,0,0,1.13-1.08h0.06v2.8a1.87,1.87,0,0,1-.31,1.11,1.15,1.15,0,0,1-1,.43,1.37,1.37,0,0,1-1.11-.45,1.59,1.59,0,0,1-.41-1h-2.86a5.7,5.7,0,0,0,.57,2,4.2,4.2,0,0,0,1,1.3,3.77,3.77,0,0,0,1.3.7,4.68,4.68,0,0,0,1.34.21A4.55,4.55,0,0,0,184.44,69.53Zm-0.91-8.65a1.34,1.34,0,0,1-1,.43,1.17,1.17,0,0,1-1.11-.5,2.29,2.29,0,0,1-.29-1.18V54.42a2.58,2.58,0,0,1,.34-1.4,1.16,1.16,0,0,1,1.06-.53,1.26,1.26,0,0,1,1,.49,2,2,0,0,1,.39,1.27v5.52A1.55,1.55,0,0,1,183.53,60.88ZM181.45,81H184v-2.3h3.14l-5,17.25h3L190,78.92V76.06h-8.51v5Zm-2,5.91a4.13,4.13,0,0,0-.18-0.81,3.19,3.19,0,0,0-.31-0.62,2.83,2.83,0,0,0-1-.92,2.8,2.8,0,0,0-1.4-.36,3.42,3.42,0,0,0-.77.07,1.12,1.12,0,0,0-.43.18l-0.06-.06,3.25-8.37h-3.19l-3.75,10q-0.14.39-.25,0.74a4.39,4.39,0,0,0-.17.78c0,0.29-.07.63-0.08,1s0,0.91,0,1.53,0,1.19,0,1.61a9.19,9.19,0,0,0,.1,1.06,3.36,3.36,0,0,0,.2.74,3.65,3.65,0,0,0,.35.64,4.07,4.07,0,0,0,1.48,1.41,4.21,4.21,0,0,0,2.1.52,4.4,4.4,0,0,0,2.11-.5,3.87,3.87,0,0,0,1.5-1.43,5.2,5.2,0,0,0,.32-0.64,3.41,3.41,0,0,0,.2-0.74,9.42,9.42,0,0,0,.1-1.06q0-.63,0-1.61,0-1.17,0-1.95T179.42,87Zm-2.73,4.93a1.35,1.35,0,0,1-.42,1,1.42,1.42,0,0,1-2,0,1.35,1.35,0,0,1-.42-1v-3.7a1.35,1.35,0,0,1,.42-1,1.42,1.42,0,0,1,2,0,1.35,1.35,0,0,1,.42,1v3.7Zm34-12.67a3,3,0,0,0-.21-0.74,7.1,7.1,0,0,0-.34-0.64,4.08,4.08,0,0,0-1.48-1.41,4.22,4.22,0,0,0-2.1-.52,4.39,4.39,0,0,0-2.11.5,3.86,3.86,0,0,0-1.5,1.43,5.07,5.07,0,0,0-.32.64,3.36,3.36,0,0,0-.2.74,9.21,9.21,0,0,0-.1,1.06q0,0.63,0,1.61,0,1.17,0,1.95a12.6,12.6,0,0,0,.1,1.27,4.41,4.41,0,0,0,.18.83,2.42,2.42,0,0,0,.31.6,2.82,2.82,0,0,0,1,.92,2.79,2.79,0,0,0,1.4.36,3.43,3.43,0,0,0,.77-0.07,1.1,1.1,0,0,0,.43-0.18l0.06,0.06L203.31,96h3.19l3.75-10q0.14-.39.24-0.74a7.13,7.13,0,0,0,.17-0.78,9.27,9.27,0,0,0,.1-1q0-.6,0-1.53t0-1.61A9.44,9.44,0,0,0,210.66,79.21Zm-2.73,4.66a1.35,1.35,0,0,1-.42,1,1.42,1.42,0,0,1-2,0,1.35,1.35,0,0,1-.42-1v-3.7a1.35,1.35,0,0,1,.42-1,1.42,1.42,0,0,1,2,0,1.35,1.35,0,0,1,.42,1v3.7ZM253,96h2.86V93.14H253V96ZM199.74,84.73a2.52,2.52,0,0,0,.43-0.85,4.59,4.59,0,0,0,.17-1.09q0-.62,0-1.51t-0.06-1.39a5.32,5.32,0,0,0-.18-1,3.5,3.5,0,0,0-.32-0.76,6.62,6.62,0,0,0-.48-0.7,3.87,3.87,0,0,0-1.4-1.13,4.29,4.29,0,0,0-3.64,0,3.87,3.87,0,0,0-1.4,1.13,6.47,6.47,0,0,0-.48.7,3.45,3.45,0,0,0-.32.76,5.24,5.24,0,0,0-.18,1q-0.06.57-.06,1.39t0,1.51a4.55,4.55,0,0,0,.17,1.09,2.52,2.52,0,0,0,.43.85,5.37,5.37,0,0,0,.8.8,4.26,4.26,0,0,0-.8.78,2.63,2.63,0,0,0-.43.92,6,6,0,0,0-.17,1.3q0,0.77,0,1.89,0,0.92,0,1.53a9.4,9.4,0,0,0,.13,1,2.84,2.84,0,0,0,.24.76,5.6,5.6,0,0,0,.38.64A4,4,0,0,0,194,95.65a4.22,4.22,0,0,0,5.6-1.25,5.9,5.9,0,0,0,.38-0.64,2.87,2.87,0,0,0,.24-0.76,9.4,9.4,0,0,0,.13-1q0-.6,0-1.53,0-1.12,0-1.89a6,6,0,0,0-.17-1.3,2.63,2.63,0,0,0-.43-0.92,4.26,4.26,0,0,0-.8-0.78A5.37,5.37,0,0,0,199.74,84.73Zm-2.23,7.18a1.33,1.33,0,0,1-.42,1,1.39,1.39,0,0,1-2,0,1.33,1.33,0,0,1-.42-1V88a1.33,1.33,0,0,1,.42-1,1.39,1.39,0,0,1,2,0,1.33,1.33,0,0,1,.42,1v3.92Zm0-8.85a1.33,1.33,0,0,1-.42,1,1.39,1.39,0,0,1-2,0,1.33,1.33,0,0,1-.42-1V80.15a1.33,1.33,0,0,1,.42-1,1.39,1.39,0,0,1,2,0,1.33,1.33,0,0,1,.42,1v2.91ZM172.4,64h2.86V52h2.13V49.8h-2.13V47.73a0.81,0.81,0,0,1,.84-1h1.29V44.06h-1.32a4.44,4.44,0,0,0-1.36.21,3.23,3.23,0,0,0-1.18.67,3.29,3.29,0,0,0-.83,1.18,4.42,4.42,0,0,0-.31,1.75V49.8H171V52h1.4V64ZM158,84.66h-2.86v5.68h-2.83l4.28-14.28h-3L149.5,90.34V93h5.68v3H158V93h1.37V90.34H158V84.66ZM143.83,52.9a1.49,1.49,0,0,1,2,0,1.82,1.82,0,0,1,.38,1.27h2.86a5.47,5.47,0,0,0-.29-1.82,4.15,4.15,0,0,0-.84-1.44,3.74,3.74,0,0,0-1.34-.94,4.54,4.54,0,0,0-1.78-.34,4.4,4.4,0,0,0-2.27.56A3.77,3.77,0,0,0,140.71,53a10.48,10.48,0,0,0-.11,1.6v4.68a10.45,10.45,0,0,0,.11,1.6,3.77,3.77,0,0,0,1.88,2.77,4.84,4.84,0,0,0,4,.22,4,4,0,0,0,1.34-.92,3.71,3.71,0,0,0,.85-1.34,4.74,4.74,0,0,0,.29-1.68h-2.86a2.56,2.56,0,0,1-.32,1,1.12,1.12,0,0,1-1.08.48,1.41,1.41,0,0,1-1-.36,1.37,1.37,0,0,1-.38-1v-5.8A1.73,1.73,0,0,1,143.83,52.9ZM161,86.82h2.52l0.15-.31a1.41,1.41,0,0,1,.27-0.36,1.6,1.6,0,0,1,.42-0.29,1.37,1.37,0,0,1,.62-0.13,1.24,1.24,0,0,1,1,.42,1.45,1.45,0,0,1,.38,1v4.68a1.58,1.58,0,0,1-.35,1.09,1.26,1.26,0,0,1-1,.39,1.42,1.42,0,0,1-1-.41,1.53,1.53,0,0,1-.41-1.13V91h-2.86v0.84a4.35,4.35,0,0,0,.35,1.79A4.18,4.18,0,0,0,161.9,95a4,4,0,0,0,1.36.85,4.56,4.56,0,0,0,3.22,0,4,4,0,0,0,1.36-.85,4.18,4.18,0,0,0,.94-1.34,4.35,4.35,0,0,0,.35-1.79V86.73a3.54,3.54,0,0,0-.91-2.63,3.23,3.23,0,0,0-2.37-.9,3.42,3.42,0,0,0-1.37.27,3.2,3.2,0,0,0-1,.66V78.75h5.66V76.06H161V86.82Zm7.85-35.91a3.74,3.74,0,0,0-1.34-.94,4.54,4.54,0,0,0-1.78-.34,4.39,4.39,0,0,0-2.27.56A3.77,3.77,0,0,0,161.54,53a10.48,10.48,0,0,0-.11,1.6v4.68a10.45,10.45,0,0,0,.11,1.6,3.77,3.77,0,0,0,1.88,2.77,4.84,4.84,0,0,0,4,.22,4,4,0,0,0,1.34-.92,3.71,3.71,0,0,0,.85-1.34,4.74,4.74,0,0,0,.29-1.68h-2.86a2.56,2.56,0,0,1-.32,1,1.12,1.12,0,0,1-1.08.48,1.41,1.41,0,0,1-1-.36,1.37,1.37,0,0,1-.38-1V58h5.66V54.06a5.06,5.06,0,0,0-.29-1.74A4.2,4.2,0,0,0,168.8,50.91Zm-1.72,4.83h-2.8V54.12a1.73,1.73,0,0,1,.38-1.22,1.49,1.49,0,0,1,2,0,1.73,1.73,0,0,1,.38,1.22v1.62ZM219.92,77a4,4,0,0,0-1.36-.85,4.56,4.56,0,0,0-3.22,0A4,4,0,0,0,214,77a4.2,4.2,0,0,0-.94,1.34,4.35,4.35,0,0,0-.35,1.79v11.7a4.35,4.35,0,0,0,.35,1.79A4.18,4.18,0,0,0,214,95a4,4,0,0,0,1.36.85,4.56,4.56,0,0,0,3.22,0,4,4,0,0,0,1.36-.85,4.18,4.18,0,0,0,.94-1.34,4.35,4.35,0,0,0,.35-1.79V80.18a4.35,4.35,0,0,0-.35-1.79A4.2,4.2,0,0,0,219.92,77Zm-1.57,14.84a1.41,1.41,0,0,1-.39,1,1.45,1.45,0,0,1-2,0,1.41,1.41,0,0,1-.39-1V80.18a1.41,1.41,0,0,1,.39-1,1.45,1.45,0,0,1,2,0,1.41,1.41,0,0,1,.39,1v11.7ZM245.17,96H248V93.14h-2.86V96ZM240,98.07L242.82,96V93.14H240v4.93Zm0-8.43h2.86V86.79H240v2.86Zm5.21,0H248V86.79h-2.86v2.86ZM251.67,64V53.11a4.52,4.52,0,0,0-.25-1.61,3,3,0,0,0-.67-1.08,2.47,2.47,0,0,0-1-.6,3.28,3.28,0,0,0-1.06-.18,2.77,2.77,0,0,0-1.61.43A4.08,4.08,0,0,0,246,51.18H246V49.8h-2.86V64H246V54.45a2.82,2.82,0,0,1,.31-1.46,1.2,1.2,0,0,1,1.12-.5,1.26,1.26,0,0,1,1,.45,1.9,1.9,0,0,1,.36,1.23V64h2.86ZM229.55,98.07L232.41,96V93.14h-2.86v4.93Zm-1.71-22h-1a17.44,17.44,0,0,0-1.4,2.55,22.36,22.36,0,0,0-1.71,5.87,19.48,19.48,0,0,0,0,5.8,23.76,23.76,0,0,0,.62,3,20.77,20.77,0,0,0,1,2.91,15.52,15.52,0,0,0,1.47,2.63h1a42.21,42.21,0,0,1-1-5.1,38.59,38.59,0,0,1-.38-5.49q0-3.08.31-6.17A34.7,34.7,0,0,1,227.84,76.06Zm-2.41-11.9V61.48a1.86,1.86,0,0,1-1.11-.38A1.57,1.57,0,0,1,224,60V44.06h-2.86V60.19a5.84,5.84,0,0,0,.29,2,2.74,2.74,0,0,0,.84,1.22,3,3,0,0,0,1.34.59A9.5,9.5,0,0,0,225.43,64.17ZM240.78,64V53.11a4.1,4.1,0,0,0-.28-1.61,3.12,3.12,0,0,0-.73-1.08,2.67,2.67,0,0,0-1-.6,3.52,3.52,0,0,0-1.09-.18,3.25,3.25,0,0,0-1.79.42,6,6,0,0,0-1.18,1,4.61,4.61,0,0,0-1-1,2.56,2.56,0,0,0-1.54-.45,2.77,2.77,0,0,0-1.61.43,4.08,4.08,0,0,0-1.08,1.11h-0.06V49.8h-2.86V64h2.86V54.45a2.82,2.82,0,0,1,.31-1.46,1.2,1.2,0,0,1,1.12-.5,1.26,1.26,0,0,1,1,.45,1.9,1.9,0,0,1,.36,1.23V64h2.86V54.45A2.82,2.82,0,0,1,235.4,53a1.2,1.2,0,0,1,1.12-.5,1.26,1.26,0,0,1,1,.45,1.9,1.9,0,0,1,.36,1.23V64h2.86Zm-6,32h2.86V93.14h-2.86V96Z"/></svg>