<svg id="helvetica-neue-bold" data-name="helvetica-neue-bold" xmlns="http://www.w3.org/2000/svg" viewBox="0 0 456 84"><path d="M168.51,38.9a4.43,4.43,0,0,0-2.07-.46,4.82,4.82,0,0,0-1.94.38A4.5,4.5,0,0,0,162,41.41a5.41,5.41,0,0,0-.34,1.94,5.65,5.65,0,0,0,.33,2,4.49,4.49,0,0,0,.94,1.55,4.13,4.13,0,0,0,1.49,1,5.31,5.31,0,0,0,2,.35,4.87,4.87,0,0,0,2.7-.72,4.27,4.27,0,0,0,1.66-2.39h-2.25a1.61,1.61,0,0,1-.68.82,2.62,2.62,0,0,1-3-.17,2.58,2.58,0,0,1-.63-1.8H171a6.58,6.58,0,0,0-.18-2.07,5.09,5.09,0,0,0-.82-1.76A4.14,4.14,0,0,0,168.51,38.9Zm-4.27,3.45a2.9,2.9,0,0,1,.12-0.61,1.87,1.87,0,0,1,.34-0.65,1.93,1.93,0,0,1,.65-0.51,2.22,2.22,0,0,1,1-.21,1.79,1.79,0,0,1,1.39.5,3,3,0,0,1,.64,1.48h-4.16ZM102.76,62.23V39.36A10.57,10.57,0,0,0,101,32.94a12.22,12.22,0,0,0-4.59-3.78,20.59,20.59,0,0,0-6.21-1.83,49.44,49.44,0,0,0-6.71-.47,37,37,0,0,0-7.27.72A20.76,20.76,0,0,0,69.7,30a14.47,14.47,0,0,0-4.76,4.5,14,14,0,0,0-2.12,7.05H74.88q0.34-3.57,2.38-5.1a9.16,9.16,0,0,1,5.61-1.53,20.31,20.31,0,0,1,3,.21,6.69,6.69,0,0,1,2.46.85,4.7,4.7,0,0,1,1.7,1.79,6.41,6.41,0,0,1,.64,3.1,3.27,3.27,0,0,1-1.1,2.85,8.15,8.15,0,0,1-3.23,1.49,32.37,32.37,0,0,1-4.67.77q-2.64.25-5.36,0.68a51.33,51.33,0,0,0-5.4,1.15A15.25,15.25,0,0,0,66.17,50a11,11,0,0,0-3.4,3.87A12.8,12.8,0,0,0,61.45,60a13.8,13.8,0,0,0,1.15,5.87A11.08,11.08,0,0,0,65.79,70a13.42,13.42,0,0,0,4.76,2.38,21.59,21.59,0,0,0,5.86.76,27.31,27.31,0,0,0,8-1.19,15.72,15.72,0,0,0,6.8-4.17,17.72,17.72,0,0,0,.3,2.17A16.93,16.93,0,0,0,92.05,72h12.24a10.27,10.27,0,0,1-1.19-4.08A45.75,45.75,0,0,1,102.76,62.23ZM90.69,55a23.09,23.09,0,0,1-.21,2.72,9.1,9.1,0,0,1-1.15,3.36,8,8,0,0,1-2.89,2.85,10.66,10.66,0,0,1-5.53,1.19,15.19,15.19,0,0,1-2.8-.26A6.79,6.79,0,0,1,75.73,64a4.56,4.56,0,0,1-1.62-1.74,5.67,5.67,0,0,1-.59-2.72,5.88,5.88,0,0,1,.59-2.8,5.47,5.47,0,0,1,1.57-1.83A8,8,0,0,1,78,53.73,21.75,21.75,0,0,1,80.66,53q1.44-.25,2.89-0.42t2.76-.43a19.6,19.6,0,0,0,2.47-.64,5.4,5.4,0,0,0,1.91-1.06V55Zm75.51-31.5A5.1,5.1,0,0,0,168,22.15a5.7,5.7,0,0,0,1.09-2.05,8.9,8.9,0,0,0,.36-2.59,8,8,0,0,0-.44-2.79,5.49,5.49,0,0,0-1.22-2,5,5,0,0,0-1.85-1.19,6.62,6.62,0,0,0-2.31-.4h-5.54V24h5.54A6.15,6.15,0,0,0,166.2,23.51Zm-5.28-1.88v-8.1h2a4.56,4.56,0,0,1,1.75.3,2.76,2.76,0,0,1,1.14.85,3.52,3.52,0,0,1,.62,1.34,7.5,7.5,0,0,1,.19,1.75,5.27,5.27,0,0,1-.27,1.8,3.31,3.31,0,0,1-.72,1.2,2.6,2.6,0,0,1-1,.66,3.64,3.64,0,0,1-1.19.2h-2.52ZM23,11.31L0,72H13.43l4.76-13.52h22.7L45.47,72H59.33L36.63,11.31H23ZM21.67,48.54l7.91-22.27h0.17L37.4,48.54H21.67ZM129.81,35.15V48h2.43V46.81h0a2.33,2.33,0,0,0,1.22,1.1,4.91,4.91,0,0,0,1.84.32A3.55,3.55,0,0,0,138,47.06a4.51,4.51,0,0,0,.89-1.52,7.28,7.28,0,0,0,0-4.41,4.52,4.52,0,0,0-.89-1.52,3.55,3.55,0,0,0-2.62-1.17,4.3,4.3,0,0,0-1.67.33,2.73,2.73,0,0,0-1.27,1.05h0V35.15h-2.56Zm2.59,7.07a3,3,0,0,1,.4-1,2.05,2.05,0,0,1,.68-0.66,2.09,2.09,0,0,1,2,0,2.09,2.09,0,0,1,.68.66,3,3,0,0,1,.4,1,5,5,0,0,1,.13,1.13,4.9,4.9,0,0,1-.13,1.12,3,3,0,0,1-.4,1,2.08,2.08,0,0,1-.68.66,2.08,2.08,0,0,1-2,0,2,2,0,0,1-.68-0.66,3,3,0,0,1-.4-1,4.84,4.84,0,0,1-.13-1.12A4.93,4.93,0,0,1,132.41,42.22ZM140,23.78a4.52,4.52,0,0,0,1.46-.67,3.28,3.28,0,0,0,1-1.16,3.93,3.93,0,0,0-.21-3.74,3.09,3.09,0,0,0-1.77-1.2,3.2,3.2,0,0,0,1.3-1.06,2.82,2.82,0,0,0,.44-1.62,3.45,3.45,0,0,0-.3-1.51,2.46,2.46,0,0,0-.84-1,3.62,3.62,0,0,0-1.3-.53,8,8,0,0,0-1.67-.16h-6V24h6.23A6.6,6.6,0,0,0,140,23.78Zm-5.08-10.44h2.65a4.13,4.13,0,0,1,.73.06,1.83,1.83,0,0,1,.62.22,1.21,1.21,0,0,1,.43.45,1.5,1.5,0,0,1,.16.74A1.36,1.36,0,0,1,139,16a2,2,0,0,1-1.24.36h-2.86v-3Zm0,8.46V18.28H138a2.38,2.38,0,0,1,1.48.42,1.66,1.66,0,0,1,.56,1.41,1.76,1.76,0,0,1-.17.83,1.36,1.36,0,0,1-.46.51,1.94,1.94,0,0,1-.67.27,3.79,3.79,0,0,1-.79.08h-3Zm11,0.56a5.68,5.68,0,0,0,2,1.41,6.58,6.58,0,0,0,2.66.51,6.32,6.32,0,0,0,2.18-.36,5.06,5.06,0,0,0,1.73-1,5.21,5.21,0,0,0,1.19-1.66,6.54,6.54,0,0,0,.56-2.18h-2.74a3.67,3.67,0,0,1-.89,2.09,2.61,2.61,0,0,1-2,.79,3.3,3.3,0,0,1-1.62-.37,3.08,3.08,0,0,1-1.08-1,4.25,4.25,0,0,1-.6-1.38,6.55,6.55,0,0,1-.19-1.58,7,7,0,0,1,.19-1.64,4.33,4.33,0,0,1,.6-1.41,3.06,3.06,0,0,1,1.08-1,3.31,3.31,0,0,1,1.62-.37,3,3,0,0,1,1.85.65,2.86,2.86,0,0,1,.63.71,2.3,2.3,0,0,1,.32.89h2.74a5.18,5.18,0,0,0-.61-2A4.81,4.81,0,0,0,154.21,12a5.45,5.45,0,0,0-1.69-.89,6.89,6.89,0,0,0-4.66.22,5.68,5.68,0,0,0-2,1.44A6.42,6.42,0,0,0,144.63,15a8,8,0,0,0-.43,2.67,7.77,7.77,0,0,0,.43,2.62A6.25,6.25,0,0,0,145.87,22.36Zm7.2,16.49a3.85,3.85,0,0,0-1.29,1.07,4.69,4.69,0,0,0-.77,1.54,6.28,6.28,0,0,0-.26,1.81,6.69,6.69,0,0,0,.26,1.87,5,5,0,0,0,.77,1.59,3.69,3.69,0,0,0,1.3,1.1,4,4,0,0,0,1.84.4,3.91,3.91,0,0,0,1.65-.33,2.64,2.64,0,0,0,1.18-1.09h0V48h2.43V35.15h-2.56v4.68h0a2.74,2.74,0,0,0-1.18-1,3.66,3.66,0,0,0-1.58-.35A3.83,3.83,0,0,0,153.07,38.85Zm3.53,1.77a2.07,2.07,0,0,1,.67.66,2.71,2.71,0,0,1,.37.94,5.52,5.52,0,0,1,.11,1.11,5.65,5.65,0,0,1-.11,1.12,3,3,0,0,1-.36,1,1.92,1.92,0,0,1-.68.68,2,2,0,0,1-1.05.25,1.89,1.89,0,0,1-1-.26,2.23,2.23,0,0,1-.7-0.68,3,3,0,0,1-.41-1,4.74,4.74,0,0,1-.13-1.08,5.13,5.13,0,0,1,.12-1.11,3,3,0,0,1,.38-0.94,2,2,0,0,1,.69-0.67,2.08,2.08,0,0,1,1.06-.25A2,2,0,0,1,156.6,40.62Zm82.31-20.76,1.62-1.64L244.4,24h3.55l-5.51-7.78,5-5.08h-3.53l-5,5.33V11.15h-2.83V24h2.83V19.86Zm34.43,23.55a6,6,0,0,0,.38,2.28,4.38,4.38,0,0,0,1,1.49,3.41,3.41,0,0,0,1.27.81,4.07,4.07,0,0,0,1.34.24,4.47,4.47,0,0,0,1.67-.32,2.51,2.51,0,0,0,1.26-1.08h0v4.43h2.55V38.69h-2.43v1.19h0a2.5,2.5,0,0,0-1.2-1.11,4,4,0,0,0-1.63-.33A3.77,3.77,0,0,0,274.37,40a4.75,4.75,0,0,0-.77,1.59A6.85,6.85,0,0,0,273.34,43.41ZM276,42.25a2.93,2.93,0,0,1,.39-1,2,2,0,0,1,.7-0.67,2.07,2.07,0,0,1,1.06-.25,1.85,1.85,0,0,1,1,.27,2,2,0,0,1,.68.7,3.31,3.31,0,0,1,.37,1,5.16,5.16,0,0,1,0,2.19,2.84,2.84,0,0,1-.38.94,2,2,0,0,1-.68.65,2.08,2.08,0,0,1-1.05.24,2,2,0,0,1-1.05-.25,2,2,0,0,1-.68-0.68,2.82,2.82,0,0,1-.37-1,5.43,5.43,0,0,1-.11-1.09A5.12,5.12,0,0,1,276,42.25Zm2.71-26.85h0l5.35,8.6h2.83V11.15h-2.65v8.62h0l-5.37-8.62h-2.81V24h2.64V15.4ZM262.4,15h0l3.15,9h2.18l3.15-9.11h0V24h2.64V11.15h-4L266.77,20h0l-3-8.84h-4V24h2.65V15Zm0.34,23.71V51.26h2.56V46.85h0a3,3,0,0,0,1.2,1,3.62,3.62,0,0,0,1.59.35,3.85,3.85,0,0,0,1.79-.4,3.78,3.78,0,0,0,1.28-1.06,4.59,4.59,0,0,0,.77-1.53,6.4,6.4,0,0,0,.25-1.8,7.08,7.08,0,0,0-.25-1.9,4.65,4.65,0,0,0-.77-1.59,3.93,3.93,0,0,0-1.31-1.1,4,4,0,0,0-1.89-.41,3.64,3.64,0,0,0-1.58.34,2.81,2.81,0,0,0-1.19,1.1h0V38.69h-2.43Zm2.57,3.56a2.81,2.81,0,0,1,.37-1,2.11,2.11,0,0,1,.68-0.67,2,2,0,0,1,1.05-.26,1.93,1.93,0,0,1,1,.26,2.15,2.15,0,0,1,.69.68,2.94,2.94,0,0,1,.39,1,5.17,5.17,0,0,1,.12,1.1,5.56,5.56,0,0,1-.11,1.1,2.72,2.72,0,0,1-.37.95,2.06,2.06,0,0,1-.68.66,2.08,2.08,0,0,1-2.79-.66,2.85,2.85,0,0,1-.38-0.95,5.16,5.16,0,0,1-.12-1.1A5.66,5.66,0,0,1,265.31,42.26Zm19.42-3.56V48h2.56V43.81a5.15,5.15,0,0,1,.13-1.17,2.57,2.57,0,0,1,.42-0.95,2.07,2.07,0,0,1,.78-0.64,2.72,2.72,0,0,1,1.19-.23l0.49,0,0.43,0.06V38.53a2,2,0,0,0-.56-0.09,3.07,3.07,0,0,0-.94.14,3.44,3.44,0,0,0-.85.41,3.16,3.16,0,0,0-.7.63,3.09,3.09,0,0,0-.49.8h0V38.69h-2.43ZM348.82,21.8A2.81,2.81,0,0,1,348,22a5.65,5.65,0,0,1-.81.06,4.3,4.3,0,0,1-1.08-.13,2.67,2.67,0,0,1-.91-0.41,2,2,0,0,1-.62-0.73,2.35,2.35,0,0,1-.23-1.1h-2.74a4.24,4.24,0,0,0,.43,2.05,4.06,4.06,0,0,0,1.21,1.42A5.17,5.17,0,0,0,345,24a8.13,8.13,0,0,0,2.06.26A7.91,7.91,0,0,0,349.4,24a4.86,4.86,0,0,0,1.67-.85,3.57,3.57,0,0,0,1-1.31,4,4,0,0,0,.34-1.64,3.16,3.16,0,0,0-.46-1.77,3.85,3.85,0,0,0-1.09-1.11,4.81,4.81,0,0,0-1.27-.6q-0.64-.19-1-0.26l-2-.5a7.22,7.22,0,0,1-1.17-.4,1.28,1.28,0,0,1-.57-0.43,1.14,1.14,0,0,1-.14-0.61,1.22,1.22,0,0,1,.18-0.68,1.56,1.56,0,0,1,.46-0.45,1.84,1.84,0,0,1,.62-0.25,3.32,3.32,0,0,1,.68-0.07,4.81,4.81,0,0,1,1,.09,2.32,2.32,0,0,1,.78.31A1.58,1.58,0,0,1,349,14a2.28,2.28,0,0,1,.24,1H352a4,4,0,0,0-.42-1.9,3.7,3.7,0,0,0-1.14-1.29,4.84,4.84,0,0,0-1.65-.73,8.19,8.19,0,0,0-1.94-.23,6.6,6.6,0,0,0-1.73.23,4.84,4.84,0,0,0-1.55.72A3.83,3.83,0,0,0,342.47,13a3.35,3.35,0,0,0-.42,1.72,3,3,0,0,0,1.21,2.54,4.8,4.8,0,0,0,1.22.67,12.21,12.21,0,0,0,1.4.44c0.47,0.13.93,0.25,1.39,0.36a8.56,8.56,0,0,1,1.22.38,2.59,2.59,0,0,1,.87.54,1.13,1.13,0,0,1,.33.85,1.24,1.24,0,0,1-.25.8A1.77,1.77,0,0,1,348.82,21.8ZM357,24h2.83V13.52h3.85V11.15H353.1v2.38H357V24Zm-66.42-1.64a5.66,5.66,0,0,0,2,1.41,7.14,7.14,0,0,0,5.32,0,5.68,5.68,0,0,0,2-1.41,6.29,6.29,0,0,0,1.24-2.11,7.79,7.79,0,0,0,.43-2.62,8.05,8.05,0,0,0-.43-2.67,6.45,6.45,0,0,0-1.24-2.15,5.69,5.69,0,0,0-2-1.44,7,7,0,0,0-5.32,0,5.66,5.66,0,0,0-2,1.44A6.39,6.39,0,0,0,289.29,15a8,8,0,0,0-.43,2.67,7.74,7.74,0,0,0,.43,2.62A6.22,6.22,0,0,0,290.54,22.36ZM291.88,16a4.33,4.33,0,0,1,.6-1.41,3,3,0,0,1,1.08-1,3.74,3.74,0,0,1,3.24,0,3.08,3.08,0,0,1,1.08,1,4.33,4.33,0,0,1,.6,1.41,7,7,0,0,1,.19,1.64,6.5,6.5,0,0,1-.19,1.58,4.25,4.25,0,0,1-.6,1.38,3.1,3.1,0,0,1-1.08,1,3.74,3.74,0,0,1-3.24,0,3.06,3.06,0,0,1-1.08-1,4.25,4.25,0,0,1-.6-1.38,6.6,6.6,0,0,1-.19-1.58A7.08,7.08,0,0,1,291.88,16Zm-33.7,5.63h-6.26V11.15h-2.83V24h9.09V21.62Zm48.08-2.23h3a5.36,5.36,0,0,0,2.05-.35,3.83,3.83,0,0,0,1.38-.93,3.53,3.53,0,0,0,.78-1.32,4.93,4.93,0,0,0,0-3.05,3.55,3.55,0,0,0-.78-1.31,3.83,3.83,0,0,0-1.38-.93,5.35,5.35,0,0,0-2.05-.35h-5.8V24h2.83V19.39Zm0-6h2.2a6,6,0,0,1,.94.07,2.19,2.19,0,0,1,.79.28,1.51,1.51,0,0,1,.55.58,2.05,2.05,0,0,1,.21,1,2,2,0,0,1-.21,1,1.5,1.5,0,0,1-.55.58,2.19,2.19,0,0,1-.79.28,6,6,0,0,1-.94.07h-2.2V13.34Zm26,5.63h2.83a2.11,2.11,0,0,1,1.53.47,2.56,2.56,0,0,1,.61,1.48c0.07,0.52.13,1.06,0.16,1.62a5,5,0,0,0,.29,1.46h2.83a1.89,1.89,0,0,1-.3-0.66,5.52,5.52,0,0,1-.14-0.82c0-.29-0.05-0.57-0.06-0.85s0-.52,0-0.72a7.93,7.93,0,0,0-.14-1,3.21,3.21,0,0,0-.31-0.89,2.46,2.46,0,0,0-.56-0.7,2.16,2.16,0,0,0-.86-0.44v0a3,3,0,0,0,1.56-1.26,3.86,3.86,0,0,0,.48-2,3.61,3.61,0,0,0-.26-1.38,3.32,3.32,0,0,0-.76-1.12,3.59,3.59,0,0,0-1.19-.77,4.14,4.14,0,0,0-1.56-.28h-6.93V24h2.83V19Zm0-5.63h3.1a2.17,2.17,0,0,1,1.46.42,1.71,1.71,0,0,1,.49,1.36,1.79,1.79,0,0,1-.49,1.4,2.14,2.14,0,0,1-1.46.43h-3.1V13.34ZM200.21,48h2.56V38.69h-2.56V48Zm-24.4-10.68a1,1,0,0,1,.75-0.24,7.83,7.83,0,0,1,.94.05V35.22l-0.67,0-0.68,0a3.14,3.14,0,0,0-2.34.79,2.79,2.79,0,0,0-.77,2v0.72H171.5V40.4H173V48h2.56V40.4h1.76V38.69h-1.76V38.14A1.2,1.2,0,0,1,175.81,37.32ZM192,40V35.15h-2.56V48H192V43.12a3.45,3.45,0,0,1,.47-2,1.77,1.77,0,0,1,1.51-.62,1.39,1.39,0,0,1,1.28.57,3.26,3.26,0,0,1,.36,1.72V48h2.56V42.28A7.52,7.52,0,0,0,198,40.7a3,3,0,0,0-.53-1.21,2.5,2.5,0,0,0-1-.77,4.35,4.35,0,0,0-1.68-.28,3.36,3.36,0,0,0-1.48.37A3,3,0,0,0,192.07,40H192Zm-6.1-21.3h5.38v-2.2h-5.38v-3h6.21V11.15h-9V24h2.83V18.69Zm-4.73,2.93h-6.93V18.47h6.23v-2.2h-6.23V13.52H181V11.15h-9.61V24h9.76V21.62Zm21.58,13.52h-2.56v2.11h2.56V35.15ZM205,48.32a0.69,0.69,0,0,1-.3.67,1.5,1.5,0,0,1-.69.15,1.64,1.64,0,0,1-.54-0.07v2.11a4.16,4.16,0,0,0,.81.07,6.29,6.29,0,0,0,1.6-.17,2.29,2.29,0,0,0,1-.52,1.93,1.93,0,0,0,.52-0.87,4.46,4.46,0,0,0,.15-1.24V38.69H205v9.63Zm5.24-29.87h5.2V24h2.83V11.15h-2.83v4.93h-5.2V11.15h-2.83V24h2.83V18.46Zm13.34-7.31h-2.83V24h2.83V11.15Zm-16,24H205v2.11h2.56V35.15ZM194.88,22.36a5.68,5.68,0,0,0,2,1.41,6.58,6.58,0,0,0,2.66.51,4.74,4.74,0,0,0,1.85-.39,4.24,4.24,0,0,0,1.67-1.36L203.34,24h1.8V17.05h-5.4v2.11h2.84a2.76,2.76,0,0,1-3.06,2.77,3.3,3.3,0,0,1-1.62-.37,3.08,3.08,0,0,1-1.08-1,4.25,4.25,0,0,1-.6-1.38,6.55,6.55,0,0,1-.19-1.58,7,7,0,0,1,.19-1.64,4.33,4.33,0,0,1,.6-1.41,3.06,3.06,0,0,1,1.08-1,3.31,3.31,0,0,1,1.62-.37,2.83,2.83,0,0,1,1.75.54,2.71,2.71,0,0,1,1,1.62h2.7A4.72,4.72,0,0,0,203.12,12a5.42,5.42,0,0,0-1.67-.87,6.24,6.24,0,0,0-1.92-.3,6.5,6.5,0,0,0-2.66.52,5.68,5.68,0,0,0-2,1.44A6.42,6.42,0,0,0,193.64,15a8,8,0,0,0-.43,2.67,7.77,7.77,0,0,0,.43,2.62A6.25,6.25,0,0,0,194.88,22.36Zm31.52,1a3.9,3.9,0,0,0,1.35.7,5.45,5.45,0,0,0,1.57.23,5,5,0,0,0,2.29-.44,3.38,3.38,0,0,0,1.87-2.51A8.48,8.48,0,0,0,233.6,20v-8.8h-2.83v8.68c0,0.23,0,.46,0,0.71a2.13,2.13,0,0,1-.16.68,1.13,1.13,0,0,1-.44.51,1.58,1.58,0,0,1-.86.2,1.79,1.79,0,0,1-.82-0.16,1.26,1.26,0,0,1-.5-0.44,1.84,1.84,0,0,1-.25-0.68,4.84,4.84,0,0,1-.07-0.86V19.21h-2.56v1.12a4.13,4.13,0,0,0,.36,1.81A3.46,3.46,0,0,0,226.4,23.36Zm-3.66,11.79h-2.56V48h2.56V35.15ZM247.41,72h2.83V69.23h-2.83V72Zm43.22-13.16h-2.11a17.52,17.52,0,0,1,1.46,4,19.34,19.34,0,0,1,.47,4.25,18.35,18.35,0,0,1-.48,4.17,16.91,16.91,0,0,1-1.47,4h2.13a10.71,10.71,0,0,0,1-1.87,15,15,0,0,0,.75-2.12,16.74,16.74,0,0,0,.44-2.2A16.47,16.47,0,0,0,293,67a14.59,14.59,0,0,0-.62-4.19A16.69,16.69,0,0,0,290.63,58.84Zm-10.91,8.62a6.73,6.73,0,0,0,.4-1.67H277.9a5.72,5.72,0,0,1-.16.78,3.45,3.45,0,0,1-.31.75l-1.65-2A5.61,5.61,0,0,0,277.4,64a2.85,2.85,0,0,0,.66-1.91,3,3,0,0,0-.28-1.33,2.77,2.77,0,0,0-.76-1,3.3,3.3,0,0,0-1.12-.58,4.63,4.63,0,0,0-1.38-.2,3.84,3.84,0,0,0-1.25.21,3.39,3.39,0,0,0-1.07.59,3,3,0,0,0-.75.93,2.6,2.6,0,0,0-.28,1.21,3,3,0,0,0,.35,1.48,8.42,8.42,0,0,0,.87,1.26,8.14,8.14,0,0,0-1.08.63,5,5,0,0,0-.93.82,3.61,3.61,0,0,0-.64,1,3.28,3.28,0,0,0-.23,1.25,3.87,3.87,0,0,0,.32,1.63,3.55,3.55,0,0,0,.88,1.21,3.7,3.7,0,0,0,1.32.75,5.17,5.17,0,0,0,1.63.25,4.92,4.92,0,0,0,2-.38,5.47,5.47,0,0,0,1.65-1.13l1,1.28h3.13l-2.61-3A5.63,5.63,0,0,0,279.72,67.46ZM273.85,61a1.15,1.15,0,0,1,.81-0.31,1.11,1.11,0,0,1,.82.36,1.2,1.2,0,0,1,.35.86,1.51,1.51,0,0,1-.39,1.1,5.06,5.06,0,0,1-.93.74l-0.68-.88a1.7,1.7,0,0,1-.32-1A1.06,1.06,0,0,1,273.85,61Zm1.14,8.8a2.24,2.24,0,0,1-1.2.31A1.83,1.83,0,0,1,273.1,70a2,2,0,0,1-.58-0.36,1.68,1.68,0,0,1-.41-0.54,1.49,1.49,0,0,1-.15-0.66,1.68,1.68,0,0,1,.15-0.72,2.26,2.26,0,0,1,.41-0.59,2.7,2.7,0,0,1,.57-0.47,5.11,5.11,0,0,1,.67-0.34L276,69A4.37,4.37,0,0,1,275,69.83Zm24-26.65a3.57,3.57,0,0,0-.94-0.48A11.23,11.23,0,0,0,297,42.4l-1.06-.23a8.27,8.27,0,0,1-.93-0.24,1.94,1.94,0,0,1-.66-0.35,0.7,0.7,0,0,1-.25-0.56,0.69,0.69,0,0,1,.14-0.46,0.93,0.93,0,0,1,.35-0.26,1.55,1.55,0,0,1,.46-0.12l0.47,0a2.56,2.56,0,0,1,1.19.26,1.12,1.12,0,0,1,.56,1h2.43a3,3,0,0,0-.44-1.43,2.93,2.93,0,0,0-.93-0.91,3.87,3.87,0,0,0-1.27-.49,7.38,7.38,0,0,0-1.47-.14,7.93,7.93,0,0,0-1.48.14,4.08,4.08,0,0,0-1.29.47,2.59,2.59,0,0,0-.93.91,2.81,2.81,0,0,0-.35,1.48,2,2,0,0,0,.25,1,2.18,2.18,0,0,0,.67.7,3.73,3.73,0,0,0,.94.45q0.53,0.17,1.09.3a15.12,15.12,0,0,1,2.13.58,0.92,0.92,0,0,1,.6,1.43,1.23,1.23,0,0,1-.4.36,1.92,1.92,0,0,1-.54.2,2.73,2.73,0,0,1-.57.06,3,3,0,0,1-.73-0.09,1.91,1.91,0,0,1-.62-0.28,1.47,1.47,0,0,1-.44-0.49,1.39,1.39,0,0,1-.17-0.71h-2.43a3,3,0,0,0,1.41,2.56,4.17,4.17,0,0,0,1.38.54,7.71,7.71,0,0,0,1.59.16,8,8,0,0,0,1.56-.15,3.94,3.94,0,0,0,1.36-.53,3,3,0,0,0,1-1,3,3,0,0,0,.37-1.54,2.17,2.17,0,0,0-.25-1.09A2.3,2.3,0,0,0,299,43.19Zm5.65-7.28h-2.56v2.79h-1.55V40.4h1.55v5.49a2.37,2.37,0,0,0,.23,1.13,1.67,1.67,0,0,0,.64.67,2.64,2.64,0,0,0,.94.32,7.51,7.51,0,0,0,1.13.08l0.78,0a6,6,0,0,0,.72-0.07V46l-0.38.05-0.41,0A0.86,0.86,0,0,1,304.64,45V40.4h1.87V38.69h-1.87V35.9ZM252.39,60.07a4.17,4.17,0,0,0-1.38-.87,5.66,5.66,0,0,0-2.13-.35,4.63,4.63,0,0,0-1.79.33,4,4,0,0,0-1.37.93,4.23,4.23,0,0,0-.88,1.4,5.14,5.14,0,0,0-.33,1.78h2.65a3.65,3.65,0,0,1,.11-0.91,2.18,2.18,0,0,1,.33-0.74,1.66,1.66,0,0,1,.58-0.5,1.74,1.74,0,0,1,.84-0.19,1.54,1.54,0,0,1,1.13.4,1.65,1.65,0,0,1,.41,1.22,1.48,1.48,0,0,1-.17.81,2.43,2.43,0,0,1-.49.59q-0.31.27-.67,0.54a4.54,4.54,0,0,0-.68.64,3.53,3.53,0,0,0-.86,2.19v0.81h2.43V67.46a1.84,1.84,0,0,1,.35-0.9,3.63,3.63,0,0,1,.64-0.64q0.36-.28.76-0.56a3.76,3.76,0,0,0,.74-0.68,3.52,3.52,0,0,0,.56-1,3.85,3.85,0,0,0,.22-1.42,3.25,3.25,0,0,0-.22-1.12A3.17,3.17,0,0,0,252.39,60.07Zm61.52-16.49a3.45,3.45,0,0,1-.47,2,1.77,1.77,0,0,1-1.51.62,1.39,1.39,0,0,1-1.28-.57A3.26,3.26,0,0,1,310.3,44V38.69h-2.56v5.72a7.54,7.54,0,0,0,.15,1.58,3,3,0,0,0,.53,1.21,2.43,2.43,0,0,0,1,.76,4.48,4.48,0,0,0,1.68.27,3.73,3.73,0,0,0,1.58-.36A2.88,2.88,0,0,0,314,46.7H314V48h2.43V38.69h-2.56v4.88ZM255,72h2.83V69.23H255V72Zm13.46-5.63a3.88,3.88,0,0,0-1.06-1.11,6.24,6.24,0,0,0-2.05-.89l-0.48-.13-0.44-.11V60.95a1.33,1.33,0,0,1,1,.5,1.9,1.9,0,0,1,.45,1.22h2.56a4.14,4.14,0,0,0-.4-1.62,3.56,3.56,0,0,0-.88-1.14,4.09,4.09,0,0,0-1.25-.72,6.51,6.51,0,0,0-1.52-.35V57.46h-1.06v1.39a6,6,0,0,0-1.56.32,4.21,4.21,0,0,0-1.33.74,3.51,3.51,0,0,0-1.28,2.8,3.3,3.3,0,0,0,.31,1.5,3,3,0,0,0,.82,1,4.27,4.27,0,0,0,1.16.65q0.65,0.24,1.31.42l0.33,0.08,0.24,0.08V70.2a2.51,2.51,0,0,1-1.38-.76,2.21,2.21,0,0,1-.54-1.62h-2.54a4.37,4.37,0,0,0,4.46,4.46v1.53h1.06V72.29a5.62,5.62,0,0,0,2.21-.54,4.76,4.76,0,0,0,1.38-1,3.46,3.46,0,0,0,.91-2.18,9.82,9.82,0,0,0-.06-1A2.87,2.87,0,0,0,268.5,66.37Zm-5.09-2.48a2.94,2.94,0,0,1-1.24-.52,1.14,1.14,0,0,1-.38-0.92,1.49,1.49,0,0,1,.13-0.66,1.34,1.34,0,0,1,.37-0.47,1.56,1.56,0,0,1,.52-0.28,2,2,0,0,1,.59-0.09v2.93Zm2.83,5.3a1.78,1.78,0,0,1-.46.53,2.13,2.13,0,0,1-.63.33,3.31,3.31,0,0,1-.68.15V66.74a4.33,4.33,0,0,1,1.5.64,1.27,1.27,0,0,1,.44,1.05A1.47,1.47,0,0,1,266.23,69.18Zm-5.49-23.81a5.63,5.63,0,0,0,.34-2,5.7,5.7,0,0,0-.34-2,4.23,4.23,0,0,0-2.49-2.54,5.38,5.38,0,0,0-2-.35,5.31,5.31,0,0,0-2,.35,4.26,4.26,0,0,0-2.48,2.54,5.7,5.7,0,0,0-.34,2,5.63,5.63,0,0,0,.34,2,4.37,4.37,0,0,0,1,1.54,4.25,4.25,0,0,0,1.51,1,5.45,5.45,0,0,0,2,.34,5.52,5.52,0,0,0,2-.34,4.23,4.23,0,0,0,1.52-1A4.35,4.35,0,0,0,260.74,45.37Zm-2.32-.93a2.9,2.9,0,0,1-.37,1,2,2,0,0,1-.7.68,2.17,2.17,0,0,1-1.09.25,2.11,2.11,0,0,1-1.08-.25,2,2,0,0,1-.69-0.68,2.9,2.9,0,0,1-.37-1,5.5,5.5,0,0,1-.11-1.09,5.65,5.65,0,0,1,.11-1.1,2.81,2.81,0,0,1,.37-1,2,2,0,0,1,1.77-.94,2.11,2.11,0,0,1,1.09.26,2.06,2.06,0,0,1,.7.67,2.81,2.81,0,0,1,.37,1,5.65,5.65,0,0,1,.11,1.1A5.5,5.5,0,0,1,258.42,44.44ZM257.77,62.6V59.15h-2.66V62.6l0.68,5.54h1.28Zm30-2-2.09.79V59.15H284.2V61.4l-2-.79L281.68,62l2.09,0.7-1.33,1.76,1.21,0.88,1.26-1.85,1.33,1.85,1.19-.88-1.33-1.76,2.13-.7ZM417.29,11.15h-3.1l-2.61,4.1-2.52-4.1h-3.28l4.14,6.12L405.45,24h3.17l2.86-4.45L414.28,24h3.37l-4.48-6.71Zm-14.58,0L400.6,20h0l-2.2-8.86h-2.65l-2.23,8.75h0l-2-8.75h-5.65l-2.9,9h0l-2.86-9h-2.9L381.23,24h3.19l4.22-12.7L392,24h2.86L397,15.25h0L399.22,24H402l3.46-12.85h-2.77Zm20.86,5.08-3-5.08H417.4L422.11,19v5h2.83V19.07l4.77-7.92h-3.15ZM321.19,24.29a6.14,6.14,0,0,0,3.12-.74l1.82,1.64,1.31-1.37-1.6-1.46a6.5,6.5,0,0,0,1.24-2.12,7.7,7.7,0,0,0,.43-2.61,8.05,8.05,0,0,0-.43-2.67,6.45,6.45,0,0,0-1.24-2.15,5.69,5.69,0,0,0-2-1.44,7,7,0,0,0-5.32,0,5.66,5.66,0,0,0-2,1.44A6.39,6.39,0,0,0,315.3,15a8,8,0,0,0-.43,2.67,7.74,7.74,0,0,0,.43,2.62,6.22,6.22,0,0,0,1.24,2.11,5.66,5.66,0,0,0,2,1.41A6.57,6.57,0,0,0,321.19,24.29Zm-3.3-5.1a6.57,6.57,0,0,1-.19-1.57,7.05,7.05,0,0,1,.19-1.63,4.32,4.32,0,0,1,.6-1.41,3,3,0,0,1,1.08-1,3.74,3.74,0,0,1,3.24,0,3.08,3.08,0,0,1,1.08,1,4.33,4.33,0,0,1,.6,1.41,7,7,0,0,1,.19,1.64,6.2,6.2,0,0,1-.21,1.75,3.9,3.9,0,0,1-.58,1.21l-1.46-1.33-1.31,1.4,1.21,1.1a1.66,1.66,0,0,1-.45.13,5.37,5.37,0,0,1-.68,0,3.31,3.31,0,0,1-1.62-.37,3.08,3.08,0,0,1-1.08-1A4.24,4.24,0,0,1,317.88,19.19Zm55.3-.05a3.22,3.22,0,0,1-.58,2.12,2.65,2.65,0,0,1-2.09.67,3.25,3.25,0,0,1-1.38-.24A2,2,0,0,1,368,20.17a5.77,5.77,0,0,1-.09-1v-8h-2.83v8A4.91,4.91,0,0,0,366.48,23a7.07,7.07,0,0,0,8.07,0A4.87,4.87,0,0,0,376,19.14v-8h-2.83v8Zm60.53,2.48,6.89-8.24V11.15H430.5v2.38h6.35L430,21.77V24H440.8V21.62h-7.07ZM337,45h0l-1.58-6.3H332.9L331.36,45h0l-1.71-6.32h-2.7l3,9.31h2.65l1.58-6.25h0L335.79,48h2.63l2.93-9.31h-2.63Zm-14.8.05h0l-2-6.35h-2.68L320.72,48h2.84l3.15-9.31h-2.54Zm46.85-4.43V38.69h-7.85v1.93h4.48l-4.84,5.45V48h8.55V46.07h-5.19Zm-13.18,4.45h0l-2.11-6.37H351l3.26,8.73a1.53,1.53,0,0,1,.11.58,1.28,1.28,0,0,1-.24.76,1,1,0,0,1-.75.4,5.43,5.43,0,0,1-.76,0l-0.74-.07v2.11l0.78,0.06,0.78,0a3.7,3.7,0,0,0,2.05-.49,3.14,3.14,0,0,0,1.15-1.62l3.89-10.46h-2.65Zm-5.15-6.37h-2.83l-1.62,2.43-1.64-2.43h-2.92l3.06,4.41L341.45,48h2.86l1.94-2.93L348.2,48h2.92l-3.44-5ZM225,72h1.3a1.51,1.51,0,0,1-.07.57,1.57,1.57,0,0,1-.27.5,1.86,1.86,0,0,1-.42.39,1.44,1.44,0,0,1-.51.22V75a4,4,0,0,0,1.09-.33A3.16,3.16,0,0,0,227,74a2.89,2.89,0,0,0,.6-0.89,2.78,2.78,0,0,0,.22-1.12V69.23H225V72Zm-57.81-7.31a3.65,3.65,0,0,0-1.21-.92,3.83,3.83,0,0,0-1.66-.34,3.78,3.78,0,0,0-1.35.23,3.16,3.16,0,0,0-1.12.75l0,0,0.5-2.86h5.2V59.4h-7l-1.24,7h2.3a2.6,2.6,0,0,1,.81-0.77,2.26,2.26,0,0,1,1.12-.24,2.2,2.2,0,0,1,.92.18,2,2,0,0,1,.68.5,2.15,2.15,0,0,1,.43.76,2.89,2.89,0,0,1,.14.92,2.74,2.74,0,0,1-.15.91,2.43,2.43,0,0,1-.43.77,2.16,2.16,0,0,1-.68.54,2,2,0,0,1-.91.21,2,2,0,0,1-1.42-.51,2.09,2.09,0,0,1-.65-1.38h-2.56a3.88,3.88,0,0,0,.4,1.74,3.76,3.76,0,0,0,1,1.25,4.4,4.4,0,0,0,1.49.75,6.29,6.29,0,0,0,1.75.24,4.64,4.64,0,0,0,1.8-.31,4.5,4.5,0,0,0,1.49-.95,4.6,4.6,0,0,0,1-1.45,4.34,4.34,0,0,0,.38-1.81,5.24,5.24,0,0,0-.26-1.67A4,4,0,0,0,167.21,64.69ZM156.58,59.4h-2.29l-5.47,7.34v2.34h5.33V72h2.43V69.08h1.67V67h-1.67V59.4ZM154.15,67h-3.31l3.26-4.37h0.05V67Zm23.06-2.14a4,4,0,0,0-1.31-.95,4,4,0,0,0-3.2,0,3.06,3.06,0,0,0-1.22,1.08l0,0a7.79,7.79,0,0,1,.14-1.19,5.31,5.31,0,0,1,.4-1.25,3,3,0,0,1,.73-1,1.66,1.66,0,0,1,1.14-.4,1.49,1.49,0,0,1,1.12.47,2.17,2.17,0,0,1,.58,1.1H178a4.38,4.38,0,0,0-.45-1.49,3.48,3.48,0,0,0-.88-1.09,3.9,3.9,0,0,0-1.24-.67,4.74,4.74,0,0,0-1.51-.23,4.18,4.18,0,0,0-2.29.59,4.87,4.87,0,0,0-1.53,1.54,6.84,6.84,0,0,0-.86,2.12,10.34,10.34,0,0,0-.27,2.34,12.94,12.94,0,0,0,.22,2.37,6.13,6.13,0,0,0,.77,2.08,4.37,4.37,0,0,0,1.49,1.49,5,5,0,0,0,4.16.22,4.17,4.17,0,0,0,1.4-1,4.34,4.34,0,0,0,.9-1.46,5.12,5.12,0,0,0,.31-1.81,4.94,4.94,0,0,0-.23-1.49A3.66,3.66,0,0,0,177.21,64.84Zm-1.71,3.85a2.26,2.26,0,0,1-.38.74,2,2,0,0,1-.6.52,1.64,1.64,0,0,1-.82.2,1.84,1.84,0,0,1-.86-0.2,2,2,0,0,1-.64-0.53,2.4,2.4,0,0,1-.4-0.76,2.8,2.8,0,0,1-.13-0.86,3.11,3.11,0,0,1,.13-0.89,2.25,2.25,0,0,1,.38-0.75,1.8,1.8,0,0,1,.64-0.51,2,2,0,0,1,.89-0.19,1.72,1.72,0,0,1,.85.21,1.81,1.81,0,0,1,.6.54,2.44,2.44,0,0,1,.35.76,3.26,3.26,0,0,1,.12.87A2.89,2.89,0,0,1,175.5,68.69ZM246.88,41a3.26,3.26,0,0,1,.36,1.72V48h2.56V42.28a7.52,7.52,0,0,0-.15-1.57,3,3,0,0,0-.53-1.21,2.5,2.5,0,0,0-1-.77,4.35,4.35,0,0,0-1.68-.28,3.65,3.65,0,0,0-1.58.37A2.94,2.94,0,0,0,243.55,40H243.5v-1.3h-2.43V48h2.56V43.12a3.45,3.45,0,0,1,.47-2,1.77,1.77,0,0,1,1.51-.62A1.39,1.39,0,0,1,246.88,41Zm-67,9.78a4.42,4.42,0,0,0,1.3.53,5.93,5.93,0,0,0,1.39.17,6.29,6.29,0,0,0,2.56-.43A3.93,3.93,0,0,0,186.6,50a3.16,3.16,0,0,0,.66-1.34,6.19,6.19,0,0,0,.15-1.28V38.69H185v1.24h0a2.78,2.78,0,0,0-1.16-1.15,3.59,3.59,0,0,0-1.61-.34,3.76,3.76,0,0,0-1.72.38,3.7,3.7,0,0,0-1.25,1,4.54,4.54,0,0,0-.76,1.48,5.78,5.78,0,0,0-.26,1.74,7.06,7.06,0,0,0,.23,1.81,4.19,4.19,0,0,0,.71,1.49,3.4,3.4,0,0,0,1.24,1,4.06,4.06,0,0,0,1.8.37,3.83,3.83,0,0,0,1.61-.35,2.53,2.53,0,0,0,1.18-1.09h0v1.22a2.54,2.54,0,0,1-.48,1.64,1.85,1.85,0,0,1-1.58.65,2.51,2.51,0,0,1-1.21-.28,1.45,1.45,0,0,1-.7-1h-2.54a2.69,2.69,0,0,0,.44,1.36A3.18,3.18,0,0,0,179.9,50.81Zm4.95-6.62a2.55,2.55,0,0,1-.4.82,2,2,0,0,1-.68.58,2,2,0,0,1-1,.22,1.81,1.81,0,0,1-1-.25,2,2,0,0,1-.64-0.65,2.7,2.7,0,0,1-.34-0.89,5.05,5.05,0,0,1-.1-1,4.18,4.18,0,0,1,.12-1,2.44,2.44,0,0,1,.38-0.85,1.94,1.94,0,0,1,.65-0.58,1.87,1.87,0,0,1,.93-0.22,2.11,2.11,0,0,1,1,.23,1.87,1.87,0,0,1,.67.63,2.74,2.74,0,0,1,.36.91,5.26,5.26,0,0,1,.11,1.09A3.36,3.36,0,0,1,184.85,44.19ZM133.27,68.67q0.61-.49,1.26-0.91l1.29-.86a6.87,6.87,0,0,0,1.14-1,4.32,4.32,0,0,0,.81-1.21,4,4,0,0,0,.31-1.64,3.8,3.8,0,0,0-.35-1.66,3.68,3.68,0,0,0-.95-1.24,4.23,4.23,0,0,0-1.38-.77,5,5,0,0,0-1.65-.27,4.89,4.89,0,0,0-2,.39,3.9,3.9,0,0,0-1.45,1.08,4.65,4.65,0,0,0-.86,1.62,6,6,0,0,0-.25,2h2.45a5.33,5.33,0,0,1,.1-1,3.16,3.16,0,0,1,.33-0.94,2,2,0,0,1,.62-0.68,1.65,1.65,0,0,1,.95-0.26,1.87,1.87,0,0,1,1.36.51,1.9,1.9,0,0,1,.53,1.43,2,2,0,0,1-.26,1,3.49,3.49,0,0,1-.65.81,5.8,5.8,0,0,1-.85.66l-0.88.59q-0.81.56-1.54,1.1a7.51,7.51,0,0,0-1.27,1.18,5.08,5.08,0,0,0-.85,1.45A5.23,5.23,0,0,0,128.9,72h9.25V69.8h-6A5.73,5.73,0,0,1,133.27,68.67Zm-10.19-8.06a2.75,2.75,0,0,1-.84.78,3.36,3.36,0,0,1-1.12.41,6,6,0,0,1-1.29.1v1.93H123V72h2.56V59.4h-2A2.79,2.79,0,0,1,123.08,60.61Zm4.75-14.68V41.09a2.24,2.24,0,0,0-.38-1.36,2.59,2.59,0,0,0-1-.8,4.35,4.35,0,0,0-1.31-.39,10.37,10.37,0,0,0-1.42-.1,7.86,7.86,0,0,0-1.54.15,4.41,4.41,0,0,0-1.38.51,3.07,3.07,0,0,0-1,1,3,3,0,0,0-.45,1.49h2.56a1.45,1.45,0,0,1,.5-1.08,1.94,1.94,0,0,1,1.19-.32,4.37,4.37,0,0,1,.64,0,1.43,1.43,0,0,1,.52.18,1,1,0,0,1,.36.38,1.36,1.36,0,0,1,.13.66,0.69,0.69,0,0,1-.23.6,1.72,1.72,0,0,1-.68.32,7,7,0,0,1-1,.16c-0.37,0-.75.08-1.13,0.14a11,11,0,0,0-1.14.24,3.21,3.21,0,0,0-1,.46,2.32,2.32,0,0,0-.72.82,2.7,2.7,0,0,0-.28,1.3,2.92,2.92,0,0,0,.24,1.24,2.34,2.34,0,0,0,.67.86,2.83,2.83,0,0,0,1,.5,4.55,4.55,0,0,0,1.24.16,5.77,5.77,0,0,0,1.69-.25,3.33,3.33,0,0,0,1.44-.88,3.71,3.71,0,0,0,.06.46,3.58,3.58,0,0,0,.12.44h2.59a2.16,2.16,0,0,1-.25-0.86A9.57,9.57,0,0,1,127.83,45.93Zm-2.56-1.53a4.81,4.81,0,0,1,0,.58,1.91,1.91,0,0,1-.24.71,1.7,1.7,0,0,1-.61.6,2.26,2.26,0,0,1-1.17.25,3.22,3.22,0,0,1-.59-0.05,1.44,1.44,0,0,1-.5-0.19,1,1,0,0,1-.34-0.37,1.2,1.2,0,0,1-.13-0.58,1.25,1.25,0,0,1,.13-0.59,1.15,1.15,0,0,1,.33-0.39,1.67,1.67,0,0,1,.49-0.24,4.72,4.72,0,0,1,.57-0.14l0.61-.09,0.58-.09a4.2,4.2,0,0,0,.52-0.13,1.12,1.12,0,0,0,.4-0.23v1ZM146,65.25v0a2.22,2.22,0,0,0,1.32-1,3,3,0,0,0,.44-1.62,2.91,2.91,0,0,0-.38-1.49,3.66,3.66,0,0,0-1-1.1,4.3,4.3,0,0,0-1.36-.67,5.26,5.26,0,0,0-1.51-.23,4.74,4.74,0,0,0-1.76.32,3.9,3.9,0,0,0-1.36.89,4,4,0,0,0-.88,1.38,5.34,5.34,0,0,0-.35,1.77h2.43a2.48,2.48,0,0,1,.48-1.61,1.74,1.74,0,0,1,1.47-.64,1.93,1.93,0,0,1,1.24.43,1.5,1.5,0,0,1,.54,1.24,1.34,1.34,0,0,1-.26.86,1.69,1.69,0,0,1-.67.5,2.79,2.79,0,0,1-.87.21,5.55,5.55,0,0,1-.88,0v1.8l1,0a3,3,0,0,1,.95.2,1.6,1.6,0,0,1,.71.55,2.16,2.16,0,0,1-.32,2.55,2.11,2.11,0,0,1-1.46.53,2.17,2.17,0,0,1-1-.2,2,2,0,0,1-.67-0.53,2.37,2.37,0,0,1-.41-0.79,3.6,3.6,0,0,1-.16-1h-2.43a5,5,0,0,0,.31,1.94,4,4,0,0,0,.95,1.43,4.06,4.06,0,0,0,1.49.89,6.09,6.09,0,0,0,3.7,0,4.56,4.56,0,0,0,1.49-.79,3.84,3.84,0,0,0,1-1.3,3.9,3.9,0,0,0,.39-1.76,3,3,0,0,0-.59-1.85A2.75,2.75,0,0,0,146,65.25Zm1.26-20.81a2.44,2.44,0,0,1-.62,1.38,1.87,1.87,0,0,1-1.41.51,1.81,1.81,0,0,1-1-.27,2,2,0,0,1-.66-0.69,3.17,3.17,0,0,1-.35-0.94,5.11,5.11,0,0,1-.11-1,5.32,5.32,0,0,1,.11-1.05,3.12,3.12,0,0,1,.37-1,2.23,2.23,0,0,1,.67-0.72,1.8,1.8,0,0,1,1-.28,1.71,1.71,0,0,1,1.89,1.6h2.5a3.49,3.49,0,0,0-.43-1.56,3.53,3.53,0,0,0-1-1.1,4.25,4.25,0,0,0-1.37-.66,5.82,5.82,0,0,0-1.59-.22,5.07,5.07,0,0,0-2,.38,4.24,4.24,0,0,0-1.49,1.05,4.51,4.51,0,0,0-.93,1.6,6.2,6.2,0,0,0-.32,2,5.2,5.2,0,0,0,.34,1.92,4.46,4.46,0,0,0,1,1.5,4.23,4.23,0,0,0,1.48,1,5.08,5.08,0,0,0,1.92.35,4.64,4.64,0,0,0,3-1,4.22,4.22,0,0,0,1.44-2.83h-2.47ZM196,65.21v0a2.54,2.54,0,0,0,1.38-1,2.93,2.93,0,0,0,.46-1.64,3.07,3.07,0,0,0-.22-1.05,3.15,3.15,0,0,0-.71-1.1,4.11,4.11,0,0,0-1.3-.87,4.86,4.86,0,0,0-2-.36,5.56,5.56,0,0,0-1.53.22,4.39,4.39,0,0,0-1.36.65,3.45,3.45,0,0,0-1,1.08,2.91,2.91,0,0,0-.38,1.49,2.88,2.88,0,0,0,.47,1.64,2.34,2.34,0,0,0,1.39,1v0a3,3,0,0,0-1.75,1.08,3.22,3.22,0,0,0-.62,2,3.5,3.5,0,0,0,1.49,3,4.59,4.59,0,0,0,1.53.71,7,7,0,0,0,1.77.22,6.26,6.26,0,0,0,1.73-.24,4.78,4.78,0,0,0,1.51-.73A3.69,3.69,0,0,0,197.92,70a3.57,3.57,0,0,0,.41-1.75,3.26,3.26,0,0,0-.61-2A2.86,2.86,0,0,0,196,65.21Zm-4.15-3.15a1.51,1.51,0,0,1,.42-0.54,2,2,0,0,1,.62-0.33,2.31,2.31,0,0,1,.73-0.12,2.21,2.21,0,0,1,1,.18,1.58,1.58,0,0,1,.58.45,1.51,1.51,0,0,1,.28.57,2.35,2.35,0,0,1,.07.55,1.47,1.47,0,0,1-.54,1.23,2.12,2.12,0,0,1-1.35.42,2.22,2.22,0,0,1-1.35-.42,1.44,1.44,0,0,1-.58-1.23A1.75,1.75,0,0,1,191.81,62.06Zm3.79,7a1.9,1.9,0,0,1-.46.68,2.13,2.13,0,0,1-.68.43,2.31,2.31,0,0,1-.85.15,2.49,2.49,0,0,1-.86-0.15,2.07,2.07,0,0,1-.71-0.43,2.11,2.11,0,0,1-.66-1.56A1.78,1.78,0,0,1,192,66.7a2.47,2.47,0,0,1,1.58-.51,2.37,2.37,0,0,1,.84.14,2.07,2.07,0,0,1,.68.41,2,2,0,0,1,.47.64,1.94,1.94,0,0,1,.17.82A2.25,2.25,0,0,1,195.6,69.07Zm-16.34-7.29h6a19.3,19.3,0,0,0-2.91,4.79A17.17,17.17,0,0,0,181,72h2.74a15.73,15.73,0,0,1,.3-2.72,18.85,18.85,0,0,1,.79-2.88,14.9,14.9,0,0,1,1.28-2.68,9,9,0,0,1,1.75-2.12V59.4h-8.6v2.38ZM235,65.63h2.83V62.86H235v2.77Zm-27.81-4.42a4.37,4.37,0,0,0-1.48-1.49,4.48,4.48,0,0,0-2.37-.57,4.38,4.38,0,0,0-1.8.36,4.24,4.24,0,0,0-2.29,2.44,5.08,5.08,0,0,0-.32,1.81,4.91,4.91,0,0,0,.23,1.49,3.63,3.63,0,0,0,.74,1.31,4,4,0,0,0,1.31.95,3.79,3.79,0,0,0,1.58.35,3.83,3.83,0,0,0,1.62-.32,3.06,3.06,0,0,0,1.22-1.08l0,0a11.61,11.61,0,0,1-.15,1.19,5.07,5.07,0,0,1-.39,1.25,3,3,0,0,1-.72,1,1.66,1.66,0,0,1-1.15.41,1.48,1.48,0,0,1-1.12-.47,2.16,2.16,0,0,1-.58-1.1h-2.43a4.33,4.33,0,0,0,.45,1.48,3.59,3.59,0,0,0,.88,1.1,3.68,3.68,0,0,0,1.24.67,4.94,4.94,0,0,0,1.51.22,4.23,4.23,0,0,0,2.29-.58,4.78,4.78,0,0,0,1.53-1.53,6.86,6.86,0,0,0,.86-2.12,10.39,10.39,0,0,0,.27-2.34,13,13,0,0,0-.22-2.36A6.22,6.22,0,0,0,207.21,61.21Zm-1.87,3.28a2.25,2.25,0,0,1-.38.75,1.81,1.81,0,0,1-.63.51,2,2,0,0,1-.9.19,1.71,1.71,0,0,1-.86-0.21,1.78,1.78,0,0,1-.6-0.54,2.42,2.42,0,0,1-.35-0.76,3.25,3.25,0,0,1-.12-0.87,2.89,2.89,0,0,1,.13-0.85A2.24,2.24,0,0,1,202,62a2,2,0,0,1,.61-0.52,1.66,1.66,0,0,1,.81-0.2,1.84,1.84,0,0,1,.86.2,2,2,0,0,1,.64.53,2.41,2.41,0,0,1,.4.76,2.8,2.8,0,0,1,.13.86A3.1,3.1,0,0,1,205.34,64.48ZM238.1,39.2a2.74,2.74,0,0,0-1.08-.58,5,5,0,0,0-1.37-.18,3,3,0,0,0-1.68.47A4,4,0,0,0,232.84,40a2.26,2.26,0,0,0-1.11-1.21,3.74,3.74,0,0,0-1.61-.34,3.29,3.29,0,0,0-1.63.4A3.63,3.63,0,0,0,227.28,40h0V38.69h-2.41V48h2.56V42.6a2.63,2.63,0,0,1,.2-1.11,1.78,1.78,0,0,1,.48-0.65,1.59,1.59,0,0,1,.58-0.31,1.89,1.89,0,0,1,.48-0.08,1.7,1.7,0,0,1,.93.21,1.15,1.15,0,0,1,.45.55,2.32,2.32,0,0,1,.15.75c0,0.27,0,.54,0,0.82V48h2.56V42.82a5.79,5.79,0,0,1,.06-0.85,2.16,2.16,0,0,1,.25-0.76,1.49,1.49,0,0,1,.52-0.54,1.64,1.64,0,0,1,.87-0.21,1.73,1.73,0,0,1,.86.18,1.2,1.2,0,0,1,.48.49,1.87,1.87,0,0,1,.2.72q0,0.41,0,.88V48h2.56V41.77a4.2,4.2,0,0,0-.25-1.54A2.64,2.64,0,0,0,238.1,39.2ZM240,72h2.83V69.23H240V72Zm0-6.37h2.83V62.86H240v2.77ZM235,72h1.3a1.51,1.51,0,0,1-.07.57,1.57,1.57,0,0,1-.27.5,1.86,1.86,0,0,1-.42.39,1.44,1.44,0,0,1-.51.22V75a4,4,0,0,0,1.09-.33A3.16,3.16,0,0,0,237,74a2.89,2.89,0,0,0,.6-0.89,2.78,2.78,0,0,0,.22-1.12V69.23H235V72Zm-16.2-33.31h-3L212.58,42V35.15H210V48h2.56V44.8l1-1L216.12,48h3.1l-3.91-5.89Zm-2,21.86a3.65,3.65,0,0,0-1.48-1.08,5.06,5.06,0,0,0-3.56,0,3.58,3.58,0,0,0-1.47,1.08,5.56,5.56,0,0,0-1,2,11.06,11.06,0,0,0-.37,3.09,11.49,11.49,0,0,0,.37,3.16,5.56,5.56,0,0,0,1,2,3.59,3.59,0,0,0,1.47,1.08,5.07,5.07,0,0,0,3.56,0,3.66,3.66,0,0,0,1.48-1.08,5.48,5.48,0,0,0,1-2,11.49,11.49,0,0,0,.37-3.16,11.06,11.06,0,0,0-.37-3.09A5.48,5.48,0,0,0,216.83,60.55ZM215.62,67a7,7,0,0,1-.22,1.48,3.12,3.12,0,0,1-.61,1.21,1.5,1.5,0,0,1-1.21.5,1.45,1.45,0,0,1-1.19-.5,3.16,3.16,0,0,1-.6-1.21,7,7,0,0,1-.23-1.48q0-.77,0-1.31,0-.32,0-0.78t0.06-.94a6.63,6.63,0,0,1,.18-1,3.3,3.3,0,0,1,.35-0.86,1.87,1.87,0,0,1,.58-0.61,1.54,1.54,0,0,1,.87-0.23,1.59,1.59,0,0,1,.88.23,1.94,1.94,0,0,1,.59.61,3,3,0,0,1,.35.86,8.91,8.91,0,0,1,.25,1.91q0,0.46,0,.78Q215.66,66.19,215.62,67ZM230,72h2.83V69.23H230V72Zm-6-13.16H221.9a11,11,0,0,0-1,1.89,15.81,15.81,0,0,0-.74,2.12,17.66,17.66,0,0,0-.45,2.21,15.54,15.54,0,0,0-.15,2.12,14.34,14.34,0,0,0,.62,4.18,16.78,16.78,0,0,0,1.75,3.91H224a16.29,16.29,0,0,1-1.48-4,19.44,19.44,0,0,1-.46-4.23,18.82,18.82,0,0,1,.47-4.19A15.65,15.65,0,0,1,224,58.84ZM122.25,21.14h4.81L128,24H131l-4.81-12.85h-2.9L118.4,24h2.84Zm2.41-6.82h0L126.32,19H123Z"/></svg>