<svg id="helvetica-neue-regular" data-name="helvetica-neue-regular" xmlns="http://www.w3.org/2000/svg" viewBox="0 0 456 84"><path d="M23.63,11.31L0,72H8.25L15,53.73H40.71L47.34,72h8.92L32.55,11.31H23.63Zm-6,35.61,10.29-28.3H28l10.12,28.3H17.59ZM139.47,23.69a3.74,3.74,0,0,0,1.22-.83,3.44,3.44,0,0,0,.75-1.18,3.84,3.84,0,0,0,.25-1.37,3.23,3.23,0,0,0-.63-2,3,3,0,0,0-1.82-1.08v0a2.92,2.92,0,0,0,1.41-1.11,3.14,3.14,0,0,0,.5-1.77,2.9,2.9,0,0,0-.44-1.64,3.35,3.35,0,0,0-1.07-1,2.19,2.19,0,0,0-.69-0.27,7.28,7.28,0,0,0-.87-0.14q-0.47,0-.95-0.05h-5.55V24h6.21A4.21,4.21,0,0,0,139.47,23.69Zm-6.18-11.1h3.42a8.35,8.35,0,0,1,1.05.06,2.34,2.34,0,0,1,.87.28,1.53,1.53,0,0,1,.59.61,2.26,2.26,0,0,1,.22,1.08,1.86,1.86,0,0,1-.64,1.54,3.37,3.37,0,0,1-2.1.51h-3.42V12.59Zm0,10V18.11h3.91a5.43,5.43,0,0,1,1,.1,2.61,2.61,0,0,1,.89.34,1.82,1.82,0,0,1,.62.66,2.11,2.11,0,0,1,.23,1,2.23,2.23,0,0,1-.64,1.69,2.46,2.46,0,0,1-1.77.61h-4.28ZM127,46.6a3.58,3.58,0,0,1-.06-0.79V41a2.5,2.5,0,0,0-.31-1.31,2.16,2.16,0,0,0-.81-0.78,3.28,3.28,0,0,0-1.12-.37,8.77,8.77,0,0,0-1.25-.09,6.52,6.52,0,0,0-1.49.16,3.62,3.62,0,0,0-1.23.53,2.73,2.73,0,0,0-.86,1,3.31,3.31,0,0,0-.36,1.46H121a1.57,1.57,0,0,1,.7-1.4,3.24,3.24,0,0,1,1.62-.37,5.08,5.08,0,0,1,.73.05,2,2,0,0,1,.67.22,1.3,1.3,0,0,1,.49.47,1.53,1.53,0,0,1,.19.81,0.84,0.84,0,0,1-.25.66,1.66,1.66,0,0,1-.68.34,6.65,6.65,0,0,1-1,.18q-0.57.06-1.2,0.19t-1.16.27a3.26,3.26,0,0,0-1,.48,2.35,2.35,0,0,0-.71.82,2.74,2.74,0,0,0-.27,1.3,2.69,2.69,0,0,0,.24,1.2,2.16,2.16,0,0,0,.66.8,2.79,2.79,0,0,0,1,.45,5.07,5.07,0,0,0,3-.19,3.67,3.67,0,0,0,1.47-1.09,1.45,1.45,0,0,0,.35,1.09,1.32,1.32,0,0,0,.95.33,2.17,2.17,0,0,0,1.1-.23V46.78a1.85,1.85,0,0,1-.47.07A0.37,0.37,0,0,1,127,46.6Zm-1.59-1.84a1.71,1.71,0,0,1-.16.69,2.06,2.06,0,0,1-.5.68,2.74,2.74,0,0,1-.88.52,3.64,3.64,0,0,1-1.3.21,3.16,3.16,0,0,1-.68-0.07,1.65,1.65,0,0,1-.57-0.23,1.27,1.27,0,0,1-.4-0.42,1.24,1.24,0,0,1-.15-0.64,1.42,1.42,0,0,1,.26-0.9,1.7,1.7,0,0,1,.67-0.51,3.82,3.82,0,0,1,.94-0.26l1-.14q0.51-.06,1-0.16a1.91,1.91,0,0,0,.76-0.31v1.56ZM95.75,65.37a16.78,16.78,0,0,1-.3-3.73V39.08A11.79,11.79,0,0,0,94,32.89a10.18,10.18,0,0,0-3.83-3.69,15.45,15.45,0,0,0-5.31-1.74A41.23,41.23,0,0,0,79,27a30.75,30.75,0,0,0-7,.76,17.13,17.13,0,0,0-5.82,2.51A12.89,12.89,0,0,0,62,34.85a15.61,15.61,0,0,0-1.7,6.89h7.23q0.25-4.85,3.31-6.59a15.29,15.29,0,0,1,7.65-1.74,23.77,23.77,0,0,1,3.44.25,9.32,9.32,0,0,1,3.14,1,6.12,6.12,0,0,1,2.29,2.21,7.21,7.21,0,0,1,.89,3.83,3.94,3.94,0,0,1-1.19,3.1,7.84,7.84,0,0,1-3.23,1.62,31.31,31.31,0,0,1-4.72.85q-2.68.3-5.65,0.89-2.8.51-5.48,1.27a15.4,15.4,0,0,0-4.76,2.25,11.13,11.13,0,0,0-3.36,3.87,12.91,12.91,0,0,0-1.28,6.12,12.74,12.74,0,0,0,1.15,5.65,10.19,10.19,0,0,0,3.1,3.78,13.13,13.13,0,0,0,4.63,2.13,23.94,23.94,0,0,0,14.2-.89,17.29,17.29,0,0,0,6.93-5.14q0,3.57,1.66,5.14a6.22,6.22,0,0,0,4.46,1.57,10.24,10.24,0,0,0,5.19-1.1V66.22a8.73,8.73,0,0,1-2.21.34Q96,66.56,95.75,65.37Zm-7.52-8.71a8.1,8.1,0,0,1-.76,3.26,9.71,9.71,0,0,1-2.38,3.21,12.9,12.9,0,0,1-4.17,2.45,17.22,17.22,0,0,1-6.12,1,14.92,14.92,0,0,1-3.23-.34,7.87,7.87,0,0,1-2.68-1.1,6,6,0,0,1-1.87-2,5.82,5.82,0,0,1-.72-3,6.72,6.72,0,0,1,1.23-4.27,8,8,0,0,1,3.19-2.41,18.05,18.05,0,0,1,4.42-1.23q2.47-.38,4.89-0.68t4.63-.76a9,9,0,0,0,3.57-1.48v7.36Zm57.38-10.39a2.5,2.5,0,0,1-1.77.59,2.53,2.53,0,0,1-1.24-.29,2.41,2.41,0,0,1-.85-0.77,3.35,3.35,0,0,1-.48-1.09,5.2,5.2,0,0,1-.15-1.26,6.29,6.29,0,0,1,.14-1.36,3.41,3.41,0,0,1,.48-1.16,2.49,2.49,0,0,1,.89-0.81,2.85,2.85,0,0,1,1.39-.31,2.14,2.14,0,0,1,2.3,1.85h1.58a3.68,3.68,0,0,0-.43-1.43,3.21,3.21,0,0,0-.87-1,3.63,3.63,0,0,0-1.22-.58,5.63,5.63,0,0,0-1.49-.19,4.5,4.5,0,0,0-1.93.39,3.83,3.83,0,0,0-1.38,1.06,4.51,4.51,0,0,0-.82,1.58,6.84,6.84,0,0,0-.27,2,6.28,6.28,0,0,0,.28,1.92,4.2,4.2,0,0,0,.83,1.5,3.64,3.64,0,0,0,1.37,1,4.85,4.85,0,0,0,1.88.34,4,4,0,0,0,2.82-.94A4.29,4.29,0,0,0,148,44.6h-1.57A2.68,2.68,0,0,1,145.61,46.27ZM132,68.74a9.2,9.2,0,0,1,1.09-.75l1.19-.71q0.59-.38,1.15-0.79a5.85,5.85,0,0,0,1-.93,4.26,4.26,0,0,0,.69-1.16,4,4,0,0,0,.26-1.49,3.75,3.75,0,0,0-.31-1.58,3.27,3.27,0,0,0-.86-1.14,3.77,3.77,0,0,0-1.27-.7,4.89,4.89,0,0,0-1.56-.24,4.5,4.5,0,0,0-1.8.34,3.67,3.67,0,0,0-1.32.94,3.81,3.81,0,0,0-.78,1.43,5.16,5.16,0,0,0-.2,1.8h1.53a4.27,4.27,0,0,1,.12-1.14,3,3,0,0,1,.44-1,2.4,2.4,0,0,1,.78-0.73,2.22,2.22,0,0,1,1.14-.28,2.8,2.8,0,0,1,1,.16,2.29,2.29,0,0,1,.78.47,2.33,2.33,0,0,1,.53.73,2.21,2.21,0,0,1,.2.95,3.07,3.07,0,0,1-.21,1.17A3.1,3.1,0,0,1,135,65a6.27,6.27,0,0,1-1,.85q-0.61.42-1.42,0.93t-1.28.85a6,6,0,0,0-1.1,1,5.19,5.19,0,0,0-.8,1.39,6.8,6.8,0,0,0-.41,1.94h8.33V70.65h-6.55a2.43,2.43,0,0,1,.46-1.05A5,5,0,0,1,132,68.74Zm5.09-28.8a3.83,3.83,0,0,0-1.33-1.07,4.2,4.2,0,0,0-1.88-.4,4.44,4.44,0,0,0-1.78.35A2.29,2.29,0,0,0,130.95,40h0V35.15h-1.53V48h1.53V46.76h0a2.44,2.44,0,0,0,.62.69,3.26,3.26,0,0,0,.78.44,4.25,4.25,0,0,0,.84.23,4.62,4.62,0,0,0,.77.07,4.32,4.32,0,0,0,1.86-.38,3.73,3.73,0,0,0,1.33-1,4.4,4.4,0,0,0,.79-1.54,6.57,6.57,0,0,0,.26-1.87,6.38,6.38,0,0,0-.27-1.87A4.74,4.74,0,0,0,137.13,39.94Zm-0.69,4.65a3.52,3.52,0,0,1-.47,1.15,2.46,2.46,0,0,1-.85.81,2.62,2.62,0,0,1-1.32.31,2.84,2.84,0,0,1-1.35-.3,2.61,2.61,0,0,1-.91-0.78,3.28,3.28,0,0,1-.51-1.12,5.44,5.44,0,0,1,0-2.6,3.33,3.33,0,0,1,.5-1.12,2.52,2.52,0,0,1,2.2-1.11,2.74,2.74,0,0,1,1.29.29,2.56,2.56,0,0,1,.9.77,3.42,3.42,0,0,1,.52,1.11,4.79,4.79,0,0,1,.17,1.27A6.14,6.14,0,0,1,136.44,44.6ZM123.28,60.43a2.52,2.52,0,0,1-.84.74,3.44,3.44,0,0,1-1.11.37,7.89,7.89,0,0,1-1.26.1v1.22h3.31V72h1.53V59.24h-1.17A2.79,2.79,0,0,1,123.28,60.43Zm2-49.28h-1.89L118.4,24h1.75l1.44-3.87H127l1.4,3.87h1.89Zm-3.17,7.54,2.18-6h0l2.14,6h-4.36ZM145.4,65.23v0a3.22,3.22,0,0,0,1.26-1,2.47,2.47,0,0,0,.5-1.53,3.64,3.64,0,0,0-.3-1.53,2.85,2.85,0,0,0-.82-1.06,3.58,3.58,0,0,0-1.23-.62,5.5,5.5,0,0,0-1.54-.21,4.32,4.32,0,0,0-1.68.31,3.35,3.35,0,0,0-1.22.85,3.74,3.74,0,0,0-.75,1.3,5.79,5.79,0,0,0-.3,1.67h1.53A3.83,3.83,0,0,1,141,62.3a2.53,2.53,0,0,1,.44-0.88,2.16,2.16,0,0,1,.76-0.6,2.41,2.41,0,0,1,1.07-.23,2.53,2.53,0,0,1,1.62.51,1.84,1.84,0,0,1,.65,1.54,2,2,0,0,1-.2.9,1.92,1.92,0,0,1-.53.66,2.35,2.35,0,0,1-.77.4,3.15,3.15,0,0,1-.93.13h-0.5l-0.16,0V66a7.38,7.38,0,0,1,.92-0.05,3.63,3.63,0,0,1,1.07.15,2.28,2.28,0,0,1,1.43,1.24,2.44,2.44,0,0,1,.22,1.05,2.3,2.3,0,0,1-.83,1.81,2.72,2.72,0,0,1-.88.49,3.27,3.27,0,0,1-1.06.17,2.51,2.51,0,0,1-2-.78,3.11,3.11,0,0,1-.72-2h-1.53a4.65,4.65,0,0,0,.28,1.76,3.5,3.5,0,0,0,.85,1.31,3.63,3.63,0,0,0,1.35.8,5.44,5.44,0,0,0,1.76.27A5.83,5.83,0,0,0,145,72a4,4,0,0,0,1.39-.73,3.51,3.51,0,0,0,.95-1.21,3.83,3.83,0,0,0,.35-1.68,3.5,3.5,0,0,0-.57-2A2.66,2.66,0,0,0,145.4,65.23ZM225,24.29a4.82,4.82,0,0,0,1.81-.3,3.11,3.11,0,0,0,1.17-.79,3,3,0,0,0,.63-1.12,4.43,4.43,0,0,0,.19-1.28V11.15H227v9.4a2.9,2.9,0,0,1-.44,1.69,1.84,1.84,0,0,1-1.61.63,2.45,2.45,0,0,1-1-.19,1.49,1.49,0,0,1-.63-0.53,2.21,2.21,0,0,1-.31-0.81,5.4,5.4,0,0,1-.09-1V19.77h-1.71v0.79a3.7,3.7,0,0,0,1,2.78A3.81,3.81,0,0,0,225,24.29Zm39,15.62a4.38,4.38,0,0,0-.79,1.54,6.57,6.57,0,0,0-.26,1.87,6.37,6.37,0,0,0,.27,1.87,4.63,4.63,0,0,0,.8,1.55,3.85,3.85,0,0,0,1.33,1.06,4.19,4.19,0,0,0,1.88.4,4.53,4.53,0,0,0,1.78-.34,2.25,2.25,0,0,0,1.19-1.12h0v4.81h1.53V38.69h-1.53v1.24h0a2.53,2.53,0,0,0-.62-0.69,3.55,3.55,0,0,0-.78-0.45,4,4,0,0,0-.83-0.24,4.57,4.57,0,0,0-.77-0.07,4.23,4.23,0,0,0-1.86.39A3.81,3.81,0,0,0,263.92,39.91Zm2,0.22a2.62,2.62,0,0,1,1.31-.31,2.84,2.84,0,0,1,1.35.3,2.63,2.63,0,0,1,.91.78A3.29,3.29,0,0,1,270,42a5.42,5.42,0,0,1,0,2.6,3.32,3.32,0,0,1-.49,1.13,2.53,2.53,0,0,1-2.2,1.11,2.73,2.73,0,0,1-1.29-.29,2.55,2.55,0,0,1-.9-0.77,3.41,3.41,0,0,1-.52-1.11,4.71,4.71,0,0,1-.17-1.27,6,6,0,0,1,.14-1.33,3.55,3.55,0,0,1,.47-1.15A2.45,2.45,0,0,1,266,40.13Zm8-1.44V48h1.53V43.86a6.4,6.4,0,0,1,.18-1.59,3.08,3.08,0,0,1,.58-1.18,2.47,2.47,0,0,1,1-.74,4.32,4.32,0,0,1,1.57-.25V38.48a3.44,3.44,0,0,0-2.05.5,4.14,4.14,0,0,0-1.37,1.67h0v-2H274ZM255.23,13.31h0l4,10.69h1.46l4-10.69h0V24h1.62V11.15h-2.34L260,21.95l-4-10.8h-2.34V24h1.62V13.31Zm-22,6.19,2.14-2,4.64,6.5h2.16l-5.63-7.67L242,11.15h-2.21l-6.52,6.41V11.15h-1.71V24h1.71V19.5Zm18.81,3.06h-6.8V11.15h-1.71V24h8.51V22.56Zm18.77-8.87h0L277.61,24h1.87V11.15h-1.62V21.57h0l-6.77-10.42h-1.82V24h1.62V13.69Zm10.36,29.63a7.65,7.65,0,0,0,1.47.43q0.79,0.15,1.47.34a3.8,3.8,0,0,1,1.13.5,1,1,0,0,1,.45.9,1.12,1.12,0,0,1-.22.71,1.35,1.35,0,0,1-.55.42,2.78,2.78,0,0,1-.73.2,5.57,5.57,0,0,1-.76.05,4.51,4.51,0,0,1-.91-0.09,2.54,2.54,0,0,1-.79-0.3,1.61,1.61,0,0,1-.57-0.56,1.71,1.71,0,0,1-.23-0.85h-1.53a3.38,3.38,0,0,0,.36,1.47,2.7,2.7,0,0,0,.86,1,3.61,3.61,0,0,0,1.24.53,6.56,6.56,0,0,0,1.48.16,7.58,7.58,0,0,0,1.41-.14,3.84,3.84,0,0,0,1.28-.48,2.75,2.75,0,0,0,.92-0.9,2.61,2.61,0,0,0,.35-1.4,2.2,2.2,0,0,0-.26-1.12,2.32,2.32,0,0,0-.69-0.75,3.67,3.67,0,0,0-1-.48q-0.55-.18-1.12-0.31l-1.08-.24a6.22,6.22,0,0,1-1-.29,2.22,2.22,0,0,1-.71-0.43,0.86,0.86,0,0,1-.28-0.66,0.91,0.91,0,0,1,.18-0.58,1.31,1.31,0,0,1,.47-0.36,2.33,2.33,0,0,1,.64-0.19,4.6,4.6,0,0,1,.69-0.05,3.45,3.45,0,0,1,.75.08,2.29,2.29,0,0,1,.68.26,1.55,1.55,0,0,1,.5.48,1.54,1.54,0,0,1,.23.75h1.53a3.42,3.42,0,0,0-.36-1.41,2.43,2.43,0,0,0-.82-0.9,3.38,3.38,0,0,0-1.18-.47,7.35,7.35,0,0,0-1.46-.13,5.17,5.17,0,0,0-1.23.15,3.72,3.72,0,0,0-1.12.47,2.59,2.59,0,0,0-.81.82,2.24,2.24,0,0,0-.31,1.21,2,2,0,0,0,.45,1.4A3,3,0,0,0,281.22,43.31Zm59.23-20.92a3.43,3.43,0,0,1-1.05.37,6.37,6.37,0,0,1-1.16.11,5.49,5.49,0,0,1-1.4-.18,3.51,3.51,0,0,1-1.2-.56,2.88,2.88,0,0,1-.83-1,2.91,2.91,0,0,1-.31-1.4h-1.62a4.53,4.53,0,0,0,.42,2,3.89,3.89,0,0,0,1.15,1.4,5.06,5.06,0,0,0,1.69.82,7.54,7.54,0,0,0,2,.27,7.83,7.83,0,0,0,1.77-.21,5.13,5.13,0,0,0,1.61-.67,3.78,3.78,0,0,0,1.18-1.19,3.24,3.24,0,0,0,.46-1.75,3.22,3.22,0,0,0-.35-1.58,3.14,3.14,0,0,0-.94-1,5,5,0,0,0-1.32-.66q-0.74-.24-1.5-0.42l-1.5-.33a7.85,7.85,0,0,1-1.32-.39,2.59,2.59,0,0,1-.94-0.6,1.34,1.34,0,0,1-.35-1,2.09,2.09,0,0,1,.24-1.05,1.9,1.9,0,0,1,.65-0.67,2.82,2.82,0,0,1,.93-0.36,5.2,5.2,0,0,1,1.06-.11,3.63,3.63,0,0,1,2.19.62,2.68,2.68,0,0,1,1,2h1.62a4.52,4.52,0,0,0-.4-1.83,3.56,3.56,0,0,0-1-1.27,4.16,4.16,0,0,0-1.49-.74,6.87,6.87,0,0,0-1.84-.23,6.6,6.6,0,0,0-1.72.23,4.76,4.76,0,0,0-1.49.68,3.47,3.47,0,0,0-1.05,1.17,3.41,3.41,0,0,0-.4,1.68,2.81,2.81,0,0,0,.35,1.47,2.86,2.86,0,0,0,.94,1,5.45,5.45,0,0,0,1.32.59q0.74,0.22,1.5.4l1.5,0.33a6.82,6.82,0,0,1,1.32.42,2.56,2.56,0,0,1,.94.67,1.61,1.61,0,0,1,.35,1.08A2,2,0,0,1,340.45,22.39ZM323,18.51h4.18a2.27,2.27,0,0,1,1,.19,1.69,1.69,0,0,1,.61.5,2.12,2.12,0,0,1,.34.74c0.07,0.28.13,0.58,0.18,0.89a6.17,6.17,0,0,1,.11,1c0,0.32,0,.63,0,0.91a5.66,5.66,0,0,0,.08.77,1.07,1.07,0,0,0,.24.54h1.91a2.19,2.19,0,0,1-.4-0.75,6,6,0,0,1-.21-0.89,8,8,0,0,1-.09-1c0-.32,0-0.64-0.05-1a8,8,0,0,0-.15-0.9,2.72,2.72,0,0,0-.31-0.78,2,2,0,0,0-.56-0.6,2.29,2.29,0,0,0-.91-0.36v0a2.73,2.73,0,0,0,1.7-1.21,3.9,3.9,0,0,0,.53-2.05,3.1,3.1,0,0,0-1-2.47,4.23,4.23,0,0,0-2.87-.9h-6V24H323V18.51Zm0-5.92h4.25a2.22,2.22,0,0,1,1.75.61,2.31,2.31,0,0,1,.54,1.58,2.35,2.35,0,0,1-.24,1.14,1.91,1.91,0,0,1-.65.7,2.46,2.46,0,0,1-.95.35,6.86,6.86,0,0,1-1.13.09H323V12.59Zm-14.56,9.67a5.55,5.55,0,0,0,1.93,1.48,6.17,6.17,0,0,0,2.68.55,6,6,0,0,0,3.08-.76l2,1.57L318.94,24l-1.69-1.33a6.24,6.24,0,0,0,1.46-2.3,8.12,8.12,0,0,0,.49-2.81A8.29,8.29,0,0,0,318.8,15a6.41,6.41,0,0,0-1.16-2.15,5.67,5.67,0,0,0-1.93-1.49,6.72,6.72,0,0,0-5.36,0,5.65,5.65,0,0,0-1.93,1.49A6.34,6.34,0,0,0,307.26,15a8.46,8.46,0,0,0,0,5.06A6.34,6.34,0,0,0,308.43,22.25Zm0.41-6.6a5.17,5.17,0,0,1,.79-1.7A4,4,0,0,1,311,12.74a4.66,4.66,0,0,1,4,0A4.06,4.06,0,0,1,316.44,14a5.21,5.21,0,0,1,.79,1.7,7.41,7.41,0,0,1,.25,1.92,7.2,7.2,0,0,1-.36,2.28A4.59,4.59,0,0,1,316,21.7l-1.71-1.37-0.9,1,1.42,1.13a4.59,4.59,0,0,1-1.78.36,4.16,4.16,0,0,1-2-.46,4,4,0,0,1-1.39-1.22,5.18,5.18,0,0,1-.79-1.7A7.36,7.36,0,0,1,308.84,15.66Zm-11.2,3.09h3.92a3.91,3.91,0,0,0,2.94-1,3.82,3.82,0,0,0,1-2.81,3.78,3.78,0,0,0-1-2.8,4,4,0,0,0-2.94-1h-5.63V24h1.71V18.74Zm0-6.16H301a3.14,3.14,0,0,1,2.13.6,2.23,2.23,0,0,1,.68,1.75,2.26,2.26,0,0,1-.68,1.76,3.05,3.05,0,0,1-2.13.59h-3.35V12.59ZM214.63,48V35.15H213.1V48h1.53ZM182.28,18.11h5.9V16.67h-5.9V12.59H189V11.15h-8.44V24h1.71V18.11ZM195.76,48h1.53V38.69h-1.53V48ZM164.08,23.55a4.83,4.83,0,0,0,1.93-1.3,5.37,5.37,0,0,0,1.12-2.11,10.39,10.39,0,0,0,.36-2.87,6.05,6.05,0,0,0-1.6-4.61,6.41,6.41,0,0,0-4.57-1.51H156.9V24h4.41A7.71,7.71,0,0,0,164.08,23.55Zm-5.47-11h2.88a5.28,5.28,0,0,1,2,.33,3.25,3.25,0,0,1,1.32,1,4,4,0,0,1,.74,1.55,8.58,8.58,0,0,1,.23,2.06,7.33,7.33,0,0,1-.24,2,4.93,4.93,0,0,1-.62,1.4,3.25,3.25,0,0,1-.86.88,4.17,4.17,0,0,1-1,.49,4,4,0,0,1-.92.22q-0.43,0-.72,0h-2.84v-10Zm19.89,10h-7.22V18.11H178V16.67h-6.68V12.59h7.16V11.15h-8.87V24h8.93V22.56Zm40.84-11.41h-1.71V24h1.71V11.15Zm-22,24h-1.53V37h1.53V35.15ZM144.75,22.36a5.12,5.12,0,0,0,1.85,1.41,6.19,6.19,0,0,0,2.61.51,5.42,5.42,0,0,0,3.89-1.35,5.84,5.84,0,0,0,1.67-3.78h-1.71a4.91,4.91,0,0,1-.32,1.48,3.58,3.58,0,0,1-.75,1.18,3.41,3.41,0,0,1-1.13.77,3.82,3.82,0,0,1-1.5.28,4.23,4.23,0,0,1-2-.43A3.88,3.88,0,0,1,146,21.27a5,5,0,0,1-.78-1.71,8.28,8.28,0,0,1-.25-2.08,7.4,7.4,0,0,1,.25-1.94,5,5,0,0,1,.78-1.67,3.9,3.9,0,0,1,1.35-1.16,4.17,4.17,0,0,1,2-.43,4,4,0,0,1,2.33.68A3.18,3.18,0,0,1,152.94,15h1.71a4.8,4.8,0,0,0-.61-1.81,4.46,4.46,0,0,0-1.17-1.31,5.13,5.13,0,0,0-1.6-.79,6.61,6.61,0,0,0-1.91-.27,6.15,6.15,0,0,0-2.62.53,5.41,5.41,0,0,0-1.91,1.45A6.36,6.36,0,0,0,143.67,15a8.58,8.58,0,0,0-.4,2.64,9.06,9.06,0,0,0,.37,2.63A6.06,6.06,0,0,0,144.75,22.36Zm61.52-4.25H213V24h1.71V11.15H213v5.53h-6.77V11.15h-1.71V24h1.71V18.11ZM199.76,37h1.53V35.15h-1.53V37Zm5.53,7.45,1.44-1.33L209.91,48h1.94l-4-5.92,3.69-3.38h-2.05l-4.25,4.07V35.15h-1.53V48h1.53V44.47ZM191.89,22.33a5.82,5.82,0,0,0,1.93,1.43,6,6,0,0,0,2.57.53,6.08,6.08,0,0,0,2.25-.44,4.27,4.27,0,0,0,1.87-1.45L201,24H202V17.23h-5.63v1.44h4.1a4.37,4.37,0,0,1-.23,1.65,3.67,3.67,0,0,1-2.11,2.22,4.59,4.59,0,0,1-1.78.32,4.08,4.08,0,0,1-1.9-.42,4.14,4.14,0,0,1-1.38-1.13,5,5,0,0,1-.85-1.64,6.47,6.47,0,0,1-.29-1.94,8,8,0,0,1,.25-2A5.39,5.39,0,0,1,193,14a3.91,3.91,0,0,1,3.38-1.7,5.23,5.23,0,0,1,1.36.17,3.77,3.77,0,0,1,1.14.51,3,3,0,0,1,.85.87,3.37,3.37,0,0,1,.47,1.27h1.71a5.2,5.2,0,0,0-.67-1.94A4.55,4.55,0,0,0,200,11.85a5,5,0,0,0-1.66-.77,7.75,7.75,0,0,0-2-.24,5.94,5.94,0,0,0-2.67.57,5.59,5.59,0,0,0-1.91,1.52,6.57,6.57,0,0,0-1.15,2.22,9.09,9.09,0,0,0-.39,2.67,7.22,7.22,0,0,0,.41,2.43A6.26,6.26,0,0,0,191.89,22.33Zm198.43-.49h0l-2.84-10.69h-1.85l-2.88,10.69h0l-2.52-10.69h-1.75L381.7,24h1.78l3-10.8h0L389.42,24h1.78l3.44-12.85h-1.71Zm-101.65,41a16,16,0,0,0-.89-2q-0.52-1-1.17-2h-1.15A15.82,15.82,0,0,1,287.27,63a16.58,16.58,0,0,1,.55,4.31,16.34,16.34,0,0,1-.54,4.22,14.89,14.89,0,0,1-1.82,4.06h1.15a13.78,13.78,0,0,0,2.12-4,13.6,13.6,0,0,0,.71-4.28,12.48,12.48,0,0,0-.2-2.27A13.67,13.67,0,0,0,288.67,62.88Zm-3.84-2.42-1.93.72v-2h-1v2L280,60.46l-0.32.86L281.63,62l-1.17,1.64,0.81,0.56,1.17-1.73,1.24,1.73,0.74-.56L283.23,62l2-.68Zm-7.43,7.88a5.82,5.82,0,0,0,.24-0.67,6.56,6.56,0,0,0,.16-0.75c0-.27.08-0.6,0.12-1h-1.46a7.1,7.1,0,0,1-.41,2l-2.32-2.83a8.17,8.17,0,0,0,.9-0.6,4.83,4.83,0,0,0,.77-0.75,3.42,3.42,0,0,0,.54-0.91,2.88,2.88,0,0,0,.2-1.07,2.42,2.42,0,0,0-.26-1.14,2.52,2.52,0,0,0-.69-0.83,2.94,2.94,0,0,0-1-.5,4.21,4.21,0,0,0-1.16-.16,3.33,3.33,0,0,0-1.24.22,2.66,2.66,0,0,0-.91.59,2.46,2.46,0,0,0-.56.85,2.67,2.67,0,0,0-.19,1,3,3,0,0,0,.12.87,3.32,3.32,0,0,0,.32.74,7.73,7.73,0,0,0,.46.69l0.52,0.72a12.91,12.91,0,0,0-1.16.69,4.91,4.91,0,0,0-1,.83,3.78,3.78,0,0,0-.65,1,3.4,3.4,0,0,0-.24,1.33,4.62,4.62,0,0,0,.13,1,3,3,0,0,0,.57,1.15,3.5,3.5,0,0,0,1.22,1,4.7,4.7,0,0,0,2.09.4,5,5,0,0,0,2.06-.45,3.57,3.57,0,0,0,1.58-1.35l1.37,1.6h2l-2.5-2.9Zm-5.27-7.51a1.71,1.71,0,0,1,1-.33,1.44,1.44,0,0,1,1.08.4,1.33,1.33,0,0,1,.4,1,1.69,1.69,0,0,1-.16.75,2.48,2.48,0,0,1-.41.6,3.7,3.7,0,0,1-.56.49l-0.58.4-0.43-.54a6.65,6.65,0,0,1-.4-0.55,3.49,3.49,0,0,1-.3-0.57,1.52,1.52,0,0,1-.12-0.58A1.18,1.18,0,0,1,272.12,60.83Zm2.06,9.62a3,3,0,0,1-1.57.41,2.64,2.64,0,0,1-.91-0.16,2.72,2.72,0,0,1-.78-0.44,2.14,2.14,0,0,1-.55-0.68,2,2,0,0,1-.21-0.89,2.56,2.56,0,0,1,.18-1,2.81,2.81,0,0,1,.49-0.76,3.8,3.8,0,0,1,.71-0.61c0.27-.18.55-0.35,0.86-0.52l3,3.55A3.62,3.62,0,0,1,274.18,70.45Zm17-34.55h-1.53v2.79H288V40h1.58V46a3.54,3.54,0,0,0,.13,1,1.27,1.27,0,0,0,.39.61,1.49,1.49,0,0,0,.69.3,5.47,5.47,0,0,0,1,.08H293V46.65h-0.7a5.11,5.11,0,0,1-.59,0,0.74,0.74,0,0,1-.35-0.12,0.44,0.44,0,0,1-.17-0.25,1.7,1.7,0,0,1,0-.43V40H293V38.69h-1.85V35.9Zm1.13-23a5.67,5.67,0,0,0-1.93-1.49,6.72,6.72,0,0,0-5.36,0,5.65,5.65,0,0,0-1.93,1.49A6.34,6.34,0,0,0,281.92,15a8.46,8.46,0,0,0,0,5.06,6.34,6.34,0,0,0,1.16,2.15A5.55,5.55,0,0,0,285,23.74a6.82,6.82,0,0,0,5.36,0,5.57,5.57,0,0,0,1.93-1.48,6.41,6.41,0,0,0,1.16-2.15,8.46,8.46,0,0,0,0-5.06A6.41,6.41,0,0,0,292.3,12.89Zm-0.41,6.6a5.21,5.21,0,0,1-.79,1.7,4.06,4.06,0,0,1-1.39,1.22,4.66,4.66,0,0,1-4,0,4,4,0,0,1-1.39-1.22,5.18,5.18,0,0,1-.79-1.7,7.36,7.36,0,0,1,0-3.83,5.17,5.17,0,0,1,.79-1.7,4,4,0,0,1,1.39-1.21,4.66,4.66,0,0,1,4,0A4.06,4.06,0,0,1,291.09,14a5.21,5.21,0,0,1,.79,1.7A7.42,7.42,0,0,1,291.88,19.49ZM251,59.79a3.45,3.45,0,0,0-1.2-.7,4.62,4.62,0,0,0-1.54-.24,4.26,4.26,0,0,0-1.69.32,3.58,3.58,0,0,0-1.28.91,4.08,4.08,0,0,0-.8,1.38,4.79,4.79,0,0,0-.26,1.71h1.53a4.5,4.5,0,0,1,.14-1.17,2.53,2.53,0,0,1,.46-0.94,2.3,2.3,0,0,1,.78-0.63,2.47,2.47,0,0,1,1.12-.23,2.1,2.1,0,0,1,1.54.56,2.32,2.32,0,0,1,.64,1.55,2.56,2.56,0,0,1-.16,1.13,3.23,3.23,0,0,1-.53.86,8.25,8.25,0,0,1-.72.74,8.2,8.2,0,0,0-.74.77,4.11,4.11,0,0,0-.59.94,3.49,3.49,0,0,0-.28,1.29v0.85H249v-0.7a2.43,2.43,0,0,1,.13-0.84,2.85,2.85,0,0,1,.36-0.68,4.66,4.66,0,0,1,.5-0.59l0.57-.55,0.57-.59a4.11,4.11,0,0,0,.5-0.67,3.6,3.6,0,0,0,.35-0.8,3.38,3.38,0,0,0,.14-1,3.94,3.94,0,0,0-.28-1.53A3.14,3.14,0,0,0,251,59.79ZM300.88,44a3.79,3.79,0,0,1-.17,1.16,2.61,2.61,0,0,1-.51.93,2.26,2.26,0,0,1-.85.61,3.12,3.12,0,0,1-1.21.22,1.87,1.87,0,0,1-1.39-.5,1.85,1.85,0,0,1-.5-1.37v-6.3h-1.53v6.12a5.78,5.78,0,0,0,.15,1.38,2.6,2.6,0,0,0,.53,1.07,2.44,2.44,0,0,0,1,.69,4.16,4.16,0,0,0,1.53.24,3.72,3.72,0,0,0,1.78-.41,3.13,3.13,0,0,0,1.24-1.27h0V48h1.44V38.69h-1.53V44ZM266.31,66a3.86,3.86,0,0,0-.94-0.62,4.92,4.92,0,0,0-.85-0.32l-1.08-.29V60.34a2.4,2.4,0,0,1,2,2.09H267a5.15,5.15,0,0,0-1.22-2.48,3.74,3.74,0,0,0-2.32-1.08V57.65h-1v1.19a4.46,4.46,0,0,0-1.45.34,3.62,3.62,0,0,0-2,2A4.13,4.13,0,0,0,259,64a2.31,2.31,0,0,0,.67.95,4.24,4.24,0,0,0,1.15.67,12.17,12.17,0,0,0,1.65.51v4.77a3.23,3.23,0,0,1-1.79-.88,2.67,2.67,0,0,1-.75-1.91h-1.53a4.2,4.2,0,0,0,4.07,4.21v1.48h1V72.29a5.51,5.51,0,0,0,1.58-.36,3.88,3.88,0,0,0,1.24-.78,3.55,3.55,0,0,0,.82-1.18,3.91,3.91,0,0,0,.3-1.57,3,3,0,0,0-.31-1.42A3.48,3.48,0,0,0,266.31,66Zm-3.85-1.49a6.71,6.71,0,0,1-.83-0.29,2.78,2.78,0,0,1-.66-0.39,1.52,1.52,0,0,1-.43-0.56,1.92,1.92,0,0,1-.15-0.8,2,2,0,0,1,.6-1.56,2.56,2.56,0,0,1,1.47-.62v4.21Zm3.14,5.07a1.82,1.82,0,0,1-.49.7,2.11,2.11,0,0,1-.74.42,3.65,3.65,0,0,1-.93.18V66.35c0.32,0.1.63,0.2,0.92,0.32a2.77,2.77,0,0,1,.74.42,1.77,1.77,0,0,1,.67,1.48A2.67,2.67,0,0,1,265.6,69.56Zm-11,2.44h2V70h-2v2Zm1.85-8.89v-4h-1.71v4l0.45,5.6H256Zm4.06-16.32a4.41,4.41,0,0,0,.79-1.54,6.57,6.57,0,0,0,.26-1.87,6.38,6.38,0,0,0-.27-1.87,4.73,4.73,0,0,0-.8-1.56,3.83,3.83,0,0,0-1.33-1.07,4.2,4.2,0,0,0-1.88-.4,4.44,4.44,0,0,0-1.78.35A2.29,2.29,0,0,0,254.32,40h0V38.69h-1.53V51.55h1.53V46.76h0a2.44,2.44,0,0,0,.62.69,3.26,3.26,0,0,0,.78.44,4.25,4.25,0,0,0,.84.23,4.62,4.62,0,0,0,.77.07,4.32,4.32,0,0,0,1.86-.38A3.73,3.73,0,0,0,260.52,46.79Zm-2-.23a2.62,2.62,0,0,1-1.32.31,2.84,2.84,0,0,1-1.35-.3,2.61,2.61,0,0,1-.91-0.78,3.28,3.28,0,0,1-.51-1.12,5.44,5.44,0,0,1,0-2.6,3.33,3.33,0,0,1,.5-1.12,2.52,2.52,0,0,1,2.2-1.11,2.74,2.74,0,0,1,1.29.29,2.56,2.56,0,0,1,.9.77,3.42,3.42,0,0,1,.52,1.11,4.79,4.79,0,0,1,.17,1.27,6.14,6.14,0,0,1-.14,1.33,3.52,3.52,0,0,1-.47,1.15A2.46,2.46,0,0,1,258.48,46.56ZM420,22.56l8-10V11.15h-9.4v1.44h7.38l-8,10V24h10.22V22.56H420ZM308.17,46.45h0l-2.61-7.76h-1.71L307.27,48h1.64l3.4-9.31h-1.6Zm56-27.1A3.64,3.64,0,0,1,363.3,22a3.29,3.29,0,0,1-2.49.89,3.65,3.65,0,0,1-2.65-.89,3.49,3.49,0,0,1-.92-2.62V11.15h-1.71v8.21a4.65,4.65,0,0,0,1.39,3.75,5.83,5.83,0,0,0,3.88,1.18,5.27,5.27,0,0,0,3.74-1.23,4.84,4.84,0,0,0,1.31-3.7V11.15h-1.71v8.21Zm8.59,2.93h0L369,11.15h-1.84L371.71,24h1.95l4.57-12.85h-1.78Zm39-5-3.85-6.12h-2l5,7.6V24h1.71V18.74l4.91-7.6h-1.95ZM247.19,72h2V70h-2v2ZM405.61,11.15H403.7l-3.35,5-3.2-5h-2.05l4.23,6.25L394.86,24h1.91l3.56-5.31L403.79,24h2.09l-4.52-6.61ZM335,38.69h-1.84L330.82,42l-2.23-3.26h-2l3.24,4.41L326.37,48h1.85l2.59-3.85L333.41,48h2l-3.6-5Zm-12.74,7.61h0l-1.94-7.61h-1.67l-1.87,7.61h0l-2.11-7.61h-1.69l3,9.31h1.66l1.87-7.4h0l1.89,7.4h1.62l3-9.31h-1.58Zm30.29-6.57v-1h-7.24V40h5.26l-5.62,6.79V48h7.85V46.65h-5.94ZM343.9,12.59h4.29V24h1.71V12.59h4.29V11.15H343.9v1.44Zm-3.74,33.72h0l-2.72-7.61h-1.73l3.69,9.25-0.63,1.57a1.38,1.38,0,0,1-.48.64,1.31,1.31,0,0,1-.78.23,1.93,1.93,0,0,1-.44-0.06,2.58,2.58,0,0,1-.46-0.15v1.4a2.54,2.54,0,0,0,.52.13,4.09,4.09,0,0,0,.54,0,2.7,2.7,0,0,0,.89-0.14,2,2,0,0,0,.7-0.43,3.13,3.13,0,0,0,.58-0.77,9.74,9.74,0,0,0,.53-1.15l4.05-10.55h-1.62Zm-156.8.9V38.69h-1.44V40h0a2.72,2.72,0,0,0-1.15-1.16,3.43,3.43,0,0,0-1.62-.39,4.14,4.14,0,0,0-2,.46,4,4,0,0,0-1.33,1.17,4.63,4.63,0,0,0-.72,1.58,7,7,0,0,0-.22,1.7,6.17,6.17,0,0,0,.26,1.81,4.32,4.32,0,0,0,.78,1.49,3.79,3.79,0,0,0,1.3,1,4.1,4.1,0,0,0,1.82.38,3.72,3.72,0,0,0,1.7-.4,2.57,2.57,0,0,0,1.2-1.27h0V47a6.21,6.21,0,0,1-.15,1.42,3,3,0,0,1-.5,1.11,2.39,2.39,0,0,1-.86.72,2.84,2.84,0,0,1-1.28.26,4.11,4.11,0,0,1-.79-0.08,2.89,2.89,0,0,1-.77-0.26,1.91,1.91,0,0,1-.59-0.47,1.13,1.13,0,0,1-.26-0.7h-1.53a2.41,2.41,0,0,0,.4,1.28,2.84,2.84,0,0,0,.91.85,4,4,0,0,0,1.22.47,6.35,6.35,0,0,0,1.32.14,4.25,4.25,0,0,0,3.28-1.13A4.9,4.9,0,0,0,183.36,47.21Zm-1.67-2.75a3.78,3.78,0,0,1-.48,1.16,2.5,2.5,0,0,1-.86.83,2.47,2.47,0,0,1-1.29.31,2.33,2.33,0,0,1-1.26-.31,2.43,2.43,0,0,1-.81-0.83,3.59,3.59,0,0,1-.43-1.14,6.41,6.41,0,0,1-.13-1.26,5.27,5.27,0,0,1,.15-1.28,3.15,3.15,0,0,1,.49-1.08,2.45,2.45,0,0,1,.85-0.75,2.64,2.64,0,0,1,1.26-.28,2.43,2.43,0,0,1,1.22.29,2.39,2.39,0,0,1,.82.76,3.41,3.41,0,0,1,.46,1.07,5.12,5.12,0,0,1,.14,1.21A5.6,5.6,0,0,1,181.7,44.45Zm9.64-4.12a1.85,1.85,0,0,1,.5,1.37V48h1.53V41.88a5.78,5.78,0,0,0-.15-1.38,2.61,2.61,0,0,0-.53-1.07,2.52,2.52,0,0,0-1-.7,4,4,0,0,0-1.53-.25,4.31,4.31,0,0,0-.86.09,3.8,3.8,0,0,0-.85.28,2.86,2.86,0,0,0-.73.49,2,2,0,0,0-.5.73h0V35.15h-1.53V48h1.53V42.74a3.79,3.79,0,0,1,.17-1.16,2.64,2.64,0,0,1,.51-0.93,2.28,2.28,0,0,1,.85-0.61,3.12,3.12,0,0,1,1.21-.22A1.87,1.87,0,0,1,191.34,40.33ZM179.46,60.89h6.7a19.47,19.47,0,0,0-1.88,2.32,18.68,18.68,0,0,0-1.54,2.67,18.25,18.25,0,0,0-1.09,3,15.88,15.88,0,0,0-.53,3.16h1.71a16.05,16.05,0,0,1,.5-3.08,20.54,20.54,0,0,1,1.07-3.08A20.28,20.28,0,0,1,185.9,63a13.08,13.08,0,0,1,1.82-2.27V59.45h-8.26v1.44Zm-23.38-1.66h-1.22L149,67.54V69h5.6v3h1.44V69h1.73V67.66h-1.73V59.24Zm-1.44,8.42h-4.28l4.25-6.25h0v6.25Zm46.65-18.49V38.69h-1.53V48.92a2,2,0,0,1-.18,1,0.75,0.75,0,0,1-.68.28h-0.46l-0.15,0v1.31a4,4,0,0,0,.77.07,2.28,2.28,0,0,0,1.63-.57A2.38,2.38,0,0,0,201.29,49.17Zm-5.71,16a3,3,0,0,0,1.29-1.07,2.76,2.76,0,0,0,.48-1.57,3.44,3.44,0,0,0-.22-1.2,2.87,2.87,0,0,0-.68-1,3.33,3.33,0,0,0-1.2-.74,5.05,5.05,0,0,0-1.78-.28,4.61,4.61,0,0,0-1.41.22,3.75,3.75,0,0,0-1.2.63,3,3,0,0,0-1.13,2.41,2.81,2.81,0,0,0,.49,1.59,2.75,2.75,0,0,0,1.3,1.05,3.24,3.24,0,0,0-1.66,1.21,3.39,3.39,0,0,0-.58,2,4.06,4.06,0,0,0,.33,1.7,3.39,3.39,0,0,0,.92,1.22,3.83,3.83,0,0,0,1.38.72,6,6,0,0,0,1.71.23,5.32,5.32,0,0,0,1.66-.25,3.78,3.78,0,0,0,1.34-.75,3.6,3.6,0,0,0,.9-1.22,3.9,3.9,0,0,0,.33-1.66,3.49,3.49,0,0,0-.56-2A3.1,3.1,0,0,0,195.58,65.14Zm-4.23-2.59a1.87,1.87,0,0,1,.18-0.85,1.92,1.92,0,0,1,.48-0.61,2,2,0,0,1,.71-0.38,3,3,0,0,1,.86-0.13,2.34,2.34,0,0,1,1.54.5,1.79,1.79,0,0,1,.6,1.47,1.94,1.94,0,0,1-.59,1.51,2.16,2.16,0,0,1-1.51.54,3,3,0,0,1-.88-0.13A2.06,2.06,0,0,1,192,64.1a1.79,1.79,0,0,1-.49-0.64A2.14,2.14,0,0,1,191.35,62.55ZM196,69.37a2.29,2.29,0,0,1-.54.78,2.56,2.56,0,0,1-.83.52,2.84,2.84,0,0,1-1.05.19,2.89,2.89,0,0,1-2-.66,2.26,2.26,0,0,1-.77-1.81,2.39,2.39,0,0,1,.21-1,2.29,2.29,0,0,1,.58-0.77,2.55,2.55,0,0,1,.86-0.5A3.19,3.19,0,0,1,193.6,66a2.77,2.77,0,0,1,1.85.7,2.38,2.38,0,0,1,.57.77,2.24,2.24,0,0,1,.21,1A2.51,2.51,0,0,1,196,69.37Zm10.41-8.89a3.24,3.24,0,0,0-1.39-1,5.06,5.06,0,0,0-1.69-.28,4.57,4.57,0,0,0-1.69.31,3.94,3.94,0,0,0-1.33.85,3.8,3.8,0,0,0-.86,1.31,4.49,4.49,0,0,0-.31,1.68,5.5,5.5,0,0,0,.26,1.73,3.64,3.64,0,0,0,.77,1.35,3.55,3.55,0,0,0,1.27.87,4.46,4.46,0,0,0,1.73.32,3.34,3.34,0,0,0,3-1.76l0,0a8.13,8.13,0,0,1-.77,3.72,2.28,2.28,0,0,1-2.11,1.22,2.54,2.54,0,0,1-1.58-.5,1.94,1.94,0,0,1-.76-1.44h-1.53a3.28,3.28,0,0,0,1.21,2.47,4.27,4.27,0,0,0,2.66.81,3.63,3.63,0,0,0,3.38-1.77,10.05,10.05,0,0,0,1.05-5.08,10.71,10.71,0,0,0-.35-3A5,5,0,0,0,206.46,60.48Zm-0.7,4.1a2.69,2.69,0,0,1-.52.9,2.48,2.48,0,0,1-.83.61,2.53,2.53,0,0,1-1.08.22,2.27,2.27,0,0,1-1-.22,2.52,2.52,0,0,1-.79-0.6,2.86,2.86,0,0,1-.52-0.86,2.76,2.76,0,0,1-.19-1,4.67,4.67,0,0,1,.13-1.13,2.86,2.86,0,0,1,.43-1,2.17,2.17,0,0,1,.77-0.68,2.46,2.46,0,0,1,1.16-.25,2.59,2.59,0,0,1,1.13.23,2.38,2.38,0,0,1,.82.64,2.83,2.83,0,0,1,.5.93,3.58,3.58,0,0,1,.17,1.12A3.21,3.21,0,0,1,205.75,64.58Zm-49.3-24.64h0a2.49,2.49,0,0,0-.62-0.69,3.55,3.55,0,0,0-.78-0.45,4,4,0,0,0-.83-0.24,4.55,4.55,0,0,0-.77-0.07,4.23,4.23,0,0,0-1.86.39,3.82,3.82,0,0,0-1.33,1,4.4,4.4,0,0,0-.79,1.54,6.57,6.57,0,0,0-.26,1.87,6.37,6.37,0,0,0,.27,1.87,4.63,4.63,0,0,0,.8,1.55,3.87,3.87,0,0,0,1.33,1.06,4.2,4.2,0,0,0,1.88.4,4.54,4.54,0,0,0,1.78-.34,2.25,2.25,0,0,0,1.19-1.12h0V48H158V35.15h-1.53v4.79Zm-0.1,4.7a3.32,3.32,0,0,1-.5,1.13,2.52,2.52,0,0,1-2.2,1.11,2.73,2.73,0,0,1-1.29-.29,2.56,2.56,0,0,1-.9-0.77A3.41,3.41,0,0,1,151,44.7a4.75,4.75,0,0,1-.17-1.27,6.08,6.08,0,0,1,.14-1.33,3.53,3.53,0,0,1,.47-1.15,2.44,2.44,0,0,1,.86-0.81,2.63,2.63,0,0,1,1.31-.31,2.84,2.84,0,0,1,1.35.3,2.62,2.62,0,0,1,.91.78,3.29,3.29,0,0,1,.51,1.13,5.34,5.34,0,0,1,.16,1.32A5.42,5.42,0,0,1,156.35,44.63Zm10.14,20a3.55,3.55,0,0,0-1.31-.82,4.73,4.73,0,0,0-1.6-.27,4,4,0,0,0-1.3.22,2.46,2.46,0,0,0-1.07.69l0,0,0.68-3.67H167V59.45h-6.3l-1.19,6.62,1.31,0.07a3.78,3.78,0,0,1,1-.87,2.66,2.66,0,0,1,1.34-.33,3.09,3.09,0,0,1,1.18.22,2.65,2.65,0,0,1,.91.6,2.7,2.7,0,0,1,.58.92,3.18,3.18,0,0,1,.21,1.16,3.72,3.72,0,0,1-.22,1.32,2.73,2.73,0,0,1-.58.94,2.38,2.38,0,0,1-.86.57,2.88,2.88,0,0,1-1,.19,3.09,3.09,0,0,1-1.05-.17,2.46,2.46,0,0,1-.83-0.49,2.39,2.39,0,0,1-.56-0.74,2.44,2.44,0,0,1-.24-0.91h-1.53a3.75,3.75,0,0,0,.34,1.55,3.28,3.28,0,0,0,.88,1.14,4,4,0,0,0,1.29.7,4.89,4.89,0,0,0,1.56.24,5,5,0,0,0,2-.35,4,4,0,0,0,1.39-.95,3.92,3.92,0,0,0,.84-1.36A4.55,4.55,0,0,0,167.7,68a5.2,5.2,0,0,0-.32-1.92A3.9,3.9,0,0,0,166.5,64.68ZM176.86,65a3.43,3.43,0,0,0-1.22-.87,4.49,4.49,0,0,0-3.49.08,3.29,3.29,0,0,0-1.34,1.28l0,0a12.7,12.7,0,0,1,.14-1.58,5.79,5.79,0,0,1,.46-1.58,3.25,3.25,0,0,1,.93-1.21,2.43,2.43,0,0,1,1.57-.48,2.08,2.08,0,0,1,1.48.52A2.2,2.2,0,0,1,176,62.5h1.53a3.54,3.54,0,0,0-1.08-2.42,3.64,3.64,0,0,0-2.52-.84,4.13,4.13,0,0,0-2.27.58,4.3,4.3,0,0,0-1.44,1.53,6.93,6.93,0,0,0-.76,2.19,14.14,14.14,0,0,0-.23,2.55,15,15,0,0,0,.15,2.09,6.09,6.09,0,0,0,.62,2,3.92,3.92,0,0,0,1.33,1.48,4.06,4.06,0,0,0,2.29.58,4.55,4.55,0,0,0,2-.41,3.81,3.81,0,0,0,1.31-1,3.91,3.91,0,0,0,.71-1.38,5.32,5.32,0,0,0,.22-1.46,4.84,4.84,0,0,0-.27-1.64A4,4,0,0,0,176.86,65Zm-0.76,4.13a2.82,2.82,0,0,1-.5.91,2.25,2.25,0,0,1-.8.62,2.56,2.56,0,0,1-1.11.23,2.68,2.68,0,0,1-1.12-.23,2.4,2.4,0,0,1-.83-0.6,2.64,2.64,0,0,1-.51-0.9,3.39,3.39,0,0,1-.18-1.12,3.64,3.64,0,0,1,.17-1.12,2.57,2.57,0,0,1,.51-0.92,2.49,2.49,0,0,1,.83-0.61,2.67,2.67,0,0,1,1.13-.23,2.58,2.58,0,0,1,1.13.23,2.39,2.39,0,0,1,.81.62,2.49,2.49,0,0,1,.48.92,4.06,4.06,0,0,1,.15,1.13A3.35,3.35,0,0,1,176.1,69.11ZM168.27,42a5.18,5.18,0,0,0-.68-1.73,4.09,4.09,0,0,0-1.31-1.3,3.82,3.82,0,0,0-2.06-.51,4.24,4.24,0,0,0-1.76.36,4.12,4.12,0,0,0-1.39,1,4.66,4.66,0,0,0-.91,1.53,5.6,5.6,0,0,0-.32,1.94,7.42,7.42,0,0,0,.31,2,4.27,4.27,0,0,0,.84,1.55,3.81,3.81,0,0,0,1.38,1,4.78,4.78,0,0,0,1.94.36,4.22,4.22,0,0,0,2.63-.79A3.72,3.72,0,0,0,168.28,45h-1.51a2.17,2.17,0,0,1-.82,1.37,2.64,2.64,0,0,1-1.59.45,3.16,3.16,0,0,1-1.31-.25,2.57,2.57,0,0,1-.92-0.67,2.61,2.61,0,0,1-.52-1,3.69,3.69,0,0,1-.14-1.16h7A7.44,7.44,0,0,0,168.27,42Zm-6.81.43a3.21,3.21,0,0,1,.23-1,2.7,2.7,0,0,1,.54-0.84A2.47,2.47,0,0,1,163,40a2.66,2.66,0,0,1,1.07-.21,2.62,2.62,0,0,1,1.05.21,2.58,2.58,0,0,1,1.39,1.4,3.15,3.15,0,0,1,.24,1h-5.35ZM170.64,48h1.53V40H174V38.69h-1.8V37.4a1,1,0,0,1,.31-0.83,1.48,1.48,0,0,1,.86-0.22l0.43,0a1.91,1.91,0,0,1,.43.1V35.15a2.63,2.63,0,0,0-.5-0.11,3.92,3.92,0,0,0-.49,0,2.8,2.8,0,0,0-1.92.58,2.18,2.18,0,0,0-.66,1.72v1.39h-1.57V40h1.57v8Zm69.42,0V41.88a5.78,5.78,0,0,0-.15-1.38,2.61,2.61,0,0,0-.53-1.07,2.52,2.52,0,0,0-1-.7,4,4,0,0,0-1.53-.25,3.22,3.22,0,0,0-3,1.69h0V38.69h-1.44V48h1.53V42.74a3.79,3.79,0,0,1,.17-1.16,2.64,2.64,0,0,1,.51-0.93,2.28,2.28,0,0,1,.85-0.61,3.12,3.12,0,0,1,1.21-.22,1.87,1.87,0,0,1,1.39.5,1.85,1.85,0,0,1,.5,1.37V48h1.53Zm-5.31,16.69h2v-2h-2v2ZM246.38,48.2a4.81,4.81,0,0,0,2-.37,4,4,0,0,0,1.41-1,4.37,4.37,0,0,0,.86-1.54,6.13,6.13,0,0,0,.29-1.91,6.22,6.22,0,0,0-.29-1.92,4.35,4.35,0,0,0-.86-1.55,4.1,4.1,0,0,0-1.41-1,5.21,5.21,0,0,0-3.9,0,4.07,4.07,0,0,0-1.42,1,4.35,4.35,0,0,0-.86,1.55,6.22,6.22,0,0,0-.29,1.92,6.13,6.13,0,0,0,.29,1.91A4.37,4.37,0,0,0,243,46.8a4,4,0,0,0,1.42,1A4.83,4.83,0,0,0,246.38,48.2Zm-2.67-3.34a5.12,5.12,0,0,1,0-3,3.22,3.22,0,0,1,.62-1.11,2.64,2.64,0,0,1,.93-0.68,2.82,2.82,0,0,1,2.25,0,2.65,2.65,0,0,1,.93.68,3.25,3.25,0,0,1,.62,1.11,5.12,5.12,0,0,1,0,3,3.15,3.15,0,0,1-.62,1.1,2.69,2.69,0,0,1-.93.67,2.82,2.82,0,0,1-2.25,0,2.68,2.68,0,0,1-.93-0.67A3.12,3.12,0,0,1,243.71,44.86ZM217.62,62.8a7.32,7.32,0,0,0-.41-1.37,3.62,3.62,0,0,0-.74-1.13,3.37,3.37,0,0,0-1.18-.77,5.17,5.17,0,0,0-3.4,0,3.37,3.37,0,0,0-1.18.77,3.64,3.64,0,0,0-.74,1.13,7.32,7.32,0,0,0-.41,1.37,9.91,9.91,0,0,0-.18,1.48q0,0.76,0,1.46t0,1.46a9.87,9.87,0,0,0,.18,1.48A7.09,7.09,0,0,0,210,70a3.64,3.64,0,0,0,.74,1.13,3.27,3.27,0,0,0,1.18.77,5.35,5.35,0,0,0,3.41,0,3.28,3.28,0,0,0,1.17-.77A3.63,3.63,0,0,0,217.2,70a7.09,7.09,0,0,0,.41-1.36,10,10,0,0,0,.18-1.48q0-.76,0-1.46t0-1.46A10,10,0,0,0,217.62,62.8Zm-1.45,4.53a6.79,6.79,0,0,1-.29,1.67,3.17,3.17,0,0,1-.78,1.32,2.39,2.39,0,0,1-3,0,3.17,3.17,0,0,1-.78-1.32,6.79,6.79,0,0,1-.29-1.67c0-.59,0-1.13,0-1.61,0-.31,0-0.66,0-1a9,9,0,0,1,.09-1.13,8.46,8.46,0,0,1,.23-1.11,2.92,2.92,0,0,1,.45-0.94,2.32,2.32,0,0,1,.75-0.66,2.52,2.52,0,0,1,2.2,0,2.32,2.32,0,0,1,.75.66,2.92,2.92,0,0,1,.45.94,8.62,8.62,0,0,1,.23,1.11,9,9,0,0,1,.09,1.13c0,0.38,0,.72,0,1C216.21,66.2,216.2,66.73,216.17,67.33Zm23.59-2.64h2v-2h-2v2Zm0,7.31h2V70h-2v2Zm-5,0h1.06a1.85,1.85,0,0,1,0,.47,1.78,1.78,0,0,1-.17.5,1.87,1.87,0,0,1-.33.45,1.36,1.36,0,0,1-.51.31v0.9a2.59,2.59,0,0,0,1.52-1,3.08,3.08,0,0,0,.46-1.76V70h-2v2Zm-10,0h1.06a1.85,1.85,0,0,1,0,.47,1.78,1.78,0,0,1-.17.5,1.87,1.87,0,0,1-.33.45,1.36,1.36,0,0,1-.51.31v0.9a2.55,2.55,0,0,0,1.51-1,3.23,3.23,0,0,0,.47-1.76V70h-2v2Zm5,0h2V70h-2v2Zm-6.32-13.16h-1.17a13.91,13.91,0,0,0-2.83,8.3,12.59,12.59,0,0,0,.2,2.27,13.26,13.26,0,0,0,.57,2.11,16.12,16.12,0,0,0,.89,2q0.52,1,1.17,2h1.17a15.57,15.57,0,0,1-1.83-4.1,17,17,0,0,1,0-8.53A14.84,14.84,0,0,1,223.43,58.84ZM230.05,48V41.18a3.05,3.05,0,0,0-.23-1.23,2.16,2.16,0,0,0-.63-0.84,2.63,2.63,0,0,0-1-.48,4.89,4.89,0,0,0-1.27-.15,3.48,3.48,0,0,0-1.68.41A3.25,3.25,0,0,0,224,40.06a2,2,0,0,0-1-1.22,3.63,3.63,0,0,0-4.57,1.22h0V38.69H217V48h1.53V42.2a2.2,2.2,0,0,1,.14-0.68,2.59,2.59,0,0,1,1.21-1.43,2.28,2.28,0,0,1,1.14-.27,2.07,2.07,0,0,1,.86.15,1.3,1.3,0,0,1,.53.43,1.75,1.75,0,0,1,.28.66,4,4,0,0,1,.08.83V48h1.53V42.2a2.34,2.34,0,0,1,.65-1.73,2.41,2.41,0,0,1,1.78-.65,2.18,2.18,0,0,1,.91.16,1.35,1.35,0,0,1,.55.44,1.65,1.65,0,0,1,.27.66,4.34,4.34,0,0,1,.07.81V48h1.53Z"/></svg>