<svg id="helvetica-neue-bold-italic" data-name="helvetica-neue-bold-italic" xmlns="http://www.w3.org/2000/svg" viewBox="0 0 456 84"><path d="M158.61,48l2.72-12.85h-2.56l-1,4.79h0a2.06,2.06,0,0,0-1.05-1.13,3.55,3.55,0,0,0-1.56-.36,4.55,4.55,0,0,0-2.25.53,4.86,4.86,0,0,0-1.58,1.4,6,6,0,0,0-.94,2,8.34,8.34,0,0,0-.31,2.25,3.73,3.73,0,0,0,.93,2.67,3.43,3.43,0,0,0,2.62,1,3.91,3.91,0,0,0,1.61-.33,2.52,2.52,0,0,0,1.18-1.09l0,0L156.15,48h2.47Zm-3-2.06a2,2,0,0,1-1.24.39,1.75,1.75,0,0,1-.79-0.17,1.68,1.68,0,0,1-.57-0.45A2,2,0,0,1,152.7,45a2.66,2.66,0,0,1-.12-0.79,5.61,5.61,0,0,1,.16-1.3,4.43,4.43,0,0,1,.5-1.26,3.08,3.08,0,0,1,.87-1,2.1,2.1,0,0,1,1.25-.38,1.69,1.69,0,0,1,1.39.55,2.24,2.24,0,0,1,.45,1.47,5.43,5.43,0,0,1-.17,1.29,4.75,4.75,0,0,1-.52,1.29A3.29,3.29,0,0,1,155.64,45.94ZM361,40.62h4.48l-5.81,5.49L359.29,48h8.43l0.41-1.93H363l5.85-5.49,0.4-1.89h-7.81Zm-12.3-18.94a2.78,2.78,0,0,1-.78.32,3.55,3.55,0,0,1-.87.11,5.16,5.16,0,0,1-1.13-.12,2.44,2.44,0,0,1-.9-0.39,1.69,1.69,0,0,1-.58-0.73,2.54,2.54,0,0,1-.16-1.14h-2.68a4.24,4.24,0,0,0,1.32,3.46,6.21,6.21,0,0,0,4,1.1,7.91,7.91,0,0,0,1.85-.23,5.11,5.11,0,0,0,1.68-.73A4,4,0,0,0,351.72,22a3.82,3.82,0,0,0,.48-2,3.74,3.74,0,0,0-.25-1.46,2.84,2.84,0,0,0-.71-1,3.78,3.78,0,0,0-1.09-.67,10.78,10.78,0,0,0-1.38-.46l-0.85-.19a6.07,6.07,0,0,1-1-.32,2.93,2.93,0,0,1-.85-0.52,1,1,0,0,1-.35-0.78,1.38,1.38,0,0,1,.2-0.76,1.54,1.54,0,0,1,.52-0.49,2.33,2.33,0,0,1,.73-0.27A4.06,4.06,0,0,1,348,13a4.11,4.11,0,0,1,.92.1,2,2,0,0,1,.75.33,1.53,1.53,0,0,1,.49.6,2,2,0,0,1,.15.91h2.68a4.26,4.26,0,0,0-.39-1.9,3.64,3.64,0,0,0-1-1.29,4.21,4.21,0,0,0-1.53-.73,7.45,7.45,0,0,0-1.86-.23,7.65,7.65,0,0,0-1.85.23,5.2,5.2,0,0,0-1.63.7A3.77,3.77,0,0,0,343.47,13a3.52,3.52,0,0,0-.45,1.84,3.18,3.18,0,0,0,.28,1.4,3,3,0,0,0,.74,1,4.09,4.09,0,0,0,1,.65,9.92,9.92,0,0,0,1.19.43l1.18,0.34a6.58,6.58,0,0,1,1,.38,2.53,2.53,0,0,1,.75.51,1.06,1.06,0,0,1,.29.77,1.47,1.47,0,0,1-.23.83A1.82,1.82,0,0,1,348.72,21.68Zm-183,1.73a6.35,6.35,0,0,0,2.32-1.65,7,7,0,0,0,1.4-2.49,10,10,0,0,0,.47-3.11,4.87,4.87,0,0,0-1.37-3.7,5.71,5.71,0,0,0-4.09-1.31h-4.64L157.12,24h5.36A8.24,8.24,0,0,0,165.73,23.41Zm-3.57-9.88h2.12a3.3,3.3,0,0,1,1.29.23,2.25,2.25,0,0,1,.87.64,2.55,2.55,0,0,1,.5,1,4.85,4.85,0,0,1,.15,1.27,6.1,6.1,0,0,1-.3,1.93,4.83,4.83,0,0,1-.86,1.58,4,4,0,0,1-1.4,1.08,4.43,4.43,0,0,1-1.92.4h-2.18ZM332.35,19H335a4.19,4.19,0,0,1,.76.06,1.39,1.39,0,0,1,.59.24,1.19,1.19,0,0,1,.38.48,1.86,1.86,0,0,1,.13.76,11.77,11.77,0,0,1-.07,1.31,12.26,12.26,0,0,0-.07,1.31,2.52,2.52,0,0,0,0,.42c0,0.14.05,0.29,0.09,0.44h2.75a2.66,2.66,0,0,1-.14-0.67q0-.39,0-0.82,0-.59,0-1.2c0-.4,0-0.75,0-1a3.47,3.47,0,0,0-.27-1.4,1.61,1.61,0,0,0-1.06-.87v0a3.3,3.3,0,0,0,1.19-.4,3.52,3.52,0,0,0,.94-0.77,3.36,3.36,0,0,0,.61-1.05,3.59,3.59,0,0,0,.21-1.24,4.13,4.13,0,0,0-.27-1.58,2.61,2.61,0,0,0-.77-1.05,3.06,3.06,0,0,0-1.21-.58,6.22,6.22,0,0,0-1.58-.15h-6.14L328.48,24h2.81Zm1.19-5.63h2.68a5.58,5.58,0,0,1,.79.05,1.89,1.89,0,0,1,.67.22,1.18,1.18,0,0,1,.46.48,1.77,1.77,0,0,1,.17.84,1.71,1.71,0,0,1-.24.93,1.9,1.9,0,0,1-.65.63,3.1,3.1,0,0,1-.93.36,5,5,0,0,1-1.1.12h-2.61ZM150.21,24.29a6.86,6.86,0,0,0,1.93-.26,4.64,4.64,0,0,0,1.62-.85,6,6,0,0,0,1.31-1.52,10.18,10.18,0,0,0,1-2.29h-2.83a3,3,0,0,1-.36,1,3.29,3.29,0,0,1-.67.82,3.13,3.13,0,0,1-.91.56,2.88,2.88,0,0,1-1.09.21,3,3,0,0,1-1.32-.27,2.51,2.51,0,0,1-.9-0.73,3.17,3.17,0,0,1-.52-1.05,4.52,4.52,0,0,1-.17-1.26,7.42,7.42,0,0,1,.25-1.88,5.88,5.88,0,0,1,.76-1.75,4.18,4.18,0,0,1,1.31-1.28,3.51,3.51,0,0,1,1.88-.5,2.15,2.15,0,0,1,2.3,2.39h2.83a5,5,0,0,0-.36-2.06,4,4,0,0,0-1.07-1.49,4.64,4.64,0,0,0-1.65-.91,6.75,6.75,0,0,0-2.07-.31,6.59,6.59,0,0,0-5.14,2.33A7.63,7.63,0,0,0,145,15.65a9,9,0,0,0-.49,3A5.64,5.64,0,0,0,146,22.83,5.77,5.77,0,0,0,150.21,24.29Zm26.2,13.14a0.87,0.87,0,0,1,.39-0.34,1.81,1.81,0,0,1,.74-0.12l0.41,0,0.41,0,0.4-1.84q-0.41-.07-0.84-0.11t-0.84,0a4.71,4.71,0,0,0-1.63.23,2.29,2.29,0,0,0-1,.7,3.5,3.5,0,0,0-.59,1.14,14.78,14.78,0,0,0-.4,1.57h-1.53l-0.36,1.71h1.51l-1.6,7.6H174l1.6-7.6h1.84l0.36-1.71H176c0.07-.28.13-0.52,0.18-0.73A1.83,1.83,0,0,1,176.4,37.42ZM373.26,18.76q-0.16.72-.35,1.31a3,3,0,0,1-.52,1,2.21,2.21,0,0,1-.87.63,3.7,3.7,0,0,1-1.4.23,3.41,3.41,0,0,1-1.21-.18,2.2,2.2,0,0,1-.74-0.44,1.36,1.36,0,0,1-.37-0.57,1.78,1.78,0,0,1-.1-0.54,2.64,2.64,0,0,1,0-.37c0-.14,0-0.29.07-0.44s0.06-.3.09-0.44l0.08-.37,1.57-7.43h-2.83l-1.57,7.43-0.18.94a5.14,5.14,0,0,0-.09,1,3.39,3.39,0,0,0,.44,1.79,3.45,3.45,0,0,0,1.15,1.17,5.09,5.09,0,0,0,1.62.64,8.65,8.65,0,0,0,1.85.2,7.65,7.65,0,0,0,2.54-.37,4.7,4.7,0,0,0,1.76-1.08,5.32,5.32,0,0,0,1.16-1.77,13.67,13.67,0,0,0,.73-2.45l1.57-7.47h-2.83ZM167.93,38.69a5.89,5.89,0,0,0-1.77-.25,4.72,4.72,0,0,0-2.14.48,4.89,4.89,0,0,0-1.61,1.28,6,6,0,0,0-1,1.84,6.49,6.49,0,0,0-.36,2.15,4.83,4.83,0,0,0,.3,1.76,3.47,3.47,0,0,0,.84,1.27,3.4,3.4,0,0,0,1.3.77,5.42,5.42,0,0,0,1.7.25,7.12,7.12,0,0,0,1.77-.2,4.08,4.08,0,0,0,1.34-.6,4,4,0,0,0,1-1A6.51,6.51,0,0,0,170,45h-2.56l-0.31.45a2.15,2.15,0,0,1-.4.41,2,2,0,0,1-.52.3,1.83,1.83,0,0,1-.68.12,2.11,2.11,0,0,1-1.55-.5,1.78,1.78,0,0,1-.5-1.31V44.13a0.79,0.79,0,0,1,0-.16h6.86a8,8,0,0,0,.14-1.46,4.63,4.63,0,0,0-.32-1.77,3.48,3.48,0,0,0-.88-1.28A3.64,3.64,0,0,0,167.93,38.69Zm-4.17,3.65a4.82,4.82,0,0,1,.35-0.76,2.51,2.51,0,0,1,.51-0.63,2.41,2.41,0,0,1,.72-0.43,2.61,2.61,0,0,1,1-.16,2,2,0,0,1,.9.17,1.26,1.26,0,0,1,.52.46,1.79,1.79,0,0,1,.24.64,4,4,0,0,1,.06.71h-4.27ZM139.48,23.73a4.94,4.94,0,0,0,1.57-.79,3.8,3.8,0,0,0,1.09-1.31,4,4,0,0,0,.41-1.84,2.81,2.81,0,0,0-.5-1.65,2.44,2.44,0,0,0-1.41-1v0a2.52,2.52,0,0,0,1-.34,2.82,2.82,0,0,0,.76-0.67,2.94,2.94,0,0,0,.48-0.92,3.46,3.46,0,0,0,.16-1.05,3.41,3.41,0,0,0-.29-1.5,2.19,2.19,0,0,0-.83-0.92,3.58,3.58,0,0,0-1.31-.46,11,11,0,0,0-1.75-.13h-5.4L130.79,24h6.84A6.29,6.29,0,0,0,139.48,23.73Zm-3.74-10.39h3a1.89,1.89,0,0,1,1.09.28,1.17,1.17,0,0,1,.41,1,1.48,1.48,0,0,1-.57,1.27,2.18,2.18,0,0,1-1.34.42h-3.2ZM134,21.8l0.76-3.53h2.77c0.25,0,.51,0,0.77,0a2.14,2.14,0,0,1,.72.19,1.36,1.36,0,0,1,.53.44,1.34,1.34,0,0,1,.21.79,1.91,1.91,0,0,1-.62,1.55,2.39,2.39,0,0,1-1.59.52H134ZM327.52,14a4.77,4.77,0,0,0-1.14-1.73,4.72,4.72,0,0,0-1.8-1.05,7.49,7.49,0,0,0-2.36-.35,6.59,6.59,0,0,0-5.14,2.33,7.67,7.67,0,0,0-1.39,2.48,9,9,0,0,0-.49,3,5.64,5.64,0,0,0,1.49,4.21,5.77,5.77,0,0,0,4.22,1.46,7.82,7.82,0,0,0,1.53-.14,5.57,5.57,0,0,0,1.35-.45l1.51,1.71,1.51-1.26-1.37-1.53a7.1,7.1,0,0,0,1.86-2.77,9.76,9.76,0,0,0,.62-3.49A6.45,6.45,0,0,0,327.52,14Zm-2.77,4.75a5.33,5.33,0,0,1-1.05,1.91l-1.13-1.28L321,20.6l1,1.13a3.32,3.32,0,0,1-1.12.2,3,3,0,0,1-1.32-.27,2.5,2.5,0,0,1-.9-0.73,3.13,3.13,0,0,1-.52-1.05,4.49,4.49,0,0,1-.17-1.26,7.42,7.42,0,0,1,.25-1.88A5.88,5.88,0,0,1,319,15a4.17,4.17,0,0,1,1.31-1.28,3.5,3.5,0,0,1,1.88-.5,3,3,0,0,1,1.33.27,2.49,2.49,0,0,1,.88.72,2.91,2.91,0,0,1,.5,1.05,5.24,5.24,0,0,1,.15,1.29A7.11,7.11,0,0,1,324.74,18.73ZM131.33,35.15L128.64,48H131l0.31-1.46h0a2.15,2.15,0,0,0,1.14,1.33,4.28,4.28,0,0,0,1.77.36,4.2,4.2,0,0,0,2.09-.5,4.79,4.79,0,0,0,1.51-1.32,5.8,5.8,0,0,0,.92-1.87,7.6,7.6,0,0,0,.31-2.13,6,6,0,0,0-.19-1.53,3.61,3.61,0,0,0-.59-1.26,2.9,2.9,0,0,0-1-.85,3.41,3.41,0,0,0-1.53-.31,3.56,3.56,0,0,0-1.54.3,4.05,4.05,0,0,0-1.21.95h0l1-4.54h-2.56Zm2.09,5.62a2,2,0,0,1,1.28-.4,1.59,1.59,0,0,1,1.4.59,2.52,2.52,0,0,1,.41,1.48,5.84,5.84,0,0,1-.15,1.28,4.55,4.55,0,0,1-.49,1.27,3.06,3.06,0,0,1-.85,1,2,2,0,0,1-1.25.38,1.73,1.73,0,0,1-1.37-.55,2.05,2.05,0,0,1-.49-1.41,6.16,6.16,0,0,1,.15-1.31,4.66,4.66,0,0,1,.49-1.3A3.16,3.16,0,0,1,133.41,40.76ZM35.79,11.31L0,72H14l7.65-13.52h22.7l2,13.52H59.58L49.47,11.31H35.79ZM26.95,48.54L40,24.4h0.17l3,24.14H26.95ZM356,24h2.85L361,13.52h3.85l0.5-2.38H354.67l-0.5,2.38h4Zm1.93,14.69-3.22,6.66h0l-0.81-6.66h-2.63l1.66,9.22a2.75,2.75,0,0,0-.24.38,2.11,2.11,0,0,1-.29.4,1.5,1.5,0,0,1-.44.32,1.62,1.62,0,0,1-.72.13,2.54,2.54,0,0,1-.51-0.05,2.52,2.52,0,0,0-.51-0.05l-0.43,2.12,0.68,0.05a6.38,6.38,0,0,0,.67,0,8.41,8.41,0,0,0,1.25-.08,3,3,0,0,0,.94-0.3,2.61,2.61,0,0,0,.76-0.6,5.26,5.26,0,0,0,.67-1l5.92-10.6h-2.7Zm-6.86,0h-2.86l-2.11,2.68-1-2.68h-2.74L344.44,43l-4.3,5H343l2.48-3.06L346.85,48h2.7l-2.36-4.84Zm-11.92,0-3,6.5h0l-0.29-6.5h-2.59l-2.86,6.55h0L330,38.69h-2.61l1,9.31h2.68L334,41.47h0L334.33,48H337l4.86-9.31h-2.7Zm-196,3a2.89,2.89,0,0,1,.81-1,2.3,2.3,0,0,1,2.51,0,1.48,1.48,0,0,1,.42,1.19h2.56a3.68,3.68,0,0,0-.35-1.58,2.94,2.94,0,0,0-.9-1.08,3.89,3.89,0,0,0-1.32-.61,6.31,6.31,0,0,0-1.6-.2,5.17,5.17,0,0,0-2.23.46,4.81,4.81,0,0,0-1.65,1.26,5.59,5.59,0,0,0-1,1.85,7,7,0,0,0-.35,2.24,3.83,3.83,0,0,0,1.09,3,4.45,4.45,0,0,0,3.05,1,4.74,4.74,0,0,0,3-.94A5.51,5.51,0,0,0,149,44.6h-2.56a3.71,3.71,0,0,1-.28.66,2,2,0,0,1-.43.55,2.19,2.19,0,0,1-.59.38,1.91,1.91,0,0,1-.76.14,1.87,1.87,0,0,1-.82-0.16,1.58,1.58,0,0,1-.55-0.43,1.62,1.62,0,0,1-.31-0.64,3.26,3.26,0,0,1-.09-0.78,6.77,6.77,0,0,1,.13-1.29A4.79,4.79,0,0,1,143.15,41.74Zm37.71-20.11h-7.09l0.67-3.15h6.46l0.47-2.2H174.9l0.58-2.75h7l0.49-2.38h-9.81L170.46,24h9.9ZM404.28,11.15l-3.92,9.38h0L400,11.15h-2.7l-4.07,9.41h0L393,11.15h-5.6l-4.88,9.65h0l-0.85-9.65h-2.83L380.3,24h3.19l6.72-12.58L391.06,24h2.84l4-9.18h0L398.26,24h2.81l6-12.85h-2.83ZM185.27,24l1.13-5.31h5.49l0.47-2.2h-5.51l0.63-3h6.3l0.52-2.38h-9.14L182.46,24h2.81Zm72.23,0,0.5-2.38H251.8L254,11.15h-2.84L248.47,24h9ZM223,24l2.72-12.85h-2.84L220.14,24H223Zm5-4.79h-2.56q-0.09.5-.16,1a6.72,6.72,0,0,0-.07,1,3,3,0,0,0,.32,1.44,2.73,2.73,0,0,0,.86,1,3.61,3.61,0,0,0,1.24.53,6.46,6.46,0,0,0,1.46.16,4.49,4.49,0,0,0,3.18-1,5.56,5.56,0,0,0,1.52-2.92l1.91-9.2h-2.84l-1.78,8.59c-0.07.29-.14,0.57-0.22,0.84a2.23,2.23,0,0,1-.32.7,1.52,1.52,0,0,1-.54.48,1.83,1.83,0,0,1-.87.18,1.6,1.6,0,0,1-1-.31,1,1,0,0,1-.42-0.9,3.57,3.57,0,0,1,.08-0.7ZM238.3,24l0.85-4.07,2-1.71L244,24h3.19l-3.94-7.56,6.17-5.29h-3.74l-5.83,5.38h0L241,11.15h-2.83L235.47,24h2.83Zm67.95-4.61h3.49a5.89,5.89,0,0,0,1.91-.31,4.94,4.94,0,0,0,1.59-.88,4.19,4.19,0,0,0,1.1-1.41,4.31,4.31,0,0,0,.4-1.9,4.23,4.23,0,0,0-.33-1.78,2.88,2.88,0,0,0-.93-1.15,3.84,3.84,0,0,0-1.41-.62,8,8,0,0,0-1.79-.19h-5.15L302.47,24h2.81Zm1.26-6h2.41a3.63,3.63,0,0,1,.73.07,2,2,0,0,1,.64.24,1.22,1.22,0,0,1,.46.49,1.65,1.65,0,0,1,.17.8,2.16,2.16,0,0,1-.62,1.7,2.48,2.48,0,0,1-1.7.55h-2.88Zm120.27-2.2-4,5.47-1.93-5.47h-6.23l-3.29,4.25-1.82-4.25h-3.08l3,6.08L404.62,24H408l3.67-4.59,2,4.59h3.12l-3.19-6.64L419,11.16,422,19l-1,5h2.84l1-4.86,6.26-8h-3.33Zm14.13,0H431.76l-0.52,2.38h6.59l-8.57,8.14L428.77,24h10.8L440,21.62h-7.25l8.66-8.21ZM263.39,13.78h0L264.67,24h2.16l5.44-10.22h0L270,24h2.64l2.72-12.85h-3.94l-5,9.31h0l-1-9.31H261.5L258.8,24h2.66ZM254.12,38.9a5,5,0,0,0-1.68,1.25A5.55,5.55,0,0,0,251.37,42a6.72,6.72,0,0,0-.37,2.24,3.74,3.74,0,0,0,1.16,3,4.6,4.6,0,0,0,3.11,1,5.49,5.49,0,0,0,2.28-.45,5,5,0,0,0,1.7-1.24,5.45,5.45,0,0,0,1.07-1.86,7,7,0,0,0,.37-2.3,4.44,4.44,0,0,0-.31-1.75,3.23,3.23,0,0,0-.89-1.22,3.84,3.84,0,0,0-1.38-.73,6,6,0,0,0-1.75-.24A5.25,5.25,0,0,0,254.12,38.9Zm4,3.52A5.59,5.59,0,0,1,258,43.7a4.79,4.79,0,0,1-.5,1.27,3.15,3.15,0,0,1-.85,1,2,2,0,0,1-1.23.39,1.74,1.74,0,0,1-.79-0.17A1.71,1.71,0,0,1,254,45.7a2,2,0,0,1-.35-0.67,2.66,2.66,0,0,1-.12-0.79,5.42,5.42,0,0,1,.16-1.27,4.83,4.83,0,0,1,.49-1.25,3.09,3.09,0,0,1,.84-1,2,2,0,0,1,1.21-.39,1.71,1.71,0,0,1,1.45.56A2.41,2.41,0,0,1,258.13,42.42ZM199.31,48h2.56l2-9.31h-2.57Zm5.29-12.85H202l-0.47,2.11h2.57Zm-9.26-12.32a5.77,5.77,0,0,0,4.22,1.46,4.36,4.36,0,0,0,1.76-.37,3.63,3.63,0,0,0,1.48-1.23h0V24h1.78l1.48-6.95h-5.45l-0.45,2.11h3a5.72,5.72,0,0,1-.46,1.13,3,3,0,0,1-.7.87,3.16,3.16,0,0,1-1,.57,4.18,4.18,0,0,1-1.39.21,3,3,0,0,1-1.32-.27,2.51,2.51,0,0,1-.9-0.73,3.17,3.17,0,0,1-.52-1.05,4.52,4.52,0,0,1-.17-1.26,7.42,7.42,0,0,1,.25-1.88A5.88,5.88,0,0,1,197.7,15,4.18,4.18,0,0,1,199,13.71a3.51,3.51,0,0,1,1.88-.5,3.14,3.14,0,0,1,1.87.5,2.06,2.06,0,0,1,.74,1.68h2.83a4.48,4.48,0,0,0-.43-2,4,4,0,0,0-1.17-1.41,5,5,0,0,0-1.73-.83,8,8,0,0,0-2.12-.27,6.59,6.59,0,0,0-5.14,2.33,7.63,7.63,0,0,0-1.39,2.48,9,9,0,0,0-.49,3A5.64,5.64,0,0,0,195.34,22.83Zm0.22,19.72L194.43,48H197l1.15-5.45c0-.08,0-0.19.06-0.33l0.09-.44c0-.16.06-0.31,0.08-0.46a2.51,2.51,0,0,0,0-.37q0-2.5-2.72-2.5a4.37,4.37,0,0,0-1.13.14,4.3,4.3,0,0,0-.88.33,3.41,3.41,0,0,0-.65.43,2.76,2.76,0,0,0-.41.43h0l1-4.63H191L188.31,48h2.54l1-5a5.05,5.05,0,0,1,.32-1,3.23,3.23,0,0,1,.52-0.83,2.51,2.51,0,0,1,.76-0.58,2.21,2.21,0,0,1,1-.23,1.43,1.43,0,0,1,.84.27,0.81,0.81,0,0,1,.39.68,3.47,3.47,0,0,1-.06.56Zm13.23-5.29,0.47-2.11h-2.57l-0.47,2.11h2.57Zm7.31,1.44-3.67,3.47,0,0,1.48-7h-2.56L208.63,48h2.54l0.63-3,1.33-1.13L214.66,48h2.81l-2.39-5.78,4.18-3.53H216.1Zm7.81-3.55h-2.56L218.64,48h2.54Zm-121.15-6.2a21,21,0,0,0-6-1.66,47.72,47.72,0,0,0-6.21-.42,35.57,35.57,0,0,0-7.22.72A19.8,19.8,0,0,0,77.09,30a15.88,15.88,0,0,0-4.76,4.46,15.63,15.63,0,0,0-2.55,6.93H81.09a6.84,6.84,0,0,1,3.14-4.89A10.79,10.79,0,0,1,90,34.94a15.91,15.91,0,0,1,2.51.21A8.18,8.18,0,0,1,95,36a5.56,5.56,0,0,1,1.91,1.62,4.43,4.43,0,0,1,.77,2.72,4.44,4.44,0,0,1-1,3.19,6.53,6.53,0,0,1-3.1,1.62,30.38,30.38,0,0,1-5.23.81q-3.15.26-7.39,0.77-8,.94-12.37,4.76a12.87,12.87,0,0,0-4.38,10.2A11.49,11.49,0,0,0,65,66a9.73,9.73,0,0,0,2.63,3.66,13.27,13.27,0,0,0,4.46,2.51,19,19,0,0,0,6.25.93,21.2,21.2,0,0,0,7.4-1.32,14.66,14.66,0,0,0,6-4.12V72h12.07a9.15,9.15,0,0,1-.42-2.55q0-1.28.13-3A14.73,14.73,0,0,1,104,63.5l3.91-17.68a35.09,35.09,0,0,0,.94-7.4,9.19,9.19,0,0,0-1.66-6A11.6,11.6,0,0,0,102.76,28.95ZM94.09,55.17a30,30,0,0,1-1.28,3.57,10.88,10.88,0,0,1-2.08,3.19,10.45,10.45,0,0,1-3.23,2.3,11.12,11.12,0,0,1-4.72.89,8.63,8.63,0,0,1-4.63-1.23,4.06,4.06,0,0,1-2-3.7,6.62,6.62,0,0,1,.77-3.36,5.87,5.87,0,0,1,2-2.08,9.5,9.5,0,0,1,2.85-1.15A25.33,25.33,0,0,1,85.08,53q2.63-.17,5.27-0.47a12.26,12.26,0,0,0,4.93-1.66Zm116.7-36.71H216L214.83,24h2.84l2.72-12.85h-2.84l-1,4.93h-5.2l1-4.93H209.5L206.8,24h2.83ZM235,65.63h2.84l0.59-2.77h-2.84ZM233.71,72h1.22a2.64,2.64,0,0,1-.48,1.17,1.72,1.72,0,0,1-1.11.54L233.08,75a4.08,4.08,0,0,0,1.48-.3,3,3,0,0,0,1-.68,3.33,3.33,0,0,0,.63-1,7.49,7.49,0,0,0,.39-1.18q0.15-.63.27-1.3t0.28-1.32h-2.84Zm5.2-31.2a2.23,2.23,0,0,0-.23-1A2.1,2.1,0,0,0,238,39a2.84,2.84,0,0,0-.91-0.43,3.88,3.88,0,0,0-1.05-.14,3.66,3.66,0,0,0-.91.12,4.05,4.05,0,0,0-.87.33,4.41,4.41,0,0,0-.77.51,2.92,2.92,0,0,0-.59.66,1.75,1.75,0,0,0-.77-1.24,2.76,2.76,0,0,0-1.48-.38,4.41,4.41,0,0,0-1.85.38,3.49,3.49,0,0,0-1.4,1.19h0l0.29-1.31h-2.45L223.3,48h2.54l1-5a4.5,4.5,0,0,1,.29-0.88,3.62,3.62,0,0,1,.5-0.82,2.63,2.63,0,0,1,.7-0.61,1.73,1.73,0,0,1,.91-0.24,1.14,1.14,0,0,1,.8.29,0.91,0.91,0,0,1,.31.7,3.41,3.41,0,0,1-.07.67L229.1,48h2.57l1-5a4.5,4.5,0,0,1,.29-0.88,3.62,3.62,0,0,1,.5-0.82,2.63,2.63,0,0,1,.7-0.61,1.73,1.73,0,0,1,.91-0.24,1.14,1.14,0,0,1,.8.29,0.91,0.91,0,0,1,.31.7,3.41,3.41,0,0,1-.07.67L234.93,48h2.56l1.15-5.47c0.06-.28.12-0.56,0.18-0.85A4.39,4.39,0,0,0,238.91,40.8ZM238.71,72h2.83l0.59-2.77h-2.84ZM240,65.63h2.84l0.59-2.77h-2.84Zm6.63-24.9a0.81,0.81,0,0,1,.39.68A3.47,3.47,0,0,1,247,42l-0.1.58L245.75,48h2.56l1.15-5.45c0-.08,0-0.19.06-0.33l0.09-.44c0-.16.06-0.31,0.08-0.46a2.51,2.51,0,0,0,0-.37q0-2.5-2.72-2.5A4,4,0,0,0,243.75,40h0l0.29-1.3h-2.45L239.63,48h2.54l1-5a5.05,5.05,0,0,1,.32-1,3.23,3.23,0,0,1,.52-0.83,2.51,2.51,0,0,1,.76-0.58,2.21,2.21,0,0,1,1-.23A1.43,1.43,0,0,1,246.66,40.73ZM222.32,64.64a17.11,17.11,0,0,1,1.27-2.83,25.79,25.79,0,0,1,2-3h-2.25q-1,1.26-1.8,2.47a15.92,15.92,0,0,0-1.33,2.47,13.8,13.8,0,0,0-.83,2.66,15.31,15.31,0,0,0-.29,3.08,12.89,12.89,0,0,0,.08,1.32q0.08,0.76.23,1.57T219.71,74a9.09,9.09,0,0,0,.46,1.3h1.94q-0.27-1.19-.48-2.36a13.53,13.53,0,0,1-.21-2.36,21.61,21.61,0,0,1,.21-3.05A15.76,15.76,0,0,1,222.32,64.64Zm-4.69-4.16a3.54,3.54,0,0,0-1.31-1,4.55,4.55,0,0,0-1.85-.35,4.62,4.62,0,0,0-1.84.36,5.1,5.1,0,0,0-1.49,1A6.73,6.73,0,0,0,210,61.94a9.22,9.22,0,0,0-.81,1.75,11.85,11.85,0,0,0-.48,1.87,11,11,0,0,0-.16,1.85,7.63,7.63,0,0,0,.22,1.84,4.55,4.55,0,0,0,.68,1.54,3.29,3.29,0,0,0,1.23,1.05,4,4,0,0,0,1.84.39,5,5,0,0,0,1.93-.36,5.46,5.46,0,0,0,1.55-1,6.54,6.54,0,0,0,1.2-1.44,9.42,9.42,0,0,0,.85-1.75,10.62,10.62,0,0,0,.49-1.9,11.6,11.6,0,0,0,.16-1.9,6.75,6.75,0,0,0-.26-1.94A4.21,4.21,0,0,0,217.64,60.48Zm-1.58,4.13a12.87,12.87,0,0,1-.22,1.4,12.15,12.15,0,0,1-.4,1.48,6.83,6.83,0,0,1-.61,1.33,3.33,3.33,0,0,1-.86,1,1.86,1.86,0,0,1-1.14.37A1.84,1.84,0,0,1,212,70a1.44,1.44,0,0,1-.54-0.48,1.93,1.93,0,0,1-.28-0.7,4.31,4.31,0,0,1-.08-0.86q0-.45.06-1.12t0.21-1.4a12.52,12.52,0,0,1,.39-1.49,6.39,6.39,0,0,1,.6-1.34,3.41,3.41,0,0,1,.85-1,1.94,1.94,0,0,1,2-.19,1.63,1.63,0,0,1,.58.49,2,2,0,0,1,.32.72,3.82,3.82,0,0,1,.1.88Q216.12,64,216.06,64.61ZM228.71,72h2.83l0.59-2.77h-2.84Zm-5,0h1.22a2.64,2.64,0,0,1-.48,1.17,1.72,1.72,0,0,1-1.11.54L223.07,75a4.08,4.08,0,0,0,1.48-.3,3,3,0,0,0,1-.68,3.33,3.33,0,0,0,.63-1,7.49,7.49,0,0,0,.39-1.18q0.15-.63.27-1.3t0.28-1.32h-2.84Zm47.68-27.64a8.29,8.29,0,0,0,.31-2.25,3.79,3.79,0,0,0-.92-2.68,3.38,3.38,0,0,0-2.61-1,3.82,3.82,0,0,0-1.61.34,2.58,2.58,0,0,0-1.18,1.1l0,0,0.25-1.15h-2.47l-2.66,12.56H263l1-4.5H264a1.83,1.83,0,0,0,.42.66,2.47,2.47,0,0,0,.63.46,3.15,3.15,0,0,0,.76.27,3.68,3.68,0,0,0,.8.09,4.57,4.57,0,0,0,2.24-.52,4.8,4.8,0,0,0,1.57-1.39A6,6,0,0,0,271.38,44.36ZM269,43.73a4.43,4.43,0,0,1-.5,1.26,3.13,3.13,0,0,1-.86,1,2.09,2.09,0,0,1-1.26.38,1.69,1.69,0,0,1-1.39-.55,2.25,2.25,0,0,1-.45-1.47,5.43,5.43,0,0,1,.17-1.29,4.79,4.79,0,0,1,.52-1.29,3.24,3.24,0,0,1,.87-1,2,2,0,0,1,1.24-.39,1.75,1.75,0,0,1,.79.17,1.69,1.69,0,0,1,.57.45,2,2,0,0,1,.34.66,2.66,2.66,0,0,1,.12.79A5.55,5.55,0,0,1,269,43.73Zm12.1,22.09h-2.29a5,5,0,0,1-.35,1,3.27,3.27,0,0,1-.58.85l-1.39-2.23c0.35-.18.7-0.38,1-0.6a5.5,5.5,0,0,0,.94-0.76,3.76,3.76,0,0,0,.69-0.95,2.55,2.55,0,0,0,.27-1.19,2.76,2.76,0,0,0-.28-1.28,2.84,2.84,0,0,0-.74-0.91,3.09,3.09,0,0,0-1.07-.55A4.5,4.5,0,0,0,276,59a4.31,4.31,0,0,0-1.42.23,3.25,3.25,0,0,0-1.12.66,2.92,2.92,0,0,0-.74,1.05,3.62,3.62,0,0,0-.26,1.41,2.64,2.64,0,0,0,.28,1.18c0.19,0.38.38,0.74,0.59,1.09a9.39,9.39,0,0,0-1.31.64,5.13,5.13,0,0,0-1.11.86,4,4,0,0,0-.76,1.13,3.47,3.47,0,0,0-.29,1.45,3.37,3.37,0,0,0,.32,1.5,3.32,3.32,0,0,0,.87,1.11,3.86,3.86,0,0,0,1.26.68,4.74,4.74,0,0,0,1.49.23,5.31,5.31,0,0,0,1.84-.3,5.83,5.83,0,0,0,1.62-.94l0.58,1h2.81L279,69.48a6.12,6.12,0,0,0,1.32-1.67A6.78,6.78,0,0,0,281.07,65.83ZM275.21,61a1.54,1.54,0,0,1,1-.32A1.08,1.08,0,0,1,277,61a1.22,1.22,0,0,1,.32.89,1.09,1.09,0,0,1-.19.61,2.57,2.57,0,0,1-.47.53,4.3,4.3,0,0,1-.59.43,6.65,6.65,0,0,1-.59.32Q275.22,63.41,275,63a2.1,2.1,0,0,1-.22-1A1.16,1.16,0,0,1,275.21,61Zm0,8.81a2.32,2.32,0,0,1-1.13.3,2,2,0,0,1-.61-0.1,1.77,1.77,0,0,1-.55-0.29,1.42,1.42,0,0,1-.39-0.46,1.22,1.22,0,0,1-.14-0.59,1.85,1.85,0,0,1,.18-0.86,2.23,2.23,0,0,1,.47-0.62,3.33,3.33,0,0,1,.66-0.48l0.75-.42,1.77,2.86A7,7,0,0,1,275.18,69.85Zm5.27-29.7h0a2.18,2.18,0,0,0-1.14-1.34,4.19,4.19,0,0,0-1.77-.37,4.14,4.14,0,0,0-2.09.51,4.89,4.89,0,0,0-1.51,1.33,5.77,5.77,0,0,0-.92,1.87,7.64,7.64,0,0,0-.31,2.13,5.71,5.71,0,0,0,.2,1.53,3.61,3.61,0,0,0,.61,1.26,2.85,2.85,0,0,0,1.06.85,3.6,3.6,0,0,0,1.55.31,4.15,4.15,0,0,0,1.59-.26,2.92,2.92,0,0,0,1-.71h0l-0.85,4h2.56l2.65-12.56h-2.36Zm-0.73,3.51a4.7,4.7,0,0,1-.52,1.3,3.29,3.29,0,0,1-.87,1,2,2,0,0,1-1.21.39,2.15,2.15,0,0,1-.88-0.16,1.54,1.54,0,0,1-.58-0.44,1.7,1.7,0,0,1-.32-0.66,3.17,3.17,0,0,1-.1-0.81,5.59,5.59,0,0,1,.16-1.28,4.8,4.8,0,0,1,.49-1.27,3,3,0,0,1,.87-1,2.16,2.16,0,0,1,1.29-.38,1.73,1.73,0,0,1,1.37.55,2.05,2.05,0,0,1,.49,1.41A5.58,5.58,0,0,1,279.72,43.66ZM246.15,72H249l0.59-2.77h-2.84Zm39.08-33.31L283.3,48h2.54l0.87-4.12a7.78,7.78,0,0,1,.33-1.14,3.52,3.52,0,0,1,.56-1,2.55,2.55,0,0,1,.86-0.68,2.82,2.82,0,0,1,1.25-.25,2.73,2.73,0,0,1,.54.05L290.79,41l0.52-2.48a5.83,5.83,0,0,0-.79-0.05,3.78,3.78,0,0,0-1.9.5,3.06,3.06,0,0,0-1.3,1.47l0,0,0.38-1.67h-2.43ZM267,61.72a1.82,1.82,0,0,1,.26,1.17h2.47a3.91,3.91,0,0,0-.14-1.53,3.29,3.29,0,0,0-.64-1.15,3.44,3.44,0,0,0-1-.79,4.9,4.9,0,0,0-1.27-.45L267,57.42h-0.87l-0.29,1.42h-0.05a7.31,7.31,0,0,0-1.82.23,4.68,4.68,0,0,0-1.56.7,3.46,3.46,0,0,0-1.48,3,3.66,3.66,0,0,0,.26,1.49,2.85,2.85,0,0,0,.7,1,3.66,3.66,0,0,0,1,.65c0.4,0.17.82,0.33,1.27,0.49l0.2,0.07-0.72,3.71a1.7,1.7,0,0,1-1.12-.67,2.85,2.85,0,0,1-.37-1.75H259.7a4.86,4.86,0,0,0,.87,3.28,3.91,3.91,0,0,0,2.69,1.28l-0.32,1.62h0.88l0.31-1.57a7,7,0,0,0,1.79-.23,4.59,4.59,0,0,0,1.59-.76A4,4,0,0,0,268.66,70a4.12,4.12,0,0,0,.44-2,3.77,3.77,0,0,0-.28-1.57,2.87,2.87,0,0,0-.76-1,3.8,3.8,0,0,0-1.11-.65q-0.63-.24-1.31-0.46l0.59-3.19A1.79,1.79,0,0,1,267,61.72Zm-3.21,1.75a1.13,1.13,0,0,1-.42-0.94,1.34,1.34,0,0,1,.18-0.71,1.52,1.52,0,0,1,.46-0.49,2.2,2.2,0,0,1,.61-0.29,2.31,2.31,0,0,1,.66-0.1h0.13L264.83,64A3.27,3.27,0,0,1,263.79,63.48Zm1.92,3.44a2.27,2.27,0,0,1,.46.32,1.43,1.43,0,0,1,.46,1.09,1.73,1.73,0,0,1-.7,1.45,2,2,0,0,1-.67.32,2.8,2.8,0,0,1-.73.1l0.69-3.53Zm23-55.77h-2.59l-1.84,9.14h0l-3.49-9.14h-2.91L275.13,24h2.63l1.84-9h0l3.53,9H286ZM254.21,72H257l0.59-2.77h-2.84Zm67.07-26.68h0l-0.58-6.62H318L319.26,48h2.92l5.1-9.31h-2.7ZM256.23,62.64l-0.45,5.51H257l1.89-5.51,0.76-3.49H257Zm-3.22-3a3.74,3.74,0,0,0-1.25-.6,5.52,5.52,0,0,0-1.49-.2,6.5,6.5,0,0,0-1.91.27,4.64,4.64,0,0,0-1.56.81,4,4,0,0,0-1.08,1.35,4.72,4.72,0,0,0-.46,1.89h2.56a3.4,3.4,0,0,1,.22-0.84,2.54,2.54,0,0,1,.42-0.71,1.87,1.87,0,0,1,1.48-.67,1.81,1.81,0,0,1,1.1.34,1.23,1.23,0,0,1,.47,1.06,1.56,1.56,0,0,1-.38,1.06,3.6,3.6,0,0,1-.9.74q-0.65.34-1.14,0.67a4.36,4.36,0,0,0-.86.74,3.33,3.33,0,0,0-.6,1,6.64,6.64,0,0,0-.36,1.48h2.38a2.33,2.33,0,0,1,.68-1.49,6.14,6.14,0,0,1,1.37-1,10.7,10.7,0,0,0,1-.61,4.22,4.22,0,0,0,.79-0.74,3.56,3.56,0,0,0,.55-0.92,3,3,0,0,0,.21-1.15,3.22,3.22,0,0,0-.32-1.49A3,3,0,0,0,253,59.64ZM146,65.38v0a3,3,0,0,0,1.71-1,2.82,2.82,0,0,0,.67-1.91,2.91,2.91,0,0,0-1.32-2.56,4,4,0,0,0-1.33-.56,6.73,6.73,0,0,0-1.5-.17,4.57,4.57,0,0,0-4.88,4.27h2.43a3.15,3.15,0,0,1,.78-1.62,2.23,2.23,0,0,1,1.63-.54,2.37,2.37,0,0,1,.66.09,1.45,1.45,0,0,1,.55.29,1.53,1.53,0,0,1,.38.49,1.56,1.56,0,0,1,.14.7,1.42,1.42,0,0,1-.22.83,1.65,1.65,0,0,1-.58.51,2.51,2.51,0,0,1-.77.26,5,5,0,0,1-.84.07h-0.77l-0.34,1.8h0.92a2.12,2.12,0,0,1,1.27.37,1.37,1.37,0,0,1,.51,1.2,2.1,2.1,0,0,1-.7,1.69,2.58,2.58,0,0,1-1.73.59,2,2,0,0,1-1.66-.67,2.39,2.39,0,0,1-.4-1.8h-2.41a4.3,4.3,0,0,0,1,3.41,4.58,4.58,0,0,0,3.43,1.14,7.66,7.66,0,0,0,2-.25,4.92,4.92,0,0,0,1.65-.77,3.75,3.75,0,0,0,1.13-1.33,4.19,4.19,0,0,0,.41-1.93,3.06,3.06,0,0,0-.4-1.62A2.34,2.34,0,0,0,146,65.38Zm-11.92,2.55,1.59-.95a8.87,8.87,0,0,0,1.43-1.07,5.15,5.15,0,0,0,1-1.31,3.4,3.4,0,0,0,.4-1.65,4,4,0,0,0-.33-1.69,3.28,3.28,0,0,0-.91-1.19,3.81,3.81,0,0,0-1.33-.69,5.66,5.66,0,0,0-1.62-.23,5,5,0,0,0-3.53,1.25,5.17,5.17,0,0,0-1.53,3.54h2.43a3.18,3.18,0,0,1,.19-1,2.8,2.8,0,0,1,.47-0.83,2.15,2.15,0,0,1,.72-0.57,2.13,2.13,0,0,1,.95-0.21,2.31,2.31,0,0,1,1.38.4,1.56,1.56,0,0,1,.57,1.36,1.88,1.88,0,0,1-.32,1.1,3.79,3.79,0,0,1-.8.84,7,7,0,0,1-1,.66l-1,.56q-0.92.49-1.8,1a9.15,9.15,0,0,0-1.58,1.18A5.63,5.63,0,0,0,128.3,70a5,5,0,0,0-.52,2h9.32l0.5-2.2H131.4a5.92,5.92,0,0,1,1.21-1Q133.32,68.38,134.11,67.92Zm70-20.43A4.59,4.59,0,0,0,204,48a3.08,3.08,0,0,1-.16.55,1.62,1.62,0,0,1-.27.46,0.54,0.54,0,0,1-.43.19H202.7l-0.46,0-0.43,2.05,0.62,0.05a5.48,5.48,0,0,0,.62,0,4.91,4.91,0,0,0,1.44-.18,2.43,2.43,0,0,0,1.6-1.46,7.57,7.57,0,0,0,.4-1.3l2-9.63H206ZM156.62,67l1.6-7.58h-2.48l-7.36,7.36-0.47,2.32h5.83L153.11,72h2.43l0.63-2.92h1.67L158.29,67h-1.67Zm-2.43,0h-3.74l4.73-4.84h0ZM127.52,39.62a2.46,2.46,0,0,0-.94-0.74,4.46,4.46,0,0,0-1.26-.35,10.06,10.06,0,0,0-1.31-.09,7.52,7.52,0,0,0-1.53.15,4.2,4.2,0,0,0-1.33.51,3.36,3.36,0,0,0-1,.95,3.31,3.31,0,0,0-.54,1.47H122a1.45,1.45,0,0,1,.67-1,2.29,2.29,0,0,1,1.22-.33,3.35,3.35,0,0,1,.53,0,1.73,1.73,0,0,1,.52.17,1.18,1.18,0,0,1,.41.34,1.13,1.13,0,0,1-.05,1.25,1.38,1.38,0,0,1-.66.34,6.46,6.46,0,0,1-1.11.17q-0.67.05-1.57,0.16a4.72,4.72,0,0,0-2.62,1,2.73,2.73,0,0,0-.93,2.16,2.43,2.43,0,0,0,.18.93,2,2,0,0,0,.56.77,2.81,2.81,0,0,0,.95.53,4,4,0,0,0,1.32.2A4.48,4.48,0,0,0,123,48a3.11,3.11,0,0,0,1.28-.87V48h2.56a2,2,0,0,1-.09-0.54q0-.27,0-0.64a3.11,3.11,0,0,1,.1-0.62l0.83-3.74a7.44,7.44,0,0,0,.2-1.57A1.94,1.94,0,0,0,127.52,39.62Zm-2.78,4.81a6.15,6.15,0,0,1-.27.76,2.31,2.31,0,0,1-.44.68,2.21,2.21,0,0,1-.68.49,2.35,2.35,0,0,1-1,.19,1.83,1.83,0,0,1-1-.26,0.86,0.86,0,0,1-.42-0.78,1.41,1.41,0,0,1,.16-0.71,1.25,1.25,0,0,1,.42-0.44,2,2,0,0,1,.6-0.24,5.37,5.37,0,0,1,.7-0.12l1.12-.1a2.6,2.6,0,0,0,1-.35Zm34.17,22h2.3a2.4,2.4,0,0,1,.86-0.81,2.47,2.47,0,0,1,1.15-.25,2.21,2.21,0,0,1,1.58.53,2.13,2.13,0,0,1,.56,1.61,2.79,2.79,0,0,1-.2,1.06,2.57,2.57,0,0,1-.54.84,2.49,2.49,0,0,1-.8.55,2.45,2.45,0,0,1-1,.2,2.51,2.51,0,0,1-1.52-.44,1.63,1.63,0,0,1-.62-1.38h-2.45a3.76,3.76,0,0,0,1.24,3,4.93,4.93,0,0,0,3.17.94,6.07,6.07,0,0,0,2.1-.35,4.91,4.91,0,0,0,1.67-1,4.53,4.53,0,0,0,1.1-1.58,5.36,5.36,0,0,0,.4-2.11,4.06,4.06,0,0,0-.29-1.57,3.62,3.62,0,0,0-.77-1.18,3.43,3.43,0,0,0-2.45-1,6.11,6.11,0,0,0-.86.05,3.22,3.22,0,0,0-.66.16,2.76,2.76,0,0,0-.51.25,4.35,4.35,0,0,0-.44.32l0,0,0.83-2.68h5.36l0.45-2.11H161.1ZM121.73,21.14h4.81L127,24h2.81l-2.14-12.85h-2.9L117.14,24h3Zm3.89-7.22h0L126.29,19h-3.44Zm-1.5,46.69a3.71,3.71,0,0,1-1,.75,4.08,4.08,0,0,1-1.15.4,9.86,9.86,0,0,1-1.32.15l-0.41,1.93h3.08L121.6,72h2.72L127,59.4H124.9A4.49,4.49,0,0,1,124.12,60.61Zm189.33-17a5.06,5.06,0,0,1-.32,1,3.17,3.17,0,0,1-.52.83,2.5,2.5,0,0,1-.76.59,2.21,2.21,0,0,1-1,.22A1.43,1.43,0,0,1,310,46a0.81,0.81,0,0,1-.39-0.68c0-.06,0-0.14,0-0.24a2.6,2.6,0,0,1,0-.31l0.05-.31a1.87,1.87,0,0,1,.06-0.26l1.13-5.45h-2.56l-1.15,5.45c0,0.08-.05.2-0.08,0.33s-0.06.29-.09,0.44-0.05.31-.07,0.46a3.34,3.34,0,0,0,0,.37q0,2.48,2.72,2.48a4,4,0,0,0,3.26-1.53h0L312.65,48h2.45L317,38.69h-2.56Zm-8-7.78h-2.55l-0.58,2.83h-1.64l-0.4,1.71h1.67l-1,5c0,0.17-.07.33-0.09,0.48a2.44,2.44,0,0,0,0,.4,1.75,1.75,0,0,0,.19.94,1.53,1.53,0,0,0,.56.57,2.4,2.4,0,0,0,.79.29,4.92,4.92,0,0,0,.89.08l0.81,0,0.79-.06,0.43-2a7.67,7.67,0,0,1-.92.05H304a0.63,0.63,0,0,1-.28-0.08,0.58,0.58,0,0,1-.21-0.21,0.75,0.75,0,0,1-.08-0.39,1.08,1.08,0,0,1,0-.17q0-.12.05-0.26l1-4.63h1.82l0.39-1.71h-1.84Zm-18,27,2.16-.32-0.25-1.42-2.18.41,0.43-2.3-1.48-.07-0.31,2.16-2-1-0.61,1.31,1.94,0.94-1.6,1.66,1,1,1.55-1.75,1,2,1.29-.7Zm6-1.14q-0.14-.8-0.35-1.56a10.91,10.91,0,0,0-.44-1.31h-1.95q0.27,1.19.48,2.37a13.79,13.79,0,0,1,.21,2.37,21.77,21.77,0,0,1-.21,3.05,15.82,15.82,0,0,1-.69,2.85,17.64,17.64,0,0,1-1.26,2.83,23.62,23.62,0,0,1-2,3h2.23q1-1.26,1.78-2.46a16,16,0,0,0,1.34-2.46,13.51,13.51,0,0,0,.84-2.66,15.38,15.38,0,0,0,.29-3.08,11.31,11.31,0,0,0-.09-1.33Q293.56,62.51,293.41,61.71ZM197,65a3.06,3.06,0,0,0,.76-0.67,3.16,3.16,0,0,0,.5-0.85,2.47,2.47,0,0,0,.18-0.91,3.14,3.14,0,0,0-.28-1.31,3.23,3.23,0,0,0-.79-1.07,3.85,3.85,0,0,0-1.23-.73,4.58,4.58,0,0,0-1.62-.27,6.68,6.68,0,0,0-1.86.25,4.68,4.68,0,0,0-1.51.73,3.53,3.53,0,0,0-1,1.16,3.21,3.21,0,0,0-.37,1.55,2.31,2.31,0,0,0,.46,1.42,3,3,0,0,0,1.11.92v0a6.55,6.55,0,0,0-1.24.43,3.74,3.74,0,0,0-1,.67,2.87,2.87,0,0,0-.66,1,3.23,3.23,0,0,0-.23,1.27,3.3,3.3,0,0,0,.34,1.49,3.4,3.4,0,0,0,1,1.17A4.62,4.62,0,0,0,191,72a6.23,6.23,0,0,0,1.88.27,6.68,6.68,0,0,0,1.89-.27,5.43,5.43,0,0,0,1.64-.78,4,4,0,0,0,1.15-1.26A3.37,3.37,0,0,0,198,68.2a3,3,0,0,0-.15-0.94,3.28,3.28,0,0,0-.42-0.85,3,3,0,0,0-.63-0.67,1.92,1.92,0,0,0-.76-0.37v0A3,3,0,0,0,197,65Zm-2.25,4.81a2.69,2.69,0,0,1-1.8.57,2.55,2.55,0,0,1-.83-0.14,2.33,2.33,0,0,1-.71-0.39,1.81,1.81,0,0,1-.5-0.61,1.78,1.78,0,0,1-.18-0.81,2,2,0,0,1,.71-1.65,2.76,2.76,0,0,1,1.74-.55,2.6,2.6,0,0,1,.79.13,2.4,2.4,0,0,1,.72.37,1.82,1.82,0,0,1,.52.62A2.15,2.15,0,0,1,194.77,69.76ZM196,63.5a1.63,1.63,0,0,1-.46.53,2.16,2.16,0,0,1-.66.33,2.51,2.51,0,0,1-.77.12,3.08,3.08,0,0,1-.68-0.08,2,2,0,0,1-.67-0.28,1.65,1.65,0,0,1-.5-0.51,1.41,1.41,0,0,1-.2-0.77,1.6,1.6,0,0,1,.56-1.3,2.34,2.34,0,0,1,1.55-.47,2.86,2.86,0,0,1,.76.1,1.92,1.92,0,0,1,.64.31A1.47,1.47,0,0,1,196,62a1.72,1.72,0,0,1,.16.77A1.48,1.48,0,0,1,196,63.5Zm11.47-2.89a3.69,3.69,0,0,0-1.39-1.07,4.91,4.91,0,0,0-2.05-.39,4.86,4.86,0,0,0-3.46,1.41,4.69,4.69,0,0,0-1,1.55,4.92,4.92,0,0,0-.37,1.9,4.6,4.6,0,0,0,.26,1.59,3.41,3.41,0,0,0,.75,1.21,3.25,3.25,0,0,0,1.18.77,4.21,4.21,0,0,0,1.54.27,3.9,3.9,0,0,0,1.55-.31,2.81,2.81,0,0,0,1.22-1l0,0q-0.2.61-.46,1.28a6,6,0,0,1-.64,1.21,3.39,3.39,0,0,1-.92.91,2.25,2.25,0,0,1-1.28.36,1.56,1.56,0,0,1-1.14-.43,1.6,1.6,0,0,1-.46-1.15h-2.45a4.07,4.07,0,0,0,.35,1.58,3.06,3.06,0,0,0,.84,1.09,3.36,3.36,0,0,0,1.23.62,5.73,5.73,0,0,0,1.54.2,5.36,5.36,0,0,0,2.6-.62,5.91,5.91,0,0,0,1.94-1.7,7.81,7.81,0,0,0,1.22-2.53,11.28,11.28,0,0,0,.41-3.11,8.15,8.15,0,0,0-.24-2.05A4.35,4.35,0,0,0,207.48,60.61Zm-1.6,3.74a2.52,2.52,0,0,1-.46.82,2.19,2.19,0,0,1-.72.56,2.15,2.15,0,0,1-1,.21,2,2,0,0,1-1.46-.52,2.14,2.14,0,0,1-.54-1.6,2.72,2.72,0,0,1,.62-1.83,2.18,2.18,0,0,1,1.75-.73,1.8,1.8,0,0,1,.76.16,1.94,1.94,0,0,1,.61.44,2,2,0,0,1,.41.67,2.44,2.44,0,0,1,.14.86A2.94,2.94,0,0,1,205.88,64.35Zm-33.21-2a3.39,3.39,0,0,1,.92-0.91,2.25,2.25,0,0,1,1.28-.36,1.56,1.56,0,0,1,1.14.43,1.6,1.6,0,0,1,.46,1.15h2.47a4.06,4.06,0,0,0-.35-1.58,3,3,0,0,0-.85-1.09,3.59,3.59,0,0,0-1.24-.63,5.5,5.5,0,0,0-1.54-.21,5.3,5.3,0,0,0-2.6.63,6,6,0,0,0-1.94,1.71A7.78,7.78,0,0,0,169.2,64a11.24,11.24,0,0,0-.41,3.11,8.19,8.19,0,0,0,.24,2.05,4.35,4.35,0,0,0,.78,1.62,3.61,3.61,0,0,0,1.39,1.06,5,5,0,0,0,2.05.38,4.86,4.86,0,0,0,1.92-.38,4.92,4.92,0,0,0,1.55-1,4.66,4.66,0,0,0,1-1.53,4.91,4.91,0,0,0,.37-1.91,4.6,4.6,0,0,0-.26-1.59,3.42,3.42,0,0,0-.75-1.21,3.27,3.27,0,0,0-1.18-.77,4.22,4.22,0,0,0-1.54-.27,3.9,3.9,0,0,0-1.55.31,2.81,2.81,0,0,0-1.22,1l0,0q0.2-.61.46-1.28A6,6,0,0,1,172.67,62.34Zm-0.8,3.89a2.14,2.14,0,0,1,1.68-.76A2,2,0,0,1,175,66a2.14,2.14,0,0,1,.54,1.6,2.72,2.72,0,0,1-.62,1.83,2.18,2.18,0,0,1-1.75.73,1.77,1.77,0,0,1-1.39-.6,2.22,2.22,0,0,1-.53-1.52,2.91,2.91,0,0,1,.16-1A2.54,2.54,0,0,1,171.87,66.23Zm130-49.88a6.45,6.45,0,0,0-.4-2.38,4.59,4.59,0,0,0-2.94-2.78,7.48,7.48,0,0,0-2.36-.35,6.58,6.58,0,0,0-5.14,2.33,7.6,7.6,0,0,0-1.39,2.48,9,9,0,0,0-.49,3,5.64,5.64,0,0,0,1.48,4.21,5.77,5.77,0,0,0,4.22,1.46,6.74,6.74,0,0,0,3-.64,6.43,6.43,0,0,0,2.2-1.74,7.84,7.84,0,0,0,1.36-2.54A9.71,9.71,0,0,0,301.91,16.35Zm-3.09,2.07a5.94,5.94,0,0,1-.78,1.74,4.36,4.36,0,0,1-1.3,1.28,3.3,3.3,0,0,1-1.82.5,3,3,0,0,1-1.32-.27,2.52,2.52,0,0,1-.9-0.73,3.2,3.2,0,0,1-.52-1.05,4.56,4.56,0,0,1-.17-1.26,7.42,7.42,0,0,1,.25-1.88A5.88,5.88,0,0,1,293,15a4.19,4.19,0,0,1,1.31-1.28,3.51,3.51,0,0,1,1.88-.5,3,3,0,0,1,1.33.27,2.48,2.48,0,0,1,.88.72,2.91,2.91,0,0,1,.49,1.05,5.24,5.24,0,0,1,.15,1.29A7.08,7.08,0,0,1,298.82,18.42ZM183.15,51.28a4.14,4.14,0,0,0,1.48-.72,3.77,3.77,0,0,0,1-1.24,7.32,7.32,0,0,0,.63-1.8l1.85-8.82h-2.45l-0.29,1.42h0a2.49,2.49,0,0,0-1.13-1.3,3.7,3.7,0,0,0-1.71-.38,4,4,0,0,0-2,.5,4.77,4.77,0,0,0-1.48,1.3,5.93,5.93,0,0,0-.92,1.8,6.7,6.7,0,0,0-.32,2,4.54,4.54,0,0,0,.25,1.56,3.57,3.57,0,0,0,.71,1.2,3.06,3.06,0,0,0,1.13.77,3.94,3.94,0,0,0,1.49.27A3.06,3.06,0,0,0,184,46.54l0,0q-0.2.67-.4,1.26a4.26,4.26,0,0,1-.49,1,2.28,2.28,0,0,1-.69.68,1.9,1.9,0,0,1-1,.25,2.66,2.66,0,0,1-.61-0.07,1.68,1.68,0,0,1-.55-0.23,1.22,1.22,0,0,1-.39-0.41,1.11,1.11,0,0,1-.13-0.61h-2.54a2.69,2.69,0,0,0,.35,1.42,2.85,2.85,0,0,0,.92.94,4,4,0,0,0,1.28.52,6.35,6.35,0,0,0,1.41.16A7.65,7.65,0,0,0,183.15,51.28Zm0.14-5.68a2.15,2.15,0,0,1-1.2.33,1.71,1.71,0,0,1-.77-0.16,1.49,1.49,0,0,1-.54-0.45,1.88,1.88,0,0,1-.32-0.66,3,3,0,0,1-.1-0.78,4.43,4.43,0,0,1,.17-1.18,4.15,4.15,0,0,1,.5-1.13,3,3,0,0,1,.81-0.85,1.92,1.92,0,0,1,1.13-.34,1.66,1.66,0,0,1,1.39.57,2.26,2.26,0,0,1,.45,1.45,4.65,4.65,0,0,1-.17,1.22,4,4,0,0,1-.5,1.14A2.85,2.85,0,0,1,183.3,45.6Zm111-5.24a2.65,2.65,0,0,1,1.13-.21,1.5,1.5,0,0,1,1.09.33,1.32,1.32,0,0,1,.35.93h2.38a3,3,0,0,0-.29-1.48,2.35,2.35,0,0,0-.84-0.91,3.46,3.46,0,0,0-1.23-.46,8.27,8.27,0,0,0-1.46-.13,6.79,6.79,0,0,0-1.39.15,4.57,4.57,0,0,0-1.34.5,3,3,0,0,0-1,.91,2.36,2.36,0,0,0-.39,1.39,2.81,2.81,0,0,0,.13.94,1.78,1.78,0,0,0,.39.65,2.22,2.22,0,0,0,.63.45,7.08,7.08,0,0,0,.86.34l2,0.63a2.28,2.28,0,0,1,.67.34,0.82,0.82,0,0,1,.25.68A0.91,0.91,0,0,1,296,46a1.17,1.17,0,0,1-.38.34,1.63,1.63,0,0,1-.52.19,3.13,3.13,0,0,1-.58.05,2.77,2.77,0,0,1-.66-0.08,2.19,2.19,0,0,1-.59-0.23,1.3,1.3,0,0,1-.42-0.39,0.94,0.94,0,0,1-.16-0.56V45h-2.36v0.38a2.46,2.46,0,0,0,.36,1.38,2.78,2.78,0,0,0,.93.88,4.13,4.13,0,0,0,1.27.48,6.88,6.88,0,0,0,1.39.14,7.94,7.94,0,0,0,1.6-.16,4.49,4.49,0,0,0,1.42-.54,3.06,3.06,0,0,0,1-1,2.66,2.66,0,0,0,.39-1.47,2.48,2.48,0,0,0-.19-1,2.24,2.24,0,0,0-.52-0.75,3.13,3.13,0,0,0-.77-0.53,6.75,6.75,0,0,0-1-.38L295,42a2.75,2.75,0,0,1-.91-0.41,0.66,0.66,0,0,1-.26-0.52A0.72,0.72,0,0,1,294.27,40.36Zm-105.07,19h-8.95l-0.5,2.38h6.19a19.21,19.21,0,0,0-2,2.14,24.34,24.34,0,0,0-1.79,2.58,25,25,0,0,0-1.45,2.78,16.85,16.85,0,0,0-1,2.72h2.72a19.85,19.85,0,0,1,1-2.81,24.06,24.06,0,0,1,1.42-2.84,22.16,22.16,0,0,1,1.79-2.62,14.55,14.55,0,0,1,2.06-2.13Z"/></svg>