<svg id="helvetica-neue-light" data-name="helvetica-neue-light" xmlns="http://www.w3.org/2000/svg" viewBox="0 0 456 84"><path d="M30.85,11.31L54.65,72h-6.2l-7.4-18.87H13.43L6.12,72H0L24.39,11.31h6.46ZM39.1,48.2L27.37,17.09,15.21,48.2H39.1Z"/><path d="M60.26,34.94A12.55,12.55,0,0,1,64,30.35a15.66,15.66,0,0,1,5.48-2.64,26.74,26.74,0,0,1,7-.85,30.77,30.77,0,0,1,5.78.55,14,14,0,0,1,5.19,2.08,11.36,11.36,0,0,1,3.74,4.29A15.5,15.5,0,0,1,92.56,41V64.27q0,3.23,3.15,3.23a4.13,4.13,0,0,0,1.7-.34v4.51q-0.94.17-1.66,0.25a16.16,16.16,0,0,1-1.83.08,8.08,8.08,0,0,1-3.27-.55,4.39,4.39,0,0,1-1.91-1.57,5.89,5.89,0,0,1-.89-2.42,20.79,20.79,0,0,1-.21-3.1H87.46a36.08,36.08,0,0,1-2.93,3.78,14.56,14.56,0,0,1-3.32,2.76,15.29,15.29,0,0,1-4.17,1.7,22.86,22.86,0,0,1-5.57.59,22,22,0,0,1-5.74-.72,12.84,12.84,0,0,1-4.67-2.29,11,11,0,0,1-3.15-4,13.3,13.3,0,0,1-1.15-5.74,11.35,11.35,0,0,1,2-7.18,12.84,12.84,0,0,1,5.4-4,30.87,30.87,0,0,1,7.57-1.91q4.21-.55,8.54-1.06,1.7-.17,3-0.43A5.19,5.19,0,0,0,85.42,45a4.15,4.15,0,0,0,1.32-1.74,7.53,7.53,0,0,0,.47-2.89,9.77,9.77,0,0,0-.89-4.46,7.07,7.07,0,0,0-2.46-2.76,10,10,0,0,0-3.66-1.4,24.74,24.74,0,0,0-4.46-.38,13.52,13.52,0,0,0-8.33,2.42q-3.23,2.42-3.4,7.78H58.65A17.81,17.81,0,0,1,60.26,34.94ZM87,48a3.07,3.07,0,0,1-2,1.36,19.79,19.79,0,0,1-2.55.59q-3.4.6-7,1.06a38.49,38.49,0,0,0-6.59,1.4A12.88,12.88,0,0,0,64,55.13a6.39,6.39,0,0,0-1.91,5,7.79,7.79,0,0,0,.81,3.61,8.73,8.73,0,0,0,2.17,2.72,9.44,9.44,0,0,0,3.15,1.74,11.45,11.45,0,0,0,3.65.59,18.41,18.41,0,0,0,5.87-.93,14.45,14.45,0,0,0,4.89-2.72A12.94,12.94,0,0,0,87.21,55V48H87Z"/><path d="M124.94,11.15L130,24h-1.31l-1.57-4h-5.85l-1.55,4h-1.3l5.17-12.85h1.37ZM126.68,19l-2.48-6.59L121.62,19h5.06Z"/><path d="M136.58,11.15a7.77,7.77,0,0,1,1.56.15,3.78,3.78,0,0,1,1.31.52,2.76,2.76,0,0,1,.91,1,3,3,0,0,1,.34,1.5,3,3,0,0,1-.16,1,3,3,0,0,1-.46.86,2.92,2.92,0,0,1-.7.66,2.61,2.61,0,0,1-.91.38v0a3,3,0,0,1,2,1,3.12,3.12,0,0,1,.74,2.12,5,5,0,0,1-.05.69,3.43,3.43,0,0,1-.22.79,3.36,3.36,0,0,1-.47.8,2.77,2.77,0,0,1-.82.69,5,5,0,0,1-1.26.49,7.39,7.39,0,0,1-1.79.19h-5.44V11.15h5.44Zm0,5.63a4.24,4.24,0,0,0,1.28-.17,2.66,2.66,0,0,0,.9-0.47,1.93,1.93,0,0,0,.54-0.69,2,2,0,0,0,.18-0.85q0-2.41-2.9-2.41h-4.21v4.59h4.21Zm0,6.17a6.89,6.89,0,0,0,1.3-.12,3,3,0,0,0,1.08-.42,2.16,2.16,0,0,0,.74-0.82,2.74,2.74,0,0,0,.27-1.29,2.14,2.14,0,0,0-.87-1.86,4.3,4.3,0,0,0-2.51-.62h-4.21V23h4.21Z"/><path d="M152,13.71a3.62,3.62,0,0,0-.9-1,4,4,0,0,0-1.17-.6,4.33,4.33,0,0,0-1.34-.21,4.63,4.63,0,0,0-2.2.49,4.35,4.35,0,0,0-1.5,1.29A5.57,5.57,0,0,0,144,15.5a7.8,7.8,0,0,0,0,4.13,5.55,5.55,0,0,0,.86,1.82,4.35,4.35,0,0,0,1.5,1.29,4.64,4.64,0,0,0,2.2.49,3.9,3.9,0,0,0,1.62-.32,3.85,3.85,0,0,0,1.24-.88,4.53,4.53,0,0,0,.85-1.31,5.46,5.46,0,0,0,.41-1.61H154a6.93,6.93,0,0,1-.56,2.14,5.26,5.26,0,0,1-1.12,1.62,4.75,4.75,0,0,1-1.61,1,5.65,5.65,0,0,1-2.06.36,6.07,6.07,0,0,1-2.66-.55,5.51,5.51,0,0,1-1.9-1.47,6.25,6.25,0,0,1-1.13-2.12,8.71,8.71,0,0,1,0-5.08,6.36,6.36,0,0,1,1.13-2.13,5.47,5.47,0,0,1,1.9-1.48,6.44,6.44,0,0,1,4.45-.28,5.2,5.2,0,0,1,1.58.8,4.68,4.68,0,0,1,1.19,1.3,4.4,4.4,0,0,1,.6,1.78h-1.22A4.12,4.12,0,0,0,152,13.71Z"/><path d="M160.27,11.15a6,6,0,0,1,4.42,1.65,6.75,6.75,0,0,1,1.49,4.78,6.75,6.75,0,0,1-1.49,4.78A6,6,0,0,1,160.27,24h-4.45V11.15h4.45ZM159.66,23a8.44,8.44,0,0,0,2.38-.3,3.82,3.82,0,0,0,1.65-.95,3.89,3.89,0,0,0,1-1.67,8.7,8.7,0,0,0,.31-2.47,8.7,8.7,0,0,0-.31-2.47,3.89,3.89,0,0,0-1-1.67,3.82,3.82,0,0,0-1.65-.95,8.44,8.44,0,0,0-2.38-.3H157V23h2.61Z"/><path d="M177,11.15v1h-7.65v4.64h7.16v1h-7.16V23h7.74v1h-9V11.15H177Z"/><path d="M187,11.15v1h-6.93v4.64h6.16v1h-6.16V24h-1.22V11.15H187Z"/><path d="M198.59,24l-0.16-2.34h0a4.35,4.35,0,0,1-1.85,2,4.62,4.62,0,0,1-1.23.46,6.33,6.33,0,0,1-1.36.14,6.07,6.07,0,0,1-2.66-.55,5.51,5.51,0,0,1-1.9-1.47,6.25,6.25,0,0,1-1.13-2.12,8.71,8.71,0,0,1,0-5.08,6.36,6.36,0,0,1,1.13-2.13,5.47,5.47,0,0,1,1.9-1.48,6.07,6.07,0,0,1,2.66-.55,6.61,6.61,0,0,1,1.91.27,4.81,4.81,0,0,1,2.79,2.14,5.16,5.16,0,0,1,.67,1.85h-1.22a2.9,2.9,0,0,0-.37-1.12,3.93,3.93,0,0,0-.85-1,4.36,4.36,0,0,0-2.92-1.06,4.63,4.63,0,0,0-2.2.49,4.35,4.35,0,0,0-1.5,1.29,5.57,5.57,0,0,0-.86,1.81,7.8,7.8,0,0,0,0,4.13,5.55,5.55,0,0,0,.86,1.82,4.35,4.35,0,0,0,1.5,1.29,4.64,4.64,0,0,0,2.2.49,4.88,4.88,0,0,0,1.9-.35,4,4,0,0,0,1.41-1,4.09,4.09,0,0,0,.86-1.49,5.63,5.63,0,0,0,.27-1.89H194v-1h5.45V24h-0.88Z"/><path d="M203.05,11.15v5.58h7.63V11.15h1.22V24h-1.22V17.77h-7.63V24h-1.22V11.15h1.22Z"/><path d="M215.82,11.15V24h-1.22V11.15h1.22Z"/><path d="M224.91,11.15v9.27a6.51,6.51,0,0,1-.2,1.71,2.77,2.77,0,0,1-.64,1.19,2.71,2.71,0,0,1-1.15.7,5.68,5.68,0,0,1-1.75.23,3.85,3.85,0,0,1-1.8-.37,2.9,2.9,0,0,1-1.1-1,3.72,3.72,0,0,1-.54-1.4,9.08,9.08,0,0,1-.14-1.64h1.22c0,0.28,0,.61.05,1a3.38,3.38,0,0,0,.25,1.1,2.1,2.1,0,0,0,.71.89,2.4,2.4,0,0,0,1.45.37,3.2,3.2,0,0,0,1.19-.19,1.57,1.57,0,0,0,.74-0.59,2.67,2.67,0,0,0,.38-1,9.07,9.07,0,0,0,.11-1.51V11.15h1.22Z"/><path d="M228.72,11.15v6.91l7.47-6.91h1.66l-5.74,5.31,6,7.54h-1.58l-5.35-6.7-2.47,2.29V24H227.5V11.15h1.22Z"/><path d="M240.38,11.15V23h7.2v1h-8.42V11.15h1.22Z"/><path d="M250.59,11.15l4.27,11.27,4.43-11.27h1.8V24h-1.22V12.89h0L255.43,24h-1.15l-4.23-11.11h0V24h-1.22V11.15h1.8Z"/><path d="M265,11.15L272.44,22h0V11.15h1.22V24h-1.37l-7.49-10.87h0V24h-1.22V11.15H265Z"/><path d="M276,15a6.34,6.34,0,0,1,1.13-2.13,5.46,5.46,0,0,1,1.9-1.48,6.67,6.67,0,0,1,5.3,0,5.49,5.49,0,0,1,1.89,1.48A6.34,6.34,0,0,1,287.33,15a8.73,8.73,0,0,1,0,5.08,6.24,6.24,0,0,1-1.13,2.12,5.53,5.53,0,0,1-1.89,1.47,6.67,6.67,0,0,1-5.3,0,5.5,5.5,0,0,1-1.9-1.47A6.23,6.23,0,0,1,276,20.11,8.69,8.69,0,0,1,276,15Zm1.13,4.6a5.51,5.51,0,0,0,.86,1.82,4.35,4.35,0,0,0,1.5,1.29,5.19,5.19,0,0,0,4.38,0,4.39,4.39,0,0,0,1.49-1.29,5.55,5.55,0,0,0,.86-1.82,7.78,7.78,0,0,0,0-4.13,5.56,5.56,0,0,0-.86-1.81,4.39,4.39,0,0,0-1.49-1.29,5.18,5.18,0,0,0-4.38,0,4.35,4.35,0,0,0-1.5,1.29,5.53,5.53,0,0,0-.86,1.81A7.78,7.78,0,0,0,277.1,19.63Z"/><path d="M295.32,11.15a4.77,4.77,0,0,1,1.57.24,3.31,3.31,0,0,1,1.21.72,3.18,3.18,0,0,1,.77,1.16,4.55,4.55,0,0,1,0,3.1,3.17,3.17,0,0,1-.77,1.16,3.3,3.3,0,0,1-1.21.72,4.77,4.77,0,0,1-1.57.24h-4.48V24h-1.22V11.15h5.71Zm-0.27,6.3a3.16,3.16,0,0,0,2.07-.65,2.4,2.4,0,0,0,.79-2,2.41,2.41,0,0,0-.79-2,3.16,3.16,0,0,0-2.07-.65h-4.21v5.26h4.21Z"/><path d="M309.67,23.32a5.6,5.6,0,0,1-3.33.94,6.07,6.07,0,0,1-2.65-.55,5.5,5.5,0,0,1-1.9-1.47,6.23,6.23,0,0,1-1.13-2.12,8.69,8.69,0,0,1,0-5.08,6.34,6.34,0,0,1,1.13-2.13,5.46,5.46,0,0,1,1.9-1.48,6.67,6.67,0,0,1,5.3,0,5.49,5.49,0,0,1,1.89,1.48A6.34,6.34,0,0,1,312,15a8.44,8.44,0,0,1,.38,2.54,8.15,8.15,0,0,1-.48,2.83,5.92,5.92,0,0,1-1.46,2.26l1.84,1.39-0.61.76ZM310.78,20a7.63,7.63,0,0,0,.39-2.41,7.75,7.75,0,0,0-.28-2.07,5.56,5.56,0,0,0-.86-1.81,4.39,4.39,0,0,0-1.49-1.29,5.18,5.18,0,0,0-4.38,0,4.35,4.35,0,0,0-1.5,1.29,5.53,5.53,0,0,0-.86,1.81,7.78,7.78,0,0,0,0,4.13,5.51,5.51,0,0,0,.86,1.82,4.35,4.35,0,0,0,1.5,1.29,4.63,4.63,0,0,0,2.2.49,4.39,4.39,0,0,0,2.38-.63L307,21.32l0.63-.77L309.52,22A4.7,4.7,0,0,0,310.78,20Z"/><path d="M320.18,11.15a5.55,5.55,0,0,1,1.5.2,3.62,3.62,0,0,1,1.24.6,2.9,2.9,0,0,1,.85,1,3.37,3.37,0,0,1,.31,1.5,3.61,3.61,0,0,1-.63,2.12,2.87,2.87,0,0,1-1.87,1.15v0a2.84,2.84,0,0,1,1,.33,2.08,2.08,0,0,1,.68.62,2.56,2.56,0,0,1,.38.87,6.54,6.54,0,0,1,.15,1.07q0,0.32,0,.79c0,0.31,0,.63.07,0.94a5.94,5.94,0,0,0,.17.9,1.71,1.71,0,0,0,.31.66h-1.35a1.59,1.59,0,0,1-.17-0.44,4,4,0,0,1-.09-0.54c0-.19,0-0.37,0-0.55s0-.34,0-0.47q0-.68-0.12-1.36a3.74,3.74,0,0,0-.34-1.21,2.15,2.15,0,0,0-.76-0.85,2.29,2.29,0,0,0-1.36-.29h-4.64V24h-1.22V11.15h5.89Zm-0.09,6.1a3.28,3.28,0,0,0,1.06-.17,2.64,2.64,0,0,0,.88-0.5,2.43,2.43,0,0,0,.6-0.78,2.36,2.36,0,0,0,.22-1.05,2.53,2.53,0,0,0-.68-1.87,2.84,2.84,0,0,0-2.09-.68h-4.57v5.06h4.57Z"/><path d="M327.18,21.43a2.71,2.71,0,0,0,.89,1.06,3.71,3.71,0,0,0,1.34.57,7.67,7.67,0,0,0,1.66.17,4.69,4.69,0,0,0,1.1-.14,3.86,3.86,0,0,0,1.11-.46,2.83,2.83,0,0,0,.85-0.81,2,2,0,0,0,.34-1.2,1.75,1.75,0,0,0-.24-0.94A2.22,2.22,0,0,0,333.6,19a3.71,3.71,0,0,0-.85-0.44,8.48,8.48,0,0,0-.92-0.28l-2.86-.7a8.52,8.52,0,0,1-1.09-.36,3.08,3.08,0,0,1-.93-0.58,2.74,2.74,0,0,1-.64-0.88,3,3,0,0,1-.24-1.28,4,4,0,0,1,.18-1.1,3,3,0,0,1,.67-1.19,3.94,3.94,0,0,1,1.36-.94,5.45,5.45,0,0,1,2.21-.39,6.45,6.45,0,0,1,1.82.25,4.51,4.51,0,0,1,1.51.76,3.77,3.77,0,0,1,1,1.25,3.73,3.73,0,0,1,.39,1.74H334a3,3,0,0,0-.33-1.29,2.86,2.86,0,0,0-.77-0.92,3.4,3.4,0,0,0-1.1-.56,4.46,4.46,0,0,0-1.3-.19,5.36,5.36,0,0,0-1.21.14,3.05,3.05,0,0,0-1,.43,2.27,2.27,0,0,0-.71.78,2.46,2.46,0,0,0-.27,1.21,1.84,1.84,0,0,0,.15.78,1.65,1.65,0,0,0,.42.57,2.24,2.24,0,0,0,.62.38,4.68,4.68,0,0,0,.75.23l3.13,0.77a9,9,0,0,1,1.29.44,4.27,4.27,0,0,1,1.06.65,2.74,2.74,0,0,1,.72.94,3.17,3.17,0,0,1,.26,1.35,5,5,0,0,1,0,.58,2.83,2.83,0,0,1-.22.77,3.81,3.81,0,0,1-.48.82,3.05,3.05,0,0,1-.87.75,5,5,0,0,1-1.36.54,8,8,0,0,1-1.94.21,8.11,8.11,0,0,1-2.11-.26,4.52,4.52,0,0,1-1.66-.8A3.52,3.52,0,0,1,326,21.8a4.53,4.53,0,0,1-.31-2h1.22A3.61,3.61,0,0,0,327.18,21.43Z"/><path d="M346.44,11.15v1H342V24h-1.22V12.19h-4.46v-1h10.17Z"/><path d="M348.74,11.15v8A6.18,6.18,0,0,0,349,21a3.15,3.15,0,0,0,.74,1.28,2.85,2.85,0,0,0,1.19.72,5.16,5.16,0,0,0,1.58.23,5.23,5.23,0,0,0,1.6-.23,2.86,2.86,0,0,0,1.19-.72A3.17,3.17,0,0,0,356,21a6.25,6.25,0,0,0,.25-1.9v-8h1.22v8.23a6.27,6.27,0,0,1-.28,1.88,4.14,4.14,0,0,1-.88,1.56,4.2,4.2,0,0,1-1.55,1.05,6.07,6.07,0,0,1-2.29.39,6,6,0,0,1-2.28-.39,4.2,4.2,0,0,1-1.55-1.05,4.11,4.11,0,0,1-.88-1.56,6.21,6.21,0,0,1-.28-1.88V11.15h1.22Z"/><path d="M359.87,11.15L364,22.65h0l4.14-11.5h1.3L364.75,24h-1.42l-4.75-12.85h1.3Z"/><path d="M370.67,11.15l2.92,11.25h0l3.13-11.25h1.53l3.15,11.25h0l2.93-11.25h1.22L382.08,24h-1.29l-3.26-11.5h0L374.25,24h-1.33l-3.56-12.85h1.31Z"/><path d="M387.17,11.15l3.64,5.38,3.76-5.38h1.37l-4.39,6.26L396.19,24h-1.47l-3.91-5.67-4,5.67h-1.37l4.61-6.62-4.36-6.23h1.44Z"/><path d="M395.85,11.15h1.44l4.23,6.52,4.21-6.52h1.46l-5.08,7.56V24h-1.22V18.71Z"/><path d="M416.93,11.15v1.08L408.47,23h8.64v1h-10V22.92l8.46-10.73h-7.88v-1h9.25Z"/><path d="M119.82,40.15a2.65,2.65,0,0,1,.78-1,3.32,3.32,0,0,1,1.16-.56,5.65,5.65,0,0,1,1.48-.18,6.5,6.5,0,0,1,1.22.12,3,3,0,0,1,1.1.44,2.4,2.4,0,0,1,.79.91,3.28,3.28,0,0,1,.31,1.52v4.93a0.6,0.6,0,0,0,.67.68,0.87,0.87,0,0,0,.36-0.07v1l-0.35.05L127,48a1.71,1.71,0,0,1-.69-0.12,0.93,0.93,0,0,1-.41-0.33,1.24,1.24,0,0,1-.19-0.51,4.37,4.37,0,0,1,0-.66h0a7.61,7.61,0,0,1-.62.8,3.09,3.09,0,0,1-.7.58,3.24,3.24,0,0,1-.88.36,4.83,4.83,0,0,1-1.18.13A4.67,4.67,0,0,1,121,48.1a2.72,2.72,0,0,1-1-.49,2.32,2.32,0,0,1-.67-0.85,2.81,2.81,0,0,1-.24-1.22,2.4,2.4,0,0,1,.43-1.52,2.72,2.72,0,0,1,1.14-.84,6.53,6.53,0,0,1,1.6-.4l1.81-.23q0.36,0,.63-0.09a1.1,1.1,0,0,0,.45-0.19,0.88,0.88,0,0,0,.28-0.37,1.6,1.6,0,0,0,.1-0.61,2.07,2.07,0,0,0-.19-0.95,1.49,1.49,0,0,0-.52-0.58,2.09,2.09,0,0,0-.77-0.3,5.22,5.22,0,0,0-.95-0.08,2.86,2.86,0,0,0-1.76.51,2,2,0,0,0-.72,1.65h-1.13A3.77,3.77,0,0,1,119.82,40.15Zm5.67,2.77a0.65,0.65,0,0,1-.41.29,4.23,4.23,0,0,1-.54.13q-0.72.13-1.49,0.23a8.15,8.15,0,0,0-1.39.3,2.72,2.72,0,0,0-1,.57,1.35,1.35,0,0,0-.41,1.05,1.65,1.65,0,0,0,.17.77,1.85,1.85,0,0,0,.46.58,2,2,0,0,0,.67.37,2.43,2.43,0,0,0,.77.13,3.91,3.91,0,0,0,1.24-.2,3.05,3.05,0,0,0,1-.58,2.74,2.74,0,0,0,1-2.14V42.92h0Z"/><path d="M130.06,35.15v5.33h0a2.69,2.69,0,0,1,.51-0.88,3.26,3.26,0,0,1,.77-0.64,3.39,3.39,0,0,1,.94-0.39,4.17,4.17,0,0,1,1-.13,4,4,0,0,1,1.85.4,3.8,3.8,0,0,1,1.3,1.07,4.58,4.58,0,0,1,.77,1.57,7.15,7.15,0,0,1,0,3.76,4.58,4.58,0,0,1-.77,1.57,3.71,3.71,0,0,1-1.3,1.06,4.13,4.13,0,0,1-1.85.39,3.93,3.93,0,0,1-2-.52A3,3,0,0,1,130,46.24h0V48h-1V35.15h1.13Zm6.13,6.78a4,4,0,0,0-.54-1.27,3,3,0,0,0-.94-0.91,2.62,2.62,0,0,0-1.39-.35,3.05,3.05,0,0,0-1.52.35,3,3,0,0,0-1,.91,3.74,3.74,0,0,0-.56,1.27,6.08,6.08,0,0,0,0,2.86,3.73,3.73,0,0,0,.56,1.27,3,3,0,0,0,1,.91,3,3,0,0,0,1.52.35,2.61,2.61,0,0,0,1.39-.35,3,3,0,0,0,.94-0.91,4,4,0,0,0,.54-1.27A6.08,6.08,0,0,0,136.19,41.92Z"/><path d="M145,40a2.47,2.47,0,0,0-1.76-.59,2.87,2.87,0,0,0-1.42.34,3.12,3.12,0,0,0-1,.9,4.07,4.07,0,0,0-.61,1.27,5.17,5.17,0,0,0,0,2.9,4.07,4.07,0,0,0,.61,1.27,3.11,3.11,0,0,0,1,.9,2.87,2.87,0,0,0,1.42.34,2.52,2.52,0,0,0,1-.2,2.66,2.66,0,0,0,.83-0.55,3,3,0,0,0,.59-0.84,3.09,3.09,0,0,0,.29-1.06H147a4.29,4.29,0,0,1-1.24,2.64,3.64,3.64,0,0,1-2.59.94,4.36,4.36,0,0,1-1.88-.39,4,4,0,0,1-1.38-1.05,4.58,4.58,0,0,1-.85-1.56,6.4,6.4,0,0,1,0-3.8,4.59,4.59,0,0,1,.85-1.56,4.1,4.1,0,0,1,1.38-1.06,4.27,4.27,0,0,1,1.88-.4,4,4,0,0,1,2.53.79,3.38,3.38,0,0,1,1.23,2.39h-1.13A3.12,3.12,0,0,0,145,40Z"/><path d="M155.73,48V46.24h0a2.66,2.66,0,0,1-.53.83,3.43,3.43,0,0,1-.8.64,4.16,4.16,0,0,1-1,.4,3.74,3.74,0,0,1-1,.14,4.12,4.12,0,0,1-1.85-.39,3.7,3.7,0,0,1-1.3-1.06,4.55,4.55,0,0,1-.77-1.57,7.15,7.15,0,0,1,0-3.76,4.54,4.54,0,0,1,.77-1.57,3.79,3.79,0,0,1,1.3-1.07,4,4,0,0,1,1.85-.4,4.13,4.13,0,0,1,1,.13,3.41,3.41,0,0,1,.93.39,3.26,3.26,0,0,1,.77.64,2.69,2.69,0,0,1,.51.88h0V35.15h1.13V48h-1Zm-6.22-3.21a3.94,3.94,0,0,0,.54,1.27A3,3,0,0,0,151,47a2.61,2.61,0,0,0,1.39.35,3,3,0,0,0,1.52-.35,3,3,0,0,0,1-.91,3.75,3.75,0,0,0,.56-1.27,6.08,6.08,0,0,0,0-2.86,3.75,3.75,0,0,0-.56-1.27,3,3,0,0,0-1-.91,3.05,3.05,0,0,0-1.52-.35,2.62,2.62,0,0,0-1.39.35,3,3,0,0,0-.94.91,4,4,0,0,0-.54,1.27A6.08,6.08,0,0,0,149.51,44.79Z"/><path d="M159.77,44.93a3.49,3.49,0,0,0,.55,1.18,3.14,3.14,0,0,0,1,.86,2.67,2.67,0,0,0,1.39.34,2.76,2.76,0,0,0,1.94-.65,3.41,3.41,0,0,0,1-1.73h1.13a4.53,4.53,0,0,1-1.32,2.45,4,4,0,0,1-2.73.86,4.32,4.32,0,0,1-1.9-.39,3.5,3.5,0,0,1-1.31-1.06,4.6,4.6,0,0,1-.75-1.57,7.11,7.11,0,0,1-.24-1.88,6.74,6.74,0,0,1,.24-1.8,4.82,4.82,0,0,1,.75-1.58,3.75,3.75,0,0,1,1.31-1.12,4,4,0,0,1,1.9-.42,3.67,3.67,0,0,1,3.2,1.63,4.88,4.88,0,0,1,.71,1.67,7.31,7.31,0,0,1,.18,1.92H159.6A5,5,0,0,0,159.77,44.93Zm5.62-3.47a3.42,3.42,0,0,0-.58-1.05,2.91,2.91,0,0,0-.92-0.74,2.64,2.64,0,0,0-1.22-.28,2.67,2.67,0,0,0-1.24.28,2.9,2.9,0,0,0-.92.74,3.67,3.67,0,0,0-.6,1.06,5.18,5.18,0,0,0-.3,1.23h6A4.1,4.1,0,0,0,165.39,41.47Z"/><path d="M170,39.67V48h-1.13V39.67h-1.58v-1h1.58V37.87a6.21,6.21,0,0,1,.09-1.1,2.14,2.14,0,0,1,.34-0.86,1.64,1.64,0,0,1,.69-0.56,2.75,2.75,0,0,1,1.13-.2l0.47,0,0.49,0.05v1l-0.43-.06-0.4,0a1.47,1.47,0,0,0-.72.14,0.89,0.89,0,0,0-.37.39,1.48,1.48,0,0,0-.13.57q0,0.32,0,.7v0.81h1.84v1H170Z"/><path d="M180.56,49.1a3.62,3.62,0,0,1-.71,1.4,3.1,3.1,0,0,1-1.27.88,5.28,5.28,0,0,1-1.92.31,5.74,5.74,0,0,1-1.37-.16,3.88,3.88,0,0,1-1.2-.5,3,3,0,0,1-.88-0.87,2.6,2.6,0,0,1-.41-1.27h1.13a2,2,0,0,0,.35.87,2.09,2.09,0,0,0,.63.57,2.8,2.8,0,0,0,.82.32,4.3,4.3,0,0,0,.92.1,2.72,2.72,0,0,0,2.29-.9,4.14,4.14,0,0,0,.7-2.59V46h0a3.32,3.32,0,0,1-1.16,1.39,3.1,3.1,0,0,1-1.79.52,4.48,4.48,0,0,1-1.91-.37,3.54,3.54,0,0,1-1.31-1,4.15,4.15,0,0,1-.75-1.52,7.16,7.16,0,0,1-.23-1.86,5.81,5.81,0,0,1,.28-1.81,4.5,4.5,0,0,1,.81-1.49,3.78,3.78,0,0,1,1.31-1,4.16,4.16,0,0,1,1.79-.37,3.27,3.27,0,0,1,1,.14,3.11,3.11,0,0,1,.84.41,3.6,3.6,0,0,1,.67.6,2.73,2.73,0,0,1,.46.72h0v-1.6h1.13v8.53A7.1,7.1,0,0,1,180.56,49.1ZM178,46.62a3,3,0,0,0,.94-0.83,3.66,3.66,0,0,0,.57-1.18,5,5,0,0,0,.19-1.37,5.9,5.9,0,0,0-.16-1.37,4,4,0,0,0-.52-1.24,2.84,2.84,0,0,0-.93-0.9,2.62,2.62,0,0,0-1.38-.34,2.73,2.73,0,0,0-1.39.33,3,3,0,0,0-1,.87,3.66,3.66,0,0,0-.55,1.23,5.86,5.86,0,0,0-.17,1.41,5.22,5.22,0,0,0,.18,1.37,3.51,3.51,0,0,0,.56,1.18,2.88,2.88,0,0,0,1,.83,2.81,2.81,0,0,0,1.37.31A2.59,2.59,0,0,0,178,46.62Z"/><path d="M184.06,35.15v5.17h0A2.72,2.72,0,0,1,185.25,39a3.38,3.38,0,0,1,1.82-.51,4.58,4.58,0,0,1,1.63.25,2.59,2.59,0,0,1,1.05.71,2.66,2.66,0,0,1,.56,1.13,6.37,6.37,0,0,1,.16,1.49v6h-1.13V42.2a5.42,5.42,0,0,0-.11-1.11,2.35,2.35,0,0,0-.38-0.89,1.84,1.84,0,0,0-.73-0.59A2.68,2.68,0,0,0,187,39.4a2.89,2.89,0,0,0-1.21.24,2.62,2.62,0,0,0-.9.67,3.07,3.07,0,0,0-.58,1,4.11,4.11,0,0,0-.22,1.27V48h-1.13V35.15h1.13Z"/><path d="M193.77,35.15V37h-1.13V35.15h1.13Zm0,3.56V48h-1.13V38.71h1.13Z"/><path d="M197.1,38.71V48.85a5.83,5.83,0,0,1-.08,1,2.2,2.2,0,0,1-.31.82,1.62,1.62,0,0,1-.61.56,2.07,2.07,0,0,1-1,.21l-0.39,0-0.39,0V50.45l0.31,0h0.29a0.84,0.84,0,0,0,.85-0.39,2.28,2.28,0,0,0,.18-1V38.71h1.13Zm0-3.56V37H196V35.15h1.13Z"/><path d="M200.41,35.15v8.06l5.15-4.5h1.51l-4,3.44L207.34,48h-1.42l-3.67-5.06-1.84,1.53V48h-1.13V35.15h1.13Z"/><path d="M209.43,35.15V48h-1.13V35.15h1.13Z"/><path d="M212.65,38.71v1.57h0.05a3.55,3.55,0,0,1,1.18-1.35,3.29,3.29,0,0,1,1.86-.49,3.17,3.17,0,0,1,1.67.45,2.21,2.21,0,0,1,1,1.37,2.85,2.85,0,0,1,1.22-1.37,3.5,3.5,0,0,1,1.73-.45q3.08,0,3.08,3.26V48H223.3V41.75a2.74,2.74,0,0,0-.49-1.75,2.09,2.09,0,0,0-1.71-.6,2.43,2.43,0,0,0-1.22.28,2.15,2.15,0,0,0-.77.75,3.18,3.18,0,0,0-.41,1.07,6.54,6.54,0,0,0-.12,1.25V48h-1.13V41.7a3.93,3.93,0,0,0-.1-0.89,2.07,2.07,0,0,0-.32-0.74,1.54,1.54,0,0,0-.6-0.49,2.12,2.12,0,0,0-.92-0.18,2.81,2.81,0,0,0-1.25.26,2.29,2.29,0,0,0-.86.72,3.19,3.19,0,0,0-.5,1.08,5.36,5.36,0,0,0-.16,1.36V48H211.6V38.71h1Z"/><path d="M227.71,38.71v1.6h0A2.72,2.72,0,0,1,228.9,39a3.38,3.38,0,0,1,1.82-.51,4.59,4.59,0,0,1,1.63.25,2.59,2.59,0,0,1,1.05.71,2.67,2.67,0,0,1,.56,1.13,6.37,6.37,0,0,1,.16,1.49v6H233V42.2a5.49,5.49,0,0,0-.11-1.11,2.35,2.35,0,0,0-.38-0.89,1.84,1.84,0,0,0-.73-0.59,2.68,2.68,0,0,0-1.14-.22,2.88,2.88,0,0,0-1.21.24,2.61,2.61,0,0,0-.9.67,3.05,3.05,0,0,0-.58,1,4.08,4.08,0,0,0-.22,1.27V48h-1.13V38.71h1.13Z"/><path d="M242.07,38.84a4.08,4.08,0,0,1,1.38,1.06,4.61,4.61,0,0,1,.85,1.56,6.42,6.42,0,0,1,0,3.8,4.6,4.6,0,0,1-.85,1.56,4,4,0,0,1-1.38,1.05,4.77,4.77,0,0,1-3.76,0,4,4,0,0,1-1.38-1.05,4.6,4.6,0,0,1-.85-1.56,6.42,6.42,0,0,1,0-3.8,4.6,4.6,0,0,1,.85-1.56,4.12,4.12,0,0,1,1.38-1.06A4.66,4.66,0,0,1,242.07,38.84Zm-3.3.9a3.12,3.12,0,0,0-1,.9,4.07,4.07,0,0,0-.61,1.27,5.17,5.17,0,0,0,0,2.9,4.07,4.07,0,0,0,.61,1.27,3.11,3.11,0,0,0,1,.9,3.13,3.13,0,0,0,2.84,0,3.12,3.12,0,0,0,1-.9,4.06,4.06,0,0,0,.61-1.27,5.17,5.17,0,0,0,0-2.9,4.06,4.06,0,0,0-.61-1.27,3.12,3.12,0,0,0-1-.9A3.13,3.13,0,0,0,238.77,39.74Z"/><path d="M247.32,38.71v1.76h0a3,3,0,0,1,1.29-1.5,3.88,3.88,0,0,1,2-.53,4.05,4.05,0,0,1,1.85.4,3.8,3.8,0,0,1,1.3,1.07,4.56,4.56,0,0,1,.77,1.57,7.15,7.15,0,0,1,0,3.76,4.56,4.56,0,0,1-.77,1.57,3.72,3.72,0,0,1-1.3,1.06,4.41,4.41,0,0,1-2.85.26,3.55,3.55,0,0,1-.94-0.38,3.08,3.08,0,0,1-.77-0.63,2.69,2.69,0,0,1-.51-0.88h0v5.18h-1.13V38.71h1Zm6.22,3.21a4,4,0,0,0-.54-1.27,3,3,0,0,0-.94-0.91,2.62,2.62,0,0,0-1.39-.35,3.4,3.4,0,0,0-1.57.32,2.73,2.73,0,0,0-1,.86,3.4,3.4,0,0,0-.53,1.26,7.29,7.29,0,0,0-.15,1.51,6.14,6.14,0,0,0,.17,1.43,3.77,3.77,0,0,0,.56,1.27,3,3,0,0,0,1,.91,3,3,0,0,0,1.52.35,2.62,2.62,0,0,0,1.39-.35,3,3,0,0,0,.94-0.91,4,4,0,0,0,.54-1.27A6.11,6.11,0,0,0,253.54,41.92Z"/><path d="M263.64,51.42V46.24h0a2.69,2.69,0,0,1-.51.88,3.12,3.12,0,0,1-.77.63,3.6,3.6,0,0,1-.93.38,4.43,4.43,0,0,1-2.86-.26,3.7,3.7,0,0,1-1.3-1.06,4.53,4.53,0,0,1-.78-1.57,7.15,7.15,0,0,1,0-3.76,4.53,4.53,0,0,1,.78-1.57,3.79,3.79,0,0,1,1.3-1.07,4,4,0,0,1,1.85-.4,3.75,3.75,0,0,1,1,.14,3.91,3.91,0,0,1,1,.41,3.73,3.73,0,0,1,.8.64,2.49,2.49,0,0,1,.53.84h0V38.71h1V51.42h-1.13Zm-6.13-6.63a3.94,3.94,0,0,0,.54,1.27A3,3,0,0,0,259,47a2.61,2.61,0,0,0,1.39.35A3,3,0,0,0,261.9,47a3,3,0,0,0,1-.91,3.73,3.73,0,0,0,.56-1.27,6,6,0,0,0,0-2.86,3.74,3.74,0,0,0-.56-1.27,3,3,0,0,0-1-.91,3,3,0,0,0-1.52-.35,2.61,2.61,0,0,0-1.39.35,3,3,0,0,0-.95.91,4,4,0,0,0-.54,1.27A6,6,0,0,0,257.51,44.79Z"/><path d="M268,38.71v2.18h0a3.56,3.56,0,0,1,1.34-1.75,3.51,3.51,0,0,1,2.17-.56v1.13a3.43,3.43,0,0,0-1.4.21,3.18,3.18,0,0,0-1.09.69,3.14,3.14,0,0,0-.71,1.07,3.58,3.58,0,0,0-.25,1.36v5h-1.13V38.71h1Z"/><path d="M278,40.52a1.85,1.85,0,0,0-.53-0.64,2.21,2.21,0,0,0-.77-0.37,3.49,3.49,0,0,0-.92-0.12,3.7,3.7,0,0,0-.76.08,2.32,2.32,0,0,0-.71.27,1.53,1.53,0,0,0-.52.5,1.37,1.37,0,0,0-.2.76,1.05,1.05,0,0,0,.19.64,1.68,1.68,0,0,0,.48.44,3.05,3.05,0,0,0,.63.3l0.63,0.19L277,42.91a4.35,4.35,0,0,1,1,.26,3.1,3.1,0,0,1,.85.5,2.42,2.42,0,0,1,.6.76,2.27,2.27,0,0,1,.23,1.06,2.34,2.34,0,0,1-.34,1.29,2.8,2.8,0,0,1-.87.86,3.71,3.71,0,0,1-1.2.48,6.19,6.19,0,0,1-1.31.14,4.26,4.26,0,0,1-2.65-.77A3.3,3.3,0,0,1,272.08,45h1.13a2.24,2.24,0,0,0,.84,1.74,3,3,0,0,0,1.9.58,4.28,4.28,0,0,0,.86-0.09,2.75,2.75,0,0,0,.82-0.31,2,2,0,0,0,.62-0.55,1.35,1.35,0,0,0,.24-0.82,1.31,1.31,0,0,0-.17-0.69,1.5,1.5,0,0,0-.46-0.47,2.94,2.94,0,0,0-.66-0.31c-0.25-.08-0.49-0.16-0.75-0.22L275,43.54a8.35,8.35,0,0,1-1-.33,3.26,3.26,0,0,1-.82-0.47,1.94,1.94,0,0,1-.55-0.68,2.25,2.25,0,0,1-.2-1,2.22,2.22,0,0,1,.32-1.21,2.45,2.45,0,0,1,.82-0.81,3.81,3.81,0,0,1,1.13-.45,5.46,5.46,0,0,1,1.23-.14,4.54,4.54,0,0,1,1.3.18,3,3,0,0,1,1.06.56,2.73,2.73,0,0,1,.73.94,3.32,3.32,0,0,1,.31,1.31h-1.13A2.15,2.15,0,0,0,278,40.52Z"/><path d="M285,38.71v1h-1.89v6.26a2,2,0,0,0,.15.87,0.83,0.83,0,0,0,.76.35,8.77,8.77,0,0,0,1-.05v1l-0.5,0-0.5,0a1.67,1.67,0,0,1-2-2.07V39.67h-1.62v-1h1.62V35.92h1.13v2.79H285Z"/><path d="M293.07,48V46.33h0a3.22,3.22,0,0,1-1.3,1.43,3.72,3.72,0,0,1-1.9.5,4.13,4.13,0,0,1-1.5-.24,2.49,2.49,0,0,1-1-.69,2.8,2.8,0,0,1-.57-1.1,5.47,5.47,0,0,1-.18-1.48v-6h1.13v6a3,3,0,0,0,.59,1.91,2.92,2.92,0,0,0,3.16.33,2.66,2.66,0,0,0,.86-0.84,3.75,3.75,0,0,0,.5-1.2,5.8,5.8,0,0,0,.16-1.38V38.71h1.13V48h-1Z"/><path d="M296.47,38.71l2.92,8.15h0l2.88-8.15h1.17L300,48h-1.21l-3.58-9.29h1.26Z"/><path d="M304.86,38.71l2.38,8h0l2.27-8h1.28l2.27,8h0l2.38-8h1.21l-3,9.29h-1.24l-2.29-7.81h0L307.88,48h-1.24l-3-9.29h1.21Z"/><path d="M317.14,38.71h1.42l2.65,3.53,2.59-3.53h1.42l-3.35,4.45L325.49,48H324l-2.92-3.91L318.27,48h-1.4l3.6-4.82Z"/><path d="M326.75,38.71l3.06,7.92,2.86-7.92h1.13l-4,10.69a10.21,10.21,0,0,1-.47,1,2.25,2.25,0,0,1-.48.61,1.6,1.6,0,0,1-.61.32,3.36,3.36,0,0,1-.89.1l-0.53,0a1.1,1.1,0,0,1-.33-0.06v-1l0.39,0.06,0.39,0a1.53,1.53,0,0,0,.62-0.11,1.33,1.33,0,0,0,.42-0.3,1.72,1.72,0,0,0,.3-0.46l0.27-.59,0.4-1-3.71-9.25h1.21Z"/><path d="M341.87,47v1h-7.76V47.08l6.07-7.42h-5.65v-1h7.09v0.81L335.48,47h6.39Z"/><path d="M121.6,61.75a2.85,2.85,0,0,0,1-.3,2,2,0,0,0,.74-0.71,3.53,3.53,0,0,0,.42-1.34h0.92V72h-1.13V62.64h-3.33V61.83Q121,61.81,121.6,61.75Z"/><path d="M129.17,72a4.42,4.42,0,0,1,.32-1.66,4.82,4.82,0,0,1,.81-1.3A7.56,7.56,0,0,1,131.43,68q0.63-.48,1.3-0.92l1.32-.9a8.68,8.68,0,0,0,1.18-1,3.9,3.9,0,0,0,.78-1.07,3,3,0,0,0,.26-1.31,2.54,2.54,0,0,0-.22-1.09,2.42,2.42,0,0,0-.61-0.81,2.65,2.65,0,0,0-.9-0.5,3.42,3.42,0,0,0-1.09-.17,2.81,2.81,0,0,0-1.32.29,2.47,2.47,0,0,0-.89.77,3.27,3.27,0,0,0-.5,1.12,5.1,5.1,0,0,0-.13,1.33h-1.13A5.89,5.89,0,0,1,129.7,62a3.85,3.85,0,0,1,.75-1.41,3.42,3.42,0,0,1,1.27-.93,4.46,4.46,0,0,1,1.79-.33,5.1,5.1,0,0,1,1.54.22,3.64,3.64,0,0,1,1.24.67,3,3,0,0,1,.83,1.11,3.76,3.76,0,0,1,.3,1.55,3.82,3.82,0,0,1-.26,1.44,4.56,4.56,0,0,1-.7,1.19,6.87,6.87,0,0,1-1,1,12.32,12.32,0,0,1-1.2.85q-0.45.31-1.06,0.68a11.19,11.19,0,0,0-1.18.82,6.52,6.52,0,0,0-1,1,2.48,2.48,0,0,0-.54,1.16h7v1h-8.3Z"/><path d="M140.42,69.35a2.83,2.83,0,0,0,.61,1,2.8,2.8,0,0,0,1,.68,3.63,3.63,0,0,0,1.36.24,4,4,0,0,0,1.21-.18,3.12,3.12,0,0,0,1-.54,2.71,2.71,0,0,0,.72-0.88,2.55,2.55,0,0,0,.27-1.19,2.75,2.75,0,0,0-.23-1.18,2.32,2.32,0,0,0-.65-0.83,2.78,2.78,0,0,0-1-.5,4.17,4.17,0,0,0-1.18-.16h-1v-1h1a3.15,3.15,0,0,0,.89-0.14,2.54,2.54,0,0,0,.83-0.41,2.17,2.17,0,0,0,.6-0.71,2.13,2.13,0,0,0,.23-1,2.42,2.42,0,0,0-.22-1.07,2.1,2.1,0,0,0-.59-0.74,2.44,2.44,0,0,0-.87-0.43,4.07,4.07,0,0,0-1.07-.13,3.11,3.11,0,0,0-1.24.23,2.52,2.52,0,0,0-.91.66,2.74,2.74,0,0,0-.55,1,4,4,0,0,0-.16,1.29h-1.13a4.74,4.74,0,0,1,.28-1.66,3.82,3.82,0,0,1,.79-1.3,3.64,3.64,0,0,1,1.25-.86,4.18,4.18,0,0,1,1.66-.31,5.51,5.51,0,0,1,1.44.19,3.93,3.93,0,0,1,1.25.58,2.92,2.92,0,0,1,.88,1,3.23,3.23,0,0,1-.22,3.23,2.64,2.64,0,0,1-1.58,1v0a3,3,0,0,1,1.92,1,3.21,3.21,0,0,1,.68,2.08,3.67,3.67,0,0,1-.35,1.65,3.55,3.55,0,0,1-.94,1.2,4,4,0,0,1-1.39.73,5.61,5.61,0,0,1-1.66.24,5.38,5.38,0,0,1-1.79-.29,4,4,0,0,1-1.4-.83,3.4,3.4,0,0,1-.88-1.33,4.29,4.29,0,0,1-.23-1.82h1.13A3.69,3.69,0,0,0,140.42,69.35Z"/><path d="M154.91,59.4h1v8.51h1.89v1h-1.89V72h-1V68.87h-5.81v-1.1Zm0,1.66h0l-4.75,6.86h4.79V61.06Z"/><path d="M160.58,69.59a2.82,2.82,0,0,0,1.63,1.52,3.43,3.43,0,0,0,1.21.21,3,3,0,0,0,1.31-.28,3.06,3.06,0,0,0,1-.76,3.3,3.3,0,0,0,.63-1.1,3.93,3.93,0,0,0,.22-1.3,3.39,3.39,0,0,0-.24-1.3,3.27,3.27,0,0,0-.67-1,3,3,0,0,0-1-.69,3.28,3.28,0,0,0-1.3-.25,3.4,3.4,0,0,0-1.6.39,3.19,3.19,0,0,0-1.21,1.11h-1l1.22-6.53h6.3v1h-5.51l-0.81,4.18,0,0A3.12,3.12,0,0,1,162,64a3.74,3.74,0,0,1,1.48-.31,4.55,4.55,0,0,1,1.75.32,3.84,3.84,0,0,1,1.33.9,4,4,0,0,1,.85,1.38,5,5,0,0,1,.3,1.75,4.21,4.21,0,0,1-.34,1.7,4.13,4.13,0,0,1-.94,1.35,4.25,4.25,0,0,1-1.39.88,4.61,4.61,0,0,1-1.7.32A4.91,4.91,0,0,1,161.7,72a3.74,3.74,0,0,1-1.3-.76,3.58,3.58,0,0,1-.87-1.21,4.1,4.1,0,0,1-.34-1.62h1.13A3.07,3.07,0,0,0,160.58,69.59Z"/><path d="M175.67,60.89a2.52,2.52,0,0,0-1.79-.65,2.73,2.73,0,0,0-1.78.56,3.76,3.76,0,0,0-1.06,1.4,6.44,6.44,0,0,0-.5,1.83,14.34,14.34,0,0,0-.13,1.84h0a3.74,3.74,0,0,1,3.35-2.09,4.48,4.48,0,0,1,1.72.31,3.82,3.82,0,0,1,1.3.87,3.89,3.89,0,0,1,.84,1.33,4.68,4.68,0,0,1,.3,1.69,4.52,4.52,0,0,1-.32,1.7,3.93,3.93,0,0,1-2.23,2.23,4.56,4.56,0,0,1-1.72.32,5,5,0,0,1-2-.35,3.09,3.09,0,0,1-1.37-1.14,5.66,5.66,0,0,1-.8-2.06,15.74,15.74,0,0,1-.26-3.12c0-.25,0-0.58,0-1a8.61,8.61,0,0,1,.21-1.31,9,9,0,0,1,.46-1.4,4.79,4.79,0,0,1,.79-1.29,3.8,3.8,0,0,1,1.23-.94,4,4,0,0,1,1.76-.36,4.11,4.11,0,0,1,2.68.81,3.6,3.6,0,0,1,1.19,2.48h-1.13A2.76,2.76,0,0,0,175.67,60.89ZM172.45,65a2.9,2.9,0,0,0-1,.71,3,3,0,0,0-.61,1.05,4,4,0,0,0-.21,1.31,4.32,4.32,0,0,0,.18,1.26,2.77,2.77,0,0,0,.57,1,2.66,2.66,0,0,0,1,.69,3.61,3.61,0,0,0,1.42.25,2.84,2.84,0,0,0,1.23-.26,3,3,0,0,0,1.58-1.74,3.59,3.59,0,0,0,.22-1.24,4,4,0,0,0-.21-1.3,3.16,3.16,0,0,0-.59-1.06,2.76,2.76,0,0,0-1-.71,3,3,0,0,0-1.29-.26A3.21,3.21,0,0,0,172.45,65Z"/><path d="M187.57,59.56v1q-0.59.61-1.42,1.65a17,17,0,0,0-1.61,2.47A18.55,18.55,0,0,0,183.17,68a15.68,15.68,0,0,0-.69,4h-1.22a18.87,18.87,0,0,1,.44-3,14.86,14.86,0,0,1,1-2.78,18.84,18.84,0,0,1,1.55-2.73,29.1,29.1,0,0,1,2.24-2.86h-7v-1h8.1Z"/><path d="M196.85,64.2a2.81,2.81,0,0,1-1.51,1v0a3.13,3.13,0,0,1,1.91,1.09,3.32,3.32,0,0,1,.67,2.13,3.81,3.81,0,0,1-.34,1.67,3.29,3.29,0,0,1-.94,1.18,4.08,4.08,0,0,1-1.38.7,6.13,6.13,0,0,1-3.36,0,4.05,4.05,0,0,1-1.39-.7,3.28,3.28,0,0,1-.94-1.18,3.81,3.81,0,0,1-.34-1.67,3.6,3.6,0,0,1,.7-2.12,2.87,2.87,0,0,1,1.85-1.1v0a2.89,2.89,0,0,1-1.52-1,3.15,3.15,0,0,1-.2-3.16,3,3,0,0,1,.87-1,3.84,3.84,0,0,1,1.22-.58,5.19,5.19,0,0,1,2.77,0,4,4,0,0,1,1.23.58,3,3,0,0,1,.88,1,2.82,2.82,0,0,1,.33,1.4A2.87,2.87,0,0,1,196.85,64.2Zm-2,6.95a2.87,2.87,0,0,0,1-.52,2.49,2.49,0,0,0,.68-0.89,3,3,0,0,0,.25-1.26,2.52,2.52,0,0,0-1-2.06,3,3,0,0,0-1-.52,3.9,3.9,0,0,0-1.21-.15,4.15,4.15,0,0,0-1.23.14,2.76,2.76,0,0,0-1,.51,2.62,2.62,0,0,0-.69.87,2.67,2.67,0,0,0-.26,1.21,2.91,2.91,0,0,0,.25,1.24,2.47,2.47,0,0,0,.68.89,3,3,0,0,0,1,.53,4.22,4.22,0,0,0,1.25.18A4.43,4.43,0,0,0,194.82,71.15Zm-0.24-6.48a2.44,2.44,0,0,0,.86-0.42A2.13,2.13,0,0,0,196,63.5a2.34,2.34,0,0,0,.22-1.06,2.1,2.1,0,0,0-.21-1,1.9,1.9,0,0,0-.57-0.68,2.68,2.68,0,0,0-.85-0.41,3.74,3.74,0,0,0-1.06-.14,3.54,3.54,0,0,0-1,.14,2.9,2.9,0,0,0-.86.41,2,2,0,0,0-.6.68,2,2,0,0,0-.23,1,2.31,2.31,0,0,0,.23,1.08,2.15,2.15,0,0,0,.61.74,2.4,2.4,0,0,0,.86.41,3.45,3.45,0,0,0,1,.11A3.33,3.33,0,0,0,194.58,64.67Z"/><path d="M201.46,70.67a2.52,2.52,0,0,0,1.79.65,2.72,2.72,0,0,0,1.79-.56,3.8,3.8,0,0,0,1.05-1.4,6.47,6.47,0,0,0,.5-1.83,14.69,14.69,0,0,0,.13-1.84h0a3.74,3.74,0,0,1-3.35,2.09,4.5,4.5,0,0,1-1.71-.31,3.79,3.79,0,0,1-1.31-.87,3.9,3.9,0,0,1-.84-1.33,4.68,4.68,0,0,1-.3-1.69,4.52,4.52,0,0,1,.31-1.7,4,4,0,0,1,.88-1.35,4.1,4.1,0,0,1,1.35-.89,4.44,4.44,0,0,1,1.72-.32,5.07,5.07,0,0,1,2,.35,3.08,3.08,0,0,1,1.37,1.15,5.77,5.77,0,0,1,.8,2.08,15.85,15.85,0,0,1,.26,3.11c0,0.25,0,.58,0,1a8.59,8.59,0,0,1-.21,1.31,8.9,8.9,0,0,1-.46,1.4,4.66,4.66,0,0,1-.79,1.28,3.86,3.86,0,0,1-1.23.93,4,4,0,0,1-1.76.36,4.14,4.14,0,0,1-2.68-.8A3.57,3.57,0,0,1,199.49,69h1.13A2.75,2.75,0,0,0,201.46,70.67Zm3.22-4.11a2.9,2.9,0,0,0,1-.71,3,3,0,0,0,.61-1.05,4,4,0,0,0,.21-1.31,4.32,4.32,0,0,0-.18-1.27,2.79,2.79,0,0,0-.57-1,2.67,2.67,0,0,0-1-.69,3.63,3.63,0,0,0-1.42-.25,2.86,2.86,0,0,0-1.22.26,3,3,0,0,0-1,.7,3.07,3.07,0,0,0-.62,1,3.61,3.61,0,0,0-.22,1.24,4,4,0,0,0,.21,1.3,3.16,3.16,0,0,0,.59,1.06,2.76,2.76,0,0,0,1,.71,3,3,0,0,0,1.29.26A3.22,3.22,0,0,0,204.68,66.56Z"/><path d="M215.83,59.9a4.19,4.19,0,0,1,1.33,1.54,6.77,6.77,0,0,1,.65,2.09,14.93,14.93,0,0,1,0,4.52,6.77,6.77,0,0,1-.65,2.09,4.11,4.11,0,0,1-1.33,1.53,4.51,4.51,0,0,1-4.47,0A4.08,4.08,0,0,1,210,70.13a6.75,6.75,0,0,1-.65-2.09,15,15,0,0,1,0-4.52,6.75,6.75,0,0,1,.65-2.09,4.15,4.15,0,0,1,1.34-1.54A4.45,4.45,0,0,1,215.83,59.9Zm-4,.91a3.53,3.53,0,0,0-1,1.39,6.85,6.85,0,0,0-.44,1.8,14.9,14.9,0,0,0,0,3.57,7,7,0,0,0,.44,1.8,3.52,3.52,0,0,0,1,1.4,3,3,0,0,0,3.46,0,3.53,3.53,0,0,0,1-1.4,7,7,0,0,0,.44-1.8,14.9,14.9,0,0,0,0-3.57,6.85,6.85,0,0,0-.44-1.8,3.54,3.54,0,0,0-1-1.39A3,3,0,0,0,211.86,60.8Z"/><path d="M221,73.46a15.28,15.28,0,0,1-.8-2,13.61,13.61,0,0,1-.5-2,14,14,0,0,1-.17-2.24,14.16,14.16,0,0,1,.67-4.4A17,17,0,0,1,222,58.88h0.9A14.45,14.45,0,0,0,221.19,63a18.93,18.93,0,0,0-.55,4.61,12.89,12.89,0,0,0,.16,2,15.5,15.5,0,0,0,.47,2,16.77,16.77,0,0,0,.73,2,13.8,13.8,0,0,0,.95,1.78H222Q221.45,74.43,221,73.46Z"/><path d="M226.19,72a3.14,3.14,0,0,1-.1.78,2.72,2.72,0,0,1-.3.72,2.33,2.33,0,0,1-.49.58,1.79,1.79,0,0,1-.69.36V73.67A0.81,0.81,0,0,0,225,73.4a1.92,1.92,0,0,0,.27-0.44,2.13,2.13,0,0,0,.15-0.5,1.79,1.79,0,0,0,0-.46h-0.76V70.09h1.51V72Z"/><path d="M229.68,70.09h1.51V72h-1.51V70.09Z"/><path d="M236.19,72a3.14,3.14,0,0,1-.1.78,2.72,2.72,0,0,1-.3.72,2.35,2.35,0,0,1-.49.58,1.8,1.8,0,0,1-.69.36V73.67A0.81,0.81,0,0,0,235,73.4a1.89,1.89,0,0,0,.27-0.44,2.17,2.17,0,0,0,.15-0.5,1.83,1.83,0,0,0,0-.46h-0.76V70.09h1.51V72Zm-1.51-9h1.51v1.91h-1.51V63Z"/><path d="M239.69,63h1.51v1.91h-1.51V63Zm0,7.09h1.51V72h-1.51V70.09Z"/><path d="M244.19,61.37A3.53,3.53,0,0,1,245,60a3.69,3.69,0,0,1,1.29-.86,4.57,4.57,0,0,1,1.73-.31,4.35,4.35,0,0,1,1.41.22,3.52,3.52,0,0,1,1.16.66,3.11,3.11,0,0,1,.79,1,3.27,3.27,0,0,1,.29,1.4,3.16,3.16,0,0,1-.44,1.71,7.06,7.06,0,0,1-1.12,1.35l-0.89.87a2.47,2.47,0,0,0-.49.62,2.19,2.19,0,0,0-.22.75c0,0.29-.06.72-0.07,1.27h-1.13a6.69,6.69,0,0,1,.09-1.39,3.51,3.51,0,0,1,.35-1,3.9,3.9,0,0,1,.65-0.86c0.27-.28.6-0.59,1-0.94a4.51,4.51,0,0,0,.84-1,2.5,2.5,0,0,0,.33-1.28,2.36,2.36,0,0,0-.21-1,2.32,2.32,0,0,0-.56-0.76,2.64,2.64,0,0,0-.82-0.5,2.74,2.74,0,0,0-1-.18,3.08,3.08,0,0,0-1.28.25,2.49,2.49,0,0,0-.92.69,3,3,0,0,0-.54,1,4.07,4.07,0,0,0-.16,1.3h-1.13A5.25,5.25,0,0,1,244.19,61.37Zm4.43,8.72V72H247.1V70.09h1.51Z"/><path d="M254,70.09h1.51V72H254V70.09Zm0.14-10.94h1.22V63l-0.27,5.81h-0.68L254.18,63V59.15Z"/><path d="M259.39,70.32a3.35,3.35,0,0,0,2.19,1V66a14.4,14.4,0,0,1-1.45-.39,3.82,3.82,0,0,1-1.21-.63,2.93,2.93,0,0,1-.82-1,3.91,3.91,0,0,1,0-3,3.32,3.32,0,0,1,.81-1.11,3.54,3.54,0,0,1,1.21-.7,4.4,4.4,0,0,1,1.47-.24v-1.4h0.7v1.4a3.93,3.93,0,0,1,1.48.28,3.78,3.78,0,0,1,1.22.79,3.62,3.62,0,0,1,.83,1.23,3.94,3.94,0,0,1,.28,1.6H265a3.11,3.11,0,0,0-.76-2.15,2.5,2.5,0,0,0-1.93-.8V65q0.77,0.16,1.52.4a4.72,4.72,0,0,1,1.33.65,3.25,3.25,0,0,1,.95,1,3.1,3.1,0,0,1,.36,1.58,3.32,3.32,0,0,1-.35,1.56,3.36,3.36,0,0,1-.94,1.13,4.1,4.1,0,0,1-1.33.67,5.3,5.3,0,0,1-1.54.23v1.53h-0.7V72.23A4.62,4.62,0,0,1,258.5,71a4.67,4.67,0,0,1-1-3.1h1.13A3.52,3.52,0,0,0,259.39,70.32ZM260.56,60a2.38,2.38,0,0,0-.85.48,2.18,2.18,0,0,0-.58.84,3.26,3.26,0,0,0-.21,1.21,2.06,2.06,0,0,0,.22,1,1.91,1.91,0,0,0,.59.65,3,3,0,0,0,.85.4l1,0.27v-5A3.31,3.31,0,0,0,260.56,60Zm2.83,11.19a2.71,2.71,0,0,0,1-.47,2.48,2.48,0,0,0,.68-0.82,2.54,2.54,0,0,0,.26-1.2,2,2,0,0,0-.28-1.08,2.35,2.35,0,0,0-.71-0.71,4.26,4.26,0,0,0-1-.46q-0.54-.18-1.06-0.31v5.18A4.32,4.32,0,0,0,263.39,71.17Z"/><path d="M273.65,71.73a4.37,4.37,0,0,1-2.11.52A4.89,4.89,0,0,1,270,72a3.56,3.56,0,0,1-1.23-.68,3.13,3.13,0,0,1-.82-1.12,3.78,3.78,0,0,1-.3-1.55,2.76,2.76,0,0,1,.29-1.26,4.05,4.05,0,0,1,.75-1,6.58,6.58,0,0,1,1-.85,12.25,12.25,0,0,1,1.1-.67l-0.55-.69a6.74,6.74,0,0,1-.5-0.73,4.72,4.72,0,0,1-.38-0.79,2.53,2.53,0,0,1-.15-0.88,2.44,2.44,0,0,1,.84-1.89,2.8,2.8,0,0,1,.9-0.53,3.33,3.33,0,0,1,2.21,0,2.83,2.83,0,0,1,.9.53,2.51,2.51,0,0,1,.61.82,2.48,2.48,0,0,1,.22,1.07,2.66,2.66,0,0,1-.21,1.08,3.41,3.41,0,0,1-.57.88,5.14,5.14,0,0,1-.8.73q-0.45.33-.94,0.64l2.81,3.38a3.17,3.17,0,0,0,.3-0.95,8.27,8.27,0,0,0,.07-1.21h1.13a8.13,8.13,0,0,1-.15,1.4,5.59,5.59,0,0,1-.6,1.68L278.12,72h-1.42l-1.37-1.67A5.34,5.34,0,0,1,273.65,71.73Zm-3.17-5.58a4.78,4.78,0,0,0-.85.7,3.46,3.46,0,0,0-.61.87,2.36,2.36,0,0,0-.23,1.05,2.26,2.26,0,0,0,.23,1,2.59,2.59,0,0,0,.62.81,2.7,2.7,0,0,0,.89.52,3.07,3.07,0,0,0,1,.18,3,3,0,0,0,1.74-.53,5.21,5.21,0,0,0,1.3-1.31l-3.21-3.89C271.11,65.76,270.79,65.95,270.48,66.15Zm0.38-5.62a1.52,1.52,0,0,0-.5,1.23,1.82,1.82,0,0,0,.14.69,4.11,4.11,0,0,0,.36.68,7.6,7.6,0,0,0,.47.65l0.47,0.57,0.69-.47a4.25,4.25,0,0,0,.64-0.57,2.73,2.73,0,0,0,.47-0.7,2,2,0,0,0,.18-0.85,1.52,1.52,0,0,0-.5-1.23A1.93,1.93,0,0,0,270.86,60.52Z"/><path d="M278.69,60.62l2.07,0.74V59.15h0.7v2.21l2.07-.74,0.27,0.67-2.12.7,1.3,1.76-0.58.41-1.31-1.8-1.31,1.8-0.58-.41L280.51,62l-2.07-.7Z"/><path d="M286.24,60.84a15.21,15.21,0,0,1,.8,2,13.77,13.77,0,0,1,.67,4.29A14,14,0,0,1,287,71.5a17,17,0,0,1-1.86,3.92h-0.88A14.78,14.78,0,0,0,286,71.29a18.86,18.86,0,0,0,.55-4.6,12.32,12.32,0,0,0-.17-2,15.8,15.8,0,0,0-.48-2,17.38,17.38,0,0,0-.73-2q-0.42-1-.91-1.82h0.88Q285.76,59.87,286.24,60.84Z"/></svg>