<svg id="helvetica-neue-regular-italic" data-name="helvetica-neue-regular-italic" xmlns="http://www.w3.org/2000/svg" viewBox="0 0 456 84"><path d="M125.36,39a3.31,3.31,0,0,0-1.08-.38,7.48,7.48,0,0,0-1.3-.11,5.55,5.55,0,0,0-1.42.18,3.8,3.8,0,0,0-1.22.56,3.42,3.42,0,0,0-.91.95A3.25,3.25,0,0,0,119,41.5h1.53a1.71,1.71,0,0,1,.31-0.77,2,2,0,0,1,.58-0.52,2.45,2.45,0,0,1,.76-0.3,4.1,4.1,0,0,1,.86-0.09,4,4,0,0,1,.64.05,2.09,2.09,0,0,1,.6.19,1.29,1.29,0,0,1,.45.37,1,1,0,0,1,.18.61,1.66,1.66,0,0,1-.14.74,0.91,0.91,0,0,1-.42.41,2.39,2.39,0,0,1-.73.21l-1.05.12-1.6.18a5.6,5.6,0,0,0-1.51.4,2.79,2.79,0,0,0-1.12.87,2.58,2.58,0,0,0-.44,1.6,2.92,2.92,0,0,0,.23,1.22,2.23,2.23,0,0,0,.6.81,2.27,2.27,0,0,0,.89.45,4.35,4.35,0,0,0,1.11.14,4.49,4.49,0,0,0,1.91-.34,3.21,3.21,0,0,0,1.21-1l0,0a1.12,1.12,0,0,0,.25,1,1.25,1.25,0,0,0,1,.34,2.23,2.23,0,0,0,.48-0.06A3.15,3.15,0,0,0,126,48l0.23-1.13-0.24.08a0.77,0.77,0,0,1-.24,0,0.44,0.44,0,0,1-.32-0.13,0.63,0.63,0,0,1-.13-0.45,2.61,2.61,0,0,1,.1-0.68q0.1-.36.15-0.65l0.59-2.54c0.06-.25.12-0.53,0.19-0.84a4.11,4.11,0,0,0,.1-0.85,2.21,2.21,0,0,0-.28-1.16A2.08,2.08,0,0,0,125.36,39Zm-1.21,5.54a3,3,0,0,1-.51,1.13A2.87,2.87,0,0,1,121,46.87a2.13,2.13,0,0,1-1.16-.32,1.07,1.07,0,0,1-.51-1,1.44,1.44,0,0,1,.31-0.93,1.87,1.87,0,0,1,.74-0.51,4.43,4.43,0,0,1,1-.26l1.13-.14a10.48,10.48,0,0,0,1.05-.15,2.07,2.07,0,0,0,.82-0.33h0Q124.28,43.9,124.15,44.51Zm-0.29,15.68a4.54,4.54,0,0,1-1,.69,5,5,0,0,1-1.16.41,5.44,5.44,0,0,1-1.2.14l-0.25,1.22a16,16,0,0,0,1.66-.08,13.74,13.74,0,0,0,1.64-.28L121.46,72h1.62l2.72-12.76h-1.19A3.49,3.49,0,0,1,123.86,60.19Zm2.76-49h-1.87L117,24h1.89l2.25-3.87h5.42L127.18,24h1.76Zm-4.68,7.54,3.44-6h0l1,6h-4.43Zm16.33,5a4.52,4.52,0,0,0,1.45-.79,3.61,3.61,0,0,0,1-1.25A3.8,3.8,0,0,0,141,20a2.77,2.77,0,0,0-.52-1.72,2.6,2.6,0,0,0-1.4-.95v0a2.55,2.55,0,0,0,1-.39,3,3,0,0,0,.77-0.72,3.35,3.35,0,0,0,.66-2,3,3,0,0,0-.85-2.27,3.86,3.86,0,0,0-2.74-.81h-5.17L130.13,24h6.35A5.54,5.54,0,0,0,138.27,23.72Zm-4.1-11.13h3.17a8.33,8.33,0,0,1,.84,0,2.8,2.8,0,0,1,.82.21,1.5,1.5,0,0,1,.62.49,1.47,1.47,0,0,1,.24.9q0,2.45-2.74,2.45H133.3Zm-2.09,10L133,18.11h3.67a6.7,6.7,0,0,1,1,.07,2.6,2.6,0,0,1,.85.27,1.47,1.47,0,0,1,.58.58,2,2,0,0,1,.22,1,2.3,2.3,0,0,1-.37,1.39,2.51,2.51,0,0,1-.87.76,3,3,0,0,1-1,.32,7.37,7.37,0,0,1-.85.06h-4.14ZM129,46.27h0a1.7,1.7,0,0,0,.33.7,2.72,2.72,0,0,0,.67.61,3.7,3.7,0,0,0,.94.44,3.92,3.92,0,0,0,1.19.17,4.37,4.37,0,0,0,2.1-.49,4.87,4.87,0,0,0,1.54-1.28,5.6,5.6,0,0,0,1-1.82,7,7,0,0,0,.32-2.12,5.59,5.59,0,0,0-.23-1.64,3.43,3.43,0,0,0-.67-1.26,3.1,3.1,0,0,0-1.13-.82,4.05,4.05,0,0,0-1.62-.3,3.47,3.47,0,0,0-1.59.37,3.69,3.69,0,0,0-1.25,1l0,0,1-4.7H130L127.27,48h1.35ZM129.81,43a5.17,5.17,0,0,1,.67-1.53,3.88,3.88,0,0,1,1.18-1.16,3.14,3.14,0,0,1,1.73-.46,2,2,0,0,1,.94.21,1.87,1.87,0,0,1,.66.57,2.62,2.62,0,0,1,.4.85,3.89,3.89,0,0,1,.13,1,5.4,5.4,0,0,1-.22,1.44,5,5,0,0,1-.65,1.42,4,4,0,0,1-1.06,1.08,2.52,2.52,0,0,1-1.46.43,2.69,2.69,0,0,1-1.84-.61,2.15,2.15,0,0,1-.7-1.71A6.23,6.23,0,0,1,129.81,43ZM97.41,29.33a15.52,15.52,0,0,0-5.1-1.79A35.22,35.22,0,0,0,86.19,27a26.32,26.32,0,0,0-6.71.85,18,18,0,0,0-5.78,2.64A16.09,16.09,0,0,0,69.4,35a15.33,15.33,0,0,0-2.25,6.33h7.23a8.09,8.09,0,0,1,1.44-3.61,9.47,9.47,0,0,1,2.72-2.47,11.62,11.62,0,0,1,3.61-1.4,19.37,19.37,0,0,1,4-.42,18.88,18.88,0,0,1,3,.25,9.86,9.86,0,0,1,2.85.89,6.08,6.08,0,0,1,2.13,1.74A4.62,4.62,0,0,1,95,39.19a7.88,7.88,0,0,1-.64,3.48,4.31,4.31,0,0,1-2,2,11.29,11.29,0,0,1-3.44,1q-2.08.3-5,.55-3.66.34-7.57,0.85a26.43,26.43,0,0,0-7.14,1.91A13.17,13.17,0,0,0,64,53q-2.08,2.72-2.08,7.56a13.84,13.84,0,0,0,1.06,5.74,10.57,10.57,0,0,0,2.85,3.82A10.74,10.74,0,0,0,70,72.3a20.45,20.45,0,0,0,5.23.64,21.2,21.2,0,0,0,9-1.62,15.15,15.15,0,0,0,5.7-4.67l0.17,0.17a5.32,5.32,0,0,0,1.19,4.5,5.92,5.92,0,0,0,4.51,1.62,10.56,10.56,0,0,0,2.25-.3,15,15,0,0,0,2.17-.64l1.1-5.36-1.15.38a3.67,3.67,0,0,1-1.15.21,2.07,2.07,0,0,1-1.53-.6,3,3,0,0,1-.59-2.12,12.16,12.16,0,0,1,.47-3.23q0.47-1.7.72-3.06l2.8-12q0.42-1.78.89-4a19.29,19.29,0,0,0,.47-4,10.42,10.42,0,0,0-1.32-5.48A9.8,9.8,0,0,0,97.41,29.33ZM91.67,55.51a14.3,14.3,0,0,1-2.42,5.36q-3.74,5.78-12.33,5.78a10.05,10.05,0,0,1-5.48-1.53A5.07,5.07,0,0,1,69,60.52a6.8,6.8,0,0,1,1.45-4.38,8.86,8.86,0,0,1,3.48-2.42,20.89,20.89,0,0,1,4.8-1.23q2.68-.38,5.31-0.64a49.7,49.7,0,0,0,5-.72,9.8,9.8,0,0,0,3.87-1.57h0.17Q92.31,52.62,91.67,55.51ZM37.83,11.31L1.36,72h8.92L20.91,53.73H46.5L49.3,72h8.33l-11-60.69H37.83ZM24.57,46.92L40.8,18.45H41l4.51,28.47H24.57ZM136.39,60.15a3.26,3.26,0,0,0-1.13-.67,4.24,4.24,0,0,0-1.43-.23,5.18,5.18,0,0,0-1.84.31,3.93,3.93,0,0,0-1.39.87,4.21,4.21,0,0,0-.92,1.37,6.3,6.3,0,0,0-.45,1.79h1.62a4.1,4.1,0,0,1,.23-1.14,3,3,0,0,1,.55-1,2.58,2.58,0,0,1,2-.89,2.16,2.16,0,0,1,1.57.56,2.1,2.1,0,0,1,.58,1.58,2.76,2.76,0,0,1-.13.86,2.62,2.62,0,0,1-.35.69,3.77,3.77,0,0,1-.53.59q-0.31.28-.65,0.55a13.61,13.61,0,0,1-1.31.86l-1.35.81q-0.67.41-1.28,0.86a6.07,6.07,0,0,0-1.09,1,5.35,5.35,0,0,0-.79,1.3,5.25,5.25,0,0,0-.39,1.7H136l0.29-1.35h-6.64A2.61,2.61,0,0,1,130,70a5.28,5.28,0,0,1,.51-0.59,5.39,5.39,0,0,1,.59-0.51q0.31-.23.62-0.43,0.54-.34,1.17-0.69T134.2,67a14.14,14.14,0,0,0,1.21-.83,6.25,6.25,0,0,0,1-1,4.65,4.65,0,0,0,.71-1.17,3.85,3.85,0,0,0,0-2.84A3.1,3.1,0,0,0,136.39,60.15Zm7.21-.91a4.51,4.51,0,0,0-1.78.32,3.88,3.88,0,0,0-1.28.86,4.13,4.13,0,0,0-.83,1.25,5.72,5.72,0,0,0-.41,1.5h1.62a3.08,3.08,0,0,1,.84-2,2.49,2.49,0,0,1,1.75-.62,4.88,4.88,0,0,1,.78.06,1.89,1.89,0,0,1,.69.25,1.41,1.41,0,0,1,.5.53,1.9,1.9,0,0,1,.19.92,2.34,2.34,0,0,1-.32,1.31,2,2,0,0,1-.84.73,3.44,3.44,0,0,1-1.13.31,7.67,7.67,0,0,1-1.23,0L141.87,66q0.58,0,1.14.05a3,3,0,0,1,1,.27,1.82,1.82,0,0,1,.73.63,2,2,0,0,1,.28,1.15,2.92,2.92,0,0,1-.22,1.17,2.58,2.58,0,0,1-.61.88,2.7,2.7,0,0,1-.93.56,3.43,3.43,0,0,1-1.19.2,2.77,2.77,0,0,1-1.24-.24,1.93,1.93,0,0,1-.76-0.64,2.27,2.27,0,0,1-.36-0.9,4.85,4.85,0,0,1-.07-1H138a4.06,4.06,0,0,0,1.05,3.14,4.17,4.17,0,0,0,3,1,4.8,4.8,0,0,0,2.05-.41,4.49,4.49,0,0,0,1.43-1,4.21,4.21,0,0,0,.85-1.37,4,4,0,0,0,.28-1.41,3.28,3.28,0,0,0-.36-1.55,2.56,2.56,0,0,0-1.3-1.1,3.34,3.34,0,0,0,.85-0.39,3.09,3.09,0,0,0,.73-0.64,3.34,3.34,0,0,0,.51-0.85,2.68,2.68,0,0,0,.2-1,2.87,2.87,0,0,0-1-2.4A4.25,4.25,0,0,0,143.6,59.24Zm4.93-34.95a5.56,5.56,0,0,0,3.79-1.23,6.14,6.14,0,0,0,1.9-3.39h-1.71A4.55,4.55,0,0,1,151.1,22a3.85,3.85,0,0,1-2.57.84,4.23,4.23,0,0,1-1.68-.31,3.16,3.16,0,0,1-1.18-.85,3.63,3.63,0,0,1-.7-1.32,5.88,5.88,0,0,1-.23-1.71,8.24,8.24,0,0,1,.33-2.31,6.45,6.45,0,0,1,1-2,5.3,5.3,0,0,1,1.67-1.47,4.68,4.68,0,0,1,2.35-.57,3.45,3.45,0,0,1,2.29.75,2.78,2.78,0,0,1,.89,2.26H155a4.71,4.71,0,0,0-.38-2,3.82,3.82,0,0,0-1-1.39,4.46,4.46,0,0,0-1.55-.83,6.44,6.44,0,0,0-1.93-.28,6.6,6.6,0,0,0-5.17,2.36,7.73,7.73,0,0,0-1.4,2.49,9.09,9.09,0,0,0-.49,3,5.69,5.69,0,0,0,1.43,4.15A5.43,5.43,0,0,0,148.53,24.29ZM250.64,24l0.31-1.44h-6.79l2.38-11.41h-1.71L242.13,24h8.51Zm0,27.55,1-5h0a1.71,1.71,0,0,0,.44.78,2.51,2.51,0,0,0,.72.5,3.2,3.2,0,0,0,.86.26,5.66,5.66,0,0,0,.87.07,4.52,4.52,0,0,0,2.19-.52,5.11,5.11,0,0,0,1.62-1.37,6.36,6.36,0,0,0,1-1.9,6.67,6.67,0,0,0,.35-2.12,4.89,4.89,0,0,0-.23-1.55,3.27,3.27,0,0,0-.7-1.21,3.22,3.22,0,0,0-1.14-.78,4.11,4.11,0,0,0-1.57-.28,4.06,4.06,0,0,0-1.67.32A3.79,3.79,0,0,0,253,40h0l0.32-1.33h-1.44l-2.7,12.85h1.49Zm1.77-8.64a5.49,5.49,0,0,1,.7-1.49,4,4,0,0,1,1.14-1.13,2.75,2.75,0,0,1,1.55-.45,2.28,2.28,0,0,1,1.83.67,2.69,2.69,0,0,1,.57,1.8,5.72,5.72,0,0,1-.23,1.58,4.94,4.94,0,0,1-.7,1.48,3.91,3.91,0,0,1-1.15,1.09,3,3,0,0,1-1.6.42,2.19,2.19,0,0,1-1.74-.68,2.52,2.52,0,0,1-.6-1.73A5.38,5.38,0,0,1,252.41,42.91ZM256,12.75h0L257.73,24h1.64l6.55-11.25h0L263.33,24H265l2.72-12.85h-2.38L259,22.2h0l-1.71-11.05h-2.38L252.13,24h1.64Zm-35.25,10a2.39,2.39,0,0,0,.73.85,3.3,3.3,0,0,0,1.13.51,5.69,5.69,0,0,0,1.43.17,5.25,5.25,0,0,0,1.65-.23,3,3,0,0,0,1.14-.67,3.35,3.35,0,0,0,.76-1.09,7.67,7.67,0,0,0,.47-1.48l2-9.68h-1.69L226.54,20c-0.07.35-.16,0.7-0.26,1a3.53,3.53,0,0,1-.42.94,2.18,2.18,0,0,1-.69.67,2,2,0,0,1-1.07.26,2.12,2.12,0,0,1-1.39-.41,1.63,1.63,0,0,1-.5-1.33q0-.34.06-0.68t0.12-.66h-1.73q-0.07.52-.11,1t0,0.79A2.57,2.57,0,0,0,220.77,22.75Zm12-3.09,2.57-2.18L238.83,24h1.89l-4.12-7.56,6.19-5.29h-2.29l-7.27,6.37,0,0,1.35-6.34h-1.71L230.12,24h1.71ZM263.82,39a4.85,4.85,0,0,0-1.54,1.29,5.86,5.86,0,0,0-1,1.83,6.82,6.82,0,0,0-.33,2.11,5.67,5.67,0,0,0,.22,1.6,3.54,3.54,0,0,0,.66,1.28,2.94,2.94,0,0,0,1.11.84,3.86,3.86,0,0,0,1.58.3,3.77,3.77,0,0,0,1.63-.36,3.67,3.67,0,0,0,1.3-1h0l-1,4.73h1.55l2.72-12.85h-1.55l-0.31,1.48h0a2.32,2.32,0,0,0-1.18-1.32A4.66,4.66,0,0,0,263.82,39Zm4,1.47a2.22,2.22,0,0,1,.63,1.68,6.54,6.54,0,0,1-.21,1.58,5.23,5.23,0,0,1-.65,1.54,4.07,4.07,0,0,1-1.11,1.17,2.69,2.69,0,0,1-1.58.47,2.47,2.47,0,0,1-1.08-.22,2.07,2.07,0,0,1-.74-0.58,2.34,2.34,0,0,1-.42-0.85,3.93,3.93,0,0,1-.13-1,5.15,5.15,0,0,1,.23-1.49,4.81,4.81,0,0,1,.68-1.4,3.92,3.92,0,0,1,1.11-1,2.76,2.76,0,0,1,1.5-.41A2.45,2.45,0,0,1,267.81,40.43ZM339.6,22.28a3.31,3.31,0,0,1-1,.44,4.91,4.91,0,0,1-1.18.14,6.18,6.18,0,0,1-1.42-.15,2.81,2.81,0,0,1-1.11-.51,2.23,2.23,0,0,1-.69-1,3.59,3.59,0,0,1-.2-1.46h-1.71a4.48,4.48,0,0,0,.26,2,3.41,3.41,0,0,0,1,1.4,4.46,4.46,0,0,0,1.65.8,8.17,8.17,0,0,0,2.12.26,6.9,6.9,0,0,0,1.76-.23,5.36,5.36,0,0,0,1.61-.71,4,4,0,0,0,1.18-1.21,3.19,3.19,0,0,0,.46-1.74,3.63,3.63,0,0,0-.26-1.46,2.85,2.85,0,0,0-.69-1,3.7,3.7,0,0,0-1-.63,8.52,8.52,0,0,0-1.15-.41l-1.73-.47a7.77,7.77,0,0,1-.82-0.29,2.44,2.44,0,0,1-.67-0.4,1.71,1.71,0,0,1-.6-1.38,1.6,1.6,0,0,1,.29-1,2.28,2.28,0,0,1,.73-0.65,3.44,3.44,0,0,1,1-.37,4.55,4.55,0,0,1,1-.12,5.58,5.58,0,0,1,1.22.13,2.26,2.26,0,0,1,.94.44,2,2,0,0,1,.6.83,3.23,3.23,0,0,1,.19,1.27H343a4,4,0,0,0-.33-1.85,3.42,3.42,0,0,0-1-1.27,4.47,4.47,0,0,0-1.5-.74,6.58,6.58,0,0,0-1.81-.24,6.3,6.3,0,0,0-1.7.23,4.75,4.75,0,0,0-1.49.7,3.81,3.81,0,0,0-1.07,1.16,3.1,3.1,0,0,0-.41,1.63,3.08,3.08,0,0,0,.23,1.25,2.88,2.88,0,0,0,.63.92,3.59,3.59,0,0,0,.92.65,6.2,6.2,0,0,0,1.1.42l1.75,0.47a8.54,8.54,0,0,1,.88.29,2.92,2.92,0,0,1,.73.41,1.75,1.75,0,0,1,.5.59,1.82,1.82,0,0,1,.18.84,2.14,2.14,0,0,1-.28,1.12A2.34,2.34,0,0,1,339.6,22.28ZM220.53,11.15h-1.71L216.12,24h1.71Zm102.11,7.36h4.48a2,2,0,0,1,.58.13,1,1,0,0,1,.49.4,1.83,1.83,0,0,1,.26.82,5.12,5.12,0,0,1-.08,1.4,7.66,7.66,0,0,0-.18,1.69,3.69,3.69,0,0,0,.14,1.06h1.78a2,2,0,0,1-.23-0.77,4.78,4.78,0,0,1,0-.82c0-.28.06-0.56,0.11-0.85s0.08-.57.11-0.85a4.56,4.56,0,0,0,0-.94,2.87,2.87,0,0,0-.2-0.82,1.91,1.91,0,0,0-.43-0.64,1.69,1.69,0,0,0-.69-0.4v0a3.22,3.22,0,0,0,2.09-1.17,3.72,3.72,0,0,0,.59-1.05,3.52,3.52,0,0,0,.22-1.23,3.22,3.22,0,0,0-.35-1.58,2.77,2.77,0,0,0-.95-1A4,4,0,0,0,329,11.3a8,8,0,0,0-1.57-.15h-5L319.78,24h1.71Zm1.26-5.92h3.55a5.3,5.3,0,0,1,.94.08,2.28,2.28,0,0,1,.8.3,1.62,1.62,0,0,1,.57.59,1.94,1.94,0,0,1,.22,1,3.09,3.09,0,0,1-.12.78,2,2,0,0,1-.46.83,2.69,2.69,0,0,1-1,.66,4.13,4.13,0,0,1-1.63.27h-3.85Zm-52.27.85h0L276.22,24h1.84l2.72-12.85h-1.66L277,21.79h0l-4.59-10.64h-1.84L267.79,24h1.66Zm40.55,10.85a6.37,6.37,0,0,0,3-.68L317,25.31l1-1-1.56-1.49a7.23,7.23,0,0,0,2-2.76,8.86,8.86,0,0,0,.71-3.52,6.7,6.7,0,0,0-.37-2.23,5.31,5.31,0,0,0-1.06-1.81A5,5,0,0,0,316,11.28a5.5,5.5,0,0,0-2.24-.44,6.6,6.6,0,0,0-5.17,2.36,7.72,7.72,0,0,0-1.4,2.49,9.09,9.09,0,0,0-.49,3,5.7,5.7,0,0,0,1.43,4.15A5.44,5.44,0,0,0,312.18,24.29Zm-3.47-7.93a6.45,6.45,0,0,1,1-2,5.29,5.29,0,0,1,1.66-1.47,4.68,4.68,0,0,1,2.35-.57,3.53,3.53,0,0,1,1.58.33,3.45,3.45,0,0,1,1.14.9,3.84,3.84,0,0,1,.7,1.34,5.75,5.75,0,0,1,.23,1.67,8.19,8.19,0,0,1-.53,2.88,6.17,6.17,0,0,1-.67,1.28,5,5,0,0,1-.95,1l-1.42-1.39-1,1L314,22.49a4.29,4.29,0,0,1-1.84.38,4.23,4.23,0,0,1-1.68-.31,3.17,3.17,0,0,1-1.18-.85,3.63,3.63,0,0,1-.7-1.32,5.88,5.88,0,0,1-.23-1.71A8.28,8.28,0,0,1,308.71,16.36ZM197.83,35.15h-1.55L195.88,37h1.55Zm-6.77,6.69-0.07.4c0,0.13,0,.24-0.05.33L189.75,48h1.53l1.13-5.31q0.12-.54.2-1a5.67,5.67,0,0,0,.07-0.79,2.33,2.33,0,0,0-.64-1.82,2.84,2.84,0,0,0-2-.58,4.39,4.39,0,0,0-1.85.4,3.62,3.62,0,0,0-1.46,1.22l0,0,1.1-4.91h-1.53L183.61,48h1.51l1.08-5.15a6.52,6.52,0,0,1,.38-1.07,2.52,2.52,0,0,1,.65-0.87,3.56,3.56,0,0,1,1.05-.77,2.81,2.81,0,0,1,1.25-.31,2,2,0,0,1,1.15.31,1.1,1.1,0,0,1,.47,1,2.35,2.35,0,0,1,0,.31C191.1,41.56,191.08,41.7,191.06,41.83ZM180.84,24l1.22-5.89H188l0.31-1.44h-5.94l0.85-4.09H190l0.31-1.44h-8.46L179.13,24h1.71Zm25.24-5.89h6.73L211.56,24h1.71L216,11.15h-1.71l-1.15,5.53h-6.73l1.17-5.53h-1.73L203.12,24h1.71Zm-50,22h0a1.91,1.91,0,0,0-.45-0.78,2.4,2.4,0,0,0-.71-0.5,3.44,3.44,0,0,0-.86-0.27,5,5,0,0,0-.88-0.08A4.46,4.46,0,0,0,151,39a5.21,5.21,0,0,0-1.62,1.38,6.31,6.31,0,0,0-1,1.9A6.64,6.64,0,0,0,148,44.4a4.87,4.87,0,0,0,.23,1.55,3.18,3.18,0,0,0,.7,1.2,3.24,3.24,0,0,0,1.15.77,4.12,4.12,0,0,0,1.57.28,4.16,4.16,0,0,0,1.67-.32,3.69,3.69,0,0,0,1.41-1.21h0L154.43,48h1.44l2.72-12.85h-1.51Zm-0.78,3.66a5.48,5.48,0,0,1-.7,1.5,4,4,0,0,1-1.14,1.13,2.75,2.75,0,0,1-1.55.45,2.27,2.27,0,0,1-1.83-.67,2.69,2.69,0,0,1-.57-1.8,5.69,5.69,0,0,1,.23-1.58,4.9,4.9,0,0,1,.7-1.48,3.9,3.9,0,0,1,1.15-1.09,3,3,0,0,1,1.6-.42,2.19,2.19,0,0,1,1.74.68,2.52,2.52,0,0,1,.6,1.73A5.42,5.42,0,0,1,155.3,43.78Zm11.82,0,0.09-.52a4.26,4.26,0,0,0,.05-0.68,4.47,4.47,0,0,0-.95-3,3.78,3.78,0,0,0-3-1.08,4.07,4.07,0,0,0-1.83.43A4.66,4.66,0,0,0,160,40.13a6.08,6.08,0,0,0-1,1.9,7.33,7.33,0,0,0-.39,2.44,4.8,4.8,0,0,0,.18,1.27,3.21,3.21,0,0,0,.63,1.21,3.33,3.33,0,0,0,1.21.9,4.6,4.6,0,0,0,1.92.35,5.16,5.16,0,0,0,1.44-.2,4.21,4.21,0,0,0,1.24-.58,3.67,3.67,0,0,0,1-1,4,4,0,0,0,.58-1.36h-1.53a2.71,2.71,0,0,1-1,1.32,2.92,2.92,0,0,1-1.69.46,2.68,2.68,0,0,1-.9-0.15,2.54,2.54,0,0,1-.77-0.43,2,2,0,0,1-.54-0.7,2.23,2.23,0,0,1-.2-1,6,6,0,0,1,.05-0.81h7Zm-6.35-2.37a3.34,3.34,0,0,1,.67-0.84,3,3,0,0,1,.93-0.57,3.27,3.27,0,0,1,1.2-.21,2.28,2.28,0,0,1,1.06.23,1.92,1.92,0,0,1,.69.59,2.24,2.24,0,0,1,.36.85,3.46,3.46,0,0,1,.06,1h-5.4A4.93,4.93,0,0,1,160.77,41.44Zm-4.95,17.8-7.56,8.26L148,69h5.58l-0.65,3h1.53l0.65-3h1.69L157,67.66h-1.69l1.76-8.42h-1.3Zm-2,8.42h-4.1L155,61.88h0ZM210.27,48h1.51l2.7-12.85h-1.53ZM191.45,22.82a5.43,5.43,0,0,0,4.08,1.47,5.87,5.87,0,0,0,2.06-.38,4.58,4.58,0,0,0,1.77-1.19L199.47,24h1.08l1.4-6.77h-5.6l-0.29,1.44h4.1a9.16,9.16,0,0,1-.6,1.71,4.63,4.63,0,0,1-.93,1.32,4,4,0,0,1-1.32.85,4.81,4.81,0,0,1-1.79.31,4.23,4.23,0,0,1-1.68-.31,3.16,3.16,0,0,1-1.18-.85,3.63,3.63,0,0,1-.7-1.32,5.88,5.88,0,0,1-.23-1.71,8.24,8.24,0,0,1,.33-2.31,6.45,6.45,0,0,1,1-2,5.3,5.3,0,0,1,1.67-1.47,4.68,4.68,0,0,1,2.35-.57,5.06,5.06,0,0,1,1.33.17,3.22,3.22,0,0,1,1.1.52,2.58,2.58,0,0,1,.75.89,2.75,2.75,0,0,1,.28,1.28h1.71a4.26,4.26,0,0,0-.41-1.93,3.76,3.76,0,0,0-1.11-1.34,4.7,4.7,0,0,0-1.65-.78,7.76,7.76,0,0,0-2-.25,6.6,6.6,0,0,0-5.17,2.36,7.73,7.73,0,0,0-1.4,2.49,9.09,9.09,0,0,0-.49,3A5.69,5.69,0,0,0,191.45,22.82ZM199.88,37h1.55l0.4-1.87h-1.55Zm-59,4.23a3.71,3.71,0,0,1,1.13-1,3,3,0,0,1,1.56-.4,2.05,2.05,0,0,1,1.44.48,1.73,1.73,0,0,1,.52,1.34H147a3.08,3.08,0,0,0-1-2.4,3.82,3.82,0,0,0-2.51-.77,4.9,4.9,0,0,0-2.21.48,4.84,4.84,0,0,0-1.62,1.28,5.54,5.54,0,0,0-1,1.83,6.9,6.9,0,0,0-.33,2.14,4.2,4.2,0,0,0,1,3,3.71,3.71,0,0,0,2.87,1,4.42,4.42,0,0,0,2.74-.83A4.25,4.25,0,0,0,146.48,45h-1.53a3,3,0,0,1-1,1.39,2.76,2.76,0,0,1-1.69.52,2.46,2.46,0,0,1-1.09-.22,1.93,1.93,0,0,1-.71-0.58,2.28,2.28,0,0,1-.39-0.85,4.37,4.37,0,0,1-.12-1,5.38,5.38,0,0,1,.23-1.54A4.65,4.65,0,0,1,140.85,41.25ZM193.62,48h1.51l1.94-9.31h-1.53Zm79.59-9.31L271.28,48h1.51l0.88-4.12q0.11-.52.29-1.12a3.78,3.78,0,0,1,.48-1.05,4,4,0,0,1,.86-1,3,3,0,0,1,1.13-.56,2.28,2.28,0,0,1,.45-0.08h0.68l0.23,0,0.36-1.64a0.7,0.7,0,0,0-.27,0l-0.27,0a3.24,3.24,0,0,0-2,.63,5.09,5.09,0,0,0-1.38,1.58h0l0.45-2h-1.44Zm17.35-2.75H289l-0.58,2.75h-1.57L286.6,40h1.57l-1.22,5.78-0.06.4a2.61,2.61,0,0,0,0,.38,1.42,1.42,0,0,0,.17.74,1.31,1.31,0,0,0,.45.46,1.83,1.83,0,0,0,.66.23,4.92,4.92,0,0,0,.81.06l0.54,0L290,48l0.27-1.4-0.43.12a2.16,2.16,0,0,1-.45,0,1.45,1.45,0,0,1-.64-0.13,0.5,0.5,0,0,1-.28-0.5,2.53,2.53,0,0,1,0-.31c0-.1,0-0.2,0-0.31L289.7,40h1.85l0.29-1.35H290ZM288.49,62.1c-0.13-.58-0.29-1.14-0.46-1.7a14,14,0,0,0-.58-1.56h-1a15.92,15.92,0,0,1,.72,3,21.22,21.22,0,0,1,.22,3,14,14,0,0,1-.31,3,15.53,15.53,0,0,1-.88,2.77,16.43,16.43,0,0,1-1.38,2.57A22.76,22.76,0,0,1,283,75.55h1.26q1-1.13,1.82-2.27a16.59,16.59,0,0,0,1.47-2.35,13,13,0,0,0,1-2.56,11.11,11.11,0,0,0,.36-2.89,13.29,13.29,0,0,0-.11-1.66A17.22,17.22,0,0,0,288.49,62.1Zm5.27-45.57a6.65,6.65,0,0,0-.37-2.23,5.27,5.27,0,0,0-1.06-1.81,4.93,4.93,0,0,0-1.69-1.21,5.49,5.49,0,0,0-2.24-.44,6.6,6.6,0,0,0-5.18,2.36,7.75,7.75,0,0,0-1.39,2.49,9.09,9.09,0,0,0-.49,3,5.69,5.69,0,0,0,1.43,4.15,5.43,5.43,0,0,0,4.08,1.47,6.41,6.41,0,0,0,2.89-.64,6.58,6.58,0,0,0,2.18-1.72,7.83,7.83,0,0,0,1.37-2.48A9,9,0,0,0,293.77,16.53Zm-2,2.29a6.58,6.58,0,0,1-1,2,5.19,5.19,0,0,1-1.63,1.46,4.44,4.44,0,0,1-2.25.56,4.24,4.24,0,0,1-1.68-.31,3.16,3.16,0,0,1-1.18-.85,3.63,3.63,0,0,1-.7-1.32,5.88,5.88,0,0,1-.23-1.71,8.21,8.21,0,0,1,.33-2.31,6.45,6.45,0,0,1,1-2,5.32,5.32,0,0,1,1.67-1.47,4.68,4.68,0,0,1,2.35-.57,3.51,3.51,0,0,1,1.57.33,3.45,3.45,0,0,1,1.14.9,3.81,3.81,0,0,1,.7,1.34,5.82,5.82,0,0,1,.23,1.67A8.05,8.05,0,0,1,291.72,18.82ZM305,17.32a3.61,3.61,0,0,0,.8-1.32,4.25,4.25,0,0,0,.23-1.31A3.4,3.4,0,0,0,305,12a4.11,4.11,0,0,0-2.83-.88h-5.06L294.45,24h1.71l1.12-5.26h3.81a6,6,0,0,0,2.37-.41A4.38,4.38,0,0,0,305,17.32Zm-7.39,0,1-4.72h3.62a2.94,2.94,0,0,1,.81.11,1.77,1.77,0,0,1,.67.35,1.67,1.67,0,0,1,.46.65,2.55,2.55,0,0,1,.17,1,2.56,2.56,0,0,1-.72,1.88,2.86,2.86,0,0,1-2.12.73h-3.87Zm7.31,29.13h0l-0.79-7.74h-1.62L303.77,48h1.64l5.17-9.31h-1.66ZM159,66.19h1.37a2.3,2.3,0,0,1,1-.91,2.78,2.78,0,0,1,1.31-.33,2.52,2.52,0,0,1,1.89.67,2.63,2.63,0,0,1,.65,1.91,4,4,0,0,1-.21,1.3,3.28,3.28,0,0,1-.59,1.07,2.69,2.69,0,0,1-1,.72,3.19,3.19,0,0,1-1.33.26,2,2,0,0,1-2.3-2.29h-1.62a3.41,3.41,0,0,0,1,2.68,4,4,0,0,0,2.79.94,5.68,5.68,0,0,0,1.8-.27,4.7,4.7,0,0,0,1.57-.92,4,4,0,0,0,1.1-1.61,5.6,5.6,0,0,0,.34-2,4.86,4.86,0,0,0-.23-1.52,3.42,3.42,0,0,0-.69-1.22,3.27,3.27,0,0,0-1.12-.81,3.72,3.72,0,0,0-1.53-.3,4.26,4.26,0,0,0-1.19.17,3.16,3.16,0,0,0-1.06.53l0,0,1-3.46h5.24l0.27-1.35H161Zm96.62-7-0.85,4L254,68.71h0.83l1.62-5.54,0.85-4h-1.67Zm9.45,2a3.06,3.06,0,0,1,.38,1.78h1.62a4.11,4.11,0,0,0-.15-1.49,3.43,3.43,0,0,0-.61-1.16,3.66,3.66,0,0,0-1-.83,5,5,0,0,0-1.19-.51l0.25-1.24h-1l-0.23,1.13a4.48,4.48,0,0,0-1.72.15,4.39,4.39,0,0,0-1.48.75A3.75,3.75,0,0,0,259,61a3.57,3.57,0,0,0-.39,1.67,3.15,3.15,0,0,0,.25,1.32,2.68,2.68,0,0,0,.69.93,4,4,0,0,0,1,.63,11.25,11.25,0,0,0,1.22.45l-1,4.84q-2.07-.43-1.94-3h-1.6a4.67,4.67,0,0,0,.72,3,3.63,3.63,0,0,0,2.54,1.41l-0.32,1.53h1l0.31-1.44a5.26,5.26,0,0,0,1.83-.07,4.82,4.82,0,0,0,1.69-.71,4.13,4.13,0,0,0,1.25-1.32,3.6,3.6,0,0,0,.49-1.89q0-2.47-2.74-3.24l-1-.34,0.88-4.43A2.19,2.19,0,0,1,265.08,61.16Zm-4.37,2.53a1.58,1.58,0,0,1-.5-1.21,2,2,0,0,1,.28-1.11,2.26,2.26,0,0,1,.68-0.7,2.76,2.76,0,0,1,.89-0.37,4.12,4.12,0,0,1,.88-0.11l-0.86,4.28-0.23-.11A3.11,3.11,0,0,1,260.71,63.69Zm2.89,2.81a3.13,3.13,0,0,1,.77.35,1.57,1.57,0,0,1,.53.58,2.16,2.16,0,0,1,.2,1,2.05,2.05,0,0,1-.4,1.28,3.06,3.06,0,0,1-.94.83,3.29,3.29,0,0,1-1.11.4,2.4,2.4,0,0,1-.93,0l1-4.75Zm20.64-2.6-0.88-1.8,1.93-.25L285.2,61l-2,.2,0.45-2h-1L282.3,61l-1.73-.88-0.45.83,1.71,0.86-1.38,1.51L281.12,64l1.4-1.57,0.85,1.85ZM282.31,48a3.8,3.8,0,0,0,1.21-.5,2.77,2.77,0,0,0,.88-0.89,2.45,2.45,0,0,0,.34-1.32,2,2,0,0,0-.22-0.94,2.44,2.44,0,0,0-.56-0.7,4.22,4.22,0,0,0-.78-0.53q-0.44-.23-0.91-0.43l-0.89-.35A6.11,6.11,0,0,1,280.6,42a2.15,2.15,0,0,1-.56-0.43,0.81,0.81,0,0,1-.21-0.56,0.91,0.91,0,0,1,.18-0.58,1.33,1.33,0,0,1,.46-0.36,2.22,2.22,0,0,1,.64-0.19,4.79,4.79,0,0,1,.7-0.05,2.34,2.34,0,0,1,1.38.4,1.29,1.29,0,0,1,.54,1.2h1.53a2.87,2.87,0,0,0-.3-1.38,2.68,2.68,0,0,0-.8-0.92,3.29,3.29,0,0,0-1.12-.5,5.44,5.44,0,0,0-1.28-.15,4.54,4.54,0,0,0-1.27.18,3.83,3.83,0,0,0-1.11.51,2.61,2.61,0,0,0-.78.84,2.22,2.22,0,0,0-.3,1.15,2,2,0,0,0,.21.92,2.29,2.29,0,0,0,.56.69,3.81,3.81,0,0,0,.79.51q0.44,0.22.91,0.4L281.66,44a5.54,5.54,0,0,1,.78.37,2.25,2.25,0,0,1,.56.44,0.85,0.85,0,0,1,.22.58,1.14,1.14,0,0,1-.19.67,1.46,1.46,0,0,1-.5.44,2.24,2.24,0,0,1-.68.24,4,4,0,0,1-.76.07,4.57,4.57,0,0,1-.93-0.09,2.33,2.33,0,0,1-.78-0.3,1.47,1.47,0,0,1-.52-0.56,1.52,1.52,0,0,1-.15-0.85h-1.51a3.49,3.49,0,0,0,.29,1.5,2.49,2.49,0,0,0,.78,1,3.14,3.14,0,0,0,1.18.51,6.82,6.82,0,0,0,1.49.15A6.12,6.12,0,0,0,282.31,48Zm-4.38,17.89h-1.48a4.75,4.75,0,0,1-.42,1.38,7.47,7.47,0,0,1-.71,1.23l-2-3.31c0.36-.19.73-0.4,1.1-0.64a6.33,6.33,0,0,0,1-.79,4,4,0,0,0,.76-1,2.52,2.52,0,0,0,.3-1.21,2.19,2.19,0,0,0-.25-1.07,2.4,2.4,0,0,0-.66-0.77,2.86,2.86,0,0,0-.94-0.46,4,4,0,0,0-1.09-.15,3.84,3.84,0,0,0-1.29.21,3.06,3.06,0,0,0-1,.58,2.67,2.67,0,0,0-.67.89,2.74,2.74,0,0,0-.24,1.17,3.47,3.47,0,0,0,.34,1.56,13.4,13.4,0,0,0,.72,1.29q-0.63.32-1.27,0.69a6.27,6.27,0,0,0-1.15.85,4.1,4.1,0,0,0-.84,1.09,3,3,0,0,0-.32,1.42,3.36,3.36,0,0,0,.28,1.4,3,3,0,0,0,.77,1A3.41,3.41,0,0,0,270,72a4.25,4.25,0,0,0,1.4.23,4.76,4.76,0,0,0,2-.41,6.35,6.35,0,0,0,1.65-1.12L275.86,72h1.75l-1.53-2.34a9.07,9.07,0,0,0,1.11-1.6A8.32,8.32,0,0,0,277.93,65.93Zm-5.59-5a1.74,1.74,0,0,1,1.18-.41,1.49,1.49,0,0,1,1,.36,1.23,1.23,0,0,1,.41,1,1.4,1.4,0,0,1-.22.77,2.83,2.83,0,0,1-.57.64,5.25,5.25,0,0,1-.74.52l-0.74.43q-0.31-.5-0.56-1a2.4,2.4,0,0,1-.25-1.11A1.46,1.46,0,0,1,272.34,60.91Zm0.7,9.64a3.25,3.25,0,0,1-1.49.32,2.56,2.56,0,0,1-.83-0.14,2.34,2.34,0,0,1-.71-0.39,1.84,1.84,0,0,1-.49-0.6,1.68,1.68,0,0,1-.18-0.78,2.16,2.16,0,0,1,.25-1.05,3.16,3.16,0,0,1,.65-0.82,5.47,5.47,0,0,1,.88-0.65q0.49-.29.94-0.52l2.29,3.74A7,7,0,0,1,273,70.55ZM393.9,11.15L389.22,22h0l-0.72-10.85h-1.95L381.59,22h0L381.1,11.15h-1.69L380.22,24h1.84l5.08-11.09h0L388,24h1.78l5.9-12.85H393.9ZM252.77,72h2l0.43-2h-2ZM371.49,22.33h0l-1.31-11.18h-1.75L370.23,24h1.93l7.25-12.85h-1.82Zm33.17-11.18-4.12,5.08-2.38-5.08h-1.84l3.1,6.14L393.86,24h1.95l4.39-5.44L402.79,24h1.76l-3.26-6.48,5.29-6.37h-1.93Zm23.62,0H418.9l-0.36,1.44h7.36l-9.63,10L416,24h10.19l0.3-1.44h-8.21l9.72-10ZM322.4,38.69l-3.53,7.4h0l-0.45-7.4h-1.73l-3.35,7.4h0l-0.58-7.4h-1.62l1.1,9.31h1.62l3.33-7.24h0L317.63,48h1.62l4.8-9.31H322.4Zm93.75-27.55-4.88,6.23-2.63-6.23h-1.82l3.38,7.69L409.11,24h1.68l1.12-5.17,6.23-7.69h-2ZM340.08,38.69l-3.91,7.4h0l-1.08-7.4h-1.64L335.06,48l-0.94,1.53a3,3,0,0,1-.59.73,1.25,1.25,0,0,1-.85.28,1.62,1.62,0,0,1-.43-0.07,1.82,1.82,0,0,1-.43-0.18l-0.27,1.24a2.18,2.18,0,0,0,.5.17,2.63,2.63,0,0,0,.56.06,2.73,2.73,0,0,0,1-.17,2.68,2.68,0,0,0,.77-0.47,4,4,0,0,0,.63-0.7q0.29-.41.57-0.85l6.16-10.87h-1.67Zm-7.18,0H331l-2.77,3.38-1.4-3.38H325.1l2.07,4.37L322.84,48h1.84l3.17-3.82L329.53,48h1.75l-2.37-4.81ZM342.06,40h5l-6.46,6.8L340.38,48h7.56l0.25-1.35h-5.56l6.53-6.86,0.23-1.1h-7.07Zm21.69-21.19q-0.2.9-.44,1.64a4,4,0,0,1-.67,1.27,2.76,2.76,0,0,1-1.09.82,4.41,4.41,0,0,1-1.73.29,3.38,3.38,0,0,1-2.68-.92,3.11,3.11,0,0,1-.36-2.81l1.69-8h-1.71l-1.6,7.56q-0.56,2.72.62,4.15t4,1.43a7.59,7.59,0,0,0,1.57-.16,5.16,5.16,0,0,0,1.42-.52,4.42,4.42,0,0,0,1.17-.93,4.57,4.57,0,0,0,.84-1.36,6.88,6.88,0,0,0,.32-1q0.16-.67.32-1.42l1.6-7.7h-1.71Zm-8.35-7.7H345l-0.31,1.44H349L346.63,24h1.71l2.41-11.41h4.32Zm-57,32.69A4.23,4.23,0,0,1,298,45a4,4,0,0,1-.73,1,3.46,3.46,0,0,1-1,.67,2.83,2.83,0,0,1-1.2.25,2,2,0,0,1-1.15-.32,1.1,1.1,0,0,1-.47-1,3,3,0,0,1,0-.31q0-.19.05-0.4l0.07-.4c0-.13,0-0.24.07-0.32l1.19-5.44h-1.53L292.22,44q-0.13.54-.2,1a5.53,5.53,0,0,0-.07.79,2.3,2.3,0,0,0,.64,1.81,2.88,2.88,0,0,0,2,.57,4.47,4.47,0,0,0,1.85-.4,3.55,3.55,0,0,0,1.46-1.21h0L297.6,48h1.48l2-9.31h-1.53Zm-118.54,17h6.64a31.37,31.37,0,0,0-4,5.25,26.75,26.75,0,0,0-2.7,5.95h1.75a29,29,0,0,1,1.13-3A32.43,32.43,0,0,1,184.22,66a29.32,29.32,0,0,1,1.87-2.86,17.54,17.54,0,0,1,2.11-2.39l0.22-1.28h-8.23Zm21.18-22.11h-1.53l-2,9.76c-0.07.32-.14,0.6-0.2,0.83a1.92,1.92,0,0,1-.22.54,0.82,0.82,0,0,1-.29.29,0.84,0.84,0,0,1-.41.09,1.3,1.3,0,0,1-.3,0l-0.3-.07-0.27,1.35a2.46,2.46,0,0,0,.5.09l0.5,0a2.09,2.09,0,0,0,1.45-.48,2.49,2.49,0,0,0,.73-1.34Zm-4.3,25.57a2.84,2.84,0,0,0,.63-1.85,2.92,2.92,0,0,0-.3-1.34,3,3,0,0,0-.79-1,3.57,3.57,0,0,0-1.14-.62,4.25,4.25,0,0,0-1.35-.22,4.89,4.89,0,0,0-1.48.23,3.72,3.72,0,0,0-1.24.66,3.16,3.16,0,0,0-.85,1.07,3.28,3.28,0,0,0-.31,1.47,2.4,2.4,0,0,0,.45,1.4,2.71,2.71,0,0,0,1.13,1v0a3.8,3.8,0,0,0-2.23,1.17,3.41,3.41,0,0,0-.83,2.38,3.52,3.52,0,0,0,.34,1.61,3.2,3.2,0,0,0,.92,1.12,3.92,3.92,0,0,0,1.34.66,5.81,5.81,0,0,0,1.59.22,4.82,4.82,0,0,0,1.61-.27,4.19,4.19,0,0,0,1.36-.78,3.81,3.81,0,0,0,.95-1.23,3.61,3.61,0,0,0,.35-1.6,3.77,3.77,0,0,0-.43-1.8,2.66,2.66,0,0,0-1.37-1.21v0A2.9,2.9,0,0,0,196.77,64.26Zm-1.48,4a2.44,2.44,0,0,1-.77,1.93,2.88,2.88,0,0,1-2,.68,2.71,2.71,0,0,1-1.77-.57,2.09,2.09,0,0,1-.69-1.72,2.4,2.4,0,0,1,.8-2,3.11,3.11,0,0,1,2.06-.67A2.16,2.16,0,0,1,195.29,68.26Zm-1.58-3.65a2.59,2.59,0,0,1-1.54-.44,1.65,1.65,0,0,1-.62-1.45,2,2,0,0,1,.61-1.55,2.22,2.22,0,0,1,1.58-.58,2.15,2.15,0,0,1,1.5.49,1.88,1.88,0,0,1,.53,1.46A2,2,0,0,1,193.71,64.6Zm12.74-4.19a3.19,3.19,0,0,0-1.22-.87,4.55,4.55,0,0,0-1.75-.31,4.41,4.41,0,0,0-1.83.37,4.19,4.19,0,0,0-1.4,1,4.59,4.59,0,0,0-.9,1.5A5.25,5.25,0,0,0,199,64a4,4,0,0,0,.26,1.46,3.5,3.5,0,0,0,1.87,2,3.47,3.47,0,0,0,1.45.3,4.38,4.38,0,0,0,1.58-.3,2.53,2.53,0,0,0,1.22-1l0,0q-0.22.7-.5,1.48a6.61,6.61,0,0,1-.73,1.42,4,4,0,0,1-1.07,1.07,2.71,2.71,0,0,1-1.55.42,1.8,1.8,0,0,1-1.41-.5,2.06,2.06,0,0,1-.44-1.41h-1.62a3.65,3.65,0,0,0,.22,1.44,2.63,2.63,0,0,0,.7,1,2.85,2.85,0,0,0,1.12.59A5.77,5.77,0,0,0,203.3,72a4.12,4.12,0,0,0,1.28-.69,4.69,4.69,0,0,0,1-1.1,10,10,0,0,0,.78-1.48,12.5,12.5,0,0,0,.78-2.53,13.31,13.31,0,0,0,.28-2.64,6.18,6.18,0,0,0-.23-1.75A3.65,3.65,0,0,0,206.45,60.42Zm-0.85,4a3,3,0,0,1-.53,1,2.51,2.51,0,0,1-.87.68,2.74,2.74,0,0,1-1.21.25,2.19,2.19,0,0,1-1.75-.68,2.62,2.62,0,0,1-.59-1.78,4.12,4.12,0,0,1,.17-1.16,3.62,3.62,0,0,1,.5-1.06,2.7,2.7,0,0,1,.83-0.77,2.22,2.22,0,0,1,1.16-.3,2.32,2.32,0,0,1,1.85.71,2.82,2.82,0,0,1,.61,1.9A4,4,0,0,1,205.6,64.4Zm1.28-22.27,4-3.44h-2l-4.68,4.05,0,0,1.6-7.56h-1.51L201.61,48h1.51l0.7-3.31L205.66,43l1.82,5h1.71Zm-35.2,20a3.81,3.81,0,0,1,1-1.1,2.59,2.59,0,0,1,1.52-.43,2,2,0,0,1,1.49.5,2.13,2.13,0,0,1,.49,1.47h1.62a3.43,3.43,0,0,0-.9-2.44,3.29,3.29,0,0,0-2.45-.87,4.7,4.7,0,0,0-3,.92,6.36,6.36,0,0,0-1.83,2.52,10.15,10.15,0,0,0-.45,1.21c-0.13.43-.25,0.88-0.34,1.33a13.45,13.45,0,0,0-.22,1.38,12.86,12.86,0,0,0-.07,1.32,6.23,6.23,0,0,0,.22,1.71,3.67,3.67,0,0,0,.69,1.36,3.22,3.22,0,0,0,1.2.89,4.21,4.21,0,0,0,1.72.32,4.86,4.86,0,0,0,1.9-.35,4.13,4.13,0,0,0,1.43-1,4.3,4.3,0,0,0,.91-1.49,5.3,5.3,0,0,0,.32-1.84,4,4,0,0,0-.26-1.47,3.7,3.7,0,0,0-.74-1.19,3.36,3.36,0,0,0-1.14-.8,3.62,3.62,0,0,0-1.46-.29,4.2,4.2,0,0,0-1.57.31,2.59,2.59,0,0,0-1.22,1h0q0.2-.7.47-1.49A6.81,6.81,0,0,1,171.68,62.12Zm-0.78,4a2.6,2.6,0,0,1,.88-0.68,2.74,2.74,0,0,1,1.21-.25,2.19,2.19,0,0,1,1.74.68,2.59,2.59,0,0,1,.6,1.78,4.34,4.34,0,0,1-.17,1.22,3.17,3.17,0,0,1-.52,1,2.56,2.56,0,0,1-.87.73,2.63,2.63,0,0,1-1.22.27,2.14,2.14,0,0,1-1.78-.72,2.88,2.88,0,0,1-.58-1.85,4,4,0,0,1,.18-1.21A2.91,2.91,0,0,1,170.9,66.08Zm-8.23-54.93h-4.5L155.46,24h4.93a7.39,7.39,0,0,0,2.92-.56,6.32,6.32,0,0,0,2.25-1.59,7.35,7.35,0,0,0,1.46-2.5,9.73,9.73,0,0,0,.52-3.29,5.05,5.05,0,0,0-1.23-3.6A4.74,4.74,0,0,0,162.67,11.15Zm2.82,7.4a6.25,6.25,0,0,1-1,2A5.19,5.19,0,0,1,162.79,22a5,5,0,0,1-2.38.55h-3l2.11-10h2.74a4.36,4.36,0,0,1,1.75.31,2.78,2.78,0,0,1,1.09.81,2.93,2.93,0,0,1,.55,1.17,6.11,6.11,0,0,1,.15,1.37A8.15,8.15,0,0,1,165.49,18.55ZM251.2,59.72a3.84,3.84,0,0,0-1.19-.54,5.15,5.15,0,0,0-1.35-.18,4.46,4.46,0,0,0-1.69.31,4.12,4.12,0,0,0-1.35.88,4.28,4.28,0,0,0-.92,1.34,4.82,4.82,0,0,0-.4,1.67h1.53a3.82,3.82,0,0,1,.27-1.12,3,3,0,0,1,.58-0.91,2.63,2.63,0,0,1,.86-0.61,2.8,2.8,0,0,1,1.15-.23,2.32,2.32,0,0,1,1.49.46,1.72,1.72,0,0,1,.58,1.43,2.12,2.12,0,0,1-.14.79,2.82,2.82,0,0,1-.39.67,3.78,3.78,0,0,1-.55.58,6.67,6.67,0,0,1-.63.48q-0.63.43-1.09,0.81a4.73,4.73,0,0,0-.78.81,3.51,3.51,0,0,0-.6,1.11,8.65,8.65,0,0,0-.3,1.21h1.49l0.07-.4a2.56,2.56,0,0,1,.54-1.15,6.1,6.1,0,0,1,.9-0.86q0.5-.4,1-0.77a6.77,6.77,0,0,0,1-.85,4,4,0,0,0,.76-1.12,3.74,3.74,0,0,0,.3-1.57,2.57,2.57,0,0,0-.33-1.32A2.88,2.88,0,0,0,251.2,59.72ZM177.4,22.56h-7.24l0.94-4.45h6.68l0.29-1.44h-6.66l0.86-4.09h7.15l0.29-1.44h-8.86L168.13,24h8.95ZM170,48l1.71-8h1.8l0.25-1.35h-1.78q0.13-.43.21-0.85a2.79,2.79,0,0,1,.25-0.75,1.43,1.43,0,0,1,.48-0.54,1.53,1.53,0,0,1,.86-0.21l0.34,0,0.38,0.06,0.25-1.3a3.16,3.16,0,0,0-.63-0.12l-0.65,0a2.74,2.74,0,0,0-1.43.31,2.26,2.26,0,0,0-.8.83,4.42,4.42,0,0,0-.44,1.18q-0.15.67-.33,1.37h-1.58L168.58,40h1.58l-1.73,8H170ZM214.1,59.24a4,4,0,0,0-1.8.4,4.91,4.91,0,0,0-1.42,1,6.84,6.84,0,0,0-1.06,1.49,10.75,10.75,0,0,0-.74,1.74,11.32,11.32,0,0,0-.42,1.76,10.52,10.52,0,0,0-.13,1.59,10.4,10.4,0,0,0,.17,1.94,4.54,4.54,0,0,0,.58,1.57,3,3,0,0,0,1.09,1,3.41,3.41,0,0,0,1.68.38,3.85,3.85,0,0,0,1.87-.44,5.12,5.12,0,0,0,1.42-1.14,6.91,6.91,0,0,0,1-1.59,11.17,11.17,0,0,0,.68-1.8,13.66,13.66,0,0,0,.37-1.74,10.36,10.36,0,0,0,.12-1.42,6.07,6.07,0,0,0-.88-3.69A3,3,0,0,0,214.1,59.24Zm1.82,5.26a6.85,6.85,0,0,1-.08.85q-0.08.59-.25,1.3a12.68,12.68,0,0,1-.45,1.46,6.49,6.49,0,0,1-.69,1.36,3.91,3.91,0,0,1-1,1,2.13,2.13,0,0,1-1.26.4,1.65,1.65,0,0,1-1.6-.91,5.36,5.36,0,0,1-.47-2.44,8.89,8.89,0,0,1,.09-1.13,12.2,12.2,0,0,1,.29-1.46,12.87,12.87,0,0,1,.5-1.55,7.11,7.11,0,0,1,.73-1.4,3.84,3.84,0,0,1,1-1,2.13,2.13,0,0,1,1.24-.39,2,2,0,0,1,.92.19,1.58,1.58,0,0,1,.58.5,2.19,2.19,0,0,1,.31.73,4.89,4.89,0,0,1,.13.85q0,0.43,0,.86T215.92,64.49ZM181.27,48q0.18-.66.34-1.38l1.67-8h-1.44l-0.29,1.71h0v0a2,2,0,0,0-.39-0.78,2.52,2.52,0,0,0-.68-0.59,3.64,3.64,0,0,0-1.88-.51,4,4,0,0,0-2,.51A5,5,0,0,0,175,40.32a6.18,6.18,0,0,0-1,1.84,6.62,6.62,0,0,0-.33,2.05,5.07,5.07,0,0,0,.22,1.55,3.54,3.54,0,0,0,.66,1.21,2.86,2.86,0,0,0,1.09.79,3.86,3.86,0,0,0,1.52.28,4.12,4.12,0,0,0,1.64-.32,2.86,2.86,0,0,0,1.26-1.08l0,0q-0.18.68-.39,1.36a4.31,4.31,0,0,1-.57,1.2,2.79,2.79,0,0,1-.93.85,2.89,2.89,0,0,1-1.45.32,5.62,5.62,0,0,1-.85-0.06,2.22,2.22,0,0,1-.73-0.23,1.49,1.49,0,0,1-.52-0.47,1.53,1.53,0,0,1-.24-0.77H173a2.75,2.75,0,0,0,.33,1.32,2.66,2.66,0,0,0,.82.89,3.57,3.57,0,0,0,1.16.5,5.74,5.74,0,0,0,1.38.16,5.2,5.2,0,0,0,2.57-.59,3.93,3.93,0,0,0,1.66-2A10.25,10.25,0,0,0,181.27,48Zm-1.17-2.83a3.61,3.61,0,0,1-1.05,1.1,2.62,2.62,0,0,1-1.5.43,2.31,2.31,0,0,1-1-.21,2,2,0,0,1-.71-0.55,2.39,2.39,0,0,1-.42-0.79,3.12,3.12,0,0,1-.14-1,5.25,5.25,0,0,1,.22-1.41,5.39,5.39,0,0,1,.63-1.42,4,4,0,0,1,1-1.11,2.34,2.34,0,0,1,1.42-.45,2.26,2.26,0,0,1,1.79.67,2.58,2.58,0,0,1,.58,1.76,5.83,5.83,0,0,1-.21,1.49A5.29,5.29,0,0,1,180.1,45.19Zm41.35,18.64a17.17,17.17,0,0,1,1.39-2.57,26,26,0,0,1,1.78-2.41h-1.26q-1,1.12-1.85,2.26A16,16,0,0,0,220,63.48a13,13,0,0,0-1,2.58,11.4,11.4,0,0,0-.35,2.88,13.4,13.4,0,0,0,.11,1.65q0.11,0.87.3,1.74T219.57,74a14,14,0,0,0,.59,1.53h1a16,16,0,0,1-.72-2.94,21,21,0,0,1-.22-3,13.91,13.91,0,0,1,.31-3A15.08,15.08,0,0,1,221.45,63.83Zm18.09,0.86h2l0.41-2h-2Zm-0.94-23a5.67,5.67,0,0,0,.07-0.79,2.33,2.33,0,0,0-.64-1.82,2.84,2.84,0,0,0-2-.58,4.39,4.39,0,0,0-1.85.4,3.62,3.62,0,0,0-1.46,1.22h0l0.29-1.4h-1.48L229.6,48h1.51l1.08-5.15a6.52,6.52,0,0,1,.38-1.07,2.52,2.52,0,0,1,.65-0.87,3.56,3.56,0,0,1,1.05-.77,2.81,2.81,0,0,1,1.25-.31,2,2,0,0,1,1.15.31,1.1,1.1,0,0,1,.47,1,2.35,2.35,0,0,1,0,.31c0,0.13,0,.26-0.06.4l-0.07.4c0,0.13,0,.24-0.05.33L235.73,48h1.53l1.13-5.31Q238.52,42.15,238.6,41.66Zm9.11,4.74a5.75,5.75,0,0,0,1-1.88,7.13,7.13,0,0,0,.34-2.2,3.87,3.87,0,0,0-1-2.87,3.92,3.92,0,0,0-2.88-1A4.79,4.79,0,0,0,243,39a5.1,5.1,0,0,0-1.64,1.3,5.68,5.68,0,0,0-1,1.87,6.94,6.94,0,0,0-.35,2.2,4.36,4.36,0,0,0,.27,1.56,3.41,3.41,0,0,0,2,2,4.46,4.46,0,0,0,1.65.29,4.73,4.73,0,0,0,2.18-.49A5,5,0,0,0,247.71,46.41Zm-3.64.46a2.47,2.47,0,0,1-1.91-.7,2.62,2.62,0,0,1-.65-1.85,5.56,5.56,0,0,1,.22-1.51,4.92,4.92,0,0,1,.68-1.45,3.94,3.94,0,0,1,1.12-1.09,2.79,2.79,0,0,1,1.55-.43,2.63,2.63,0,0,1,1.09.21,2.2,2.2,0,0,1,.76.56,2.22,2.22,0,0,1,.45.84,3.6,3.6,0,0,1,.14,1,5.25,5.25,0,0,1-.22,1.46,5.12,5.12,0,0,1-.67,1.43,4,4,0,0,1-1.08,1.09A2.59,2.59,0,0,1,244.07,46.87ZM245.37,72h2l0.43-2h-2ZM238,72h2l0.41-2h-2Zm-15,0h1l-0.18.59a2.51,2.51,0,0,1-.23.53,1.45,1.45,0,0,1-.37.41,1.27,1.27,0,0,1-.58.22l-0.18.86a2.39,2.39,0,0,0,1.45-.53,3.08,3.08,0,0,0,.79-1.12,6.44,6.44,0,0,0,.41-1.45q0.13-.79.32-1.53h-2Zm11.52-7.31h2l0.43-2h-2ZM228.61,41.5a5.6,5.6,0,0,0,.09-0.94,2,2,0,0,0-.22-1A1.78,1.78,0,0,0,227.9,39a2.7,2.7,0,0,0-.84-0.36,3.91,3.91,0,0,0-1-.12,3.73,3.73,0,0,0-1.79.46,4,4,0,0,0-1.4,1.21,1.88,1.88,0,0,0-.83-1.3,2.89,2.89,0,0,0-1.51-.38,3.83,3.83,0,0,0-1.81.44,4.44,4.44,0,0,0-1.43,1.2l0,0,0.34-1.39h-1.42l-2,9.31h1.51l1-4.88a8,8,0,0,1,.32-1.16,2.65,2.65,0,0,1,.67-0.94,4.14,4.14,0,0,1,1-.83,2.47,2.47,0,0,1,1.25-.36,1.33,1.33,0,0,1,1,.32,1.2,1.2,0,0,1,.33.9,4.48,4.48,0,0,1-.08.63q-0.08.47-.21,1L220,48h1.53l1-4.81a10.38,10.38,0,0,1,.31-1.13,2.64,2.64,0,0,1,.56-1,3.54,3.54,0,0,1,.47-0.49,3.46,3.46,0,0,1,.58-0.41,3.56,3.56,0,0,1,.64-0.28,2.11,2.11,0,0,1,.66-0.11,1.47,1.47,0,0,1,1,.36,1.15,1.15,0,0,1,.41.9,3.51,3.51,0,0,1,0,.5q0,0.3-.1.51l-1.3,5.9h1.53l1.17-5.58C228.49,42.16,228.55,41.85,228.61,41.5ZM233,72h1l-0.18.59a2.51,2.51,0,0,1-.23.53,1.45,1.45,0,0,1-.37.41,1.27,1.27,0,0,1-.58.22l-0.18.86a2.39,2.39,0,0,0,1.45-.53,3.08,3.08,0,0,0,.79-1.12,6.44,6.44,0,0,0,.41-1.45q0.13-.79.32-1.53h-2Zm-5,0h2l0.43-2h-2Z"/></svg>