<svg id="helvetica-neue-light-italic" data-name="helvetica-neue-light-italic" xmlns="http://www.w3.org/2000/svg" viewBox="0 0 456 84"><path d="M250.67,12.19h0L252.78,24H254l7.11-11.63h0L258.5,24h1.21l2.75-12.85h-1.78l-7.05,11.54-2-11.54h-1.78L247.06,24h1.19Zm11.25,39.23,2.74-12.71h-1l-0.39,1.85h0A2.76,2.76,0,0,0,262,39a3.57,3.57,0,0,0-2-.58,4.13,4.13,0,0,0-2.11.53,4.93,4.93,0,0,0-1.54,1.39,6.4,6.4,0,0,0-.95,1.92,7.22,7.22,0,0,0-.32,2.12,5.25,5.25,0,0,0,.22,1.54,3.31,3.31,0,0,0,.66,1.22,3,3,0,0,0,1.11.8,3.88,3.88,0,0,0,1.55.29,3.5,3.5,0,0,0,1.9-.51,4.09,4.09,0,0,0,1.34-1.38h0l-1.1,5.06h1.13Zm-0.21-5.87a4.43,4.43,0,0,1-1.19,1.26,2.78,2.78,0,0,1-1.65.5,2.44,2.44,0,0,1-2-.79,3.25,3.25,0,0,1-.63-2.09,6.47,6.47,0,0,1,.25-1.75,5.53,5.53,0,0,1,.75-1.63,4.24,4.24,0,0,1,1.22-1.2,3.08,3.08,0,0,1,1.7-.47,2.61,2.61,0,0,1,1.13.23,2.27,2.27,0,0,1,.79.6,2.46,2.46,0,0,1,.47.89,3.87,3.87,0,0,1,.15,1.11,6.43,6.43,0,0,1-.24,1.67A6,6,0,0,1,261.72,45.55Zm29.15-27.06h4.54a5.43,5.43,0,0,0,1.78-.28,3.94,3.94,0,0,0,1.39-.81,3.68,3.68,0,0,0,.92-1.31,4.48,4.48,0,0,0,.33-1.77,3.28,3.28,0,0,0-.26-1.33,2.84,2.84,0,0,0-.72-1,3.21,3.21,0,0,0-1.08-.62,4.13,4.13,0,0,0-1.36-.22h-5.18L288.46,24h1.22Zm1.37-6.3H296a4.49,4.49,0,0,1,1.07.12,2.13,2.13,0,0,1,.82.39,1.78,1.78,0,0,1,.53.71,2.75,2.75,0,0,1,.19,1.09,3.06,3.06,0,0,1-.24,1.25,2.61,2.61,0,0,1-.68.93,3,3,0,0,1-1,.58,3.79,3.79,0,0,1-1.24.2H291.1ZM37.06,11.31L0,72H6.38L17.59,53.13H45.3L48.37,72h6L43.35,11.31H37.06ZM20.49,48.2l18.61-32h0.17l5.18,32h-24Zm243-24.2,2.39-11.48h0L271.09,24h1.35l2.81-12.85h-1.19l-2.38,11.48h0l-5.13-11.48h-1.38L262.36,24h1.17Zm-170,4.82a17.91,17.91,0,0,0-5-1.53,31.42,31.42,0,0,0-4.89-.42,25.35,25.35,0,0,0-6.63.85,17.59,17.59,0,0,0-5.61,2.59,14.86,14.86,0,0,0-4.12,4.46,16.6,16.6,0,0,0-2.17,6.46h5.36a11.81,11.81,0,0,1,1.66-4.63,9.69,9.69,0,0,1,3.1-3.06,13.49,13.49,0,0,1,4.17-1.66,22.3,22.3,0,0,1,4.84-.51,21,21,0,0,1,3.19.25,9.64,9.64,0,0,1,3,.93,6.24,6.24,0,0,1,2.21,1.91,5.31,5.31,0,0,1,.89,3.19q0,4.33-1.32,6.12a6.83,6.83,0,0,1-4,2.47,22.67,22.67,0,0,1-6.08.64,47.57,47.57,0,0,0-7.86.64,39.82,39.82,0,0,0-5.7,1.4,17.65,17.65,0,0,0-4.84,2.42,10.94,10.94,0,0,0-3.36,3.91,12.66,12.66,0,0,0-1.23,5.87,13.07,13.07,0,0,0,1.06,5.52,10.05,10.05,0,0,0,2.89,3.74,11.91,11.91,0,0,0,4.38,2.13,21.74,21.74,0,0,0,5.61.68,19.33,19.33,0,0,0,8.75-2.08,15.35,15.35,0,0,0,6.46-5.91l0.17,0.17c-0.06.4-.1,0.79-0.13,1.19s0,0.79,0,1.19q0.17,4.68,4.68,4.67A22.58,22.58,0,0,0,97.41,72l0.76-4.17L97.11,68c-0.31,0-.67,0-1.06,0a6.11,6.11,0,0,1-1.87-.3,1.37,1.37,0,0,1-.93-1.49,12.29,12.29,0,0,1,.17-2q0.17-1,.51-2.63t0.89-4q0.55-2.42,1.32-6.08,0.34-1.44.81-3.36t0.89-3.91q0.42-2,.72-4a24,24,0,0,0,.3-3.57,7.41,7.41,0,0,0-1.53-4.84A11.09,11.09,0,0,0,93.5,28.82ZM89.93,55.94a16.71,16.71,0,0,1-5.27,9.35q-4,3.49-10.46,3.48a15.68,15.68,0,0,1-3.66-.42,8.8,8.8,0,0,1-3.14-1.4,7.25,7.25,0,0,1-2.17-2.46,7.47,7.47,0,0,1-.81-3.61,7.61,7.61,0,0,1,1.79-5.4,11.34,11.34,0,0,1,4.42-2.89,22.63,22.63,0,0,1,5.65-1.27q3-.3,5.48-0.47l2.42-.17A22.14,22.14,0,0,0,87,50.33a15.3,15.3,0,0,0,2.59-.72,4.77,4.77,0,0,0,1.91-1.23l0.17,0.17ZM326.19,23.18a4.21,4.21,0,0,0,1.56.81,7.19,7.19,0,0,0,2,.26,6.31,6.31,0,0,0,2.54-.43,4.24,4.24,0,0,0,1.51-1.05,3.36,3.36,0,0,0,.73-1.3,4.45,4.45,0,0,0,.19-1.16,2.85,2.85,0,0,0-.29-1.35,2.68,2.68,0,0,0-.77-0.9,4.56,4.56,0,0,0-1.11-.59q-0.62-.23-1.29-0.43l-1.37-.41-0.79-.28a2.53,2.53,0,0,1-.69-0.4,2,2,0,0,1-.49-0.59,1.79,1.79,0,0,1-.19-0.85,2.26,2.26,0,0,1,.29-1.17,2.46,2.46,0,0,1,.76-0.8,3.28,3.28,0,0,1,1.05-.46,4.94,4.94,0,0,1,1.18-.14,6.6,6.6,0,0,1,1.46.14,2.56,2.56,0,0,1,1.06.5,2.18,2.18,0,0,1,.66.92,3.84,3.84,0,0,1,.23,1.41h1.22a4.08,4.08,0,0,0-.29-1.88,3.16,3.16,0,0,0-1-1.24,3.91,3.91,0,0,0-1.48-.68,7.89,7.89,0,0,0-1.84-.21,6.56,6.56,0,0,0-1.68.22,4.6,4.6,0,0,0-1.46.66,3.23,3.23,0,0,0-1.41,2.8,2.66,2.66,0,0,0,.7,2,4.11,4.11,0,0,0,1.84,1l1.26,0.38,1.1,0.32a4.66,4.66,0,0,1,1,.43,2.37,2.37,0,0,1,.77.69,1.89,1.89,0,0,1,.3,1.11,2.25,2.25,0,0,1-.33,1.24,2.74,2.74,0,0,1-.86.85,4.07,4.07,0,0,1-1.18.5,5.25,5.25,0,0,1-1.28.16,6.14,6.14,0,0,1-1.58-.19,3.09,3.09,0,0,1-1.21-.6,2.49,2.49,0,0,1-.74-1.07,4,4,0,0,1-.19-1.59h-1.22a4.75,4.75,0,0,0,.29,2A3.48,3.48,0,0,0,326.19,23.18Zm-202,37.11a4.73,4.73,0,0,1-1,.66,6.62,6.62,0,0,1-1.11.44,8.72,8.72,0,0,1-1.15.26l-0.23.9q0.92-.14,1.79-0.36a7.62,7.62,0,0,0,1.7-.65L122,72h1.13l2.7-12.6H125A4.17,4.17,0,0,1,124.22,60.29Zm2-49.14h-1.33L117,24h1.35l2.38-4h5.87l0.65,4h1.28ZM121.35,19l3.94-6.77h0l1.1,6.77h-5.08ZM129,45.88h0a2.75,2.75,0,0,0,1.08,1.76,3.38,3.38,0,0,0,2,.61,4.14,4.14,0,0,0,2.11-.53,5,5,0,0,0,1.54-1.38,6.32,6.32,0,0,0,.95-1.91,7.22,7.22,0,0,0,.32-2.12,5.26,5.26,0,0,0-.22-1.54,3.33,3.33,0,0,0-.66-1.22,3.14,3.14,0,0,0-1.1-.81,3.77,3.77,0,0,0-1.56-.3,3.46,3.46,0,0,0-1.9.52,3.85,3.85,0,0,0-1.3,1.39h0l1.1-5.2h-1.13L127.5,48h1Zm0.71-3.07a6,6,0,0,1,.72-1.65,4.4,4.4,0,0,1,1.19-1.26,2.77,2.77,0,0,1,1.65-.5,2.45,2.45,0,0,1,2,.79,3.26,3.26,0,0,1,.63,2.09,6.46,6.46,0,0,1-.25,1.75,5.51,5.51,0,0,1-.75,1.63,4.23,4.23,0,0,1-1.22,1.2,3.08,3.08,0,0,1-1.7.47,2.6,2.6,0,0,1-1.12-.22,2.27,2.27,0,0,1-.79-0.6,2.47,2.47,0,0,1-.47-0.89,3.84,3.84,0,0,1-.15-1.11A6.4,6.4,0,0,1,129.67,42.81ZM315.56,18.29h4.54a1.53,1.53,0,0,1,1.38.58,2.68,2.68,0,0,1,.39,1.5,7.39,7.39,0,0,1-.09,1.15,7.38,7.38,0,0,0-.09,1.15s0,0.12,0,.25,0,0.27,0,.42a3.92,3.92,0,0,0,.05.41,0.38,0.38,0,0,0,.09.23h1.26a1.1,1.1,0,0,1-.18-0.54q0-.34,0-0.58a9.86,9.86,0,0,1,.09-1.33,10.29,10.29,0,0,0,.09-1.35,2.9,2.9,0,0,0-.36-1.49,1.84,1.84,0,0,0-1.28-.81v0a3.65,3.65,0,0,0,1.31-.34,3.38,3.38,0,0,0,1.72-1.85,3.59,3.59,0,0,0,.24-1.32,3.11,3.11,0,0,0-.87-2.39,3.56,3.56,0,0,0-2.51-.81h-5.47L313.13,24h1.22Zm1.33-6.1h4.41a2.19,2.19,0,0,1,1.69.56,2.46,2.46,0,0,1,.5,1.69,2.75,2.75,0,0,1-.26,1.24,2.47,2.47,0,0,1-.72.87,3.11,3.11,0,0,1-1.06.52,4.76,4.76,0,0,1-1.3.17h-4.34ZM301.7,22.75a4.64,4.64,0,0,0,1.65,1.11,6,6,0,0,0,2.24.4,6.49,6.49,0,0,0,3.28-.79l1.8,1.67,0.72-.74-1.64-1.51A7.28,7.28,0,0,0,311.89,20a9.5,9.5,0,0,0,.74-3.75,6.3,6.3,0,0,0-.37-2.21,4.62,4.62,0,0,0-2.74-2.78,6,6,0,0,0-2.21-.39,6.43,6.43,0,0,0-3,.66,6.7,6.7,0,0,0-2.2,1.76,7.86,7.86,0,0,0-1.37,2.53,9.42,9.42,0,0,0-.47,3,6.74,6.74,0,0,0,.35,2.23A4.7,4.7,0,0,0,301.7,22.75Zm0.2-6.41A6.92,6.92,0,0,1,303,14.11a5.63,5.63,0,0,1,1.79-1.58,5.08,5.08,0,0,1,2.53-.6,4.41,4.41,0,0,1,1.84.35,3.54,3.54,0,0,1,1.29,1,4,4,0,0,1,.76,1.47,6.7,6.7,0,0,1,.24,1.85,7.79,7.79,0,0,1-.16,1.58,7.36,7.36,0,0,1-.49,1.5A7.26,7.26,0,0,1,310,21a5.75,5.75,0,0,1-1.06,1.1l-1.62-1.51-0.7.74L308,22.65a4.71,4.71,0,0,1-1,.42,4.49,4.49,0,0,1-1.19.15,4.9,4.9,0,0,1-1.78-.31,3.69,3.69,0,0,1-1.34-.87,3.78,3.78,0,0,1-.84-1.36,5.16,5.16,0,0,1-.29-1.78A9.44,9.44,0,0,1,301.89,16.34ZM125.47,38.86a3.79,3.79,0,0,0-1.05-.32,6.6,6.6,0,0,0-1-.09,5.36,5.36,0,0,0-1.4.18,3.72,3.72,0,0,0-1.19.55,3.12,3.12,0,0,0-.87.95,3.51,3.51,0,0,0-.46,1.37h1.13a2.5,2.5,0,0,1,.35-1,2.05,2.05,0,0,1,.66-0.65,2.86,2.86,0,0,1,.88-0.35,4.7,4.7,0,0,1,1-.11,4.42,4.42,0,0,1,.67.05,2,2,0,0,1,.63.2,1.32,1.32,0,0,1,.47.41,1.12,1.12,0,0,1,.19.67,2.25,2.25,0,0,1-.28,1.3,1.44,1.44,0,0,1-.84.52,4.83,4.83,0,0,1-1.29.13,10.1,10.1,0,0,0-1.67.13,8.5,8.5,0,0,0-1.21.3,3.74,3.74,0,0,0-1,.51,2.32,2.32,0,0,0-.71.83,2.68,2.68,0,0,0-.26,1.24,2.76,2.76,0,0,0,.22,1.17,2.12,2.12,0,0,0,.61.79,2.51,2.51,0,0,0,.93.45,4.57,4.57,0,0,0,1.19.14,4.09,4.09,0,0,0,1.85-.44,3.25,3.25,0,0,0,1.37-1.25l0,0c0,0.08,0,.17,0,0.25s0,0.17,0,.25a0.89,0.89,0,0,0,1,1A4.8,4.8,0,0,0,126.3,48l0.16-.88-0.23,0H126a1.3,1.3,0,0,1-.4-0.06,0.29,0.29,0,0,1-.2-0.32,2.58,2.58,0,0,1,0-.43c0-.14.06-0.33,0.11-0.56s0.11-.51.19-0.86,0.17-.77.28-1.29l0.17-.71q0.1-.4.19-0.83c0.06-.28.11-0.56,0.15-0.84a5,5,0,0,0,.06-0.76,1.57,1.57,0,0,0-.32-1A2.36,2.36,0,0,0,125.47,38.86Zm-0.76,5.74a3.53,3.53,0,0,1-1.12,2,3.25,3.25,0,0,1-2.21.74,3.31,3.31,0,0,1-.77-0.09,1.87,1.87,0,0,1-.67-0.3,1.54,1.54,0,0,1-.46-0.52,1.87,1.87,0,0,1,.21-1.91,2.39,2.39,0,0,1,.94-0.61,4.78,4.78,0,0,1,1.2-.27l1.16-.1,0.51,0a4.83,4.83,0,0,0,.58-0.07,3.2,3.2,0,0,0,.55-0.15A1,1,0,0,0,125,43l0,0Zm19-21.85a4.65,4.65,0,0,0,1.66,1.11,6,6,0,0,0,2.24.4,6.49,6.49,0,0,0,2.21-.35,5.34,5.34,0,0,0,1.69-1,5.28,5.28,0,0,0,1.19-1.48,6.93,6.93,0,0,0,.68-1.85h-1.22a5.79,5.79,0,0,1-.66,1.5,4.75,4.75,0,0,1-1,1.14,4.23,4.23,0,0,1-2.71,1,4.92,4.92,0,0,1-1.78-.31,3.68,3.68,0,0,1-1.34-.87,3.76,3.76,0,0,1-.84-1.36,5.2,5.2,0,0,1-.29-1.78,9.52,9.52,0,0,1,.35-2.56,6.88,6.88,0,0,1,1.07-2.23,5.61,5.61,0,0,1,1.79-1.58,5.07,5.07,0,0,1,2.53-.6,3.83,3.83,0,0,1,2.58.83,3.18,3.18,0,0,1,1,2.47h1.22a4.71,4.71,0,0,0-.39-1.89,3.8,3.8,0,0,0-1-1.35,4.38,4.38,0,0,0-1.51-.82,6.14,6.14,0,0,0-1.88-.28,6.45,6.45,0,0,0-3,.66,6.7,6.7,0,0,0-2.2,1.76,7.85,7.85,0,0,0-1.37,2.53,9.42,9.42,0,0,0-.47,3,6.74,6.74,0,0,0,.35,2.23A4.72,4.72,0,0,0,143.67,22.75ZM189.12,42l-1.3,6H189l1.28-6a6.14,6.14,0,0,0,.14-1.1,2.88,2.88,0,0,0-.21-1.14,2,2,0,0,0-.59-0.77,2.54,2.54,0,0,0-.89-0.44,4.16,4.16,0,0,0-1.12-.14,3.41,3.41,0,0,0-1.91.57,4.21,4.21,0,0,0-1.35,1.39h0l1.13-5.26h-1.13L181.52,48h1.12l1-4.77a6.34,6.34,0,0,1,.54-1.59,4.81,4.81,0,0,1,.85-1.21,3.66,3.66,0,0,1,1.06-.76,2.75,2.75,0,0,1,1.19-.27,2.94,2.94,0,0,1,.73.09,1.8,1.8,0,0,1,.62.29,1.45,1.45,0,0,1,.43.51,1.68,1.68,0,0,1,.16.78,3.33,3.33,0,0,1,0,.48C189.18,41.71,189.15,41.86,189.12,42Zm9.29-6.86h-1.15L196.87,37H198Zm18.32-24H215.5L212.78,24H214ZM178.33,24l1.31-6.12h6.25l0.2-1h-6.21l1-4.64h7l0.22-1h-8.23L177.11,24h1.22ZM193,51.42A2.21,2.21,0,0,0,194.6,51a2.73,2.73,0,0,0,.71-1.39l2.32-10.85h-1.13l-2.29,10.82a1.72,1.72,0,0,1-.34.66,0.93,0.93,0,0,1-.76.28l-0.32,0-0.32,0-0.21.94,0.4,0.05A2.25,2.25,0,0,0,193,51.42Zm9.63-33.65h7.43L208.77,24H210l2.74-12.85h-1.22l-1.19,5.58h-7.43l1.19-5.58h-1.22L200.11,24h1.22ZM187.3,18.89a6.8,6.8,0,0,0,.34,2.23,4.65,4.65,0,0,0,1,1.69,4.27,4.27,0,0,0,1.62,1.07,6.76,6.76,0,0,0,4.89-.19,4.79,4.79,0,0,0,2-1.85h0L196.94,24h0.83l1.35-6.53h-5.49l-0.25,1h4.43a6.62,6.62,0,0,1-.59,1.87,5.23,5.23,0,0,1-1.08,1.49,4.86,4.86,0,0,1-1.53,1,5,5,0,0,1-1.94.36,4.82,4.82,0,0,1-1.81-.31,3.44,3.44,0,0,1-1.3-.9,3.84,3.84,0,0,1-.78-1.4,5.85,5.85,0,0,1-.26-1.8,8,8,0,0,1,.41-2.54,7.51,7.51,0,0,1,1.15-2.2,5.88,5.88,0,0,1,1.79-1.56,4.62,4.62,0,0,1,2.31-.59,4.68,4.68,0,0,1,2.84.78,3,3,0,0,1,1.13,2.4h1.22A4.11,4.11,0,0,0,198,12a5.57,5.57,0,0,0-3.73-1.11,6.4,6.4,0,0,0-5.22,2.45,7.83,7.83,0,0,0-1.33,2.56A10,10,0,0,0,187.3,18.89ZM191.19,48h1.12l2-9.29h-1.13Zm3.89-12.85h-1.13L193.54,37h1.13ZM175.79,23h-7.56l1.08-5.08h6.88l0.23-1h-6.89l1-4.64h7.38l0.23-1h-8.62L166.78,24h8.78Zm30.38,25h1.12l2.77-12.85h-1.13Zm11.54-28.12h-1.21a6.5,6.5,0,0,0-.16,1.46,3.27,3.27,0,0,0,.25,1.35,2.36,2.36,0,0,0,.7.91,2.8,2.8,0,0,0,1.06.5,5.52,5.52,0,0,0,1.33.15,5,5,0,0,0,1.58-.23,3.07,3.07,0,0,0,1.14-.67,3.53,3.53,0,0,0,.77-1.1,7.16,7.16,0,0,0,.48-1.49l2.05-9.61H224.5l-2,9.16a11,11,0,0,1-.3,1.09,3.34,3.34,0,0,1-.49.94A2.25,2.25,0,0,1,221,23a2.58,2.58,0,0,1-1.18.24,3.92,3.92,0,0,1-.85-0.09,2,2,0,0,1-.71-0.3,1.47,1.47,0,0,1-.49-0.55,1.75,1.75,0,0,1-.18-0.83,6.73,6.73,0,0,1,0-.79Q217.64,20.27,217.72,19.88ZM228,19.55l2.86-2.29L234.91,24h1.4l-4.59-7.49,6.59-5.36H236.6L228.3,18l0,0,1.48-6.86h-1.22L225.78,24H227Zm-90.7,4.24a4.89,4.89,0,0,0,1.65-.67A3.49,3.49,0,0,0,140,21.88a3.85,3.85,0,0,0,.43-1.91,2.8,2.8,0,0,0-.58-1.77,2.32,2.32,0,0,0-1.61-.87v0a3.39,3.39,0,0,0,2-1.07,3.08,3.08,0,0,0,.76-2.13,3,3,0,0,0-.28-1.37,2.47,2.47,0,0,0-.77-0.91,3.16,3.16,0,0,0-1.12-.5,5.84,5.84,0,0,0-1.36-.15h-5L129.77,24h5.54A9,9,0,0,0,137.26,23.79Zm-3.69-11.6h4a3.66,3.66,0,0,1,.91.11,2,2,0,0,1,.74.35,1.67,1.67,0,0,1,.5.63,2.2,2.2,0,0,1,.18.93,2.29,2.29,0,0,1-.27,1.14,2.34,2.34,0,0,1-.72.78,3.49,3.49,0,0,1-1,.47,5,5,0,0,1-1.21.18h-4Zm-1.22,5.63h3.87a7,7,0,0,1,1.14.09,2.64,2.64,0,0,1,1,.35,2,2,0,0,1,.68.7,2.29,2.29,0,0,1,.25,1.14,2.49,2.49,0,0,1-.32,1.3,2.71,2.71,0,0,1-.85.88,3.81,3.81,0,0,1-1.18.5,5.51,5.51,0,0,1-1.32.16h-4.36Zm29.93,5.54a6.46,6.46,0,0,0,2.21-1.7,7.31,7.31,0,0,0,1.34-2.47,9.39,9.39,0,0,0,.45-2.91,8.49,8.49,0,0,0-.24-2.11,4,4,0,0,0-.82-1.62,3.76,3.76,0,0,0-1.51-1,6.37,6.37,0,0,0-2.32-.37h-4.14L154.45,24h4.79A7,7,0,0,0,162.28,23.37ZM155.9,23l2.34-10.76h2.94q3.87,0,3.87,3.87a9.73,9.73,0,0,1-.34,2.58,6.35,6.35,0,0,1-1.08,2.21,5.38,5.38,0,0,1-1.88,1.54A5.89,5.89,0,0,1,159,23h-3.1Zm-0.67,25L158,35.15h-1.13l-1.12,5.31h0a2.44,2.44,0,0,0-1.12-1.56,3.82,3.82,0,0,0-1.91-.46,4.15,4.15,0,0,0-2.11.54,5.44,5.44,0,0,0-1.6,1.4,6.41,6.41,0,0,0-1,1.94,6.94,6.94,0,0,0-.35,2.14,4.12,4.12,0,0,0,.87,2.75,3.28,3.28,0,0,0,2.65,1,3.65,3.65,0,0,0,2-.5,4.69,4.69,0,0,0,1.38-1.42h0L154.14,48h1.1Zm-1-2.44A4.43,4.43,0,0,1,153,46.82a3.08,3.08,0,0,1-1.73.5,2.24,2.24,0,0,1-1.89-.79,3.14,3.14,0,0,1-.61-2,6.56,6.56,0,0,1,.25-1.75,5.88,5.88,0,0,1,.75-1.67A4.23,4.23,0,0,1,151,39.88a3.08,3.08,0,0,1,1.72-.49,2.49,2.49,0,0,1,1.92.72,2.75,2.75,0,0,1,.68,2,6.41,6.41,0,0,1-.27,1.79A6,6,0,0,1,154.24,45.56ZM136.69,60.12a3.32,3.32,0,0,0-1.15-.62,4.64,4.64,0,0,0-1.4-.21,4.44,4.44,0,0,0-1.72.32,4.13,4.13,0,0,0-1.36.9,4.25,4.25,0,0,0-.91,1.37,4.91,4.91,0,0,0-.37,1.73h1.13a4.57,4.57,0,0,1,.25-1.3,3.29,3.29,0,0,1,.61-1.07,2.89,2.89,0,0,1,1-.73,3,3,0,0,1,1.29-.27,3.57,3.57,0,0,1,1,.13,2.33,2.33,0,0,1,.82.41,2.11,2.11,0,0,1,.57.7,2.19,2.19,0,0,1,.21,1,2.89,2.89,0,0,1-.35,1.45,4.28,4.28,0,0,1-.93,1.13A8.36,8.36,0,0,1,134,66l-1.52.86q-0.77.43-1.53,0.91a7.86,7.86,0,0,0-1.36,1.08,5.54,5.54,0,0,0-1,1.37,4.33,4.33,0,0,0-.45,1.77h8.14l0.2-1h-7a3.63,3.63,0,0,1,.75-1.24,7.32,7.32,0,0,1,1.13-1,13.48,13.48,0,0,1,1.36-.86l1.42-.81q0.72-.4,1.38-0.84a6.73,6.73,0,0,0,1.16-1,4.47,4.47,0,0,0,.8-1.2,3.63,3.63,0,0,0,.3-1.5,3.21,3.21,0,0,0-.29-1.4A3,3,0,0,0,136.69,60.12ZM245.76,24L246,23H238.9l2.54-11.81h-1.22L237.44,24h8.32Zm21.06,14.71-2,9.29H266l1-4.86a6.37,6.37,0,0,1,.42-1.26,4.21,4.21,0,0,1,.71-1.09,3.37,3.37,0,0,1,1-.77,3.17,3.17,0,0,1,1.34-.31h0.65l0.25-1.13-0.14,0h-0.47a3.17,3.17,0,0,0-2,.63,5.21,5.21,0,0,0-1.33,1.64h0l0.47-2.14h-1Zm6.88,1a2.6,2.6,0,0,1,.74-0.24,4.5,4.5,0,0,1,.78-0.07,3.24,3.24,0,0,1,.88.12,1.88,1.88,0,0,1,.71.37,1.68,1.68,0,0,1,.46.63,2,2,0,0,1,.13.92h1.13a3.3,3.3,0,0,0-.22-1.38,2.4,2.4,0,0,0-.68-0.93,2.77,2.77,0,0,0-1.05-.52,5.29,5.29,0,0,0-1.35-.16,5.13,5.13,0,0,0-1.17.14,3.8,3.8,0,0,0-1.12.45,2.64,2.64,0,0,0-.83.78,2,2,0,0,0-.32,1.16,2.06,2.06,0,0,0,.22,1,2.36,2.36,0,0,0,.57.7,3.49,3.49,0,0,0,.8.5l0.9,0.39,0.9,0.35a4.37,4.37,0,0,1,.8.4,2.17,2.17,0,0,1,.58.53,1.28,1.28,0,0,1,.22.77,1.33,1.33,0,0,1-.22.77,1.86,1.86,0,0,1-.57.53,2.64,2.64,0,0,1-.76.31,3.37,3.37,0,0,1-.79.1,4.38,4.38,0,0,1-1-.11,2.27,2.27,0,0,1-.85-0.38,2,2,0,0,1-.59-0.72A2.52,2.52,0,0,1,271.8,45h-1.12a3.22,3.22,0,0,0,.25,1.5,2.8,2.8,0,0,0,.77,1,3.07,3.07,0,0,0,1.13.58,4.85,4.85,0,0,0,1.32.18,6.23,6.23,0,0,0,1.33-.14,3.8,3.8,0,0,0,1.21-.48,2.65,2.65,0,0,0,.87-0.87,2.5,2.5,0,0,0,.33-1.33,1.85,1.85,0,0,0-.3-1.08,2.85,2.85,0,0,0-.74-0.74,4.68,4.68,0,0,0-1-.51l-1-.41-0.75-.32a3.61,3.61,0,0,1-.62-0.36,1.73,1.73,0,0,1-.43-0.45,1,1,0,0,1-.16-0.58,1.3,1.3,0,0,1,.22-0.79A1.57,1.57,0,0,1,273.7,39.71ZM283.93,23.6a6.7,6.7,0,0,0,2.21-1.76,7.67,7.67,0,0,0,1.36-2.56,9.9,9.9,0,0,0,.46-3,6.3,6.3,0,0,0-.37-2.21,4.62,4.62,0,0,0-2.74-2.78,6,6,0,0,0-2.21-.39,6.43,6.43,0,0,0-3,.66,6.7,6.7,0,0,0-2.2,1.76,7.86,7.86,0,0,0-1.37,2.53,9.42,9.42,0,0,0-.47,3A6.74,6.74,0,0,0,276,21a4.7,4.7,0,0,0,1,1.72,4.64,4.64,0,0,0,1.65,1.11,6,6,0,0,0,2.24.4A6.63,6.63,0,0,0,283.93,23.6ZM278,22a3.78,3.78,0,0,1-.84-1.36,5.16,5.16,0,0,1-.29-1.78,9.44,9.44,0,0,1,.35-2.56,6.92,6.92,0,0,1,1.07-2.23,5.63,5.63,0,0,1,1.79-1.58,5.08,5.08,0,0,1,2.53-.6,4.41,4.41,0,0,1,1.84.35,3.54,3.54,0,0,1,1.29,1,4,4,0,0,1,.76,1.47,6.7,6.7,0,0,1,.24,1.85,7.72,7.72,0,0,1-.39,2.39,7,7,0,0,1-1.12,2.14,6,6,0,0,1-1.76,1.54,4.63,4.63,0,0,1-2.35.59,4.9,4.9,0,0,1-1.78-.31A3.69,3.69,0,0,1,278,22Zm9.46,36.83h-0.77q0.38,1.3.63,2.6a14,14,0,0,1,.25,2.66,17.75,17.75,0,0,1-.28,3.23,15.75,15.75,0,0,1-.82,2.88,16.06,16.06,0,0,1-1.33,2.65,23.38,23.38,0,0,1-1.84,2.53h0.94a21.11,21.11,0,0,0,1.67-2.1A16,16,0,0,0,287.25,71a14.72,14.72,0,0,0,.93-2.54,13.37,13.37,0,0,0,.42-2.76,14.47,14.47,0,0,0-.23-3.47A24,24,0,0,0,287.45,58.88Zm-3.26,5-1.08-1.84,2.07-.45-0.09-.68-2.09.43,0.45-2.23h-0.7l-0.47,2.16-1.84-1-0.38.63,1.82,1-1.49,1.62L280.9,64l1.55-1.66,1.06,1.91Zm-3.89-18.1a4.76,4.76,0,0,0-.1.56,3.55,3.55,0,0,0,0,.4,1.4,1.4,0,0,0,.14.68,1.06,1.06,0,0,0,.39.4,1.48,1.48,0,0,0,.55.19,4.41,4.41,0,0,0,.63,0l0.58,0L283,48l0.2-1a8.26,8.26,0,0,1-1.33.11,0.52,0.52,0,0,1-.46-0.2,0.78,0.78,0,0,1-.13-0.45,2.54,2.54,0,0,1,0-.39q0-.17.1-0.5l1.28-6h1.89l0.18-1h-1.85l0.59-2.81h-1.13l-0.59,2.81h-1.67l-0.22,1h1.68Zm-2.59,20.51h-1.13a11.33,11.33,0,0,1-.38,1.31,3.74,3.74,0,0,1-.61,1.13l-2.3-3.58,1.13-.66a6.54,6.54,0,0,0,1.06-.79,3.93,3.93,0,0,0,.78-1,2.57,2.57,0,0,0,.31-1.26,2,2,0,0,0-.24-1,2.38,2.38,0,0,0-.63-0.73,2.76,2.76,0,0,0-.9-0.45,3.76,3.76,0,0,0-2.27,0,3,3,0,0,0-1,.56,2.62,2.62,0,0,0-.66.86,2.58,2.58,0,0,0-.24,1.13,3.34,3.34,0,0,0,.1.84,4,4,0,0,0,.27.75,5.63,5.63,0,0,0,.4.7l0.46,0.7q-0.69.32-1.36,0.69a6.88,6.88,0,0,0-1.21.84,3.85,3.85,0,0,0-.87,1.09,3.05,3.05,0,0,0-.33,1.47,3.5,3.5,0,0,0,.27,1.42,2.86,2.86,0,0,0,.75,1,3.14,3.14,0,0,0,1.14.62,4.91,4.91,0,0,0,1.46.21,4.84,4.84,0,0,0,2.09-.45,4.56,4.56,0,0,0,1.64-1.31l1,1.51h1.28l-1.49-2.3a8.22,8.22,0,0,0,1-1.63A9.09,9.09,0,0,0,277.71,66.33Zm-5.94-4.39a1.78,1.78,0,0,1,.15-0.75,1.71,1.71,0,0,1,.42-0.58,2,2,0,0,1,1.35-.51,1.93,1.93,0,0,1,1.22.4,1.44,1.44,0,0,1,.5,1.21,1.65,1.65,0,0,1-.27.92,3.32,3.32,0,0,1-.67.75,6.2,6.2,0,0,1-.87.59l-0.84.48-0.34-.57a5.35,5.35,0,0,1-.32-0.62,5.5,5.5,0,0,1-.24-0.66A2.35,2.35,0,0,1,271.77,61.94Zm1.66,9a4,4,0,0,1-1.83.4,2.43,2.43,0,0,1-.93-0.18,2.47,2.47,0,0,1-.77-0.49,2.27,2.27,0,0,1-.51-0.72,2.08,2.08,0,0,1-.19-0.88,2.35,2.35,0,0,1,.3-1.2,3.52,3.52,0,0,1,.76-0.91,5.88,5.88,0,0,1,1-.7c0.37-.2.73-0.39,1.08-0.56l2.54,4A4.49,4.49,0,0,1,273.44,70.92ZM253.88,42.24a5.24,5.24,0,0,0-.22-1.55,3.19,3.19,0,0,0-.66-1.2,3,3,0,0,0-1.1-.77,4,4,0,0,0-1.56-.28,3.58,3.58,0,0,0-2,.51A4.73,4.73,0,0,0,247,40.39h0l0.36-1.67h-1l-2.72,12.71h1.12l1.13-5.27h0a2.41,2.41,0,0,0,.36,1,2.24,2.24,0,0,0,.67.66,2.87,2.87,0,0,0,.9.37,4.59,4.59,0,0,0,1,.12,4.15,4.15,0,0,0,2.11-.54,5.49,5.49,0,0,0,1.6-1.4,6.31,6.31,0,0,0,1-1.93A6.86,6.86,0,0,0,253.88,42.24Zm-1.39,1.68a5.88,5.88,0,0,1-.75,1.67,4.25,4.25,0,0,1-1.24,1.24,3.1,3.1,0,0,1-1.72.49,2.49,2.49,0,0,1-1.92-.72,2.75,2.75,0,0,1-.68-2,6.34,6.34,0,0,1,.27-1.79,6.06,6.06,0,0,1,.78-1.69,4.48,4.48,0,0,1,1.27-1.26,3.08,3.08,0,0,1,1.73-.5,2.24,2.24,0,0,1,1.89.79,3.15,3.15,0,0,1,.61,2A6.56,6.56,0,0,1,252.49,43.92ZM245.74,72h1.51l0.43-1.91h-1.53Zm9.48-8.86-1,5.65H255l1.48-5.63,0.86-4h-1.21Zm10.87,2.92a4.57,4.57,0,0,0-1.11-.59q-0.62-.23-1.29-0.43l-0.36-.11,1-4.93a2.89,2.89,0,0,1,1.83.8,3,3,0,0,1,.64,2.1h1.22a4.26,4.26,0,0,0-.19-1.65,3.13,3.13,0,0,0-.71-1.17,3.33,3.33,0,0,0-1.12-.75,5.86,5.86,0,0,0-1.45-.38l0.21-1H264l-0.2.94a8.33,8.33,0,0,0-1.77.19,4.78,4.78,0,0,0-1.56.62,3.39,3.39,0,0,0-1.11,1.13,3.29,3.29,0,0,0-.42,1.73,2.66,2.66,0,0,0,.7,2,4.12,4.12,0,0,0,1.84,1l0.87,0.25-1.13,5.33a3.15,3.15,0,0,1-2-1,3.23,3.23,0,0,1-.64-2.37h-1.21a5,5,0,0,0,.19,1.77,3.42,3.42,0,0,0,.73,1.3,3.7,3.7,0,0,0,1.18.85,5.5,5.5,0,0,0,1.54.45l-0.36,1.64h0.81l0.32-1.55,0.2,0h0.22a6.3,6.3,0,0,0,2.54-.43,4.23,4.23,0,0,0,1.51-1.05,3.36,3.36,0,0,0,.73-1.3,4.46,4.46,0,0,0,.19-1.16,2.85,2.85,0,0,0-.29-1.35A2.66,2.66,0,0,0,266.1,66.06Zm-3.76-1.44-0.79-.28a2.53,2.53,0,0,1-.69-0.4,2,2,0,0,1-.49-0.59,1.79,1.79,0,0,1-.19-0.85,2.26,2.26,0,0,1,.3-1.21,2.4,2.4,0,0,1,.78-0.79,3.42,3.42,0,0,1,1.1-.44,5.76,5.76,0,0,1,1.24-.13l-1,4.77Zm3.27,5.09a2.72,2.72,0,0,1-.86.85,4,4,0,0,1-1.18.5,5.23,5.23,0,0,1-1.28.16l-0.27,0,1.1-5.18,1,0.31a3.61,3.61,0,0,1,.91.43,2.19,2.19,0,0,1,.66.67,1.93,1.93,0,0,1,.25,1A2.25,2.25,0,0,1,265.61,69.71ZM253.18,72h1.51l0.43-1.91h-1.53Zm-1.78-12.37a3.38,3.38,0,0,0-1.12-.57,4.55,4.55,0,0,0-1.31-.19,4.9,4.9,0,0,0-1.75.3,3.66,3.66,0,0,0-1.33.85,4,4,0,0,0-.87,1.34,5.19,5.19,0,0,0-.35,1.75h1.13a4.67,4.67,0,0,1,.28-1.3,3.38,3.38,0,0,1,.62-1,2.78,2.78,0,0,1,1-.7,3,3,0,0,1,1.26-.25,2.6,2.6,0,0,1,1.74.57,2.06,2.06,0,0,1,.67,1.67,2.16,2.16,0,0,1-.18.88,3.4,3.4,0,0,1-.47.77,4.32,4.32,0,0,1-.66.66q-0.37.3-.75,0.55l-1,.78a4.66,4.66,0,0,0-.77.76,3.55,3.55,0,0,0-.53.94,5.87,5.87,0,0,0-.31,1.32h1.13a9.35,9.35,0,0,1,.23-0.92,3.25,3.25,0,0,1,.32-0.72,3,3,0,0,1,.5-0.61,4.9,4.9,0,0,1,.78-0.58q0.56-.38,1.07-0.77a6.24,6.24,0,0,0,.92-0.86,3.92,3.92,0,0,0,.65-1,3.35,3.35,0,0,0,.24-1.31,2.89,2.89,0,0,0-.29-1.32A2.79,2.79,0,0,0,251.39,59.63Zm96.15-48.49h-10l-0.22,1h4.41L339.13,24h1.22l2.57-11.81h4.41Zm8.26,8.69a4.3,4.3,0,0,1-1.38,2.51,4.17,4.17,0,0,1-2.78.87,5.78,5.78,0,0,1-1.44-.17,3.18,3.18,0,0,1-1.13-.52,2.36,2.36,0,0,1-.72-0.87,2.49,2.49,0,0,1-.22-1.22,4.47,4.47,0,0,1,.13-1.12L350,11.15h-1.22L347,19.54a6.12,6.12,0,0,0-.11,1,3.44,3.44,0,0,0,.39,1.71,3.27,3.27,0,0,0,1,1.13,4.54,4.54,0,0,0,1.47.63,7.08,7.08,0,0,0,1.66.2,6.08,6.08,0,0,0,3.63-1,5.13,5.13,0,0,0,1.9-3.29l1.84-8.78h-1.22Zm29.92-8.69-5.26,11.32h0l-0.88-11.32h-1.48l-5.47,11.43h0L371.9,11.15h-2.5L362.81,23h0l-1.64-11.81h-1.26l2,12.85h1.42l7.37-12.77L371.63,24H373l5.62-11.68h0L379.48,24h1.33L387,11.15h-1.28Zm21.1,0-5.38,6.52-2.9-6.52h-2.63l-4.66,5.4-2.66-5.4h-1.35l3.17,6.16L384.52,24h1.42l5-5.72L393.84,24h1.3l-3.35-6.5,5.5-6.26,3.38,7.45L399.5,24h1.24l1.13-5.18,6.44-7.67h-1.49Zm10.84,0h-9.27l-0.23,1H416L405.74,22.92,405.51,24h10l0.23-1h-8.57l10.28-10.78ZM332,38.71l-4.29,7.88h0l-1.33-7.88h-1.19L326.85,48,326,49.46a3,3,0,0,1-.58.68,1.27,1.27,0,0,1-.88.32,8.62,8.62,0,0,1-1-.05l-0.21.92,0.49,0.05a3.32,3.32,0,0,0,.48,0,2.42,2.42,0,0,0,2.25-1.24l6.61-11.47H332Zm-34.69,8h0l-1.1-8H295L296.43,48h1.22l5.24-9.29h-1.24Zm17.66-8L311,46.56h0l-0.63-7.85H309l-3.83,7.92h0l-0.74-7.92h-1.19L304.29,48h1.24l3.81-7.79h0L310.05,48h1.22l4.88-9.29H315Zm-173.1,9.54a4.39,4.39,0,0,0,2.75-.82A4.85,4.85,0,0,0,146.19,45h-1.13a3.73,3.73,0,0,1-1.14,1.67,2.91,2.91,0,0,1-1.92.65,2.81,2.81,0,0,1-1.15-.22,2.21,2.21,0,0,1-.81-0.6,2.46,2.46,0,0,1-.48-0.92,4.06,4.06,0,0,1-.15-1.14,6.88,6.88,0,0,1,.24-1.8,5.14,5.14,0,0,1,.75-1.62,4.09,4.09,0,0,1,1.25-1.17,3.37,3.37,0,0,1,1.77-.45,2.72,2.72,0,0,1,.93.15,2.08,2.08,0,0,1,.72.43,1.87,1.87,0,0,1,.46.69,2.13,2.13,0,0,1,.13.94h1.13a3.38,3.38,0,0,0-.23-1.4,2.6,2.6,0,0,0-.72-1,3,3,0,0,0-1.12-.58,5,5,0,0,0-1.4-.19,4.23,4.23,0,0,0-2.12.53,5.21,5.21,0,0,0-1.58,1.38,6.26,6.26,0,0,0-1,1.93,7.11,7.11,0,0,0-.34,2.16,4,4,0,0,0,.93,2.77A3.37,3.37,0,0,0,141.85,48.25Zm182.93-9.54h-1.37l-3.2,3.65-1.69-3.65h-1.29l2.18,4.39L315,48h1.33l3.56-4,2,4h1.3l-2.47-4.79Zm-33,4.77a6.85,6.85,0,0,1-.56,1.59,4.92,4.92,0,0,1-.84,1.21,3.56,3.56,0,0,1-1,.77,2.76,2.76,0,0,1-1.2.27,2.9,2.9,0,0,1-.73-0.09,1.76,1.76,0,0,1-.62-0.29,1.42,1.42,0,0,1-.43-0.52,1.7,1.7,0,0,1-.16-0.77,3.33,3.33,0,0,1,0-.48c0-.16.05-0.32,0.09-0.46l1.3-6h-1.13l-1.28,6a6.12,6.12,0,0,0-.14,1.1,2.85,2.85,0,0,0,.21,1.14,2,2,0,0,0,.59.77,2.43,2.43,0,0,0,.89.43,4.42,4.42,0,0,0,1.13.13,3.49,3.49,0,0,0,1.92-.56,4.47,4.47,0,0,0,1.4-1.39h0L290.87,48h1l2-9.29h-1.13Zm41.72-3.82H339l-7.16,7.42-0.2.92H339l0.2-1h-6l7.22-7.43,0.2-.9h-7Zm-153.18-1-0.4,1.91h0a2.33,2.33,0,0,0-.38-1,2.47,2.47,0,0,0-.71-0.68,3.28,3.28,0,0,0-.93-0.4,3.93,3.93,0,0,0-1-.14,4.07,4.07,0,0,0-2,.49,4.79,4.79,0,0,0-1.49,1.28,5.87,5.87,0,0,0-.94,1.79,6.56,6.56,0,0,0-.32,2,4.8,4.8,0,0,0,.22,1.49,3.56,3.56,0,0,0,.66,1.2,3,3,0,0,0,1.08.8,3.59,3.59,0,0,0,1.48.29,4,4,0,0,0,1.82-.44,3.11,3.11,0,0,0,1.35-1.27l0,0q-0.11.4-.22,0.89c-0.07.33-.16,0.66-0.27,1a7.33,7.33,0,0,1-.4,1,3.36,3.36,0,0,1-.61.87,2.88,2.88,0,0,1-.89.61,3,3,0,0,1-1.24.23,4.7,4.7,0,0,1-1-.1,2.43,2.43,0,0,1-.83-0.33,1.8,1.8,0,0,1-.59-0.63,2,2,0,0,1-.22-1h-1.12a3.29,3.29,0,0,0,.3,1.4,2.52,2.52,0,0,0,.78.93,3.23,3.23,0,0,0,1.13.51,5.49,5.49,0,0,0,1.36.16,5.42,5.42,0,0,0,1.85-.28,3.37,3.37,0,0,0,1.3-.85,4.58,4.58,0,0,0,.9-1.45,12.12,12.12,0,0,0,.61-2.09l1.77-8.32h-1Zm-1.13,5.12a5.15,5.15,0,0,1-.74,1.49,4.08,4.08,0,0,1-1.17,1.1,2.87,2.87,0,0,1-1.55.42,2.46,2.46,0,0,1-1.12-.23,2.23,2.23,0,0,1-.78-0.64,2.61,2.61,0,0,1-.46-0.93,4.11,4.11,0,0,1-.14-1.12,5.46,5.46,0,0,1,.24-1.59,4.87,4.87,0,0,1,.72-1.46,4,4,0,0,1,1.16-1.07,2.94,2.94,0,0,1,1.55-.41,2.88,2.88,0,0,1,1.17.22,2.11,2.11,0,0,1,.79.59,2.35,2.35,0,0,1,.44.9,4.54,4.54,0,0,1,.13,1.13A5.4,5.4,0,0,1,179.16,43.83Zm1.21,16.77h6.86A30.1,30.1,0,0,0,183,65.9a32,32,0,0,0-1.61,2.9,21.17,21.17,0,0,0-1.23,3.2h1.26a26.39,26.39,0,0,1,1-2.74A27.64,27.64,0,0,1,186,63.34a26,26,0,0,1,2.47-2.81l0.23-1h-8Zm19.31-16,2-1.66,2.46,5h1.24l-2.81-5.71L207,38.71h-1.51L200,43.25l0,0,1.73-8.06h-1.13L197.84,48H199Zm-3,15.35a3.57,3.57,0,0,0-1.21-.53,5.92,5.92,0,0,0-1.39-.16,4.53,4.53,0,0,0-1.42.22,3.76,3.76,0,0,0-1.21.65,3.19,3.19,0,0,0-.84,1,3,3,0,0,0-.32,1.4,2.72,2.72,0,0,0,.47,1.56,2.43,2.43,0,0,0,1.33,1v0a4.18,4.18,0,0,0-1.31.35,3.5,3.5,0,0,0-1.05.73,3.39,3.39,0,0,0-.7,1.07,3.52,3.52,0,0,0-.26,1.38,3.63,3.63,0,0,0,.32,1.59,3.1,3.1,0,0,0,.87,1.11,3.79,3.79,0,0,0,1.27.65,5.31,5.31,0,0,0,1.53.22,5.55,5.55,0,0,0,1.66-.25,4.45,4.45,0,0,0,1.44-.75,3.81,3.81,0,0,0,1-1.22,3.49,3.49,0,0,0,.39-1.67,3.39,3.39,0,0,0-.52-1.86,2.67,2.67,0,0,0-1.57-1.12v0a3.3,3.3,0,0,0,1.06-.35,3.13,3.13,0,0,0,.85-0.66,2.88,2.88,0,0,0,.56-0.91,3.07,3.07,0,0,0,.2-1.11,2.9,2.9,0,0,0-.31-1.4A2.74,2.74,0,0,0,196.63,60Zm-1.45,6.37a2.12,2.12,0,0,1,.66.77,2.58,2.58,0,0,1,.24,1.18,3,3,0,0,1-.25,1.26,2.75,2.75,0,0,1-.69.95,3.12,3.12,0,0,1-1,.59,3.85,3.85,0,0,1-1.28.21,4.31,4.31,0,0,1-1.16-.15,2.56,2.56,0,0,1-.95-0.48,2.3,2.3,0,0,1-.63-0.82,2.69,2.69,0,0,1-.23-1.16,2.9,2.9,0,0,1,.24-1.21,2.71,2.71,0,0,1,.67-0.92,3,3,0,0,1,1-.58,3.59,3.59,0,0,1,1.22-.21,5.23,5.23,0,0,1,1.21.13A2.78,2.78,0,0,1,195.18,66.36Zm1.26-2.91a2.31,2.31,0,0,1-.59.76,2.4,2.4,0,0,1-.86.47,3.53,3.53,0,0,1-1.05.15,3.73,3.73,0,0,1-1-.13,2.3,2.3,0,0,1-.82-0.4,2,2,0,0,1-.56-0.68,2.14,2.14,0,0,1-.21-1,2.22,2.22,0,0,1,.83-1.78,2.73,2.73,0,0,1,.86-0.47,3.22,3.22,0,0,1,1-.16,3.8,3.8,0,0,1,1,.13,2.42,2.42,0,0,1,.82.39,1.8,1.8,0,0,1,.55.67,2.2,2.2,0,0,1,.2,1A2.38,2.38,0,0,1,196.44,63.45Zm-24.73-1.31a4.71,4.71,0,0,1,1.2-1.35,2.79,2.79,0,0,1,1.74-.54,2.15,2.15,0,0,1,2.43,2.34h1.13a3.11,3.11,0,0,0-.94-2.48,3.78,3.78,0,0,0-2.56-.81,4.38,4.38,0,0,0-1.46.23,4.33,4.33,0,0,0-1.21.65,5.48,5.48,0,0,0-1,1,7.87,7.87,0,0,0-.78,1.23,11.45,11.45,0,0,0-1,2.84A14.42,14.42,0,0,0,169,68a6,6,0,0,0,.22,1.69,3.81,3.81,0,0,0,.68,1.34,3.1,3.1,0,0,0,1.17.88,4.09,4.09,0,0,0,1.67.32,5,5,0,0,0,1.87-.34A4.17,4.17,0,0,0,177,69.49a5.16,5.16,0,0,0,.33-1.88,4.4,4.4,0,0,0-.25-1.49,3.57,3.57,0,0,0-.72-1.21,3.37,3.37,0,0,0-1.13-.81,3.63,3.63,0,0,0-1.49-.3,4.07,4.07,0,0,0-1.91.46,3.5,3.5,0,0,0-1.4,1.32h0q0.2-.77.5-1.7A8.55,8.55,0,0,1,171.71,62.14ZM171,65.86a3.28,3.28,0,0,1,1-.81,2.83,2.83,0,0,1,1.31-.31,3.32,3.32,0,0,1,1.13.19,2.72,2.72,0,0,1,.91.54,2.45,2.45,0,0,1,.6.86,2.84,2.84,0,0,1,.21,1.13A5,5,0,0,1,176,68.9a3.69,3.69,0,0,1-.63,1.23,3.21,3.21,0,0,1-1,.86,3,3,0,0,1-1.43.32,2.76,2.76,0,0,1-1.16-.23,2.5,2.5,0,0,1-.86-0.64,2.89,2.89,0,0,1-.54-0.94,3.49,3.49,0,0,1-.19-1.15,4,4,0,0,1,.22-1.33A3.62,3.62,0,0,1,171,65.86Zm1.11-26.2,0.22-1h-1.84l0.27-1.3a1.92,1.92,0,0,1,.5-1,1.65,1.65,0,0,1,1.13-.32,1.73,1.73,0,0,1,.35,0l0.35,0.07,0.2-.94a2.42,2.42,0,0,0-.58-0.11l-0.59,0a2.24,2.24,0,0,0-1.71.59,3.28,3.28,0,0,0-.77,1.62l-0.29,1.35h-1.6l-0.22,1h1.62L167.35,48h1.13l1.84-8.33h1.82ZM146.66,60.08a3.5,3.5,0,0,0-1.13-.58,4.48,4.48,0,0,0-1.34-.2,3.94,3.94,0,0,0-2.94,1.07,5.31,5.31,0,0,0-1.38,2.87H141a4,4,0,0,1,1-2.18,2.84,2.84,0,0,1,2.17-.81,3,3,0,0,1,.93.14,2.43,2.43,0,0,1,.77.41,2,2,0,0,1,.54.68,2.13,2.13,0,0,1,.21,1,2.46,2.46,0,0,1-.29,1.26,2.08,2.08,0,0,1-.76.76,3,3,0,0,1-1.05.36,7.57,7.57,0,0,1-1.16.09H142.6l-0.2,1H143a4.77,4.77,0,0,1,1.08.12,2.45,2.45,0,0,1,.89.4,2,2,0,0,1,.61.72,2.37,2.37,0,0,1,.22,1.09,3,3,0,0,1-.27,1.28,3,3,0,0,1-.74,1,3.39,3.39,0,0,1-1.08.64,3.77,3.77,0,0,1-1.31.22,2.51,2.51,0,0,1-2.16-.92,3.6,3.6,0,0,1-.61-2.39h-1.13a5.82,5.82,0,0,0,.17,1.72,3.46,3.46,0,0,0,.68,1.35,3.06,3.06,0,0,0,1.26.87,5.59,5.59,0,0,0,3.54,0,4.25,4.25,0,0,0,1.42-.8,3.9,3.9,0,0,0,1-1.3,4.05,4.05,0,0,0,.37-1.76,3,3,0,0,0-.47-1.69,2.25,2.25,0,0,0-1.4-1v0a3.67,3.67,0,0,0,1.06-.37,3.1,3.1,0,0,0,.84-0.65,2.87,2.87,0,0,0,.55-0.9,3.29,3.29,0,0,0-.09-2.47A2.78,2.78,0,0,0,146.66,60.08Zm10.61-.68h-1l-7.72,8.41-0.18,1.06h5.74L153.42,72h1.13l0.68-3.13h1.89l0.22-1h-1.91Zm-3,8.51h-4.64l6-6.57,0,0ZM159.45,66l1,0.09a2.52,2.52,0,0,1,1.19-1.13,3.94,3.94,0,0,1,1.6-.32,2.54,2.54,0,0,1,2.08.82,3.24,3.24,0,0,1,.68,2.13,4.05,4.05,0,0,1-.25,1.43,3.72,3.72,0,0,1-.72,1.2,3.47,3.47,0,0,1-1.12.83,3.37,3.37,0,0,1-1.46.31,2.75,2.75,0,0,1-2.08-.76,2.57,2.57,0,0,1-.6-2.12h-1.13a4.13,4.13,0,0,0,.19,1.59,3.1,3.1,0,0,0,1.92,2,4.52,4.52,0,0,0,1.58.26,5.14,5.14,0,0,0,2-.36,4.5,4.5,0,0,0,1.52-1,4.38,4.38,0,0,0,1-1.55,5.52,5.52,0,0,0,.34-2,4.3,4.3,0,0,0-.24-1.47,3.45,3.45,0,0,0-.69-1.17,3.24,3.24,0,0,0-1.1-.78,3.56,3.56,0,0,0-1.46-.29,5,5,0,0,0-1.51.23,3.06,3.06,0,0,0-1.26.76h0l1.35-4h5.51l0.25-1h-6.43Zm2.27-17.72a4.25,4.25,0,0,0,2.72-.83A4.66,4.66,0,0,0,165.95,45h-1.13a3.4,3.4,0,0,1-1.12,1.67,3.25,3.25,0,0,1-3.12.41,2.32,2.32,0,0,1-.85-0.61,2.51,2.51,0,0,1-.5-0.93,4.08,4.08,0,0,1-.16-1.17,4.49,4.49,0,0,1,.05-0.72h7.27c0-.28.06-0.55,0.07-0.81s0-.53,0-0.79a4.47,4.47,0,0,0-.23-1.48,3.07,3.07,0,0,0-1.8-1.88,4,4,0,0,0-1.49-.26,4.42,4.42,0,0,0-2.12.5,5,5,0,0,0-1.58,1.33,5.91,5.91,0,0,0-1,1.88,7.19,7.19,0,0,0-.33,2.17,4.08,4.08,0,0,0,1,2.88A3.64,3.64,0,0,0,161.72,48.25Zm-2-6.79a4.19,4.19,0,0,1,.77-1.05,3.77,3.77,0,0,1,1-.74,3,3,0,0,1,1.29-.28,2.46,2.46,0,0,1,1.86.7,2.61,2.61,0,0,1,.68,1.89c0,0.12,0,.24,0,0.35s0,0.24,0,.37h-6.07A5.14,5.14,0,0,1,159.72,41.47Zm47.1,19a3.18,3.18,0,0,0-1.17-.89,4,4,0,0,0-1.67-.32,5,5,0,0,0-1.87.34,4.18,4.18,0,0,0-1.45,1,4.34,4.34,0,0,0-.94,1.48,5.12,5.12,0,0,0-.33,1.88,4.39,4.39,0,0,0,.25,1.49,3.57,3.57,0,0,0,.72,1.21,3.37,3.37,0,0,0,1.13.81,3.63,3.63,0,0,0,1.49.3,4.06,4.06,0,0,0,1.91-.46A3.5,3.5,0,0,0,206.3,66h0q-0.2.77-.51,1.7a8.55,8.55,0,0,1-.79,1.74,4.71,4.71,0,0,1-1.2,1.35,2.79,2.79,0,0,1-1.74.54A2.15,2.15,0,0,1,199.68,69h-1.13a3.09,3.09,0,0,0,.94,2.48,3.81,3.81,0,0,0,2.56.8,4.34,4.34,0,0,0,1.47-.23,4.62,4.62,0,0,0,1.21-.64,4.87,4.87,0,0,0,1-1,8.39,8.39,0,0,0,.77-1.23,11.44,11.44,0,0,0,1-2.84,14.42,14.42,0,0,0,.3-2.79,6.06,6.06,0,0,0-.22-1.68A3.8,3.8,0,0,0,206.82,60.51Zm-0.45,4a3.65,3.65,0,0,1-.65,1.15,3.32,3.32,0,0,1-1,.81,2.8,2.8,0,0,1-1.32.31,3.32,3.32,0,0,1-1.13-.19,2.72,2.72,0,0,1-.91-0.54,2.45,2.45,0,0,1-.6-0.86,2.88,2.88,0,0,1-.21-1.13,5,5,0,0,1,.21-1.43,3.69,3.69,0,0,1,.63-1.23,3.21,3.21,0,0,1,1-.86,3,3,0,0,1,1.43-.32,2.78,2.78,0,0,1,1.16.23,2.5,2.5,0,0,1,.86.64,2.89,2.89,0,0,1,.54.94,3.49,3.49,0,0,1,.19,1.15A4,4,0,0,1,206.37,64.55ZM233.5,72h0.76c0,0.18-.1.36-0.16,0.55a2.48,2.48,0,0,1-.22.5,1.76,1.76,0,0,1-.33.41,1.27,1.27,0,0,1-.5.27l-0.14.72a4.53,4.53,0,0,0,.76-0.25,1.9,1.9,0,0,0,.55-0.36,2.19,2.19,0,0,0,.39-0.51,3.14,3.14,0,0,0,.27-0.73l0.59-2.5h-1.51Zm8.93-32.6a3.24,3.24,0,0,0-1.16-.71,4.36,4.36,0,0,0-1.49-.24,4.69,4.69,0,0,0-2.2.5,5.13,5.13,0,0,0-1.63,1.33,5.84,5.84,0,0,0-1,1.91,7.33,7.33,0,0,0-.34,2.21,4,4,0,0,0,1,2.81,3.54,3.54,0,0,0,2.75,1,4.66,4.66,0,0,0,2.26-.52,4.84,4.84,0,0,0,1.6-1.39,6.22,6.22,0,0,0,1-2,8.19,8.19,0,0,0,.32-2.29,4.12,4.12,0,0,0-.27-1.54A3.22,3.22,0,0,0,242.43,39.4ZM242.08,44a5.8,5.8,0,0,1-.72,1.62,4.19,4.19,0,0,1-1.19,1.21,2.89,2.89,0,0,1-1.65.48,2.56,2.56,0,0,1-2.11-.84,3.35,3.35,0,0,1-.68-2.19,6.07,6.07,0,0,1,.25-1.68,5.48,5.48,0,0,1,.74-1.58,4.16,4.16,0,0,1,1.21-1.17,3,3,0,0,1,1.66-.46,2.54,2.54,0,0,1,2.05.81,3.16,3.16,0,0,1,.68,2.11A6.44,6.44,0,0,1,242.08,44Zm-7,20.9h1.51L237.07,63h-1.53Zm-1.77-24a2.85,2.85,0,0,0-.21-1.14,2,2,0,0,0-.58-0.77,2.54,2.54,0,0,0-.89-0.44,4.17,4.17,0,0,0-1.12-.14,3.45,3.45,0,0,0-1.92.57,4.54,4.54,0,0,0-1.39,1.39h0l0.32-1.69h-1l-2,9.29h1.12l1-4.77a6.26,6.26,0,0,1,.54-1.59,4.86,4.86,0,0,1,.85-1.21,3.66,3.66,0,0,1,1.06-.76,2.76,2.76,0,0,1,1.19-.27,3,3,0,0,1,.73.09,1.83,1.83,0,0,1,.62.29,1.45,1.45,0,0,1,.43.51,1.71,1.71,0,0,1,.16.78,3.08,3.08,0,0,1,0,.48,4.34,4.34,0,0,1-.09.46l-1.29,6h1.13l1.28-6A6.1,6.1,0,0,0,233.36,40.94ZM238.51,72H240l0.43-1.91h-1.53ZM217.2,60.61a2.91,2.91,0,0,0-1.1-1,3.69,3.69,0,0,0-1.69-.35,3.89,3.89,0,0,0-1.76.4,5,5,0,0,0-1.41,1.05,6.51,6.51,0,0,0-1.06,1.52,12.37,12.37,0,0,0-.74,1.78,11.29,11.29,0,0,0-.43,1.84,12,12,0,0,0-.13,1.72,9,9,0,0,0,.16,1.7,4.65,4.65,0,0,0,.55,1.49,3,3,0,0,0,1.05,1.05,3.24,3.24,0,0,0,1.67.4,4.23,4.23,0,0,0,1.86-.4,4.91,4.91,0,0,0,1.45-1.06,6.7,6.7,0,0,0,1.08-1.54,10.18,10.18,0,0,0,.73-1.83,13.25,13.25,0,0,0,.41-1.92A13.08,13.08,0,0,0,218,63.7a7.56,7.56,0,0,0-.18-1.69A4.1,4.1,0,0,0,217.2,60.61ZM216.74,65a13.82,13.82,0,0,1-.86,3.38,6.81,6.81,0,0,1-.81,1.49,4.19,4.19,0,0,1-1.1,1.06,2.5,2.5,0,0,1-1.39.4,2.53,2.53,0,0,1-1.25-.28,2.2,2.2,0,0,1-.79-0.75,3.05,3.05,0,0,1-.41-1.07A6.55,6.55,0,0,1,210,68a10.54,10.54,0,0,1,.11-1.39,15.21,15.21,0,0,1,.32-1.67,12.13,12.13,0,0,1,.56-1.69,7.34,7.34,0,0,1,.82-1.49,4.21,4.21,0,0,1,1.09-1.07,2.45,2.45,0,0,1,1.38-.4,2.57,2.57,0,0,1,1.27.28,2.15,2.15,0,0,1,.78.75,3.07,3.07,0,0,1,.4,1.06,7.09,7.09,0,0,1,.11,1.24A11.72,11.72,0,0,1,216.74,65Zm23.39-.07h1.51L242.07,63h-1.53Zm-16.43-6A19.6,19.6,0,0,0,222,61a15.6,15.6,0,0,0-1.35,2.33,14.9,14.9,0,0,0-.93,2.56,13.49,13.49,0,0,0-.42,2.75,14.36,14.36,0,0,0,.23,3.46,24.08,24.08,0,0,0,.92,3.35h0.77q-0.38-1.3-.63-2.59a13.84,13.84,0,0,1-.25-2.65,17.57,17.57,0,0,1,.28-3.23,15.52,15.52,0,0,1,.82-2.87,16,16,0,0,1,1.34-2.65,25.19,25.19,0,0,1,1.84-2.56h-0.94Zm-3-19.48a1.76,1.76,0,0,1,1.34.45,1.59,1.59,0,0,1,.42,1.13,4.3,4.3,0,0,1-.11.94L221,48h1.13l1.3-6c0-.19.06-0.37,0.09-0.55a3.83,3.83,0,0,0,0-.51,2.54,2.54,0,0,0-.61-1.76,2.51,2.51,0,0,0-2-.68,3.32,3.32,0,0,0-1.88.56,4.68,4.68,0,0,0-1.38,1.42h0a2.09,2.09,0,0,0-.68-1.49,2.37,2.37,0,0,0-1.57-.5,3.44,3.44,0,0,0-1.91.56,4.38,4.38,0,0,0-1.37,1.37l0,0,0.36-1.62h-1l-2,9.29h1.12l1-4.72a7.24,7.24,0,0,1,.51-1.52,5.37,5.37,0,0,1,.78-1.23,3.67,3.67,0,0,1,1-.83,2.4,2.4,0,0,1,1.17-.31,1.41,1.41,0,0,1,1.2.49,1.88,1.88,0,0,1,.37,1.17,4,4,0,0,1-.11.9l-1.3,6h1.13l0.92-4.28a15,15,0,0,1,.47-1.68,5.66,5.66,0,0,1,.68-1.37,3.27,3.27,0,0,1,1-.93A2.39,2.39,0,0,1,220.7,39.4ZM228.5,72H230l0.43-1.91h-1.53Zm-5,0h0.76c0,0.18-.1.36-0.16,0.55a2.48,2.48,0,0,1-.22.5,1.76,1.76,0,0,1-.33.41,1.27,1.27,0,0,1-.5.27l-0.14.72a4.53,4.53,0,0,0,.76-0.25,1.9,1.9,0,0,0,.55-0.36,2.19,2.19,0,0,0,.39-0.51,3.14,3.14,0,0,0,.27-0.73l0.59-2.5h-1.51Z"/></svg>