<svg xmlns="http://www.w3.org/2000/svg" viewBox="0 0 235 80"><path fill="#0085ca" d="M73.44,24.49q-0.62-1.35-1.35-2.64a0.08,0.08,0,0,0-.11,0l-1.73,1a0.08,0.08,0,0,0,0,.11q0.68,1.21,1.27,2.48a0.08,0.08,0,0,0,.1,0l1.81-.83A0.08,0.08,0,0,0,73.44,24.49ZM67,24.64l-1.75,1a0.08,0.08,0,0,0,0,.11q0.56,1,1,2a0.08,0.08,0,0,0,.1,0L68.2,27a0.08,0.08,0,0,0,0-.11q-0.52-1.12-1.12-2.19A0.08,0.08,0,0,0,67,24.64Zm2.49-1.41-1.74,1a0.08,0.08,0,0,0,0,.11q0.62,1.1,1.15,2.25a0.08,0.08,0,0,0,.1,0l1.82-.83a0.08,0.08,0,0,0,0-.11q-0.57-1.24-1.24-2.42A0.08,0.08,0,0,0,69.5,23.22ZM64,29.61c0.27,0.62.51,1.25,0.72,1.89a0.08,0.08,0,0,0,.1,0l1.89-.63a0.08,0.08,0,0,0,.05-0.1c-0.24-.7-0.5-1.39-0.79-2.06a0.08,0.08,0,0,0-.11,0l-1.83.8A0.08,0.08,0,0,0,64,29.61ZM63,14.85a0.08,0.08,0,0,0-.11,0L61.5,16.33a0.08,0.08,0,0,0,0,.11q0.93,0.86,1.79,1.79a0.08,0.08,0,0,0,.11,0l1.48-1.35a0.08,0.08,0,0,0,0-.11Q64,15.77,63,14.85ZM42.13,59.79c0.48-.06,1-0.13,1.43-0.22a0.08,0.08,0,0,0,.06-0.1l-0.4-2a0.08,0.08,0,0,0-.09-0.06c-0.41.08-.83,0.14-1.25,0.2a0.08,0.08,0,0,0-.07.09l0.23,2A0.08,0.08,0,0,0,42.13,59.79ZM60.22,12.55a0.08,0.08,0,0,0-.11,0l-1.19,1.61a0.08,0.08,0,0,0,0,.11c0.68,0.51,1.33,1,2,1.6a0.08,0.08,0,0,0,.11,0l1.33-1.5a0.08,0.08,0,0,0,0-.11C61.64,13.67,60.94,13.09,60.22,12.55ZM71,37.13a0.08,0.08,0,0,0-.09-0.07l-2,.19a0.08,0.08,0,0,0-.07.09q0.1,1.12.12,2.27a0.08,0.08,0,0,0,.08.08l2,0a0.08,0.08,0,0,0,.08-0.08Q71.11,38.35,71,37.13ZM65.84,51.29a0.08,0.08,0,0,0,.11,0c0.29-.67.55-1.36,0.79-2.06a0.08,0.08,0,0,0-.05-0.1l-1.89-.63a0.08,0.08,0,0,0-.1,0c-0.22.64-.46,1.27-0.72,1.89a0.08,0.08,0,0,0,0,.1Zm-1.58-3.7c0.19-.62.36-1.25,0.5-1.89a0.08,0.08,0,0,0-.06-0.1l-1.94-.43a0.08,0.08,0,0,0-.09.06c-0.13.58-.28,1.15-0.45,1.71a0.08,0.08,0,0,0,.05.1l1.9,0.6A0.08,0.08,0,0,0,64.25,47.58Zm-2.12,4.93q0.48-.85.89-1.74a0.08,0.08,0,0,0,0-.11l-1.81-.83a0.08,0.08,0,0,0-.1,0q-0.37.81-.81,1.58a0.08,0.08,0,0,0,0,.11l1.73,1A0.08,0.08,0,0,0,62.13,52.51ZM57.89,7.64q-1.29-.73-2.64-1.35a0.08,0.08,0,0,0-.11,0L54.31,8.14a0.08,0.08,0,0,0,0,.1q1.27,0.59,2.48,1.27a0.08,0.08,0,0,0,.11,0l1-1.73A0.08,0.08,0,0,0,57.89,7.64ZM68.47,52.43a0.08,0.08,0,0,0,.11,0c0.32-.75.62-1.52,0.88-2.3a0.08,0.08,0,0,0-.05-0.1l-1.9-.64a0.08,0.08,0,0,0-.1,0q-0.37,1.08-.81,2.13a0.08,0.08,0,0,0,0,.1ZM71,42.87q0.11-1.22.13-2.46A0.08,0.08,0,0,0,71,40.33l-2,0a0.08,0.08,0,0,0-.08.08q0,1.15-.12,2.27a0.08,0.08,0,0,0,.07.09l2,0.19A0.08,0.08,0,0,0,71,42.87Zm-0.47,3.25c0.16-.8.28-1.61,0.38-2.43a0.08,0.08,0,0,0-.07-0.09l-2-.23a0.08,0.08,0,0,0-.09.07c-0.09.76-.2,1.51-0.35,2.25a0.08,0.08,0,0,0,.06.09l2,0.4A0.08,0.08,0,0,0,70.53,46.12Zm-0.81,3.19c0.24-.78.45-1.57,0.63-2.38a0.08,0.08,0,0,0-.06-0.1l-2-.43a0.08,0.08,0,0,0-.09.06c-0.17.74-.36,1.48-0.58,2.2a0.08,0.08,0,0,0,.05.1l1.91,0.6A0.08,0.08,0,0,0,69.72,49.31Zm-19-41.75a0.08,0.08,0,0,0-.1.05L50,9.51a0.08,0.08,0,0,0,0,.1q1.2,0.41,2.36.91a0.08,0.08,0,0,0,.1,0l0.8-1.84a0.08,0.08,0,0,0,0-.11Q52,8,50.73,7.56Zm-9,15.6-0.23,2a0.08,0.08,0,0,0,.07.09q0.5,0.06,1,.16a0.08,0.08,0,0,0,.09-0.06l0.4-2a0.08,0.08,0,0,0-.06-0.1c-0.39-.08-0.78-0.14-1.18-0.18A0.08,0.08,0,0,0,41.71,23.16ZM54,8.93l-0.83,1.82a0.08,0.08,0,0,0,0,.1q1.15,0.53,2.25,1.15a0.08,0.08,0,0,0,.11,0l1-1.74a0.08,0.08,0,0,0,0-.11q-1.18-.66-2.42-1.24A0.08,0.08,0,0,0,54,8.93ZM42,20.29l-0.23,2a0.08,0.08,0,0,0,.07.09c0.42,0.05.84,0.11,1.25,0.19a0.08,0.08,0,0,0,.09-0.06l0.41-2a0.08,0.08,0,0,0-.06-0.1q-0.71-.14-1.43-0.22A0.08,0.08,0,0,0,42,20.29Zm-1,8.53L40.9,30.33c0.24,0,.48.06,0.71,0.11l0.31-1.5a0.08,0.08,0,0,0-.06-0.1l-0.69-.11A0.08,0.08,0,0,0,41.07,28.81ZM41.48,54c0.31,0,.62-0.09.93-0.15a0.08,0.08,0,0,0,.06-0.1l-0.38-1.88A0.08,0.08,0,0,0,42,51.85L41.24,52a0.08,0.08,0,0,0-.07.09L41.39,54A0.08,0.08,0,0,0,41.48,54Zm-0.32-2.78,0.69-.11a0.08,0.08,0,0,0,.06-0.09l-0.3-1.5-0.71.11,0.17,1.52A0.08,0.08,0,0,0,41.17,51.26Zm0.64,5.65c0.4,0,.79-0.11,1.18-0.18a0.08,0.08,0,0,0,.06-0.1l-0.4-2a0.08,0.08,0,0,0-.09-0.06c-0.33.06-.66,0.12-1,0.16a0.08,0.08,0,0,0-.07.09l0.23,2A0.08,0.08,0,0,0,41.81,56.91Zm0.56-39.48-0.23,2a0.08,0.08,0,0,0,.07.09c0.51,0.06,1,.14,1.5.23a0.08,0.08,0,0,0,.09-0.06l0.4-2a0.08,0.08,0,0,0-.06-0.1c-0.55-.11-1.12-0.19-1.68-0.26A0.08,0.08,0,0,0,42.37,17.43Zm-1,8.6-0.22,1.91a0.08,0.08,0,0,0,.07.09L42,28.15a0.08,0.08,0,0,0,.09-0.06l0.38-1.88a0.08,0.08,0,0,0-.06-0.1Q41.95,26,41.48,26A0.08,0.08,0,0,0,41.39,26Zm8.33-15.71-0.64,1.9a0.08,0.08,0,0,0,0,.1q1.08,0.37,2.12.81a0.08,0.08,0,0,0,.1,0l0.8-1.84a0.08,0.08,0,0,0,0-.11c-0.75-.32-1.52-0.62-2.3-0.88A0.08,0.08,0,0,0,49.72,10.33ZM49,10c-0.78-.24-1.57-0.45-2.38-0.63a0.08,0.08,0,0,0-.1.06l-0.43,2a0.08,0.08,0,0,0,.06.09c0.74,0.17,1.48.36,2.2,0.58a0.08,0.08,0,0,0,.1-0.05l0.6-1.91A0.08,0.08,0,0,0,49,10ZM60.7,54.78q0.56-.8,1.07-1.64a0.08,0.08,0,0,0,0-.11L60,52a0.08,0.08,0,0,0-.11,0q-0.46.76-1,1.48a0.08,0.08,0,0,0,0,.11l1.62,1.16A0.08,0.08,0,0,0,60.7,54.78ZM45.95,12.25L45.51,14.2a0.08,0.08,0,0,0,.06.09c0.66,0.15,1.32.32,2,.52a0.08,0.08,0,0,0,.1-0.05l0.6-1.9a0.08,0.08,0,0,0-.05-0.1c-0.7-.22-1.41-0.4-2.14-0.57A0.08,0.08,0,0,0,45.95,12.25ZM43,11.75l-0.23,2a0.08,0.08,0,0,0,.07.09c0.67,0.08,1.34.18,2,.31a0.08,0.08,0,0,0,.09-0.06l0.4-2a0.08,0.08,0,0,0-.06-0.1c-0.72-.14-1.45-0.25-2.18-0.34A0.08,0.08,0,0,0,43,11.75Zm-0.32,2.84-0.23,2a0.08,0.08,0,0,0,.07.09c0.59,0.07,1.18.16,1.75,0.27a0.08,0.08,0,0,0,.09-0.06l0.4-2a0.08,0.08,0,0,0-.06-0.1c-0.64-.13-1.28-0.22-1.93-0.3A0.08,0.08,0,0,0,42.69,14.59ZM45.86,9.2c-0.8-.16-1.61-0.28-2.43-0.38a0.08,0.08,0,0,0-.09.07l-0.23,2a0.08,0.08,0,0,0,.07.09q1.14,0.13,2.25.35a0.08,0.08,0,0,0,.09-0.06l0.4-2A0.08,0.08,0,0,0,45.86,9.2ZM58.4,14.87l-1.19,1.61a0.08,0.08,0,0,0,0,.11C57.83,17,58.42,17.53,59,18a0.08,0.08,0,0,0,.11,0l1.33-1.5a0.08,0.08,0,0,0,0-.11c-0.62-.54-1.25-1.06-1.91-1.56A0.08,0.08,0,0,0,58.4,14.87ZM52.88,11.5a0.08,0.08,0,0,0-.11,0l-0.83,1.82a0.08,0.08,0,0,0,0,.1q1,0.48,2,1a0.08,0.08,0,0,0,.11,0l1-1.74a0.08,0.08,0,0,0,0-.11Q54,12,52.88,11.5Zm1.45,4a0.08,0.08,0,0,0-.11,0l-1,1.72a0.08,0.08,0,0,0,0,.11q0.87,0.52,1.69,1.11a0.08,0.08,0,0,0,.11,0l1.16-1.62a0.08,0.08,0,0,0,0-.11Q55.27,16.07,54.33,15.5Zm2.48,1.66a0.08,0.08,0,0,0-.11,0l-1.19,1.61a0.08,0.08,0,0,0,0,.11c0.54,0.41,1.06.83,1.57,1.28a0.08,0.08,0,0,0,.11,0l1.32-1.49a0.08,0.08,0,0,0,0-.11C58,18.07,57.4,17.6,56.81,17.16Zm-10.35,1c-0.54-.17-1.09-0.31-1.65-0.44a0.08,0.08,0,0,0-.1.06l-0.43,2a0.08,0.08,0,0,0,.06.09c0.5,0.11,1,.24,1.47.39a0.08,0.08,0,0,0,.1-0.05l0.61-1.92A0.08,0.08,0,0,0,46.46,18.2ZM59,19.08l-1.35,1.47a0.08,0.08,0,0,0,0,.11q0.74,0.69,1.43,1.43a0.08,0.08,0,0,0,.11,0l1.47-1.35a0.08,0.08,0,0,0,0-.11q-0.75-.81-1.56-1.56A0.08,0.08,0,0,0,59,19.08ZM48.92,13a0.08,0.08,0,0,0-.1.05l-0.63,1.89a0.08,0.08,0,0,0,0,.1q1,0.33,1.89.72a0.08,0.08,0,0,0,.1,0L51,13.89a0.08,0.08,0,0,0,0-.11C50.3,13.5,49.61,13.24,48.92,13ZM47,18.47l-0.64,1.91a0.08,0.08,0,0,0,0,.1c0.48,0.16,1,.34,1.42.54a0.08,0.08,0,0,0,.1,0l0.8-1.84a0.08,0.08,0,0,0,0-.11c-0.52-.22-1.05-0.42-1.59-0.61A0.08,0.08,0,0,0,47,18.47Zm0.9-2.71-0.63,1.89a0.08,0.08,0,0,0,0,.1c0.56,0.19,1.11.4,1.66,0.63a0.08,0.08,0,0,0,.1,0l0.8-1.83a0.08,0.08,0,0,0,0-.11c-0.6-.26-1.21-0.49-1.83-0.7A0.08,0.08,0,0,0,47.91,15.76Zm3.67-1.61L50.75,16a0.08,0.08,0,0,0,0,.1q0.92,0.43,1.8.92a0.08,0.08,0,0,0,.11,0l1-1.74a0.08,0.08,0,0,0,0-.11q-1-.54-2-1A0.08,0.08,0,0,0,51.58,14.15ZM62.45,42q0.07-.84.09-1.7a0.08,0.08,0,0,0-.08-0.08l-2,0a0.08,0.08,0,0,0-.08.08q0,0.77-.08,1.52a0.08,0.08,0,0,0,.07.09l2,0.19A0.08,0.08,0,0,0,62.45,42Zm-0.33,2.36c0.11-.55.19-1.12,0.26-1.68a0.08,0.08,0,0,0-.07-0.09l-2-.23a0.08,0.08,0,0,0-.09.07c-0.06.51-.14,1-0.23,1.5a0.08,0.08,0,0,0,.06.09l2,0.4A0.08,0.08,0,0,0,62.11,44.41ZM62.45,38a0.08,0.08,0,0,0-.09-0.07l-2,.19a0.08,0.08,0,0,0-.07.09q0.07,0.75.08,1.52a0.08,0.08,0,0,0,.08.08l2,0a0.08,0.08,0,0,0,.08-0.08Q62.52,38.8,62.45,38ZM61,17a0.08,0.08,0,0,0-.11,0l-1.35,1.48a0.08,0.08,0,0,0,0,.11q0.83,0.77,1.61,1.61a0.08,0.08,0,0,0,.11,0l1.48-1.35a0.08,0.08,0,0,0,0-.11Q61.94,17.79,61,17Zm3.84,4.26c-0.49-.66-1-1.29-1.55-1.91a0.08,0.08,0,0,0-.11,0l-1.5,1.33a0.08,0.08,0,0,0,0,.11c0.5,0.57,1,1.16,1.44,1.76a0.08,0.08,0,0,0,.11,0l1.61-1.19A0.08,0.08,0,0,0,64.88,21.22Zm-0.65,4.19q-0.57-.95-1.21-1.85a0.08,0.08,0,0,0-.11,0L61.29,24.7a0.08,0.08,0,0,0,0,.11q0.58,0.83,1.11,1.69a0.08,0.08,0,0,0,.11,0l1.72-1A0.08,0.08,0,0,0,64.23,25.41Zm-1,4.45-1.83.8a0.08,0.08,0,0,0,0,.1c0.23,0.54.44,1.09,0.64,1.66a0.08,0.08,0,0,0,.1,0L64,31.83a0.08,0.08,0,0,0,.05-0.1c-0.21-.62-0.44-1.23-0.7-1.83A0.08,0.08,0,0,0,63.21,29.85ZM48,64.29c0.62-.21,1.23-0.44,1.83-0.7a0.08,0.08,0,0,0,0-.11l-0.8-1.83a0.08,0.08,0,0,0-.1,0c-0.54.23-1.09,0.44-1.66,0.64a0.08,0.08,0,0,0,0,.1l0.63,1.89A0.08,0.08,0,0,0,48,64.29Zm-0.9-2.71Q47.91,61.3,48.7,61a0.08,0.08,0,0,0,0-.11L47.94,59a0.08,0.08,0,0,0-.1,0c-0.46.2-.94,0.38-1.42,0.54a0.08,0.08,0,0,0,0,.1L47,61.53A0.08,0.08,0,0,0,47.1,61.58Zm5.77-3.05-1.17-1.63a0.08,0.08,0,0,0-.11,0q-0.62.44-1.27,0.83a0.08,0.08,0,0,0,0,.11l1,1.73a0.08,0.08,0,0,0,.11,0q0.73-.44,1.43-0.93A0.08,0.08,0,0,0,52.87,58.53Zm0.54-.28c0.45-.34.89-0.7,1.32-1.08a0.08,0.08,0,0,0,0-.11l-1.33-1.5a0.08,0.08,0,0,0-.11,0c-0.38.33-.77,0.66-1.18,1a0.08,0.08,0,0,0,0,.11l1.19,1.62A0.08,0.08,0,0,0,53.41,58.24Zm6.85-3-1.6-1.18a0.08,0.08,0,0,0-.11,0c-0.36.47-.73,0.93-1.12,1.37a0.08,0.08,0,0,0,0,.11l1.49,1.32a0.08,0.08,0,0,0,.11,0c0.43-.49.84-1,1.24-1.52A0.08,0.08,0,0,0,60.26,55.26Zm-9.75,8q0.89-.41,1.74-0.89a0.08,0.08,0,0,0,0-.11l-1-1.73a0.08,0.08,0,0,0-.11,0q-0.77.43-1.58,0.81a0.08,0.08,0,0,0,0,.1l0.83,1.81A0.08,0.08,0,0,0,50.5,63.29Zm3.71,1.18a0.08,0.08,0,0,0,.11,0q0.95-.57,1.85-1.21a0.08,0.08,0,0,0,0-.11L55,61.55a0.08,0.08,0,0,0-.11,0q-0.83.58-1.69,1.11a0.08,0.08,0,0,0,0,.11Zm4.18,0.66a0.08,0.08,0,0,0,.11,0c0.66-.49,1.29-1,1.91-1.55a0.08,0.08,0,0,0,0-.11L59.1,62A0.08,0.08,0,0,0,59,62c-0.57.5-1.16,1-1.76,1.44a0.08,0.08,0,0,0,0,.11Zm-1.59-2.29c0.59-.44,1.16-0.91,1.71-1.39a0.08,0.08,0,0,0,0-.11L57.2,59.83a0.08,0.08,0,0,0-.11,0c-0.51.44-1,.87-1.57,1.28a0.08,0.08,0,0,0,0,.11l1.19,1.61A0.08,0.08,0,0,0,56.81,62.84ZM43.47,23.46l-0.43,2a0.08,0.08,0,0,0,.06.09q0.49,0.11,1,.26a0.08,0.08,0,0,0,.1-0.05l0.6-1.92a0.08,0.08,0,0,0-.05-0.1c-0.38-.12-0.77-0.22-1.16-0.31A0.08,0.08,0,0,0,43.47,23.46Zm2.73,35.4c0.46-.16.91-0.33,1.35-0.52a0.08,0.08,0,0,0,0-.11l-0.81-1.86a0.08,0.08,0,0,0-.1,0c-0.39.16-.78,0.31-1.18,0.45a0.08,0.08,0,0,0,0,.1l0.64,1.92A0.08,0.08,0,0,0,46.19,58.85ZM42.84,26.28l-0.42,1.87a0.08,0.08,0,0,0,.06.09l0.74,0.2a0.08,0.08,0,0,0,.1-0.05l0.58-1.83a0.08,0.08,0,0,0-.05-0.1c-0.3-.09-0.6-0.17-0.91-0.24A0.08,0.08,0,0,0,42.84,26.28Zm1.25-5.64-0.44,2a0.08,0.08,0,0,0,.06.09c0.41,0.09.82,0.2,1.22,0.32A0.08,0.08,0,0,0,45,23L45.64,21a0.08,0.08,0,0,0-.05-0.1c-0.46-.14-0.93-0.26-1.4-0.37A0.08,0.08,0,0,0,44.09,20.63ZM42.24,29l-0.33,1.5c0.23,0.05.47,0.11,0.69,0.18l0.46-1.46a0.08,0.08,0,0,0-.05-0.1l-0.67-.18A0.08,0.08,0,0,0,42.24,29Zm2,30.42c0.47-.11.94-0.23,1.4-0.37a0.08,0.08,0,0,0,.05-0.1L45,57a0.08,0.08,0,0,0-.1-0.05c-0.4.12-.81,0.23-1.22,0.32a0.08,0.08,0,0,0-.06.09l0.44,2A0.08,0.08,0,0,0,44.19,59.43ZM43.56,56.6c0.39-.09.78-0.19,1.16-0.31a0.08,0.08,0,0,0,.05-0.1l-0.61-1.92a0.08,0.08,0,0,0-.1-0.05c-0.32.1-.65,0.18-1,0.26a0.08,0.08,0,0,0-.06.09l0.44,2A0.08,0.08,0,0,0,43.56,56.6ZM42.33,51L43,50.87a0.08,0.08,0,0,0,.05-0.1L42.6,49.31c-0.23.07-.46,0.13-0.69,0.18L42.24,51A0.08,0.08,0,0,0,42.33,51Zm-31-13.64q-0.1,1.09-.11,2.21a0.08,0.08,0,0,0,.08.08l2,0a0.08,0.08,0,0,0,.08-0.08q0-1,.1-2a0.08,0.08,0,0,0-.07-0.09l-2-.19A0.08,0.08,0,0,0,11.33,37.4ZM39.46,25.85c-0.32,0-.63,0-0.94.05a0.08,0.08,0,0,0-.07.09l0.18,1.91a0.08,0.08,0,0,0,.09.07l0.77,0a0.08,0.08,0,0,0,.08-0.08l0-1.92A0.08,0.08,0,0,0,39.46,25.85ZM2.7,39.62l2,0a0.08,0.08,0,0,0,.08-0.08q0-1.4.14-2.78a0.08,0.08,0,0,0-.07-0.09l-2-.19a0.08,0.08,0,0,0-.09.07q-0.14,1.46-.15,3A0.08,0.08,0,0,0,2.7,39.62ZM5.63,32.3c0.2-.91.44-1.81,0.71-2.69a0.08,0.08,0,0,0-.05-0.1l-1.9-.6a0.08,0.08,0,0,0-.1.05c-0.29.94-.54,1.9-0.76,2.87a0.08,0.08,0,0,0,.06.1l1.95,0.43A0.08,0.08,0,0,0,5.63,32.3ZM2.86,43.49l2-.19a0.08,0.08,0,0,0,.07-0.09q-0.13-1.37-.14-2.78a0.08,0.08,0,0,0-.08-0.08l-2,0a0.08,0.08,0,0,0-.08.08q0,1.5.15,3A0.08,0.08,0,0,0,2.86,43.49Zm0.56,3.84,2-.4a0.08,0.08,0,0,0,.06-0.09C5.26,45.94,5.12,45,5,44.09A0.08,0.08,0,0,0,4.92,44l-2,.23a0.08,0.08,0,0,0-.07.09c0.12,1,.27,2,0.46,2.93A0.08,0.08,0,0,0,3.43,47.33Zm58.11-.61c0.17-.54.31-1.09,0.44-1.65a0.08,0.08,0,0,0-.06-0.1l-2-.43a0.08,0.08,0,0,0-.09.06c-0.11.5-.24,1-0.39,1.47a0.08,0.08,0,0,0,.05.1l1.92,0.61A0.08,0.08,0,0,0,61.53,46.72ZM25.15,8.14L24.33,6.33a0.08,0.08,0,0,0-.11,0q-1.35.62-2.64,1.35a0.08,0.08,0,0,0,0,.11l1,1.73a0.08,0.08,0,0,0,.11,0q1.21-.68,2.48-1.27A0.08,0.08,0,0,0,25.15,8.14ZM23.94,12a0.08,0.08,0,0,0,.11,0q1.1-.62,2.25-1.15a0.08,0.08,0,0,0,0-.1L25.51,8.93a0.08,0.08,0,0,0-.11,0q-1.23.57-2.42,1.24a0.08,0.08,0,0,0,0,.11ZM40.2,2.19q1.53,0,3,.16a0.08,0.08,0,0,0,.09-0.07l0.19-2A0.08,0.08,0,0,0,43.43.16Q41.84,0,40.22,0a0.08,0.08,0,0,0-.08.08l0,2A0.08,0.08,0,0,0,40.2,2.19Zm0,5.72q1.28,0,2.53.13A0.08,0.08,0,0,0,42.76,8L43,6a0.08,0.08,0,0,0-.07-0.09q-1.34-.12-2.71-0.14a0.08,0.08,0,0,0-.08.08l0,2A0.08,0.08,0,0,0,40.15,7.91Zm-0.07,8.59q0.89,0,1.77.09a0.08,0.08,0,0,0,.09-0.07l0.19-2a0.08,0.08,0,0,0-.07-0.09q-1-.09-2-0.1a0.08,0.08,0,0,0-.08.08l0,2A0.08,0.08,0,0,0,40.08,16.49Zm0-2.86q1,0,2,.1a0.08,0.08,0,0,0,.09-0.07l0.19-2a0.08,0.08,0,0,0-.07-0.09q-1.09-.1-2.21-0.11a0.08,0.08,0,0,0-.08.08l0,2A0.08,0.08,0,0,0,40.1,13.64ZM11.48,36.72l2,0.23a0.08,0.08,0,0,0,.09-0.07c0.08-.67.18-1.34,0.31-2a0.08,0.08,0,0,0-.06-0.09l-2-.4a0.08,0.08,0,0,0-.1.06c-0.14.72-.25,1.45-0.34,2.18A0.08,0.08,0,0,0,11.48,36.72ZM40,25.13c0.34,0,.68,0,1,0.05a0.08,0.08,0,0,0,.09-0.07l0.19-2A0.08,0.08,0,0,0,41.22,23Q40.63,23,40,23a0.08,0.08,0,0,0-.08.08l0,2A0.08,0.08,0,0,0,40,25.13Zm0,2.8,0.76,0a0.08,0.08,0,0,0,.09-0.07L41,26a0.08,0.08,0,0,0-.07-0.09c-0.31,0-.62,0-0.94,0a0.08,0.08,0,0,0-.08.08l0,1.92A0.08,0.08,0,0,0,40,27.93Zm0.07-8.56q0.77,0,1.52.08a0.08,0.08,0,0,0,.09-0.07l0.19-2a0.08,0.08,0,0,0-.07-0.09q-0.84-.07-1.7-0.09a0.08,0.08,0,0,0-.08.08l0,2A0.08,0.08,0,0,0,40.05,19.37Zm0,2.89q0.64,0,1.26.06a0.08,0.08,0,0,0,.09-0.07l0.19-2a0.08,0.08,0,0,0-.07-0.09q-0.72-.06-1.45-0.07a0.08,0.08,0,0,0-.08.08l0,2A0.08,0.08,0,0,0,40,22.26ZM11.33,42.59a0.08,0.08,0,0,0,.09.07l2-.19a0.08,0.08,0,0,0,.07-0.09q-0.09-1-.1-2a0.08,0.08,0,0,0-.08-0.08l-2,0a0.08,0.08,0,0,0-.08.08Q11.23,41.5,11.33,42.59Zm16.32-1.5A0.08,0.08,0,0,0,27.71,41c0-.25,0-0.51,0-0.76a0.08,0.08,0,0,0-.08-0.08l-1.93,0a0.08,0.08,0,0,0-.08.08q0,0.47.05,0.94a0.08,0.08,0,0,0,.09.07Zm-1.7,1.64,1.89-.38a0.08,0.08,0,0,0,.06-0.09c0-.25-0.09-0.5-0.12-0.76a0.08,0.08,0,0,0-.09-0.07l-1.92.22a0.08,0.08,0,0,0-.07.09c0,0.31.09,0.62,0.15,0.93A0.08,0.08,0,0,0,25.94,42.74Zm-1.79,4L26,45.9a0.08,0.08,0,0,0,0-.1q-0.2-.47-0.36-0.95a0.08,0.08,0,0,0-.1,0l-1.91.64a0.08,0.08,0,0,0-.05.1q0.2,0.57.43,1.12A0.08,0.08,0,0,0,24.16,46.7ZM23.54,45l1.93-.61a0.08,0.08,0,0,0,.05-0.1c-0.1-.32-0.19-0.65-0.26-1a0.08,0.08,0,0,0-.09-0.06l-2,.44a0.08,0.08,0,0,0-.06.1c0.09,0.39.19,0.78,0.3,1.16A0.08,0.08,0,0,0,23.54,45Zm2.77-.87,1.84-.58a0.08,0.08,0,0,0,.05-0.1q-0.11-.37-0.2-0.74a0.08,0.08,0,0,0-.09-0.06L26,43.11a0.08,0.08,0,0,0-.06.1c0.07,0.31.15,0.61,0.25,0.91A0.08,0.08,0,0,0,26.3,44.17Zm6.81-11.3-1-1.13a0.08,0.08,0,0,0-.12,0l-0.49.49a0.08,0.08,0,0,0,0,.12l1.13,1Q32.85,33.11,33.11,32.87Zm-2-.28c-0.15.17-.3,0.36-0.44,0.54a0.08,0.08,0,0,0,0,.11L32,34.16c0.14-.19.29-0.38,0.45-0.56l-1.15-1A0.08,0.08,0,0,0,31.14,32.59Zm-4.33,13,1.77-.77a0.08,0.08,0,0,0,0-.1q-0.15-.35-0.27-0.71a0.08,0.08,0,0,0-.1,0l-1.83.61a0.08,0.08,0,0,0-.05.1q0.15,0.45.33,0.88A0.08,0.08,0,0,0,26.81,45.55Zm-4.05-7q-0.05.59-.06,1.19a0.08,0.08,0,0,0,.08.08l2,0a0.08,0.08,0,0,0,.08-0.08q0-.5.05-1a0.08,0.08,0,0,0-.07-0.09l-2-.19A0.08,0.08,0,0,0,22.76,38.51ZM14,34.16c0.15-.66.32-1.32,0.52-2a0.08,0.08,0,0,0-.05-0.1l-1.9-.6a0.08,0.08,0,0,0-.1.05c-0.22.7-.4,1.41-0.57,2.14a0.08,0.08,0,0,0,.06.1l1.95,0.43A0.08,0.08,0,0,0,14,34.16ZM11.85,45.61l2-.4a0.08,0.08,0,0,0,.06-0.09c-0.13-.66-0.23-1.33-0.31-2a0.08,0.08,0,0,0-.09-0.07l-2,.23a0.08,0.08,0,0,0-.07.09c0.09,0.74.2,1.46,0.34,2.18A0.08,0.08,0,0,0,11.85,45.61ZM23.1,43.32l2-.4a0.08,0.08,0,0,0,.06-0.09c-0.06-.33-0.12-0.66-0.16-1a0.08,0.08,0,0,0-.09-0.07l-2,.23a0.08,0.08,0,0,0-.07.09c0,0.4.11,0.79,0.18,1.18A0.08,0.08,0,0,0,23.1,43.32ZM23,36.74c-0.08.39-.14,0.78-0.18,1.18a0.08,0.08,0,0,0,.07.09l2,0.23A0.08,0.08,0,0,0,25,38.18c0-.33.1-0.67,0.16-1a0.08,0.08,0,0,0-.06-0.09l-2-.4A0.08,0.08,0,0,0,23,36.74Zm-0.25,4.74a0.08,0.08,0,0,0,.09.07l2-.19a0.08,0.08,0,0,0,.07-0.09q0-.5-0.05-1a0.08,0.08,0,0,0-.08-0.08l-2,0a0.08,0.08,0,0,0-.08.08Q22.71,40.9,22.76,41.49Zm2.39-4.79a0.08,0.08,0,0,0,.09-0.06q0.11-.49.26-1a0.08,0.08,0,0,0-.05-0.1L23.54,35a0.08,0.08,0,0,0-.1.05c-0.12.38-.22,0.77-0.31,1.16a0.08,0.08,0,0,0,.06.1ZM43.5,8.13c0.84,0.1,1.68.23,2.5,0.39a0.08,0.08,0,0,0,.09-0.06l0.4-2a0.08,0.08,0,0,0-.06-0.1C45.55,6.22,44.65,6.08,43.75,6a0.08,0.08,0,0,0-.09.07L43.43,8A0.08,0.08,0,0,0,43.5,8.13ZM47.43,5.9c0.91,0.2,1.81.44,2.69,0.71a0.08,0.08,0,0,0,.1-0.05l0.6-1.9a0.08,0.08,0,0,0-.05-0.1C49.83,4.26,48.87,4,47.9,3.79a0.08,0.08,0,0,0-.1.06L47.37,5.8A0.08,0.08,0,0,0,47.43,5.9Zm9.69,63.52a0.08,0.08,0,0,0,.11,0q1.17-.7,2.27-1.48a0.08,0.08,0,0,0,0-.11l-1.16-1.63a0.08,0.08,0,0,0-.11,0q-1,.73-2.12,1.38a0.08,0.08,0,0,0,0,.11Zm1.45,2.46a0.08,0.08,0,0,0,.11,0q1.28-.76,2.48-1.62a0.08,0.08,0,0,0,0-.11L60,68.55a0.08,0.08,0,0,0-.11,0q-1.13.8-2.33,1.52a0.08,0.08,0,0,0,0,.11Zm3.75-6.25L61,64.12a0.08,0.08,0,0,0-.11,0c-0.63.56-1.28,1.09-2,1.6a0.08,0.08,0,0,0,0,.11l1.19,1.61a0.08,0.08,0,0,0,.11,0c0.72-.54,1.42-1.12,2.1-1.71A0.08,0.08,0,0,0,62.32,65.62ZM55.78,67q1.06-.63,2.06-1.35a0.08,0.08,0,0,0,0-.11L56.7,63.88a0.08,0.08,0,0,0-.11,0c-0.62.44-1.25,0.85-1.9,1.24a0.08,0.08,0,0,0,0,.11l1,1.73A0.08,0.08,0,0,0,55.78,67Zm-3,1.49a0.08,0.08,0,0,0,.11,0Q54,68,55.07,67.38a0.08,0.08,0,0,0,0-.11l-1-1.75a0.08,0.08,0,0,0-.11,0q-1,.56-2,1a0.08,0.08,0,0,0,0,.1ZM63,56.44q0.64-.9,1.21-1.85a0.08,0.08,0,0,0,0-.11l-1.72-1a0.08,0.08,0,0,0-.11,0q-0.52.87-1.11,1.69a0.08,0.08,0,0,0,0,.11l1.62,1.16A0.08,0.08,0,0,0,63,56.44Zm-0.25,4.74-1.48-1.35a0.08,0.08,0,0,0-.11,0q-0.77.83-1.61,1.61a0.08,0.08,0,0,0,0,.11L60.92,63A0.08,0.08,0,0,0,61,63q0.9-.84,1.74-1.74A0.08,0.08,0,0,0,62.77,61.19ZM62.55,57l-1.61-1.19a0.08,0.08,0,0,0-.11,0c-0.41.54-.83,1.06-1.28,1.57a0.08,0.08,0,0,0,0,.11l1.49,1.32a0.08,0.08,0,0,0,.11,0c0.49-.55,1-1.12,1.4-1.71A0.08,0.08,0,0,0,62.55,57ZM46.46,61.8a0.08,0.08,0,0,0,.05-0.1L45.9,59.78a0.08,0.08,0,0,0-.1-0.05c-0.48.15-1,.28-1.47,0.39a0.08,0.08,0,0,0-.06.09l0.43,2a0.08,0.08,0,0,0,.1.06C45.36,62.11,45.92,62,46.46,61.8Zm18.16-7.88q0.54-1,1-2a0.08,0.08,0,0,0,0-.11L63.77,51a0.08,0.08,0,0,0-.1,0q-0.43.92-.92,1.8a0.08,0.08,0,0,0,0,.11l1.74,1A0.08,0.08,0,0,0,64.62,53.92ZM42.78,65.48c0.65-.08,1.3-0.18,1.93-0.3a0.08,0.08,0,0,0,.06-0.1l-0.4-2a0.08,0.08,0,0,0-.09-0.06c-0.58.11-1.16,0.2-1.75,0.27a0.08,0.08,0,0,0-.07.09l0.22,2A0.08,0.08,0,0,0,42.78,65.48ZM45.43,65c0.64-.14,1.27-0.31,1.89-0.5a0.08,0.08,0,0,0,.05-0.1l-0.6-1.9a0.08,0.08,0,0,0-.1-0.05c-0.56.17-1.13,0.32-1.71,0.45a0.08,0.08,0,0,0-.06.09L45.33,65A0.08,0.08,0,0,0,45.43,65Zm6.26,0.87q1-.47,2-1a0.08,0.08,0,0,0,0-.11L52.7,63a0.08,0.08,0,0,0-.11,0q-0.88.49-1.8,0.92a0.08,0.08,0,0,0,0,.1l0.83,1.82A0.08,0.08,0,0,0,51.69,65.89ZM46,67.82c0.72-.16,1.44-0.35,2.14-0.57a0.08,0.08,0,0,0,.05-0.1l-0.6-1.9a0.08,0.08,0,0,0-.1-0.05c-0.64.2-1.3,0.37-2,.52a0.08,0.08,0,0,0-.06.09l0.43,1.95A0.08,0.08,0,0,0,46,67.82Zm5-1.71-0.8-1.83a0.08,0.08,0,0,0-.1,0c-0.62.27-1.25,0.51-1.89,0.72a0.08,0.08,0,0,0,0,.1L48.81,67a0.08,0.08,0,0,0,.1.05c0.7-.24,1.39-0.5,2.06-0.79A0.08,0.08,0,0,0,51,66.11Zm-4.36,4.51c0.8-.18,1.6-0.39,2.38-0.63a0.08,0.08,0,0,0,.05-0.1L48.49,68a0.08,0.08,0,0,0-.1-0.05c-0.72.22-1.46,0.41-2.2,0.58a0.08,0.08,0,0,0-.06.09l0.43,2A0.08,0.08,0,0,0,46.66,70.62Zm-4.21-8c0.57-.07,1.13-0.15,1.68-0.26a0.08,0.08,0,0,0,.06-0.1l-0.4-2a0.08,0.08,0,0,0-.09-0.06c-0.49.1-1,.17-1.5,0.23a0.08,0.08,0,0,0-.07.09l0.23,2A0.08,0.08,0,0,0,42.46,62.64ZM58.57,8.13l-1,1.72a0.08,0.08,0,0,0,0,.11q1.2,0.71,2.33,1.52a0.08,0.08,0,0,0,.11,0l1.16-1.62a0.08,0.08,0,0,0,0-.11Q60,8.86,58.68,8.1A0.08,0.08,0,0,0,58.57,8.13ZM60.63,12c0.74,0.56,1.46,1.14,2.16,1.76a0.08,0.08,0,0,0,.11,0l1.32-1.49a0.08,0.08,0,0,0,0-.11c-0.74-.65-1.51-1.28-2.3-1.87a0.08,0.08,0,0,0-.11,0l-1.18,1.6A0.08,0.08,0,0,0,60.63,12Zm4-.38a0.08,0.08,0,0,0,.11,0l1.35-1.53a0.08,0.08,0,0,0,0-.11c-0.81-.71-1.64-1.39-2.5-2a0.08,0.08,0,0,0-.11,0L62.31,9.58a0.08,0.08,0,0,0,0,.11C63.14,10.29,63.92,10.93,64.68,11.6Zm-9.14-6Q56.92,6.28,58.23,7a0.08,0.08,0,0,0,.11,0l1-1.77a0.08,0.08,0,0,0,0-.11q-1.4-.79-2.87-1.46a0.08,0.08,0,0,0-.11,0L55.5,5.54A0.08,0.08,0,0,0,55.54,5.65Zm-8.72,3c0.83,0.19,1.64.4,2.44,0.65a0.08,0.08,0,0,0,.1-0.05L50,7.38a0.08,0.08,0,0,0-.05-0.1C49,7,48.17,6.78,47.28,6.58a0.08,0.08,0,0,0-.1.06l-0.43,2A0.08,0.08,0,0,0,46.81,8.69ZM65.93,21.48q0.73,1,1.38,2.12a0.08,0.08,0,0,0,.11,0l1.72-1a0.08,0.08,0,0,0,0-.11q-0.7-1.17-1.48-2.27a0.08,0.08,0,0,0-.11,0l-1.63,1.16A0.08,0.08,0,0,0,65.93,21.48ZM51.86,4.18q1.44,0.49,2.83,1.09a0.08,0.08,0,0,0,.1,0l0.81-1.87a0.08,0.08,0,0,0,0-.11q-1.47-.63-3-1.15a0.08,0.08,0,0,0-.1.05L51.81,4.08A0.08,0.08,0,0,0,51.86,4.18Zm-8,1.1c0.93,0.11,1.84.25,2.75,0.43a0.08,0.08,0,0,0,.09-0.06l0.4-2A0.08,0.08,0,0,0,47,3.6c-1-.19-1.94-0.34-2.93-0.46a0.08,0.08,0,0,0-.09.07l-0.23,2A0.08,0.08,0,0,0,43.82,5.28ZM70,17.4a0.08,0.08,0,0,0,.11,0l1.64-1.21a0.08,0.08,0,0,0,0-.11c-0.64-.86-1.32-1.69-2-2.5a0.08,0.08,0,0,0-.11,0l-1.53,1.35a0.08,0.08,0,0,0,0,.11C68.8,15.81,69.44,16.59,70,17.4Zm6.09,29.86c0.19-1,.34-1.94.46-2.93a0.08,0.08,0,0,0-.07-0.09l-2-.23a0.08,0.08,0,0,0-.09.07c-0.11.93-.25,1.84-0.43,2.75a0.08,0.08,0,0,0,.06.09l2,0.4A0.08,0.08,0,0,0,76.14,47.27Zm-2.42,7.45a0.08,0.08,0,0,0,.11,0q0.59-1.36,1.06-2.77a0.08,0.08,0,0,0-.05-0.1l-1.89-.63a0.08,0.08,0,0,0-.1,0q-0.45,1.32-1,2.6a0.08,0.08,0,0,0,0,.1ZM74.54,36l2-.23a0.08,0.08,0,0,0,.07-0.09c-0.12-1-.27-2-0.46-2.93a0.08,0.08,0,0,0-.1-0.06l-2,.4a0.08,0.08,0,0,0-.06.09c0.18,0.9.32,1.82,0.43,2.75A0.08,0.08,0,0,0,74.54,36Zm-4-17.82c0.58,0.82,1.14,1.67,1.66,2.54a0.08,0.08,0,0,0,.11,0l1.76-1a0.08,0.08,0,0,0,0-.11q-0.83-1.39-1.76-2.7a0.08,0.08,0,0,0-.11,0L70.6,18A0.08,0.08,0,0,0,70.59,18.16ZM71.2,53.53q0.54-1.24,1-2.53a0.08,0.08,0,0,0-.05-0.1l-1.9-.63a0.08,0.08,0,0,0-.1,0q-0.41,1.2-.91,2.36a0.08,0.08,0,0,0,0,.1l1.84,0.8A0.08,0.08,0,0,0,71.2,53.53Zm5.64-14q0-1.5-.15-3a0.08,0.08,0,0,0-.09-0.07l-2,.19a0.08,0.08,0,0,0-.07.09q0.13,1.37.14,2.78a0.08,0.08,0,0,0,.08.08l2,0A0.08,0.08,0,0,0,76.84,39.54ZM73.72,25.28l-1.83.79a0.08,0.08,0,0,0,0,.1c0.37,0.85.7,1.72,1,2.6a0.08,0.08,0,0,0,.1,0l1.89-.63a0.08,0.08,0,0,0,.05-0.1q-0.48-1.41-1.06-2.77A0.08,0.08,0,0,0,73.72,25.28ZM52.12,33.16a0.08,0.08,0,0,0-.11,0l-1.67.95a0.08,0.08,0,0,0,0,.11q0.18,0.34.35,0.68a0.08,0.08,0,0,0,.1,0l1.75-.8a0.08,0.08,0,0,0,0-.11C52.41,33.72,52.27,33.44,52.12,33.16ZM51.34,31.9a0.08,0.08,0,0,0-.11,0L49.66,33a0.08,0.08,0,0,0,0,.11c0.15,0.21.29,0.42,0.42,0.64a0.08,0.08,0,0,0,.11,0l1.65-1a0.08,0.08,0,0,0,0-.11C51.69,32.42,51.52,32.16,51.34,31.9Zm2-2.15c-0.24-.32-0.49-0.63-0.76-0.93a0.08,0.08,0,0,0-.11,0L51,30.14a0.08,0.08,0,0,0,0,.11q0.33,0.38.64,0.79a0.08,0.08,0,0,0,.11,0l1.61-1.19A0.08,0.08,0,0,0,53.34,29.75ZM28.69,42.18l1.49-.3c0-.23-0.08-0.47-0.11-0.71l-1.51.17a0.08,0.08,0,0,0-.07.09c0,0.23.06,0.46,0.11,0.69A0.08,0.08,0,0,0,28.69,42.18ZM50.31,30.73L48.87,32a0.08,0.08,0,0,0,0,.11c0.17,0.19.33,0.39,0.49,0.59a0.08,0.08,0,0,0,.11,0L51,31.58a0.08,0.08,0,0,0,0-.11q-0.28-.37-0.59-0.73A0.08,0.08,0,0,0,50.31,30.73Zm-2.8,17.54q0.25-.24.49-0.49a0.08,0.08,0,0,0,0-.12l-1.13-1q-0.24.26-.51,0.51l1,1.13A0.08,0.08,0,0,0,47.51,48.27Zm0.82-.86c0.15-.17.3-0.36,0.44-0.54a0.08,0.08,0,0,0,0-.11l-1.23-.91c-0.14.19-.29,0.38-0.45,0.56l1.15,1A0.08,0.08,0,0,0,48.33,47.41ZM49.4,29.67a0.08,0.08,0,0,0-.12,0L48,31.09a0.08,0.08,0,0,0,0,.11c0.19,0.17.37,0.35,0.55,0.54a0.08,0.08,0,0,0,.11,0l1.42-1.3a0.08,0.08,0,0,0,0-.12C49.85,30.1,49.63,29.88,49.4,29.67ZM51,40.94c0-.23,0-0.46,0-0.69A0.08,0.08,0,0,0,51,40.16H49.47c0,0.24,0,.48,0,0.72L51,41A0.08,0.08,0,0,0,51,40.94Zm-2,5.53c0.13-.19.25-0.39,0.37-0.59a0.08,0.08,0,0,0,0-.11L48.09,45c-0.12.21-.25,0.41-0.39,0.6l1.25,0.89A0.08,0.08,0,0,0,49.06,46.47ZM48.77,33.13c-0.14-.18-0.29-0.36-0.44-0.54a0.08,0.08,0,0,0-.11,0l-1.15,1c0.16,0.18.31,0.37,0.45,0.56l1.24-.91A0.08,0.08,0,0,0,48.77,33.13Zm0.64,1.1a0.08,0.08,0,0,0,0-.11c-0.12-.2-0.25-0.39-0.38-0.58a0.08,0.08,0,0,0-.11,0l-1.24.89c0.14,0.19.26,0.4,0.39,0.6Zm0.55,1a0.08,0.08,0,0,0,0-.11c-0.1-.21-0.2-0.42-0.32-0.62a0.08,0.08,0,0,0-.11,0l-1.33.75c0.12,0.21.22,0.42,0.32,0.64Zm2.7-.82-1.76.77a0.08,0.08,0,0,0,0,.1Q51,35.67,51.13,36a0.08,0.08,0,0,0,.1,0L53,35.48a0.08,0.08,0,0,0,.05-0.1c-0.1-.3-0.21-0.59-0.33-0.88A0.08,0.08,0,0,0,52.66,34.45Zm-2.27,1.91a0.08,0.08,0,0,0,.05-0.1c-0.08-.22-0.16-0.44-0.25-0.65a0.08,0.08,0,0,0-.11,0l-1.39.61c0.09,0.22.17,0.45,0.25,0.67ZM51,38.65c0-.19,0-0.39-0.07-0.58s0-.18-0.06-0.27l-1.57.32c0,0.23.08,0.47,0.11,0.71Zm0,1.19a0.08,0.08,0,0,0,.08-0.08c0-.23,0-0.46,0-0.69A0.08,0.08,0,0,0,51,39l-1.52.15c0,0.24,0,.47,0,0.72H51ZM50.71,37.5a0.08,0.08,0,0,0,.06-0.1c-0.05-.23-0.11-0.45-0.18-0.67a0.08,0.08,0,0,0-.1-0.05L49,37.13c0.07,0.23.13,0.46,0.18,0.69ZM50.6,43.27c0.07-.22.13-0.44,0.19-0.67a0.08,0.08,0,0,0-.06-0.1l-1.5-.33c-0.05.23-.11,0.47-0.18,0.69l1.46,0.46A0.08,0.08,0,0,0,50.6,43.27Zm2.7-17.86a0.08,0.08,0,0,0-.12,0l-1.37,1.49a0.08,0.08,0,0,0,0,.11q0.46,0.43.89,0.89a0.08,0.08,0,0,0,.11,0l1.49-1.37a0.08,0.08,0,0,0,0-.12Q53.83,25.9,53.3,25.41ZM55.66,28c-0.29-.39-0.6-0.76-0.92-1.12a0.08,0.08,0,0,0-.11,0l-1.52,1.34a0.08,0.08,0,0,0,0,.11c0.28,0.32.55,0.64,0.8,1a0.08,0.08,0,0,0,.11,0l1.63-1.2A0.08,0.08,0,0,0,55.66,28Zm-2,2.2a0.08,0.08,0,0,0-.11,0l-1.63,1.16a0.08,0.08,0,0,0,0,.11q0.29,0.42.55,0.85a0.08,0.08,0,0,0,.11,0l1.73-1a0.08,0.08,0,0,0,0-.11Q54,30.72,53.68,30.23Zm-2.45-2.68L49.88,29a0.08,0.08,0,0,0,0,.11c0.25,0.23.49,0.47,0.72,0.71a0.08,0.08,0,0,0,.11,0l1.48-1.35a0.08,0.08,0,0,0,0-.12q-0.41-.44-0.85-0.85A0.08,0.08,0,0,0,51.23,27.55Zm-3.08,1.19L47,30.28a0.08,0.08,0,0,0,0,.11c0.2,0.15.41,0.31,0.6,0.47a0.08,0.08,0,0,0,.11,0L49,29.42a0.08,0.08,0,0,0,0-.12c-0.24-.2-0.48-0.4-0.73-0.59A0.08,0.08,0,0,0,48.15,28.73ZM47,27.88a0.08,0.08,0,0,0-.11,0l-1,1.65a0.08,0.08,0,0,0,0,.11l0.64,0.42a0.08,0.08,0,0,0,.11,0l1.11-1.56,0-.11Q47.44,28.12,47,27.88ZM50,26.39a0.08,0.08,0,0,0-.11,0L48.67,28a0.08,0.08,0,0,0,0,.11c0.27,0.2.54,0.42,0.79,0.63a0.08,0.08,0,0,0,.11,0l1.33-1.5a0.08,0.08,0,0,0,0-.11C50.61,26.89,50.3,26.63,50,26.39Zm4.65,5.34a0.08,0.08,0,0,0-.11,0l-1.75,1a0.08,0.08,0,0,0,0,.11c0.16,0.3.31,0.6,0.46,0.9a0.08,0.08,0,0,0,.1,0l1.83-.83a0.08,0.08,0,0,0,0-.11Q54.92,32.26,54.63,31.74Zm-1,10.94c0.06-.31.11-0.62,0.15-0.93a0.08,0.08,0,0,0-.07-0.09l-1.9-.22a0.08,0.08,0,0,0-.09.07c0,0.25-.08.51-0.13,0.76a0.08,0.08,0,0,0,.06.09l1.88,0.38A0.08,0.08,0,0,0,53.63,42.68Zm-0.46-6.84-1.83.58a0.08,0.08,0,0,0-.05.1c0.07,0.24.14,0.49,0.19,0.74a0.08,0.08,0,0,0,.09.06l1.88-.42a0.08,0.08,0,0,0,.06-0.1c-0.07-.31-0.15-0.61-0.24-0.91A0.08,0.08,0,0,0,53.16,35.83Zm-3,8.56c0.09-.21.17-0.43,0.25-0.65a0.08,0.08,0,0,0-.05-0.1l-1.46-.49c-0.08.23-.16,0.45-0.25,0.67l1.4,0.61A0.08,0.08,0,0,0,50.2,44.39Zm0.68-2.27c0-.23.09-0.46,0.12-0.69a0.08,0.08,0,0,0-.07-0.09l-1.53-.17c0,0.24-.06.47-0.11,0.71l1.5,0.31A0.08,0.08,0,0,0,50.88,42.12Zm-1.2,3.34c0.11-.2.21-0.41,0.31-0.62a0.08,0.08,0,0,0,0-.11l-1.4-.64c-0.1.22-.2,0.43-0.32,0.64l1.33,0.75A0.08,0.08,0,0,0,49.69,45.46Zm4.14-4.25c0-.31,0-0.63,0-0.94a0.08,0.08,0,0,0-.08-0.08l-1.92,0a0.08,0.08,0,0,0-.08.08c0,0.26,0,.51,0,0.76a0.08,0.08,0,0,0,.07.09l1.91,0.18A0.08,0.08,0,0,0,53.83,41.21Zm-0.55,2.9c0.09-.3.17-0.6,0.24-0.91a0.08,0.08,0,0,0-.06-0.1l-1.87-.41a0.08,0.08,0,0,0-.09.06c-0.06.25-.13,0.49-0.21,0.74a0.08,0.08,0,0,0,.05.1l1.83,0.58A0.08,0.08,0,0,0,53.27,44.11Zm-0.61,1.44a0.08,0.08,0,0,0,.11,0c0.12-.29.23-0.58,0.34-0.88a0.08,0.08,0,0,0-.05-0.1l-1.82-.61a0.08,0.08,0,0,0-.1,0c-0.08.24-.18,0.48-0.28,0.71a0.08,0.08,0,0,0,0,.1ZM47.14,31.4C47,31.25,46.78,31.11,46.6,31a0.08,0.08,0,0,0-.11,0l-0.91,1.23c0.19,0.14.38,0.29,0.56,0.45l1-1.15A0.08,0.08,0,0,0,47.14,31.4ZM60.7,49c0.22-.52.42-1.05,0.61-1.59a0.08,0.08,0,0,0-.05-0.1l-1.91-.64a0.08,0.08,0,0,0-.1,0q-0.25.72-.54,1.42a0.08,0.08,0,0,0,0,.1L60.6,49A0.08,0.08,0,0,0,60.7,49Zm8.92-18.32-1.91.6a0.08,0.08,0,0,0-.05.1c0.22,0.72.41,1.46,0.58,2.2a0.08,0.08,0,0,0,.09.06l2-.43a0.08,0.08,0,0,0,.06-0.1c-0.18-.8-0.39-1.6-0.63-2.38A0.08,0.08,0,0,0,69.62,30.64ZM63.22,42.2l2,0.19a0.08,0.08,0,0,0,.09-0.07q0.09-1,.1-2a0.08,0.08,0,0,0-.08-0.08l-2,0a0.08,0.08,0,0,0-.08.08q0,0.89-.09,1.77A0.08,0.08,0,0,0,63.22,42.2Zm9.13-12.43-1.91.6a0.08,0.08,0,0,0-.05.1c0.25,0.8.46,1.62,0.65,2.44a0.08,0.08,0,0,0,.09.06l2-.43a0.08,0.08,0,0,0,.06-0.1c-0.2-.89-0.43-1.76-0.7-2.62A0.08,0.08,0,0,0,72.35,29.77Zm-9,10,2,0a0.08,0.08,0,0,0,.08-0.08q0-1-.1-2a0.08,0.08,0,0,0-.09-0.07l-2,.19a0.08,0.08,0,0,0-.07.09q0.08,0.88.09,1.77A0.08,0.08,0,0,0,63.32,39.73Zm4.82,2.86q0.1-1.09.11-2.21a0.08,0.08,0,0,0-.08-0.08l-2,0a0.08,0.08,0,0,0-.08.08q0,1-.1,2a0.08,0.08,0,0,0,.07.09l2,0.19A0.08,0.08,0,0,0,68.14,42.59Zm0-5.19A0.08,0.08,0,0,0,68,37.33l-2,.19a0.08,0.08,0,0,0-.07.09q0.09,1,.1,2a0.08,0.08,0,0,0,.08.08l2,0a0.08,0.08,0,0,0,.08-0.08Q68.24,38.5,68.14,37.41Zm3.56,6.29a0.08,0.08,0,0,0-.09.07c-0.1.84-.23,1.68-0.39,2.5a0.08,0.08,0,0,0,.06.09l2,0.4a0.08,0.08,0,0,0,.1-0.06c0.18-.88.31-1.78,0.42-2.68a0.08,0.08,0,0,0-.07-0.09ZM65,47.9l1.9,0.6a0.08,0.08,0,0,0,.1-0.05c0.22-.7.4-1.41,0.57-2.14a0.08,0.08,0,0,0-.06-0.1l-1.95-.43a0.08,0.08,0,0,0-.09.06c-0.15.66-.32,1.32-0.52,2A0.08,0.08,0,0,0,65,47.9Zm5.83,6.32L69,53.39a0.08,0.08,0,0,0-.1,0q-0.53,1.15-1.15,2.25a0.08,0.08,0,0,0,0,.11l1.74,1a0.08,0.08,0,0,0,.11,0q0.66-1.18,1.24-2.42A0.08,0.08,0,0,0,70.8,54.22Zm5.92-22.48,2-.44a0.08,0.08,0,0,0,.06-0.1c-0.24-1.05-.51-2.09-0.82-3.11a0.08,0.08,0,0,0-.1-0.05l-1.94.61a0.08,0.08,0,0,0-.05.1c0.3,1,.55,1.94.78,2.93A0.08,0.08,0,0,0,76.72,31.74Zm0.67,4.76q0.14,1.5.16,3a0.08,0.08,0,0,0,.08.08l2,0a0.08,0.08,0,0,0,.08-0.08q0-1.62-.16-3.22a0.08,0.08,0,0,0-.09-0.07l-2,.19A0.08,0.08,0,0,0,77.39,36.51ZM68.26,60.18a0.08,0.08,0,0,0,0,.11l1.62,1.16a0.08,0.08,0,0,0,.11,0q0.86-1.21,1.62-2.48a0.08,0.08,0,0,0,0-.11l-1.72-1a0.08,0.08,0,0,0-.11,0Q69.07,59.05,68.26,60.18Zm-2.81-1c-0.51.68-1,1.33-1.6,2a0.08,0.08,0,0,0,0,.11l1.5,1.33a0.08,0.08,0,0,0,.11,0c0.6-.68,1.17-1.38,1.71-2.1a0.08,0.08,0,0,0,0-.11l-1.61-1.19A0.08,0.08,0,0,0,65.45,59.2Zm7.79-26-2,.4a0.08,0.08,0,0,0-.06.09c0.16,0.82.29,1.66,0.39,2.5a0.08,0.08,0,0,0,.09.07l2-.23A0.08,0.08,0,0,0,73.75,36c-0.11-.9-0.24-1.8-0.42-2.68A0.08,0.08,0,0,0,73.24,33.24ZM68.2,53l-1.82-.83a0.08,0.08,0,0,0-.1,0q-0.48,1-1,2a0.08,0.08,0,0,0,0,.11l1.74,1a0.08,0.08,0,0,0,.11,0q0.6-1.07,1.12-2.19A0.08,0.08,0,0,0,68.2,53ZM45.51,30.32l-0.78,1.33c0.21,0.12.41,0.25,0.6,0.39l0.89-1.25a0.08,0.08,0,0,0,0-.11l-0.58-.38A0.08,0.08,0,0,0,45.51,30.32Zm8.81,6.86c0.06,0.33.12,0.66,0.16,1a0.08,0.08,0,0,0,.09.07l2-.23a0.08,0.08,0,0,0,.07-0.09c0-.4-0.11-0.79-0.18-1.18a0.08,0.08,0,0,0-.1-0.06l-2,.4A0.08,0.08,0,0,0,54.32,37.18Zm3.48-5.57q-0.31-.66-0.66-1.29a0.08,0.08,0,0,0-.11,0l-1.76,1a0.08,0.08,0,0,0,0,.11q0.31,0.55.58,1.13a0.08,0.08,0,0,0,.1,0l1.84-.84A0.08,0.08,0,0,0,57.81,31.6ZM55.93,35L54,35.57a0.08,0.08,0,0,0-.05.1c0.1,0.32.19,0.65,0.26,1a0.08,0.08,0,0,0,.09.06l2-.44a0.08,0.08,0,0,0,.06-0.1C56.25,35.78,56.15,35.39,56,35A0.08,0.08,0,0,0,55.93,35Zm-2.51-.76q0.2,0.47.36,0.95a0.08,0.08,0,0,0,.1,0l1.91-.64a0.08,0.08,0,0,0,.05-0.1c-0.13-.38-0.27-0.75-0.43-1.12a0.08,0.08,0,0,0-.11,0l-1.85.8A0.08,0.08,0,0,0,53.42,34.2ZM58,32.14L56.1,33a0.08,0.08,0,0,0,0,.1q0.25,0.58.45,1.18a0.08,0.08,0,0,0,.1,0l1.92-.64a0.08,0.08,0,0,0,.05-0.1c-0.16-.46-0.33-0.91-0.52-1.35A0.08,0.08,0,0,0,58,32.14Zm-4.44,5.12-2,.4c0,0.1,0,.19.06,0.29s0.05,0.41.08,0.62l2-.23a0.08,0.08,0,0,0,.07-0.09c0-.31-0.09-0.62-0.15-0.93A0.08,0.08,0,0,0,53.52,37.26Zm-1.7,1.64a0.08,0.08,0,0,0-.07.09c0,0.26,0,.51,0,0.76a0.08,0.08,0,0,0,.08.08l1.92,0a0.08,0.08,0,0,0,.08-0.08c0-.31,0-0.63-0.05-0.94a0.08,0.08,0,0,0-.09-0.07ZM48,32.34a0.08,0.08,0,0,0,0-.12c-0.16-.17-0.33-0.33-0.5-0.49a0.08,0.08,0,0,0-.11,0l-1,1.13q0.26,0.24.51,0.51Zm17.67,2.45a0.08,0.08,0,0,0-.06.09c0.13,0.66.23,1.33,0.31,2a0.08,0.08,0,0,0,.09.07l2-.23a0.08,0.08,0,0,0,.07-0.09c-0.09-.74-0.2-1.46-0.34-2.18a0.08,0.08,0,0,0-.1-0.06Zm-1.51-2.42-1.9.6a0.08,0.08,0,0,0-.05.1c0.17,0.56.32,1.13,0.45,1.71a0.08,0.08,0,0,0,.09.06l1.94-.43a0.08,0.08,0,0,0,.06-0.1c-0.14-.64-0.31-1.27-0.5-1.89A0.08,0.08,0,0,0,64.15,32.36ZM64.82,35l-2,.4a0.08,0.08,0,0,0-.06.09c0.11,0.58.2,1.16,0.27,1.75a0.08,0.08,0,0,0,.09.07l2-.22A0.08,0.08,0,0,0,65.21,37c-0.08-.65-0.18-1.3-0.3-1.93A0.08,0.08,0,0,0,64.82,35Zm2.07-3.46-1.9.6a0.08,0.08,0,0,0-.05.1c0.2,0.64.37,1.3,0.52,2a0.08,0.08,0,0,0,.09.06l1.95-.43a0.08,0.08,0,0,0,.06-0.1C67.39,33,67.2,32.25,67,31.55A0.08,0.08,0,0,0,66.88,31.5Zm-5.45,1.72-1.92.61a0.08,0.08,0,0,0-.05.1c0.15,0.48.28,1,.39,1.47a0.08,0.08,0,0,0,.09.06l2-.43a0.08,0.08,0,0,0,.06-0.1c-0.13-.56-0.27-1.11-0.44-1.65A0.08,0.08,0,0,0,61.43,33.22Zm-3.95,5.13a0.08,0.08,0,0,0-.07.09c0,0.42.06,0.84,0.06,1.26a0.08,0.08,0,0,0,.08.08l2,0a0.08,0.08,0,0,0,.08-0.08q0-.73-0.07-1.45a0.08,0.08,0,0,0-.09-0.07ZM59.2,36.1l-2,.41a0.08,0.08,0,0,0-.06.09c0.08,0.41.14,0.83,0.2,1.25a0.08,0.08,0,0,0,.09.07l2-.23a0.08,0.08,0,0,0,.07-0.09c-0.06-.48-0.13-1-0.22-1.43A0.08,0.08,0,0,0,59.2,36.1ZM60,36c0.1,0.49.17,1,.23,1.5a0.08,0.08,0,0,0,.09.07l2-.23a0.08,0.08,0,0,0,.07-0.09c-0.07-.57-0.15-1.13-0.26-1.68a0.08,0.08,0,0,0-.1-0.06l-2,.4A0.08,0.08,0,0,0,60,36Zm8.42-1.72c0.15,0.74.26,1.49,0.35,2.25a0.08,0.08,0,0,0,.09.07l2-.23a0.08,0.08,0,0,0,.07-0.09c-0.1-.82-0.22-1.63-0.38-2.43a0.08,0.08,0,0,0-.1-0.06l-2,.4A0.08,0.08,0,0,0,68.41,34.31ZM57.17,21.18a0.08,0.08,0,0,0-.12,0l-1.34,1.47a0.08,0.08,0,0,0,0,.11Q56.36,23.37,57,24a0.08,0.08,0,0,0,.11,0l1.47-1.34a0.08,0.08,0,0,0,0-.12Q57.88,21.85,57.17,21.18Zm-8-1.83-0.83,1.83a0.08,0.08,0,0,0,0,.1q0.69,0.32,1.35.69a0.08,0.08,0,0,0,.11,0l1-1.75a0.08,0.08,0,0,0,0-.11q-0.74-.42-1.52-0.78A0.08,0.08,0,0,0,49.21,19.35Zm1.29-2.64a0.08,0.08,0,0,0-.11,0l-0.83,1.81a0.08,0.08,0,0,0,0,.1q0.81,0.38,1.58.81a0.08,0.08,0,0,0,.11,0l1-1.73a0.08,0.08,0,0,0,0-.11Q51.39,17.13,50.5,16.71Zm4.6,2.75a0.08,0.08,0,0,0-.11,0l-1.18,1.6a0.08,0.08,0,0,0,0,.11c0.47,0.36.93,0.73,1.37,1.12a0.08,0.08,0,0,0,.11,0l1.32-1.49a0.08,0.08,0,0,0,0-.11C56.13,20.27,55.63,19.85,55.11,19.46ZM52.88,18a0.08,0.08,0,0,0-.11,0l-1,1.72a0.08,0.08,0,0,0,0,.11q0.76,0.46,1.48,1a0.08,0.08,0,0,0,.11,0l1.16-1.62a0.08,0.08,0,0,0,0-.11Q53.71,18.47,52.88,18Zm-7.7,6-0.64,1.91a0.08,0.08,0,0,0,0,.1q0.48,0.17.94,0.36a0.08,0.08,0,0,0,.1,0l0.8-1.85a0.08,0.08,0,0,0,0-.11q-0.55-.23-1.12-0.43A0.08,0.08,0,0,0,45.17,23.94Zm1-2.79a0.08,0.08,0,0,0-.1.05l-0.64,1.92a0.08,0.08,0,0,0,0,.1c0.4,0.14.8,0.29,1.18,0.45a0.08,0.08,0,0,0,.1,0l0.81-1.86a0.08,0.08,0,0,0,0-.11C47.1,21.48,46.65,21.3,46.19,21.15ZM48,22l-0.84,1.84a0.08,0.08,0,0,0,0,.1q0.57,0.27,1.13.58a0.08,0.08,0,0,0,.11,0l1-1.76a0.08,0.08,0,0,0,0-.11q-0.63-.35-1.29-0.66A0.08,0.08,0,0,0,48,22Zm10.9,1.14-1.49,1.32a0.08,0.08,0,0,0,0,.11c0.39,0.44.76,0.9,1.12,1.37a0.08,0.08,0,0,0,.11,0l1.6-1.18a0.08,0.08,0,0,0,0-.11c-0.39-.52-0.81-1-1.24-1.52A0.08,0.08,0,0,0,58.92,23.1ZM59.3,43.83q0.14-.71.22-1.43a0.08,0.08,0,0,0-.07-0.09l-2-.23a0.08,0.08,0,0,0-.09.07c-0.05.42-.11,0.84-0.19,1.25a0.08,0.08,0,0,0,.06.09l2,0.41A0.08,0.08,0,0,0,59.3,43.83Zm0.29-2.07q0.06-.72.07-1.45a0.08,0.08,0,0,0-.08-0.08l-2,0a0.08,0.08,0,0,0-.08.08q0,0.64-.06,1.26a0.08,0.08,0,0,0,.07.09l2,0.2A0.08,0.08,0,0,0,59.59,41.77Zm-0.8,4.09c0.14-.46.26-0.93,0.37-1.4a0.08,0.08,0,0,0-.06-0.1l-2-.44A0.08,0.08,0,0,0,57,44c-0.09.41-.2,0.82-0.32,1.22a0.08,0.08,0,0,0,.05.1l1.93,0.61A0.08,0.08,0,0,0,58.79,45.86ZM44.26,26.68L43.65,28.5a0.08,0.08,0,0,0,0,.1l0.71,0.28a0.08,0.08,0,0,0,.1,0l0.77-1.76a0.08,0.08,0,0,0,0-.11q-0.43-.18-0.88-0.34A0.08,0.08,0,0,0,44.26,26.68ZM58.07,47.82q0.28-.67.52-1.36a0.08,0.08,0,0,0-.05-0.1l-1.92-.64a0.08,0.08,0,0,0-.1,0c-0.14.4-.29,0.8-0.45,1.18a0.08,0.08,0,0,0,0,.1L58,47.86A0.08,0.08,0,0,0,58.07,47.82Zm5-18.58q-0.41-.89-0.89-1.74a0.08,0.08,0,0,0-.11,0l-1.73,1a0.08,0.08,0,0,0,0,.11q0.43,0.77.81,1.58a0.08,0.08,0,0,0,.1,0L63,29.34A0.08,0.08,0,0,0,63,29.23ZM60.6,31l-1.84.8a0.08,0.08,0,0,0,0,.1c0.2,0.46.38,0.94,0.54,1.42a0.08,0.08,0,0,0,.1,0l1.91-.64a0.08,0.08,0,0,0,.05-0.1c-0.18-.54-0.39-1.07-0.61-1.59A0.08,0.08,0,0,0,60.6,31Zm2-8.07c-0.44-.59-0.91-1.16-1.39-1.71a0.08,0.08,0,0,0-.11,0l-1.49,1.32a0.08,0.08,0,0,0,0,.11c0.44,0.51.87,1,1.28,1.57a0.08,0.08,0,0,0,.11,0L62.55,23A0.08,0.08,0,0,0,62.57,22.93Zm-8.76,36L55,60.52a0.08,0.08,0,0,0,.11,0c0.52-.39,1-0.81,1.52-1.24a0.08,0.08,0,0,0,0-.11L55.31,57.7a0.08,0.08,0,0,0-.11,0c-0.44.39-.9,0.76-1.37,1.12A0.08,0.08,0,0,0,53.81,58.92Zm1.31-2.22a0.08,0.08,0,0,0,.12,0q0.62-.58,1.2-1.2a0.08,0.08,0,0,0,0-.12L55,54a0.08,0.08,0,0,0-.11,0q-0.52.56-1.07,1.07a0.08,0.08,0,0,0,0,.11ZM53.3,54.59q0.53-.49,1-1a0.08,0.08,0,0,0,0-.12l-1.49-1.37a0.08,0.08,0,0,0-.11,0q-0.43.46-.89,0.89a0.08,0.08,0,0,0,0,.11l1.37,1.49A0.08,0.08,0,0,0,53.3,54.59Zm3.87,4.22q0.72-.66,1.38-1.38a0.08,0.08,0,0,0,0-.12L57.08,56A0.08,0.08,0,0,0,57,56q-0.6.65-1.25,1.25a0.08,0.08,0,0,0,0,.11l1.34,1.47A0.08,0.08,0,0,0,57.17,58.82Zm1.21-5.7c0.33-.46.64-0.94,0.93-1.43a0.08,0.08,0,0,0,0-.11l-1.73-1a0.08,0.08,0,0,0-.11,0q-0.39.65-.83,1.27a0.08,0.08,0,0,0,0,.11l1.63,1.17A0.08,0.08,0,0,0,58.37,53.12Zm1.27-2q0.42-.74.78-1.52a0.08,0.08,0,0,0,0-.11l-1.83-.83a0.08,0.08,0,0,0-.1,0q-0.32.69-.69,1.35a0.08,0.08,0,0,0,0,.11l1.75,1A0.08,0.08,0,0,0,59.65,51.1ZM43.37,29.33l-0.49,1.45c0.23,0.08.45,0.16,0.67,0.25l0.61-1.4a0.08,0.08,0,0,0,0-.11l-0.65-.25A0.08,0.08,0,0,0,43.37,29.33Zm8.33,26.6c0.39-.29.76-0.6,1.12-0.92a0.08,0.08,0,0,0,0-.12l-1.34-1.52a0.08,0.08,0,0,0-.11,0c-0.32.28-.64,0.55-1,0.8a0.08,0.08,0,0,0,0,.11l1.2,1.63A0.08,0.08,0,0,0,51.7,55.93ZM58,53.56l-1.62-1.19a0.08,0.08,0,0,0-.11,0c-0.31.41-.63,0.8-1,1.18a0.08,0.08,0,0,0,0,.11L56.78,55a0.08,0.08,0,0,0,.11,0c0.37-.43.74-0.87,1.08-1.32A0.08,0.08,0,0,0,58,53.56Zm-13.6-.2c0.3-.1.59-0.21,0.88-0.34a0.08,0.08,0,0,0,0-.11l-0.77-1.76a0.08,0.08,0,0,0-.1,0l-0.72.27a0.08,0.08,0,0,0,0,.1l0.61,1.82A0.08,0.08,0,0,0,44.36,53.37Zm-0.89-2.65,0.65-.25a0.08,0.08,0,0,0,0-.11L43.56,49c-0.22.09-.45,0.17-0.67,0.25l0.48,1.45A0.08,0.08,0,0,0,43.47,50.71Zm7.73,5.47L50,54.54a0.08,0.08,0,0,0-.11,0c-0.34.24-.7,0.47-1.06,0.69a0.08,0.08,0,0,0,0,.11l1,1.75a0.08,0.08,0,0,0,.11,0c0.42-.25.82-0.52,1.21-0.79A0.08,0.08,0,0,0,51.2,56.19Zm-5.93-.08c0.38-.13.75-0.27,1.12-0.43a0.08,0.08,0,0,0,0-.11l-0.8-1.85a0.08,0.08,0,0,0-.1,0c-0.31.13-.63,0.25-0.95,0.36a0.08,0.08,0,0,0,0,.1l0.64,1.91A0.08,0.08,0,0,0,45.28,56.11Zm3.93,4.54a0.08,0.08,0,0,0,.11,0q0.77-.36,1.52-0.78a0.08,0.08,0,0,0,0-.11l-1-1.75a0.08,0.08,0,0,0-.11,0q-0.66.37-1.35,0.69a0.08,0.08,0,0,0,0,.1Zm-2.28-5.21q0.54-.25,1.06-0.54a0.08,0.08,0,0,0,0-.11L47,53a0.08,0.08,0,0,0-.11,0q-0.44.25-.9,0.46a0.08,0.08,0,0,0,0,.1l0.83,1.83A0.08,0.08,0,0,0,46.93,55.44ZM48,58a0.08,0.08,0,0,0,.11,0q0.66-.31,1.29-0.66a0.08,0.08,0,0,0,0-.11l-1-1.76a0.08,0.08,0,0,0-.11,0q-0.55.31-1.13,0.58a0.08,0.08,0,0,0,0,.1Zm2-4.43c0.32-.24.63-0.49,0.93-0.76a0.08,0.08,0,0,0,0-.11l-1.33-1.5a0.08,0.08,0,0,0-.11,0c-0.26.22-.52,0.43-0.79,0.63a0.08,0.08,0,0,0,0,.11l1.2,1.62A0.08,0.08,0,0,0,50,53.61ZM56,45c0.12-.38.22-0.77,0.31-1.16a0.08,0.08,0,0,0-.06-0.1l-2-.43a0.08,0.08,0,0,0-.09.06q-0.11.49-.26,1a0.08,0.08,0,0,0,.05.1L55.93,45A0.08,0.08,0,0,0,56,45Zm0.43-1.73c0.08-.39.14-0.78,0.18-1.18A0.08,0.08,0,0,0,56.57,42l-2-.23a0.08,0.08,0,0,0-.09.07c0,0.33-.1.67-0.16,1a0.08,0.08,0,0,0,.06.09l2,0.4A0.08,0.08,0,0,0,56.46,43.25Zm-1.83,5q0.29-.52.54-1.06a0.08,0.08,0,0,0,0-.11l-1.83-.83a0.08,0.08,0,0,0-.1,0c-0.14.3-.29,0.61-0.46,0.9a0.08,0.08,0,0,0,0,.11l1.74,1A0.08,0.08,0,0,0,54.63,48.26Zm1.29-19.73-1.65,1.18a0.08,0.08,0,0,0,0,.11q0.36,0.52.69,1.06a0.08,0.08,0,0,0,.11,0l1.75-1a0.08,0.08,0,0,0,0-.11c-0.25-.42-0.52-0.82-0.79-1.21A0.08,0.08,0,0,0,55.92,28.53Zm-0.5,18.13c0.16-.37.3-0.74,0.43-1.12a0.08,0.08,0,0,0-.05-0.1l-1.91-.64a0.08,0.08,0,0,0-.1,0c-0.11.32-.23,0.63-0.36,0.95a0.08,0.08,0,0,0,0,.1l1.84,0.8A0.08,0.08,0,0,0,55.42,46.66Zm3-19.78a0.08,0.08,0,0,0-.11,0L56.62,28a0.08,0.08,0,0,0,0,.11q0.44,0.62.83,1.27a0.08,0.08,0,0,0,.11,0l1.73-1a0.08,0.08,0,0,0,0-.11C59,27.82,58.7,27.34,58.37,26.88ZM56.71,38.51a0.08,0.08,0,0,0-.09-0.07l-2,.19a0.08,0.08,0,0,0-.07.09q0,0.5.05,1a0.08,0.08,0,0,0,.08.08l2,0a0.08,0.08,0,0,0,.08-0.08Q56.76,39.1,56.71,38.51Zm3.71-8.1q-0.36-.77-0.78-1.52a0.08,0.08,0,0,0-.11,0l-1.75,1a0.08,0.08,0,0,0,0,.11q0.37,0.66.69,1.35a0.08,0.08,0,0,0,.1,0l1.83-.83A0.08,0.08,0,0,0,60.42,30.41ZM56.71,41.49q0.05-.59.06-1.19a0.08,0.08,0,0,0-.08-0.08l-2,0a0.08,0.08,0,0,0-.08.08c0,0.34,0,.67-0.05,1a0.08,0.08,0,0,0,.07.09l2,0.19A0.08,0.08,0,0,0,56.71,41.49ZM49.4,50.33c0.23-.21.45-0.43,0.67-0.66a0.08,0.08,0,0,0,0-.12l-1.42-1.3a0.08,0.08,0,0,0-.11,0q-0.26.28-.54,0.54a0.08,0.08,0,0,0,0,.11l1.29,1.41A0.08,0.08,0,0,0,49.4,50.33Zm-1.25.94a0.08,0.08,0,0,0,.11,0c0.25-.19.5-0.38,0.73-0.59a0.08,0.08,0,0,0,0-.12l-1.27-1.44a0.08,0.08,0,0,0-.11,0c-0.19.17-.39,0.33-0.6,0.48a0.08,0.08,0,0,0,0,.11ZM46.6,49c0.18-.14.37-0.28,0.54-0.44a0.08,0.08,0,0,0,0-.12l-1-1.15c-0.18.16-.37,0.31-0.56,0.45L46.49,49A0.08,0.08,0,0,0,46.6,49Zm3.82,0.23q0.31-.35.59-0.73a0.08,0.08,0,0,0,0-.11l-1.54-1.14a0.08,0.08,0,0,0-.11,0q-0.23.31-.48,0.6a0.08,0.08,0,0,0,0,.11l1.44,1.27A0.08,0.08,0,0,0,50.43,49.26Zm3.26,0.51c0.23-.32.45-0.66,0.65-1a0.08,0.08,0,0,0,0-.11l-1.73-1a0.08,0.08,0,0,0-.11,0c-0.18.31-.38,0.61-0.59,0.91h0l1.69,1.21A0.08,0.08,0,0,0,53.68,49.77Zm-1.56-2.93c0.15-.28.29-0.56,0.42-0.84a0.08,0.08,0,0,0,0-.11l-1.75-.8a0.08,0.08,0,0,0-.1,0c-0.11.23-.22,0.46-0.34,0.68a0.08,0.08,0,0,0,0,.11L52,46.87A0.08,0.08,0,0,0,52.12,46.84ZM51.34,48.1c0.18-.26.35-0.52,0.51-0.79a0.08,0.08,0,0,0,0-.11l-1.66-1a0.08,0.08,0,0,0-.11,0c-0.13.22-.26,0.44-0.41,0.65a0.08,0.08,0,0,0,0,.11l1.56,1.12Zm0,4.36q0.44-.41.84-0.84a0.08,0.08,0,0,0,0-.12l-1.48-1.35a0.08,0.08,0,0,0-.11,0c-0.23.25-.47,0.48-0.72,0.71a0.08,0.08,0,0,0,0,.11l1.36,1.48A0.08,0.08,0,0,0,51.35,52.46Zm3.89-29.17a0.08,0.08,0,0,0-.12,0l-1.36,1.48a0.08,0.08,0,0,0,0,.11Q54.33,25.4,54.85,26A0.08,0.08,0,0,0,55,26l1.48-1.36a0.08,0.08,0,0,0,0-.12Q55.86,23.87,55.24,23.29ZM48.39,54.58a0.08,0.08,0,0,0,.11,0c0.34-.21.68-0.43,1-0.65a0.08,0.08,0,0,0,0-.11L48.36,52.2a0.08,0.08,0,0,0-.11,0c-0.28.19-.56,0.38-0.85,0.55a0.08,0.08,0,0,0,0,.11Zm-2.77-1.81a0.08,0.08,0,0,0,.11,0q0.43-.2.84-0.43a0.08,0.08,0,0,0,0-.11L45.66,50.6a0.08,0.08,0,0,0-.11,0l-0.68.35a0.08,0.08,0,0,0,0,.1Zm0-3.06,0.58-.38a0.08,0.08,0,0,0,0-.11L45.33,48c-0.19.14-.4,0.26-0.6,0.39l0.78,1.32A0.08,0.08,0,0,0,45.62,49.7Zm9,3.39a0.08,0.08,0,0,0,.11,0c0.32-.36.63-0.74,0.92-1.12a0.08,0.08,0,0,0,0-.11L54,50.65a0.08,0.08,0,0,0-.11,0c-0.25.34-.52,0.66-0.8,1a0.08,0.08,0,0,0,0,.11ZM44.57,50.26l0.62-.32a0.08,0.08,0,0,0,0-.11l-0.75-1.33c-0.21.12-.42,0.22-0.64,0.32l0.63,1.39A0.08,0.08,0,0,0,44.57,50.26Zm12.57-.58q0.35-.63.66-1.29a0.08,0.08,0,0,0,0-.11l-1.84-.84a0.08,0.08,0,0,0-.1,0q-0.27.57-.58,1.13a0.08,0.08,0,0,0,0,.11l1.76,1A0.08,0.08,0,0,0,57.15,49.69Zm-4.56,1.49c0.26-.3.52-0.61,0.76-0.93a0.08,0.08,0,0,0,0-.11l-1.62-1.2a0.08,0.08,0,0,0-.11,0c-0.2.27-.42,0.53-0.64,0.79a0.08,0.08,0,0,0,0,.11l1.5,1.33A0.08,0.08,0,0,0,52.58,51.18ZM47,52.12c0.27-.16.53-0.34,0.79-0.52a0.08,0.08,0,0,0,0-.11l-1.11-1.56a0.08,0.08,0,0,0-.11,0c-0.21.15-.42,0.29-0.64,0.42a0.08,0.08,0,0,0,0,.11l1,1.65A0.08,0.08,0,0,0,47,52.12Zm4.55-28-1.2,1.63a0.08,0.08,0,0,0,0,.11c0.34,0.25.66,0.52,1,.8a0.08,0.08,0,0,0,.11,0l1.34-1.52a0.08,0.08,0,0,0,0-.12c-0.36-.32-0.74-0.63-1.12-0.92A0.08,0.08,0,0,0,51.59,24.09ZM50,22.9a0.08,0.08,0,0,0-.11,0l-1,1.75a0.08,0.08,0,0,0,0,.11q0.54,0.33,1.06.69a0.08,0.08,0,0,0,.11,0l1.18-1.65a0.08,0.08,0,0,0,0-.11C50.79,23.42,50.39,23.15,50,22.9Zm-5.51,6.87-0.64,1.39c0.22,0.1.43,0.2,0.64,0.32l0.75-1.33a0.08,0.08,0,0,0,0-.11l-0.62-.32A0.08,0.08,0,0,0,44.46,29.77Zm8.94-8a0.08,0.08,0,0,0-.11,0L52.1,23.39a0.08,0.08,0,0,0,0,.11c0.41,0.31.8,0.63,1.18,1a0.08,0.08,0,0,0,.11,0l1.33-1.5a0.08,0.08,0,0,0,0-.11C54.3,22.46,53.86,22.1,53.41,21.76Zm-7.79,5.47L44.83,29a0.08,0.08,0,0,0,0,.1l0.68,0.35a0.08,0.08,0,0,0,.11,0l0.95-1.67a0.08,0.08,0,0,0,0-.11q-0.41-.23-0.84-0.43A0.08,0.08,0,0,0,45.62,27.23Zm1.31-2.67a0.08,0.08,0,0,0-.11,0L46,26.43a0.08,0.08,0,0,0,0,.1q0.46,0.21.9,0.46A0.08,0.08,0,0,0,47,27l1-1.75a0.08,0.08,0,0,0,0-.11Q47.47,24.81,46.93,24.56Zm1.46,0.87-1,1.73a0.08,0.08,0,0,0,0,.11q0.46,0.28.91,0.59h0l1.21-1.69a0.08,0.08,0,0,0,0-.11c-0.33-.23-0.66-0.45-1-0.65A0.08,0.08,0,0,0,48.39,25.42ZM42.94,53.78c0.31-.07.61-0.15,0.91-0.24a0.08,0.08,0,0,0,.05-0.1l-0.58-1.83a0.08,0.08,0,0,0-.1-0.05l-0.74.19a0.08,0.08,0,0,0-.06.09l0.41,1.87A0.08,0.08,0,0,0,42.94,53.78ZM21,65.15a0.08,0.08,0,0,0,.11,0l1.19-1.61a0.08,0.08,0,0,0,0-.11C21.64,63,21,62.47,20.48,62a0.08,0.08,0,0,0-.11,0L19,63.48a0.08,0.08,0,0,0,0,.11C19.66,64.13,20.3,64.65,21,65.15Zm1.28,4.29a0.08,0.08,0,0,0,.11,0l1-1.72a0.08,0.08,0,0,0,0-.11q-1.09-.65-2.12-1.38a0.08,0.08,0,0,0-.11,0l-1.16,1.63A0.08,0.08,0,0,0,20,68Q21.07,68.74,22.23,69.44Zm-6.09-8.75a0.08,0.08,0,0,0,.11,0l1.5-1.33a0.08,0.08,0,0,0,0-.11c-0.5-.57-1-1.16-1.44-1.76a0.08,0.08,0,0,0-.11,0L14.6,58.67a0.08,0.08,0,0,0,0,.11C15.08,59.44,15.6,60.07,16.14,60.69Zm5.44,11.67q1.29,0.73,2.64,1.35a0.08,0.08,0,0,0,.11,0l0.83-1.81a0.08,0.08,0,0,0,0-.1q-1.27-.59-2.48-1.27a0.08,0.08,0,0,0-.11,0l-1,1.73A0.08,0.08,0,0,0,21.58,72.36ZM18.43,63a0.08,0.08,0,0,0,.11,0l1.35-1.48a0.08,0.08,0,0,0,0-.11q-0.83-.77-1.61-1.61a0.08,0.08,0,0,0-.11,0L16.7,61.19a0.08,0.08,0,0,0,0,.11Q17.53,62.2,18.43,63Zm11.21,6.68a0.08,0.08,0,0,0,.1-0.05l0.64-1.9a0.08,0.08,0,0,0,0-.1q-1.08-.37-2.13-0.81a0.08,0.08,0,0,0-.1,0l-0.8,1.84a0.08,0.08,0,0,0,0,.11C28.09,69.17,28.86,69.46,29.64,69.72Zm-4.13,1.35,0.83-1.82a0.08,0.08,0,0,0,0-.1q-1.15-.53-2.25-1.15a0.08,0.08,0,0,0-.11,0l-1,1.74a0.08,0.08,0,0,0,0,.11q1.18,0.66,2.42,1.24A0.08,0.08,0,0,0,25.51,71.07ZM30.42,70c0.78,0.24,1.57.45,2.38,0.63a0.08,0.08,0,0,0,.1-0.06l0.43-2a0.08,0.08,0,0,0-.06-0.09c-0.74-.17-1.48-0.36-2.2-0.58A0.08,0.08,0,0,0,31,68l-0.6,1.91A0.08,0.08,0,0,0,30.42,70Zm-2.54-4.14L28.71,64a0.08,0.08,0,0,0,0-.1q-0.92-.43-1.8-0.92a0.08,0.08,0,0,0-.11,0l-1,1.74a0.08,0.08,0,0,0,0,.11q1,0.54,2,1A0.08,0.08,0,0,0,27.89,65.85ZM6.23,46.76l2-.4a0.08,0.08,0,0,0,.06-0.09c-0.16-.82-0.29-1.66-0.39-2.5a0.08,0.08,0,0,0-.09-0.07l-2,.23a0.08,0.08,0,0,0-.07.09c0.11,0.9.24,1.8,0.42,2.68A0.08,0.08,0,0,0,6.23,46.76ZM5.71,43.22l2-.19a0.08,0.08,0,0,0,.07-0.09q-0.11-1.25-.13-2.53a0.08,0.08,0,0,0-.08-0.08l-2,0a0.08,0.08,0,0,0-.08.08q0,1.37.14,2.71A0.08,0.08,0,0,0,5.71,43.22Zm0-17.94a0.08,0.08,0,0,0-.11,0q-0.59,1.36-1.06,2.77a0.08,0.08,0,0,0,.05.1l1.89,0.63a0.08,0.08,0,0,0,.1,0q0.45-1.32,1-2.6a0.08,0.08,0,0,0,0-.1Zm0,11.5a0.08,0.08,0,0,0-.09.07q-0.12,1.34-.14,2.71a0.08,0.08,0,0,0,.08.08l2,0a0.08,0.08,0,0,0,.08-0.08q0-1.27.13-2.53A0.08,0.08,0,0,0,7.7,37ZM15,54l1.74-1a0.08,0.08,0,0,0,0-.11q-0.49-.88-0.92-1.8a0.08,0.08,0,0,0-.1,0l-1.82.83a0.08,0.08,0,0,0,0,.11q0.47,1,1,2A0.08,0.08,0,0,0,15,54Zm-0.72.32q-0.56-1-1-2a0.08,0.08,0,0,0-.1,0L11.27,53a0.08,0.08,0,0,0,0,.11q0.52,1.12,1.12,2.19a0.08,0.08,0,0,0,.11,0l1.75-1A0.08,0.08,0,0,0,14.23,54.27Zm-2.46,5.5a0.08,0.08,0,0,0,.11,0l1.63-1.16a0.08,0.08,0,0,0,0-.11q-0.73-1-1.38-2.12a0.08,0.08,0,0,0-.11,0l-1.72,1a0.08,0.08,0,0,0,0,.11Q11,58.67,11.78,59.77Zm-1.92-3a0.08,0.08,0,0,0,.11,0l1.74-1a0.08,0.08,0,0,0,0-.11q-0.62-1.1-1.15-2.25a0.08,0.08,0,0,0-.1,0l-1.82.83a0.08,0.08,0,0,0,0,.11Q9.19,55.56,9.86,56.75ZM8.37,53.58l1.84-.8a0.08,0.08,0,0,0,0-.1c-0.33-.77-0.63-1.56-0.91-2.36a0.08,0.08,0,0,0-.1,0l-1.9.63a0.08,0.08,0,0,0-.05.1c0.29,0.86.61,1.71,1,2.53A0.08,0.08,0,0,0,8.37,53.58Zm31-36.38q-0.86,0-1.7.09a0.08,0.08,0,0,0-.07.09l0.19,2a0.08,0.08,0,0,0,.09.07q0.75-.07,1.52-0.08a0.08,0.08,0,0,0,.08-0.08l0-2A0.08,0.08,0,0,0,39.39,17.2Zm0,2.87q-0.73,0-1.45.07a0.08,0.08,0,0,0-.07.09l0.2,2a0.08,0.08,0,0,0,.09.07q0.63-.05,1.26-0.06a0.08,0.08,0,0,0,.08-0.08l0-2A0.08,0.08,0,0,0,39.42,20.07Zm0,2.89q-0.6,0-1.19.06a0.08,0.08,0,0,0-.07.09l0.19,2a0.08,0.08,0,0,0,.09.07c0.33,0,.67,0,1-0.06a0.08,0.08,0,0,0,.08-0.08l0-2A0.08,0.08,0,0,0,39.44,23Zm-1,5.84a0.08,0.08,0,0,0-.09-0.07l-0.69.11a0.08,0.08,0,0,0-.06.09l0.31,1.5,0.71-.11Zm0,22.38,0.17-1.52c-0.24,0-.48-0.06-0.71-0.11l-0.31,1.5a0.08,0.08,0,0,0,.06.1l0.69,0.11A0.08,0.08,0,0,0,38.39,51.19Zm1-36.84q-1,0-2,.1a0.08,0.08,0,0,0-.07.09l0.19,2a0.08,0.08,0,0,0,.09.07q0.88-.08,1.77-0.09a0.08,0.08,0,0,0,.08-0.08l0-2A0.08,0.08,0,0,0,39.37,14.34Zm-2.51-5.6a0.08,0.08,0,0,0-.07.09l0.19,2a0.08,0.08,0,0,0,.09.07q1.12-.1,2.27-0.12a0.08,0.08,0,0,0,.08-0.08l0-2a0.08,0.08,0,0,0-.08-0.08Q38.08,8.63,36.86,8.74Zm2.48,2.74q-1.11,0-2.21.11a0.08,0.08,0,0,0-.07.09l0.19,2a0.08,0.08,0,0,0,.09.07q1-.09,2-0.1a0.08,0.08,0,0,0,.08-0.08l0-2A0.08,0.08,0,0,0,39.34,11.48ZM33.52,67.75L34,65.8a0.08,0.08,0,0,0-.06-0.09c-0.66-.15-1.32-0.32-2-0.52a0.08,0.08,0,0,0-.1.05l-0.6,1.9a0.08,0.08,0,0,0,.05.1c0.7,0.22,1.41.4,2.14,0.57A0.08,0.08,0,0,0,33.52,67.75Zm2.94,0.5,0.23-2a0.08,0.08,0,0,0-.07-0.09c-0.67-.08-1.34-0.18-2-0.31a0.08,0.08,0,0,0-.09.06l-0.4,2a0.08,0.08,0,0,0,.06.1c0.72,0.14,1.45.25,2.18,0.34A0.08,0.08,0,0,0,36.46,68.25Zm0.32-2.84,0.23-2a0.08,0.08,0,0,0-.07-0.09c-0.59-.07-1.18-0.16-1.75-0.27a0.08,0.08,0,0,0-.09.06l-0.4,2a0.08,0.08,0,0,0,.06.1c0.64,0.13,1.28.22,1.93,0.3A0.08,0.08,0,0,0,36.78,65.41ZM33.61,70.8c0.8,0.16,1.61.28,2.43,0.38a0.08,0.08,0,0,0,.09-0.07l0.23-2A0.08,0.08,0,0,0,36.29,69q-1.14-.13-2.25-0.35a0.08,0.08,0,0,0-.09.06l-0.4,2A0.08,0.08,0,0,0,33.61,70.8Zm4.14-14,0.23-2a0.08,0.08,0,0,0-.07-0.09q-0.5-.06-1-0.16a0.08,0.08,0,0,0-.09.06l-0.4,2a0.08,0.08,0,0,0,.06.1c0.39,0.08.78,0.14,1.18,0.18A0.08,0.08,0,0,0,37.75,56.84ZM37.1,62.57l0.23-2a0.08,0.08,0,0,0-.07-0.09c-0.51-.06-1-0.14-1.5-0.23a0.08,0.08,0,0,0-.09.06l-0.4,2a0.08,0.08,0,0,0,.06.1c0.55,0.11,1.12.19,1.68,0.26A0.08,0.08,0,0,0,37.1,62.57Zm1-8.6,0.22-1.91A0.08,0.08,0,0,0,38.22,52l-0.76-.12a0.08,0.08,0,0,0-.09.06L37,53.8a0.08,0.08,0,0,0,.06.1Q37.52,54,38,54A0.08,0.08,0,0,0,38.08,54Zm-0.65,5.75,0.23-2a0.08,0.08,0,0,0-.07-0.09c-0.42-.05-0.84-0.11-1.25-0.19a0.08,0.08,0,0,0-.09.06l-0.41,2a0.08,0.08,0,0,0,.06.1q0.71,0.14,1.43.22A0.08,0.08,0,0,0,37.42,59.71Zm-2-.35,0.44-2a0.08,0.08,0,0,0-.06-0.09c-0.41-.09-0.82-0.2-1.22-0.32a0.08,0.08,0,0,0-.1.05L33.82,59a0.08,0.08,0,0,0,.05.1c0.46,0.14.93,0.26,1.4,0.37A0.08,0.08,0,0,0,35.38,59.37ZM37.23,51l0.33-1.5c-0.23-.05-0.47-0.11-0.69-0.18L36.4,50.77a0.08,0.08,0,0,0,.05.1l0.67,0.18A0.08,0.08,0,0,0,37.23,51Zm-0.6,2.73L37,51.85A0.08,0.08,0,0,0,37,51.76l-0.74-.2a0.08,0.08,0,0,0-.1.05l-0.58,1.83a0.08,0.08,0,0,0,.05.1c0.3,0.09.6,0.17,0.91,0.24A0.08,0.08,0,0,0,36.62,53.72ZM36,56.54l0.43-2a0.08,0.08,0,0,0-.06-0.09q-0.49-.11-1-0.26a0.08,0.08,0,0,0-.1.05l-0.6,1.92a0.08,0.08,0,0,0,.05.1c0.38,0.12.77,0.22,1.16,0.31A0.08,0.08,0,0,0,36,56.54ZM37.23,29a0.08,0.08,0,0,0-.1-0.06l-0.67.18a0.08,0.08,0,0,0-.05.1l0.46,1.46c0.23-.07.46-0.13,0.69-0.18Zm1.06-1.08L38.08,26A0.08,0.08,0,0,0,38,26c-0.31,0-.62.09-0.93,0.15a0.08,0.08,0,0,0-.06.1l0.38,1.88a0.08,0.08,0,0,0,.09.06L38.22,28A0.08,0.08,0,0,0,38.29,27.93ZM22.66,62.84a0.08,0.08,0,0,0,.11,0L24,61.22a0.08,0.08,0,0,0,0-.11c-0.54-.41-1.06-0.83-1.57-1.28a0.08,0.08,0,0,0-.11,0l-1.32,1.49a0.08,0.08,0,0,0,0,.11C21.5,61.93,22.07,62.4,22.66,62.84ZM36.24,2.34q1.5-.14,3-0.16a0.08,0.08,0,0,0,.08-0.08l0-2A0.08,0.08,0,0,0,39.25,0Q37.62,0,36,.16A0.08,0.08,0,0,0,36,.25l0.19,2A0.08,0.08,0,0,0,36.24,2.34Zm1.42,20.75c-0.4,0-.79.11-1.18,0.18a0.08,0.08,0,0,0-.06.1l0.4,2a0.08,0.08,0,0,0,.09.06c0.33-.06.66-0.12,1-0.16A0.08,0.08,0,0,0,38,25.15l-0.23-2A0.08,0.08,0,0,0,37.66,23.09Zm-0.33-2.87c-0.48.06-1,.13-1.43,0.22a0.08,0.08,0,0,0-.06.1l0.41,2a0.08,0.08,0,0,0,.09.06c0.41-.08.83-0.14,1.25-0.19a0.08,0.08,0,0,0,.07-0.09l-0.23-2A0.08,0.08,0,0,0,37.33,20.21ZM25.64,58.81c-0.47-.36-0.93-0.73-1.37-1.12a0.08,0.08,0,0,0-.11,0l-1.32,1.49a0.08,0.08,0,0,0,0,.11c0.49,0.43,1,.84,1.52,1.24a0.08,0.08,0,0,0,.11,0l1.18-1.6A0.08,0.08,0,0,0,25.64,58.81Zm-4,6.81q1,0.71,2.06,1.35a0.08,0.08,0,0,0,.11,0l1-1.73a0.08,0.08,0,0,0,0-.11q-1-.58-1.91-1.24a0.08,0.08,0,0,0-.11,0l-1.16,1.63A0.08,0.08,0,0,0,21.62,65.63Zm5-3.59a0.08,0.08,0,0,0,.11,0l1-1.72a0.08,0.08,0,0,0,0-.11q-0.76-.46-1.48-1a0.08,0.08,0,0,0-.11,0l-1.16,1.62A0.08,0.08,0,0,0,25,61Q25.75,61.53,26.59,62Zm5.56,2.49c0.62,0.19,1.25.36,1.89,0.5a0.08,0.08,0,0,0,.1-0.06L34.57,63a0.08,0.08,0,0,0-.06-0.09c-0.58-.13-1.15-0.28-1.71-0.45a0.08,0.08,0,0,0-.1.05l-0.6,1.9A0.08,0.08,0,0,0,32.15,64.52Zm0.32-3,0.64-1.91a0.08,0.08,0,0,0,0-.1c-0.48-.17-1-0.35-1.42-0.54a0.08,0.08,0,0,0-.1,0l-0.8,1.84a0.08,0.08,0,0,0,0,.11q0.78,0.34,1.59.61A0.08,0.08,0,0,0,32.47,61.53ZM29,63.29a0.08,0.08,0,0,0,.11,0l0.83-1.81a0.08,0.08,0,0,0,0-.1q-0.81-.37-1.58-0.81a0.08,0.08,0,0,0-.11,0l-1,1.73a0.08,0.08,0,0,0,0,.11Q28.07,62.87,29,63.29Zm-0.48,2.92c0.67,0.29,1.36.55,2.06,0.79a0.08,0.08,0,0,0,.1-0.05l0.63-1.89a0.08,0.08,0,0,0,0-.1q-1-.33-1.89-0.72a0.08,0.08,0,0,0-.1,0l-0.8,1.83A0.08,0.08,0,0,0,28.49,66.21Zm-18.63-43q-0.66,1.18-1.24,2.42a0.08,0.08,0,0,0,0,.11l1.82,0.83a0.08,0.08,0,0,0,.1,0q0.53-1.15,1.15-2.25a0.08,0.08,0,0,0,0-.11l-1.74-1A0.08,0.08,0,0,0,9.86,23.25ZM14,17.41c-0.6.68-1.17,1.38-1.71,2.1a0.08,0.08,0,0,0,0,.11l1.61,1.19a0.08,0.08,0,0,0,.11,0c0.51-.68,1-1.33,1.6-2a0.08,0.08,0,0,0,0-.11l-1.5-1.33A0.08,0.08,0,0,0,14,17.41ZM18.43,17q-0.9.83-1.74,1.74a0.08,0.08,0,0,0,0,.11l1.48,1.35a0.08,0.08,0,0,0,.11,0q0.77-.83,1.61-1.61a0.08,0.08,0,0,0,0-.11L18.55,17A0.08,0.08,0,0,0,18.43,17Zm-1.82-2.11a0.08,0.08,0,0,0-.12,0q-1,.92-1.92,1.92a0.08,0.08,0,0,0,0,.11l1.47,1.35a0.08,0.08,0,0,0,.11,0Q17,17.3,18,16.44a0.08,0.08,0,0,0,0-.11Zm4.46,0a0.08,0.08,0,0,0-.11,0c-0.66.49-1.29,1-1.91,1.55a0.08,0.08,0,0,0,0,.11L20.37,18a0.08,0.08,0,0,0,.11,0c0.57-.5,1.16-1,1.76-1.44a0.08,0.08,0,0,0,0-.11ZM7.86,36.23c0.1-.84.23-1.68,0.39-2.5a0.08,0.08,0,0,0-.06-0.09l-2-.4a0.08,0.08,0,0,0-.1.06C6,34.18,5.82,35.08,5.71,36a0.08,0.08,0,0,0,.07.09l2,0.23A0.08,0.08,0,0,0,7.86,36.23Zm3.92-16Q11,21.33,10.29,22.5a0.08,0.08,0,0,0,0,.11l1.72,1a0.08,0.08,0,0,0,.11,0q0.65-1.09,1.38-2.12a0.08,0.08,0,0,0,0-.11l-1.63-1.16A0.08,0.08,0,0,0,11.78,20.23ZM7,29.83c-0.27.86-.5,1.74-0.7,2.62a0.08,0.08,0,0,0,.06.1l2,0.43a0.08,0.08,0,0,0,.09-0.06c0.19-.83.4-1.64,0.65-2.44A0.08,0.08,0,0,0,9,30.38l-1.91-.6A0.08,0.08,0,0,0,7,29.83ZM22.66,17.16c-0.59.44-1.16,0.91-1.71,1.39a0.08,0.08,0,0,0,0,.11l1.32,1.49a0.08,0.08,0,0,0,.11,0c0.51-.44,1-0.87,1.57-1.28a0.08,0.08,0,0,0,0-.11l-1.19-1.61A0.08,0.08,0,0,0,22.66,17.16Zm3.93-5.67q-1.12.52-2.19,1.12a0.08,0.08,0,0,0,0,.11l1,1.75a0.08,0.08,0,0,0,.11,0q1-.56,2-1a0.08,0.08,0,0,0,0-.1L26.7,11.54A0.08,0.08,0,0,0,26.59,11.5ZM36,8.83c-0.82.1-1.63,0.22-2.43,0.38a0.08,0.08,0,0,0-.06.1l0.4,2a0.08,0.08,0,0,0,.09.06c0.74-.15,1.49-0.26,2.25-0.35a0.08,0.08,0,0,0,.07-0.09l-0.23-2A0.08,0.08,0,0,0,36,8.83Zm0.32,2.85c-0.74.09-1.46,0.2-2.18,0.34a0.08,0.08,0,0,0-.06.1l0.4,2a0.08,0.08,0,0,0,.09.06c0.66-.13,1.33-0.23,2-0.31a0.08,0.08,0,0,0,.07-0.09l-0.23-2A0.08,0.08,0,0,0,36.37,11.68Zm-2.94.51c-0.72.16-1.44,0.35-2.14,0.57a0.08,0.08,0,0,0-.05.1l0.6,1.9a0.08,0.08,0,0,0,.1.05c0.64-.2,1.3-0.37,2-0.52A0.08,0.08,0,0,0,34,14.2l-0.43-1.95A0.08,0.08,0,0,0,33.42,12.18ZM30.55,13c-0.7.24-1.39,0.5-2.06,0.79a0.08,0.08,0,0,0,0,.11l0.8,1.83a0.08,0.08,0,0,0,.1,0q0.93-.4,1.89-0.72a0.08,0.08,0,0,0,0-.1L30.65,13A0.08,0.08,0,0,0,30.55,13Zm6.14,1.52c-0.65.08-1.3,0.18-1.93,0.3a0.08,0.08,0,0,0-.06.1l0.4,2a0.08,0.08,0,0,0,.09.06c0.58-.11,1.16-0.2,1.75-0.27A0.08,0.08,0,0,0,37,16.57l-0.23-2A0.08,0.08,0,0,0,36.69,14.52Zm-7-4.24q-1.17.4-2.3,0.88a0.08,0.08,0,0,0,0,.11l0.8,1.84a0.08,0.08,0,0,0,.1,0q1-.45,2.12-0.81a0.08,0.08,0,0,0,0-.1l-0.64-1.9A0.08,0.08,0,0,0,29.64,10.28Zm-6.37,6.55,1.16,1.62a0.08,0.08,0,0,0,.11,0q0.83-.58,1.69-1.11a0.08,0.08,0,0,0,0-.11l-1-1.72a0.08,0.08,0,0,0-.11,0q-0.95.57-1.85,1.21A0.08,0.08,0,0,0,23.27,16.82ZM37,17.36c-0.57.07-1.13,0.15-1.68,0.26a0.08,0.08,0,0,0-.06.1l0.4,2a0.08,0.08,0,0,0,.09.06c0.49-.1,1-0.17,1.5-0.23a0.08,0.08,0,0,0,.07-0.09l-0.23-2A0.08,0.08,0,0,0,37,17.36ZM47.14,77.09c-1,.2-2,0.35-3,0.47a0.08,0.08,0,0,0-.07.09l0.23,2a0.08,0.08,0,0,0,.09.07c1.07-.12,2.14-0.29,3.18-0.49a0.08,0.08,0,0,0,.06-0.1l-0.41-2A0.08,0.08,0,0,0,47.14,77.09ZM42.67,72q-1.25.11-2.53,0.13a0.08,0.08,0,0,0-.08.08l0,2a0.08,0.08,0,0,0,.08.08q1.37,0,2.71-.14A0.08,0.08,0,0,0,43,74l-0.19-2A0.08,0.08,0,0,0,42.67,72ZM41.22,57a0.08,0.08,0,0,0,.07-0.09l-0.19-2A0.08,0.08,0,0,0,41,54.81c-0.33,0-.67,0-1,0.06a0.08,0.08,0,0,0-.08.08l0,2A0.08,0.08,0,0,0,40,57Q40.63,57,41.22,57Zm0.55,5.74a0.08,0.08,0,0,0,.07-0.09l-0.19-2a0.08,0.08,0,0,0-.09-0.07q-0.75.07-1.52,0.08a0.08,0.08,0,0,0-.08.08l0,2a0.08,0.08,0,0,0,.08.08Q40.93,62.79,41.78,62.71Zm-1.65,5.8q1.11,0,2.21-.11a0.08,0.08,0,0,0,.07-0.09l-0.19-2a0.08,0.08,0,0,0-.09-0.07q-1,.09-2,0.1a0.08,0.08,0,0,0-.08.08l0,2A0.08,0.08,0,0,0,40.12,68.52Zm5.22-.63-0.4-2a0.08,0.08,0,0,0-.09-0.06c-0.66.13-1.33,0.23-2,.31a0.08,0.08,0,0,0-.07.09l0.23,2a0.08,0.08,0,0,0,.09.07c0.74-.09,1.46-0.2,2.18-0.34A0.08,0.08,0,0,0,45.35,67.89Zm1.72,8.42-0.4-2a0.08,0.08,0,0,0-.09-0.06c-0.9.18-1.82,0.32-2.75,0.43a0.08,0.08,0,0,0-.07.09l0.22,2a0.08,0.08,0,0,0,.09.07c1-.12,2-0.27,2.93-0.46A0.08,0.08,0,0,0,47.06,76.31Zm-0.57-2.8-0.4-2A0.08,0.08,0,0,0,46,71.49c-0.82.16-1.66,0.29-2.5,0.39a0.08,0.08,0,0,0-.07.09l0.23,2a0.08,0.08,0,0,0,.09.07c0.9-.11,1.8-0.24,2.68-0.42A0.08,0.08,0,0,0,46.49,73.51Zm-6.35-2.12q1.24,0,2.46-.13a0.08,0.08,0,0,0,.07-0.09l-0.19-2a0.08,0.08,0,0,0-.09-0.07q-1.13.1-2.27,0.12a0.08,0.08,0,0,0-.08.08l0,2A0.08,0.08,0,0,0,40.15,71.39ZM39.48,52.07l-0.77,0a0.08,0.08,0,0,0-.09.07L38.45,54a0.08,0.08,0,0,0,.07.09q0.47,0,.94,0a0.08,0.08,0,0,0,.08-0.08l0-1.92A0.08,0.08,0,0,0,39.48,52.07Zm-0.77-.84a0.08,0.08,0,0,0,.07.09l0.69,0a0.08,0.08,0,0,0,.08-0.08V49.74l-0.72,0Zm0.74,3.64q-0.51,0-1-.05a0.08,0.08,0,0,0-.09.07l-0.19,2a0.08,0.08,0,0,0,.07.09q0.59,0.05,1.2.06A0.08,0.08,0,0,0,39.52,57l0-2A0.08,0.08,0,0,0,39.46,54.87Zm-0.07,8.64q-0.89,0-1.77-.09a0.08,0.08,0,0,0-.09.07l-0.19,2a0.08,0.08,0,0,0,.07.09q1,0.09,2,.1a0.08,0.08,0,0,0,.08-0.08l0-2A0.08,0.08,0,0,0,39.39,63.51ZM40,54.15c0.32,0,.63,0,0.94-0.05A0.08,0.08,0,0,0,41,54L40.83,52.1A0.08,0.08,0,0,0,40.75,52l-0.77,0a0.08,0.08,0,0,0-.08.08l0,1.92A0.08,0.08,0,0,0,40,54.15Zm0-2.8,0.69,0a0.08,0.08,0,0,0,.07-0.09L40.6,49.7l-0.72,0v1.53A0.08,0.08,0,0,0,40,51.35Zm0.77-22.57a0.08,0.08,0,0,0-.07-0.09l-0.69,0a0.08,0.08,0,0,0-.08.08v1.53l0.71,0Zm-1.26-.12-0.69,0a0.08,0.08,0,0,0-.07.09l0.15,1.52,0.72,0V28.73A0.08,0.08,0,0,0,39.49,28.65Zm-0.07,32q-0.77,0-1.52-.08a0.08,0.08,0,0,0-.09.07l-0.19,2a0.08,0.08,0,0,0,.07.09q0.84,0.07,1.7.09a0.08,0.08,0,0,0,.08-0.08l0-2A0.08,0.08,0,0,0,39.41,60.63ZM79.65,40.4l-2,0a0.08,0.08,0,0,0-.08.08q0,1.53-.16,3a0.08,0.08,0,0,0,.07.09l2,0.19a0.08,0.08,0,0,0,.09-0.07q0.14-1.59.16-3.22A0.08,0.08,0,0,0,79.65,40.4ZM51,76.12c-1,.3-1.94.55-2.93,0.78A0.08,0.08,0,0,0,48,77l0.44,2a0.08,0.08,0,0,0,.1.06c1.05-.24,2.09-0.51,3.11-0.82a0.08,0.08,0,0,0,.05-0.1l-0.61-1.94A0.08,0.08,0,0,0,51,76.12ZM78.7,48.69l-2-.44a0.08,0.08,0,0,0-.09.06c-0.22,1-.48,2-0.78,2.93a0.08,0.08,0,0,0,.05.1L77.84,52a0.08,0.08,0,0,0,.1-0.05c0.32-1,.59-2.06.82-3.11A0.08,0.08,0,0,0,78.7,48.69ZM73.4,55.4l-1.81-.83a0.08,0.08,0,0,0-.1,0q-0.59,1.27-1.27,2.48a0.08,0.08,0,0,0,0,.11l1.73,1a0.08,0.08,0,0,0,.11,0q0.73-1.29,1.35-2.64A0.08,0.08,0,0,0,73.4,55.4ZM215.48,6.94v68.9h16.29V3.21ZM122.07,19.5c-2.26,0-10,0-15.8,6.18V3.21L90,6.94v68.9h15.61V70.06h0.2c2.06,3.93,8,7.66,15.61,7.66,13.84,0,27.48-9.82,27.48-29.45C148.86,27.65,133.45,19.5,122.07,19.5Zm-3.14,43c-8.15,0-13.25-6.48-13.25-14,0-6.77,4.91-13.74,13.55-13.74,8,0,13.35,6.77,13.35,13.84S127.27,62.5,118.93,62.5Zm-48.77.08a0.08,0.08,0,0,0-.11,0c-0.61.81-1.25,1.59-1.91,2.35a0.08,0.08,0,0,0,0,.11l1.53,1.35a0.08,0.08,0,0,0,.11,0c0.71-.81,1.39-1.64,2-2.5a0.08,0.08,0,0,0,0-.11ZM181.63,19.5c-16.59,0-28.56,14-28.56,29.25a28.9,28.9,0,0,0,28.86,28.86,26.48,26.48,0,0,0,15.51-4.91,32,32,0,0,0,11.09-13.94H191.84c-2.26,2.85-4.91,5.1-9.91,5.1-6.38,0-11.78-3.83-12.76-10.31H210a22.28,22.28,0,0,0,.39-4.32C210.39,32.66,198.22,19.5,181.63,19.5ZM169.36,42.57c0.69-3.24,3.93-9.33,12.37-9.33s11.68,6.09,12.37,9.33H169.36ZM74.19,55.76a0.08,0.08,0,0,0-.1,0q-0.64,1.38-1.38,2.7a0.08,0.08,0,0,0,0,.11l1.77,1a0.08,0.08,0,0,0,.11,0q0.79-1.4,1.46-2.87a0.08,0.08,0,0,0,0-.11Zm-6.56,9.87a0.08,0.08,0,0,0-.11,0q-1,1.11-2.14,2.14a0.08,0.08,0,0,0,0,.11l1.38,1.51a0.08,0.08,0,0,0,.11,0q1.18-1.09,2.28-2.28a0.08,0.08,0,0,0,0-.11ZM58.34,73a0.08,0.08,0,0,0-.11,0q-1.32.74-2.7,1.38a0.08,0.08,0,0,0,0,.1l0.84,1.85a0.08,0.08,0,0,0,.11,0q1.47-.68,2.87-1.46a0.08,0.08,0,0,0,0-.11Zm-5.83-3.47a0.08,0.08,0,0,0-.1,0Q51.25,70,50,70.39a0.08,0.08,0,0,0,0,.1l0.63,1.9a0.08,0.08,0,0,0,.1.05c0.86-.29,1.71-0.61,2.53-1a0.08,0.08,0,0,0,0-.11Zm5.41,2.72-1-1.73a0.08,0.08,0,0,0-.11,0q-1.21.68-2.48,1.27a0.08,0.08,0,0,0,0,.1l0.83,1.81a0.08,0.08,0,0,0,.11,0q1.35-.62,2.64-1.35A0.08,0.08,0,0,0,57.92,72.25ZM67,65L65.52,63.7a0.08,0.08,0,0,0-.11,0q-0.94,1-2,2a0.08,0.08,0,0,0,0,.11l1.34,1.47a0.08,0.08,0,0,0,.11,0q1.09-1,2.1-2.1A0.08,0.08,0,0,0,67,65Zm-5.3,5.82a0.08,0.08,0,0,0-.11,0c-0.82.58-1.67,1.14-2.54,1.66a0.08,0.08,0,0,0,0,.11l1,1.76a0.08,0.08,0,0,0,.11,0q1.39-.83,2.7-1.76a0.08,0.08,0,0,0,0-.11Zm3.18-12.21-1.61-1.19a0.08,0.08,0,0,0-.11,0c-0.46.61-.94,1.19-1.44,1.76a0.08,0.08,0,0,0,0,.11l1.5,1.33a0.08,0.08,0,0,0,.11,0c0.54-.62,1.06-1.25,1.56-1.91A0.08,0.08,0,0,0,64.86,58.67ZM10,17.93l1.6,1.18a0.08,0.08,0,0,0,.11,0c0.56-.74,1.14-1.46,1.76-2.16a0.08,0.08,0,0,0,0-.11L12,15.51a0.08,0.08,0,0,0-.11,0c-0.65.74-1.28,1.51-1.87,2.3A0.08,0.08,0,0,0,10,17.93Zm4.67-6.34a0.08,0.08,0,0,0,.11,0c0.76-.67,1.54-1.31,2.35-1.92a0.08,0.08,0,0,0,0-.11L15.94,7.93a0.08,0.08,0,0,0-.11,0c-0.86.64-1.69,1.32-2.5,2a0.08,0.08,0,0,0,0,.11ZM39.34,69.22q-1.15,0-2.27-.12a0.08,0.08,0,0,0-.09.07l-0.19,2a0.08,0.08,0,0,0,.07.09q1.22,0.11,2.46.13a0.08,0.08,0,0,0,.08-0.08l0-2A0.08,0.08,0,0,0,39.34,69.22ZM33,6.49l0.4,2a0.08,0.08,0,0,0,.09.06c0.82-.16,1.66-0.29,2.5-0.39A0.08,0.08,0,0,0,36,8L35.81,6A0.08,0.08,0,0,0,35.72,6c-0.9.11-1.8,0.24-2.68,0.42A0.08,0.08,0,0,0,33,6.49ZM15.25,12.24l1.32,1.49a0.08,0.08,0,0,0,.11,0c0.7-.61,1.41-1.2,2.15-1.76a0.08,0.08,0,0,0,0-.11l-1.18-1.6a0.08,0.08,0,0,0-.11,0c-0.79.59-1.56,1.22-2.3,1.87A0.08,0.08,0,0,0,15.25,12.24ZM2.64,47.41c-0.2-1-.35-2-0.47-3a0.08,0.08,0,0,0-.09-0.07l-2,.23a0.08,0.08,0,0,0-.07.09c0.12,1.07.29,2.14,0.49,3.18a0.08,0.08,0,0,0,.1.06l2-.41A0.08,0.08,0,0,0,2.64,47.41Zm-2.57-12,2,0.23a0.08,0.08,0,0,0,.09-0.07c0.12-1,.27-2,0.47-3a0.08,0.08,0,0,0-.06-0.09l-2-.41a0.08,0.08,0,0,0-.1.06C0.29,33.2.12,34.26,0,35.34A0.08,0.08,0,0,0,.07,35.43Zm1.81-8.15,1.93,0.64a0.08,0.08,0,0,0,.1,0Q4.4,26.43,5,25a0.08,0.08,0,0,0,0-.1l-1.87-.81a0.08,0.08,0,0,0-.11,0q-0.64,1.47-1.15,3A0.08,0.08,0,0,0,1.89,27.28Zm15.26-12.9,1.33,1.5a0.08,0.08,0,0,0,.11,0c0.63-.56,1.28-1.09,2-1.6a0.08,0.08,0,0,0,0-.11l-1.19-1.61a0.08,0.08,0,0,0-.11,0c-0.73.54-1.42,1.12-2.1,1.71A0.08,0.08,0,0,0,17.14,14.38Zm-10,6.34a0.08,0.08,0,0,0,.11,0Q8,19.39,8.88,18.16a0.08,0.08,0,0,0,0-.11L7.2,16.86a0.08,0.08,0,0,0-.11,0q-0.93,1.31-1.76,2.7a0.08,0.08,0,0,0,0,.11ZM32.32,2.91c1-.2,2-0.35,3-0.47a0.08,0.08,0,0,0,.07-0.09l-0.23-2A0.08,0.08,0,0,0,35.07.27C34,0.39,32.93.55,31.89,0.76a0.08,0.08,0,0,0-.06.09l0.41,2A0.08,0.08,0,0,0,32.32,2.91ZM21.1,13.78a0.08,0.08,0,0,0,.11,0q1-.73,2.12-1.38a0.08,0.08,0,0,0,0-.11l-1-1.72a0.08,0.08,0,0,0-.11,0Q21.07,11.26,20,12a0.08,0.08,0,0,0,0,.11Zm9.11-4.44c0.8-.25,1.62-0.46,2.44-0.65a0.08,0.08,0,0,0,.06-0.09l-0.43-2a0.08,0.08,0,0,0-.1-0.06c-0.89.2-1.76,0.43-2.62,0.69a0.08,0.08,0,0,0-.05.1l0.6,1.91A0.08,0.08,0,0,0,30.21,9.34ZM32.4,3.69l0.4,2a0.08,0.08,0,0,0,.09.06c0.9-.18,1.82-0.32,2.75-0.43a0.08,0.08,0,0,0,.07-0.09l-0.23-2a0.08,0.08,0,0,0-.09-0.07c-1,.12-2,0.27-2.93.46A0.08,0.08,0,0,0,32.4,3.69ZM21.12,7a0.08,0.08,0,0,0,.11,0q1.32-.74,2.7-1.38a0.08,0.08,0,0,0,0-.1L23.13,3.69a0.08,0.08,0,0,0-.11,0q-1.47.68-2.87,1.46a0.08,0.08,0,0,0,0,.11Zm3.55-1.77a0.08,0.08,0,0,0,.1,0c0.92-.4,1.87-0.76,2.83-1.09a0.08,0.08,0,0,0,0-.1L27,2.15a0.08,0.08,0,0,0-.1-0.05c-1,.35-2,0.73-3,1.15a0.08,0.08,0,0,0,0,.11Zm1.49,3.41L27,10.47a0.08,0.08,0,0,0,.1,0c0.77-.33,1.56-0.63,2.36-0.91a0.08,0.08,0,0,0,0-.1l-0.63-1.9a0.08,0.08,0,0,0-.1-0.05c-0.86.29-1.71,0.61-2.53,1A0.08,0.08,0,0,0,26.16,8.64ZM9.31,17.42a0.08,0.08,0,0,0,.11,0c0.61-.81,1.25-1.59,1.92-2.35a0.08,0.08,0,0,0,0-.11L9.8,13.59a0.08,0.08,0,0,0-.11,0c-0.71.81-1.39,1.64-2,2.5a0.08,0.08,0,0,0,0,.11Zm20.11,53q-1.2-.41-2.36-0.91a0.08,0.08,0,0,0-.1,0l-0.8,1.84a0.08,0.08,0,0,0,0,.11q1.24,0.54,2.53,1a0.08,0.08,0,0,0,.1-0.05l0.63-1.9A0.08,0.08,0,0,0,29.42,70.39Zm6.22,4.33c-0.93-.11-1.84-0.25-2.75-0.43a0.08,0.08,0,0,0-.09.06l-0.4,2a0.08,0.08,0,0,0,.06.1c1,0.19,1.94.34,2.93,0.46a0.08,0.08,0,0,0,.09-0.07l0.23-2A0.08,0.08,0,0,0,35.64,74.72Zm-3-3.42c-0.83-.19-1.64-0.4-2.44-0.65a0.08,0.08,0,0,0-.1.05l-0.6,1.91a0.08,0.08,0,0,0,.05.1c0.86,0.27,1.74.5,2.62,0.7a0.08,0.08,0,0,0,.1-0.06l0.43-2A0.08,0.08,0,0,0,32.65,71.31Zm-8.72,3q-1.38-.64-2.7-1.38a0.08,0.08,0,0,0-.11,0l-1,1.77a0.08,0.08,0,0,0,0,.11q1.4,0.79,2.87,1.46a0.08,0.08,0,0,0,.11,0L24,74.46A0.08,0.08,0,0,0,23.93,74.35Zm3.68,1.47q-1.44-.49-2.83-1.09a0.08,0.08,0,0,0-.1,0l-0.81,1.87a0.08,0.08,0,0,0,0,.11q1.47,0.63,3,1.15a0.08,0.08,0,0,0,.1-0.05l0.64-1.93A0.08,0.08,0,0,0,27.61,75.82ZM5,55q-0.6-1.39-1.09-2.83a0.08,0.08,0,0,0-.1,0l-1.93.64a0.08,0.08,0,0,0-.05.1q0.52,1.53,1.15,3a0.08,0.08,0,0,0,.11,0L5,55.06A0.08,0.08,0,0,0,5,55ZM36,71.87c-0.84-.1-1.68-0.23-2.5-0.39a0.08,0.08,0,0,0-.09.06l-0.4,2a0.08,0.08,0,0,0,.06.1c0.88,0.18,1.78.31,2.68,0.42A0.08,0.08,0,0,0,35.81,74L36,72A0.08,0.08,0,0,0,36,71.87Zm3.31,5.94q-1.53,0-3-.16a0.08,0.08,0,0,0-.09.07l-0.19,2a0.08,0.08,0,0,0,.07.09Q37.62,80,39.25,80a0.08,0.08,0,0,0,.08-0.08l0-2A0.08,0.08,0,0,0,39.27,77.81Zm0-2.86q-1.4,0-2.78-.14a0.08,0.08,0,0,0-.09.07l-0.19,2a0.08,0.08,0,0,0,.07.09q1.46,0.14,3,.15A0.08,0.08,0,0,0,39.36,77l0-2A0.08,0.08,0,0,0,39.29,75Zm-18.4-3.09,1-1.72a0.08,0.08,0,0,0,0-.11q-1.2-.71-2.33-1.52a0.08,0.08,0,0,0-.11,0l-1.16,1.62a0.08,0.08,0,0,0,0,.11q1.21,0.86,2.48,1.62A0.08,0.08,0,0,0,20.89,71.87ZM6.62,51.22a0.08,0.08,0,0,0-.1,0l-1.89.63a0.08,0.08,0,0,0-.05.1q0.48,1.41,1.06,2.77a0.08,0.08,0,0,0,.11,0l1.83-.79a0.08,0.08,0,0,0,0-.1C7.25,53,6.92,52.1,6.62,51.22ZM5.38,55.8a0.08,0.08,0,0,0-.1,0l-1.85.84a0.08,0.08,0,0,0,0,.11q0.68,1.47,1.46,2.87a0.08,0.08,0,0,0,.11,0l1.77-1a0.08,0.08,0,0,0,0-.11Q6,57.18,5.38,55.8Zm4,6.79a0.08,0.08,0,0,0-.11,0L7.67,63.79a0.08,0.08,0,0,0,0,.11c0.64,0.86,1.32,1.69,2,2.5a0.08,0.08,0,0,0,.11,0l1.53-1.35a0.08,0.08,0,0,0,0-.11C10.67,64.19,10,63.41,9.42,62.6Zm6.75-.82a0.08,0.08,0,0,0-.11,0l-1.48,1.35a0.08,0.08,0,0,0,0,.11q0.92,1,1.92,1.92a0.08,0.08,0,0,0,.11,0L18,63.67a0.08,0.08,0,0,0,0-.11Q17,62.7,16.17,61.77ZM14.79,68.4a0.08,0.08,0,0,0-.11,0l-1.35,1.53a0.08,0.08,0,0,0,0,.11c0.81,0.71,1.64,1.39,2.5,2a0.08,0.08,0,0,0,.11,0l1.21-1.64a0.08,0.08,0,0,0,0-.11C16.33,69.71,15.55,69.07,14.79,68.4Zm-1.31-5.35c-0.61-.7-1.2-1.41-1.76-2.15a0.08,0.08,0,0,0-.11,0L10,62.07a0.08,0.08,0,0,0,0,.11c0.59,0.79,1.22,1.56,1.87,2.3a0.08,0.08,0,0,0,.11,0l1.49-1.32A0.08,0.08,0,0,0,13.47,63.05ZM26.7,34.49c-0.12.29-.23,0.58-0.34,0.88a0.08,0.08,0,0,0,.05.1l1.82,0.61a0.08,0.08,0,0,0,.1,0c0.08-.24.17-0.48,0.27-0.72a0.08,0.08,0,0,0,0-.1l-1.76-.77A0.08,0.08,0,0,0,26.7,34.49Zm-1.54-3.15,1.73,1a0.08,0.08,0,0,0,.11,0c0.18-.31.38-0.61,0.59-0.91h0L25.9,30.21a0.08,0.08,0,0,0-.11,0q-0.34.49-.65,1A0.08,0.08,0,0,0,25.16,31.34Zm1-5.93q-0.53.49-1,1a0.08,0.08,0,0,0,0,.12l1.49,1.37a0.08,0.08,0,0,0,.11,0q0.43-.46.9-0.89a0.08,0.08,0,0,0,0-.11l-1.37-1.49A0.08,0.08,0,0,0,26.17,25.41Zm-1.33,6.33q-0.29.52-.54,1.06a0.08,0.08,0,0,0,0,.11l1.83,0.83a0.08,0.08,0,0,0,.1,0c0.14-.3.29-0.61,0.46-0.9a0.08,0.08,0,0,0,0-.11l-1.74-1A0.08,0.08,0,0,0,24.83,31.74Zm3-7.65a0.08,0.08,0,0,0-.11,0c-0.39.29-.76,0.6-1.12,0.92a0.08,0.08,0,0,0,0,.11L28,26.62a0.08,0.08,0,0,0,.11,0c0.32-.28.64-0.55,1-0.8a0.08,0.08,0,0,0,0-.11Zm-7.2,10.06c-0.14.46-.26,0.93-0.37,1.4a0.08,0.08,0,0,0,.06.1l2,0.44A0.08,0.08,0,0,0,22.44,36c0.09-.41.2-0.82,0.32-1.22a0.08,0.08,0,0,0-.05-0.1l-1.93-.61A0.08,0.08,0,0,0,20.68,34.14Zm8.81-7.75c-0.32.24-.63,0.49-0.93,0.76a0.08,0.08,0,0,0,0,.11l1.33,1.5a0.08,0.08,0,0,0,.11,0c0.26-.22.52-0.43,0.79-0.63a0.08,0.08,0,0,0,0-.11l-1.2-1.62A0.08,0.08,0,0,0,29.48,26.39ZM21.4,32.18c-0.19.44-.36,0.9-0.52,1.35a0.08,0.08,0,0,0,.05.1l1.92,0.64a0.08,0.08,0,0,0,.1,0c0.14-.4.29-0.8,0.45-1.18a0.08,0.08,0,0,0,0-.1l-1.86-.81A0.08,0.08,0,0,0,21.4,32.18Zm1-1.9a0.08,0.08,0,0,0-.11,0q-0.35.63-.66,1.29a0.08,0.08,0,0,0,0,.11l1.84,0.84a0.08,0.08,0,0,0,.1,0q0.27-.57.58-1.13a0.08,0.08,0,0,0,0-.11ZM24,33.34c-0.16.37-.3,0.74-0.43,1.12a0.08,0.08,0,0,0,.05.1l1.91,0.64a0.08,0.08,0,0,0,.1,0c0.11-.32.23-0.63,0.36-0.95a0.08,0.08,0,0,0,0-.1l-1.84-.8A0.08,0.08,0,0,0,24,33.34Zm8.37,18.78a0.08,0.08,0,0,0,.11,0l1-1.65a0.08,0.08,0,0,0,0-.11l-0.64-.42a0.08,0.08,0,0,0-.11,0l-1.11,1.56,0,0.11C31.89,51.79,32.16,52,32.42,52.12Zm-1.11-.85,1.14-1.55a0.08,0.08,0,0,0,0-.11c-0.21-.15-0.41-0.31-0.6-0.47a0.08,0.08,0,0,0-.11,0l-1.27,1.44a0.08,0.08,0,0,0,0,.12c0.24,0.2.48,0.4,0.73,0.59A0.08,0.08,0,0,0,31.31,51.27Zm-1.83,2.34a0.08,0.08,0,0,0,.11,0L30.79,52a0.08,0.08,0,0,0,0-.11c-0.27-.2-0.54-0.42-0.79-0.63a0.08,0.08,0,0,0-.11,0l-1.33,1.5a0.08,0.08,0,0,0,0,.12C28.86,53.11,29.16,53.37,29.48,53.61ZM34,49.68l0.78-1.33c-0.21-.12-0.41-0.25-0.6-0.39l-0.89,1.25a0.08,0.08,0,0,0,0,.11l0.58,0.38A0.08,0.08,0,0,0,34,49.68ZM34.64,29l-0.79-1.75a0.08,0.08,0,0,0-.11,0c-0.28.13-.56,0.28-0.84,0.43a0.08,0.08,0,0,0,0,.11l0.95,1.67a0.08,0.08,0,0,0,.11,0l0.68-.35A0.08,0.08,0,0,0,34.64,29ZM28.12,52.46a0.08,0.08,0,0,0,.12,0L29.59,51a0.08,0.08,0,0,0,0-.11c-0.25-.23-0.49-0.47-0.72-0.71a0.08,0.08,0,0,0-.11,0L27.28,51.5a0.08,0.08,0,0,0,0,.12Q27.68,52.05,28.12,52.46ZM32.64,24.6a0.08,0.08,0,0,0-.11,0q-0.54.25-1.06,0.54a0.08,0.08,0,0,0,0,.11l1,1.75a0.08,0.08,0,0,0,.11,0q0.44-.25.9-0.46a0.08,0.08,0,0,0,0-.1ZM31,25.4c-0.34.21-.68,0.43-1,0.65a0.08,0.08,0,0,0,0,.11l1.17,1.63a0.08,0.08,0,0,0,.11,0c0.28-.19.56-0.38,0.85-0.55a0.08,0.08,0,0,0,0-.11l-1-1.73A0.08,0.08,0,0,0,31,25.4Zm3,4.93a0.08,0.08,0,0,0-.11,0l-0.58.38a0.08,0.08,0,0,0,0,.11L34.13,32c0.19-.14.4-0.26,0.6-0.39ZM29.49,57.1a0.08,0.08,0,0,0,.11,0l1-1.75a0.08,0.08,0,0,0,0-.11c-0.36-.22-0.71-0.45-1.06-0.69a0.08,0.08,0,0,0-.11,0l-1.18,1.65a0.08,0.08,0,0,0,0,.11C28.68,56.58,29.08,56.85,29.49,57.1Zm-1.73-1.16a0.08,0.08,0,0,0,.11,0l1.2-1.63a0.08,0.08,0,0,0,0-.11c-0.34-.25-0.66-0.52-1-0.8a0.08,0.08,0,0,0-.11,0L26.63,54.9a0.08,0.08,0,0,0,0,.11C27,55.33,27.38,55.64,27.76,55.93Zm-1.6-1.34a0.08,0.08,0,0,0,.12,0l1.37-1.49a0.08,0.08,0,0,0,0-.11q-0.46-.43-0.89-0.89a0.08,0.08,0,0,0-.11,0l-1.49,1.37a0.08,0.08,0,0,0,0,.12Q25.64,54.1,26.17,54.59Zm-6-18.42q-0.14.71-.22,1.43a0.08,0.08,0,0,0,.07.09l2,0.23a0.08,0.08,0,0,0,.09-0.07c0.05-.42.11-0.84,0.19-1.25a0.08,0.08,0,0,0-.06-0.09l-2-.41A0.08,0.08,0,0,0,20.17,36.17Zm10.9,18.41,1-1.73a0.08,0.08,0,0,0,0-.11q-0.46-.28-0.9-0.59h0l-1.21,1.69A0.08,0.08,0,0,0,30,54c0.33,0.23.66,0.45,1,.65A0.08,0.08,0,0,0,31.07,54.58ZM22.57,55a0.08,0.08,0,0,0,.11,0l1.5-1.33a0.08,0.08,0,0,0,0-.11c-0.33-.38-0.66-0.77-1-1.18a0.08,0.08,0,0,0-.11,0l-1.62,1.19a0.08,0.08,0,0,0,0,.11C21.83,54.13,22.19,54.57,22.57,55Zm11.27-2.23L34.64,51a0.08,0.08,0,0,0,0-.1l-0.68-.35a0.08,0.08,0,0,0-.11,0l-0.94,1.67a0.08,0.08,0,0,0,0,.11q0.41,0.23.84,0.43A0.08,0.08,0,0,0,33.84,52.77Zm-1.31,2.67a0.08,0.08,0,0,0,.11,0l0.83-1.83a0.08,0.08,0,0,0,0-.1Q33,53.25,32.54,53a0.08,0.08,0,0,0-.11,0l-1,1.75a0.08,0.08,0,0,0,0,.11Q32,55.19,32.53,55.44Zm-7.32-5.26c-0.24-.34-0.47-0.7-0.69-1.06a0.08,0.08,0,0,0-.11,0l-1.75,1a0.08,0.08,0,0,0,0,.11c0.25,0.42.52,0.82,0.79,1.21a0.08,0.08,0,0,0,.11,0l1.65-1.18A0.08,0.08,0,0,0,25.21,50.18ZM20.27,43.9l2-.41a0.08,0.08,0,0,0,.06-0.09q-0.12-.62-0.19-1.25A0.08,0.08,0,0,0,22,42.08l-2,.23a0.08,0.08,0,0,0-.07.09c0.06,0.48.13,1,.22,1.43A0.08,0.08,0,0,0,20.27,43.9Zm-0.11,7.8q0.44,0.73.93,1.43a0.08,0.08,0,0,0,.11,0L22.84,52a0.08,0.08,0,0,0,0-.11q-0.44-.62-0.83-1.27a0.08,0.08,0,0,0-.11,0l-1.73,1A0.08,0.08,0,0,0,20.16,51.69ZM19.88,38.23q-0.06.72-.07,1.45a0.08,0.08,0,0,0,.08.08l2,0A0.08,0.08,0,0,0,22,39.7q0-.64.06-1.26A0.08,0.08,0,0,0,22,38.35l-2-.19A0.08,0.08,0,0,0,19.88,38.23ZM20,41.84l2-.2a0.08,0.08,0,0,0,.07-0.09C22,41.14,22,40.72,22,40.3a0.08,0.08,0,0,0-.08-0.08l-2,0a0.08,0.08,0,0,0-.08.08q0,0.73.07,1.45A0.08,0.08,0,0,0,20,41.84Zm2.35,7.85a0.08,0.08,0,0,0,.11,0l1.76-1a0.08,0.08,0,0,0,0-.11q-0.31-.55-0.58-1.13a0.08,0.08,0,0,0-.1,0l-1.84.84a0.08,0.08,0,0,0,0,.11Q22,49.05,22.32,49.69Zm-1.54-3.78,1.93-.61a0.08,0.08,0,0,0,.05-0.1c-0.12-.4-0.23-0.81-0.32-1.22a0.08,0.08,0,0,0-.09-0.06l-2,.44a0.08,0.08,0,0,0-.06.1c0.11,0.47.23,0.94,0.37,1.4A0.08,0.08,0,0,0,20.78,45.91Zm0.73,1.95L23.36,47a0.08,0.08,0,0,0,0-.1c-0.16-.39-0.31-0.78-0.45-1.18a0.08,0.08,0,0,0-.1,0l-1.92.64a0.08,0.08,0,0,0-.05.1c0.16,0.46.33,0.91,0.52,1.36A0.08,0.08,0,0,0,21.5,47.86Zm10.57,0.4,1-1.13q-0.26-.24-0.51-0.51l-1.13,1a0.08,0.08,0,0,0,0,.12c0.16,0.17.33,0.33,0.5,0.48A0.08,0.08,0,0,0,32.08,48.26Zm-2.3-13.72c-0.11.2-.21,0.41-0.31,0.62a0.08,0.08,0,0,0,0,.11L30.9,35.9c0.1-.22.2-0.43,0.32-0.64l-1.33-.75A0.08,0.08,0,0,0,29.78,34.54Zm-1.35,4.52c0,0.23,0,.46,0,0.69a0.08,0.08,0,0,0,.08.08H30c0-.24,0-0.48,0-0.72L28.52,39A0.08,0.08,0,0,0,28.43,39.06Zm0.44-2.33c-0.07.22-.13,0.45-0.18,0.67a0.08,0.08,0,0,0,.06.1l1.5,0.33c0.05-.23.11-0.47,0.18-0.69L29,36.67A0.08,0.08,0,0,0,28.87,36.73Zm0.4-1.12c-0.09.21-.17,0.43-0.25,0.65a0.08,0.08,0,0,0,.05.1l1.45,0.49c0.08-.23.16-0.45,0.25-0.67l-1.4-.61A0.08,0.08,0,0,0,29.26,35.61Zm-0.68,2.27c0,0.23-.09.46-0.12,0.69a0.08,0.08,0,0,0,.07.09l1.52,0.17c0-.24.06-0.48,0.11-0.71l-1.49-.3A0.08,0.08,0,0,0,28.59,37.88Zm-1.24,9a0.08,0.08,0,0,0,.11,0l1.68-1a0.08,0.08,0,0,0,0-.11c-0.12-.22-0.24-0.45-0.35-0.68a0.08,0.08,0,0,0-.1,0l-1.75.8a0.08,0.08,0,0,0,0,.11C27.05,46.28,27.19,46.56,27.34,46.84ZM29,49.27a0.08,0.08,0,0,0,.12,0L30.6,48a0.08,0.08,0,0,0,0-.11c-0.17-.19-0.33-0.39-0.49-0.59a0.08,0.08,0,0,0-.11,0l-1.55,1.14a0.08,0.08,0,0,0,0,.11Q28.73,48.91,29,49.27Zm1,1.07a0.08,0.08,0,0,0,.12,0l1.3-1.42a0.08,0.08,0,0,0,0-.11c-0.19-.18-0.37-0.35-0.55-0.54a0.08,0.08,0,0,0-.11,0l-1.42,1.3a0.08,0.08,0,0,0,0,.12C29.61,49.9,29.83,50.12,30.07,50.33ZM28.13,48.1a0.08,0.08,0,0,0,.11,0L29.81,47a0.08,0.08,0,0,0,0-.11c-0.15-.21-0.29-0.42-0.42-0.64a0.08,0.08,0,0,0-.11,0l-1.66,1a0.08,0.08,0,0,0,0,.11C27.78,47.57,27.95,47.84,28.13,48.1Zm1.26-3.67,1.39-.6c-0.09-.22-0.17-0.45-0.25-0.67l-1.44.48a0.08,0.08,0,0,0-.05.1c0.08,0.22.16,0.43,0.25,0.65A0.08,0.08,0,0,0,29.38,44.43Zm0.41,1a0.08,0.08,0,0,0,.11,0l1.32-.75c-0.12-.21-0.22-0.42-0.32-0.64l-1.39.63a0.08,0.08,0,0,0,0,.11C29.57,45,29.68,45.25,29.79,45.45ZM29,43.32l1.44-.46c-0.07-.23-0.13-0.46-0.18-0.69l-1.48.33a0.08,0.08,0,0,0-.06.1q0.08,0.34.18,0.67A0.08,0.08,0,0,0,29,43.32Zm0.18-12.59a0.08,0.08,0,0,0-.12,0q-0.31.35-.59,0.73a0.08,0.08,0,0,0,0,.11L30,32.72a0.08,0.08,0,0,0,.11,0c0.15-.2.32-0.4,0.48-0.6a0.08,0.08,0,0,0,0-.11Zm1.25,2.8c-0.13.19-.25,0.39-0.37,0.59a0.08,0.08,0,0,0,0,.11L31.38,35c0.12-.21.25-0.41,0.39-0.6l-1.25-.89A0.08,0.08,0,0,0,30.4,33.53Zm0,12.94a0.08,0.08,0,0,0,.11,0l1.24-.89c-0.14-.19-0.26-0.4-0.39-0.6l-1.32.78a0.08,0.08,0,0,0,0,.11C30.15,46.08,30.28,46.27,30.41,46.46Zm0.73,0.94a0.08,0.08,0,0,0,.11,0l1.14-1c-0.16-.18-0.31-0.37-0.45-0.56l-1.23.91a0.08,0.08,0,0,0,0,.11C30.84,47.05,31,47.23,31.14,47.41ZM30,40.87q0-.35,0-0.72H28.48a0.08,0.08,0,0,0-.08.08c0,0.23,0,.46,0,0.69a0.08,0.08,0,0,0,.09.07Zm-3.84-5q-0.14.45-.24,0.91a0.08,0.08,0,0,0,.06.1l1.88,0.42A0.08,0.08,0,0,0,28,37.25q0.09-.37.2-0.74a0.08,0.08,0,0,0-.05-0.1l-1.83-.58A0.08,0.08,0,0,0,26.19,35.88Zm0.69,15.29a0.08,0.08,0,0,0,.11,0l1.5-1.33a0.08,0.08,0,0,0,0-.11q-0.33-.38-0.64-0.79a0.08,0.08,0,0,0-.11,0l-1.61,1.19a0.08,0.08,0,0,0,0,.11C26.37,50.57,26.62,50.88,26.88,51.18Zm-1-13.85c-0.06.31-.11,0.62-0.15,0.93a0.08,0.08,0,0,0,.07.09l1.91,0.22a0.08,0.08,0,0,0,.09-0.07c0-.25.08-0.5,0.13-0.76a0.08,0.08,0,0,0-.06-0.09l-1.89-.38A0.08,0.08,0,0,0,25.84,37.32Zm1.5-4.16c-0.15.28-.29,0.56-0.42,0.84a0.08,0.08,0,0,0,0,.11l1.75,0.8a0.08,0.08,0,0,0,.1,0c0.11-.23.22-0.46,0.34-0.69a0.08,0.08,0,0,0,0-.11l-1.67-.95A0.08,0.08,0,0,0,27.34,33.16Zm-1.7,5.63c0,0.31,0,.63,0,0.94a0.08,0.08,0,0,0,.08.08l1.92,0a0.08,0.08,0,0,0,.08-0.08c0-.26,0-0.51,0-0.76a0.08,0.08,0,0,0-.07-0.09l-1.92-.19A0.08,0.08,0,0,0,25.64,38.79Zm3.67-5a0.08,0.08,0,0,0,.11,0c0.13-.22.26-0.44,0.41-0.65a0.08,0.08,0,0,0,0-.11l-1.56-1.12-0.11,0c-0.18.26-.35,0.52-0.51,0.79a0.08,0.08,0,0,0,0,.11Zm-3.52,16a0.08,0.08,0,0,0,.11,0l1.63-1.16a0.08,0.08,0,0,0,0-.11Q27.25,48.1,27,47.67a0.08,0.08,0,0,0-.11,0l-1.73,1a0.08,0.08,0,0,0,0,.11C25.33,49.11,25.55,49.45,25.78,49.77ZM35,50.23l0.64-1.39c-0.22-.1-0.43-0.2-0.64-0.32l-0.75,1.33a0.08,0.08,0,0,0,0,.11l0.62,0.32A0.08,0.08,0,0,0,35,50.23Zm-10.17-2a0.08,0.08,0,0,0,.11,0l1.75-1a0.08,0.08,0,0,0,0-.11c-0.16-.3-0.31-0.6-0.46-0.9a0.08,0.08,0,0,0-.1,0l-1.83.83a0.08,0.08,0,0,0,0,.11Q24.54,47.74,24.83,48.26Zm8.68-18.7-1-1.65a0.08,0.08,0,0,0-.11,0c-0.27.16-.53,0.34-0.79,0.52a0.08,0.08,0,0,0,0,.11l1.11,1.56a0.08,0.08,0,0,0,.11,0c0.21-.15.42-0.29,0.64-0.42A0.08,0.08,0,0,0,33.51,29.57ZM33,31a0.08,0.08,0,0,0-.11,0c-0.18.14-.37,0.28-0.54,0.44a0.08,0.08,0,0,0,0,.12l1,1.15c0.18-.16.37-0.31,0.56-0.45ZM32.87,49A0.08,0.08,0,0,0,33,49l0.91-1.23c-0.19-.14-0.38-0.29-0.56-0.45l-1,1.15a0.08,0.08,0,0,0,0,.12C32.5,48.75,32.68,48.89,32.87,49Zm-2.8-19.36c-0.23.21-.45,0.43-0.67,0.66a0.08,0.08,0,0,0,0,.12l1.42,1.3a0.08,0.08,0,0,0,.11,0q0.26-.28.54-0.54a0.08,0.08,0,0,0,0-.11l-1.29-1.41A0.08,0.08,0,0,0,30.07,29.67Zm-1.83-2.12a0.08,0.08,0,0,0-.12,0q-0.44.41-.84,0.85a0.08,0.08,0,0,0,0,.12l1.48,1.35a0.08,0.08,0,0,0,.11,0q0.35-.37.72-0.71a0.08,0.08,0,0,0,0-.11Zm3,1.17c-0.25.19-.5,0.38-0.73,0.59a0.08,0.08,0,0,0,0,.12l1.27,1.44a0.08,0.08,0,0,0,.11,0c0.19-.17.39-0.33,0.6-0.48a0.08,0.08,0,0,0,0-.11l-1.14-1.54A0.08,0.08,0,0,0,31.2,28.72Zm-4.32.11c-0.26.3-.52,0.61-0.76,0.93a0.08,0.08,0,0,0,0,.11l1.62,1.2a0.08,0.08,0,0,0,.11,0c0.2-.27.41-0.53,0.64-0.79a0.08,0.08,0,0,0,0-.11L27,28.82A0.08,0.08,0,0,0,26.88,28.82Zm8.94-.32-0.61-1.82a0.08,0.08,0,0,0-.1-0.05q-0.45.15-.88,0.34a0.08,0.08,0,0,0,0,.11L35,28.84a0.08,0.08,0,0,0,.1,0l0.72-.27A0.08,0.08,0,0,0,35.82,28.5Zm-11.46-9c-0.52.39-1,.81-1.52,1.24a0.08,0.08,0,0,0,0,.11l1.32,1.49a0.08,0.08,0,0,0,.11,0c0.44-.39.9-0.76,1.37-1.12a0.08,0.08,0,0,0,0-.11l-1.18-1.6A0.08,0.08,0,0,0,24.36,19.46Zm3.53-5.31a0.08,0.08,0,0,0-.11,0q-1,.47-2,1a0.08,0.08,0,0,0,0,.11l1,1.74a0.08,0.08,0,0,0,.11,0q0.88-.49,1.8-0.92a0.08,0.08,0,0,0,0-.1Zm3.57,1.56c-0.62.21-1.23,0.44-1.83,0.7a0.08,0.08,0,0,0,0,.11l0.8,1.83a0.08,0.08,0,0,0,.1,0c0.54-.23,1.1-0.44,1.66-0.64a0.08,0.08,0,0,0,0-.1l-0.63-1.89A0.08,0.08,0,0,0,31.46,15.71ZM28.6,20.2l1,1.75a0.08,0.08,0,0,0,.11,0q0.66-.37,1.35-0.69a0.08,0.08,0,0,0,0-.1l-0.83-1.83a0.08,0.08,0,0,0-.11,0q-0.77.36-1.52,0.78A0.08,0.08,0,0,0,28.6,20.2Zm-3.67-1,1.16,1.62a0.08,0.08,0,0,0,.11,0q0.72-.51,1.48-1a0.08,0.08,0,0,0,0-.11L26.7,18a0.08,0.08,0,0,0-.11,0Q25.75,18.47,25,19A0.08,0.08,0,0,0,24.93,19.15Zm-7.6,8.34q-0.48.85-.89,1.74a0.08,0.08,0,0,0,0,.11l1.81,0.83a0.08,0.08,0,0,0,.1,0q0.37-.81.81-1.58a0.08,0.08,0,0,0,0-.11l-1.73-1A0.08,0.08,0,0,0,17.34,27.49Zm3.15-8.41a0.08,0.08,0,0,0-.11,0q-0.81.75-1.56,1.56a0.08,0.08,0,0,0,0,.11l1.47,1.35a0.08,0.08,0,0,0,.11,0q0.69-.74,1.43-1.43a0.08,0.08,0,0,0,0-.11Zm1.82,2.11q-0.72.66-1.38,1.38a0.08,0.08,0,0,0,0,.12L22.39,24a0.08,0.08,0,0,0,.11,0q0.6-.65,1.25-1.25a0.08,0.08,0,0,0,0-.11l-1.34-1.47A0.08,0.08,0,0,0,22.3,21.18ZM34,15c-0.64.14-1.27,0.31-1.89,0.5a0.08,0.08,0,0,0-.05.1l0.6,1.9a0.08,0.08,0,0,0,.1.05c0.56-.17,1.13-0.32,1.71-0.45A0.08,0.08,0,0,0,34.57,17L34.14,15A0.08,0.08,0,0,0,34,15ZM36.1,29.34a0.08,0.08,0,0,0-.1-0.05l-0.65.25a0.08,0.08,0,0,0,0,.11L35.91,31c0.22-.09.45-0.17,0.67-0.25Zm0,21.33,0.49-1.45c-0.23-.08-0.45-0.16-0.67-0.25l-0.61,1.4a0.08,0.08,0,0,0,0,.11L36,50.72A0.08,0.08,0,0,0,36.09,50.67ZM16.56,23.54a0.08,0.08,0,0,0-.11,0q-0.64.9-1.21,1.85a0.08,0.08,0,0,0,0,.11l1.72,1a0.08,0.08,0,0,0,.11,0q0.52-.87,1.11-1.69a0.08,0.08,0,0,0,0-.11ZM35.21,53.32l0.61-1.82a0.08,0.08,0,0,0,0-.1l-0.71-.28a0.08,0.08,0,0,0-.1,0l-0.77,1.76a0.08,0.08,0,0,0,0,.11q0.43,0.18.88,0.34A0.08,0.08,0,0,0,35.21,53.32ZM37,28.16l-0.41-1.87a0.08,0.08,0,0,0-.1-0.06c-0.31.07-.61,0.15-0.91,0.24a0.08,0.08,0,0,0-.05.1l0.58,1.83a0.08,0.08,0,0,0,.1.05L37,28.25A0.08,0.08,0,0,0,37,28.16Zm-1.76-7.58c-0.47.11-.94,0.23-1.4,0.37a0.08,0.08,0,0,0-.05.1L34.43,23a0.08,0.08,0,0,0,.1.05c0.4-.12.81-0.23,1.22-0.32a0.08,0.08,0,0,0,.06-0.09l-0.44-2A0.08,0.08,0,0,0,35.28,20.57ZM35.9,23.4c-0.39.09-.78,0.19-1.16,0.31a0.08,0.08,0,0,0-.05.1l0.61,1.92a0.08,0.08,0,0,0,.1.05c0.32-.1.65-0.18,1-0.26a0.08,0.08,0,0,0,.06-0.09l-0.44-2A0.08,0.08,0,0,0,35.9,23.4ZM14.54,47.8c-0.2-.64-0.37-1.3-0.52-2a0.08,0.08,0,0,0-.09-0.06L12,46.21a0.08,0.08,0,0,0-.06.1c0.16,0.72.35,1.44,0.57,2.14a0.08,0.08,0,0,0,.1.05l1.9-.6A0.08,0.08,0,0,0,14.54,47.8ZM14.65,45l2-.4a0.08,0.08,0,0,0,.06-0.09c-0.11-.58-0.2-1.16-0.27-1.75a0.08,0.08,0,0,0-.09-0.07l-2,.23a0.08,0.08,0,0,0-.07.09c0.08,0.65.18,1.3,0.3,1.93A0.08,0.08,0,0,0,14.65,45Zm0.66,2.59,1.9-.6a0.08,0.08,0,0,0,.05-0.1c-0.17-.56-0.32-1.13-0.45-1.71a0.08,0.08,0,0,0-.09-0.06l-1.94.43a0.08,0.08,0,0,0-.06.1c0.14,0.64.31,1.27,0.5,1.89A0.08,0.08,0,0,0,15.31,47.64Zm19,8.42,0.64-1.91a0.08,0.08,0,0,0,0-.1q-0.48-.17-0.94-0.36a0.08,0.08,0,0,0-.1,0L33,55.58a0.08,0.08,0,0,0,0,.11q0.55,0.23,1.12.43A0.08,0.08,0,0,0,34.29,56.06Zm-18-5.92,1.83-.8a0.08,0.08,0,0,0,0-.1q-0.35-.81-0.63-1.66a0.08,0.08,0,0,0-.1,0l-1.89.63a0.08,0.08,0,0,0-.05.1q0.32,0.93.7,1.83A0.08,0.08,0,0,0,16.25,50.14Zm-1,4.45q0.57,0.95,1.21,1.85a0.08,0.08,0,0,0,.11,0l1.62-1.16a0.08,0.08,0,0,0,0-.11q-0.58-.83-1.11-1.69a0.08,0.08,0,0,0-.11,0l-1.72,1A0.08,0.08,0,0,0,15.23,54.59Zm2.1-2.08a0.08,0.08,0,0,0,.11,0l1.73-1a0.08,0.08,0,0,0,0-.11q-0.43-.77-0.81-1.58a0.08,0.08,0,0,0-.1,0l-1.81.83a0.08,0.08,0,0,0,0,.11Q16.86,51.66,17.34,52.51Zm1,6.28a0.08,0.08,0,0,0,.11,0l1.49-1.32a0.08,0.08,0,0,0,0-.11c-0.44-.51-0.87-1-1.28-1.57a0.08,0.08,0,0,0-.11,0L16.91,57a0.08,0.08,0,0,0,0,.11C17.34,57.66,17.8,58.23,18.29,58.78ZM11,52.43l1.84-.8a0.08,0.08,0,0,0,0-.1q-0.45-1-.81-2.12a0.08,0.08,0,0,0-.1,0l-1.9.64a0.08,0.08,0,0,0-.05.1q0.4,1.17.88,2.3A0.08,0.08,0,0,0,11,52.43ZM8.94,33.88c-0.16.8-.28,1.61-0.38,2.43a0.08,0.08,0,0,0,.07.09l2,0.23a0.08,0.08,0,0,0,.09-0.07q0.13-1.14.35-2.25A0.08,0.08,0,0,0,11,34.21l-2-.4A0.08,0.08,0,0,0,8.94,33.88Zm3.52-9.24a0.08,0.08,0,0,0-.11,0q-0.6,1.07-1.12,2.19a0.08,0.08,0,0,0,0,.11l1.82,0.83a0.08,0.08,0,0,0,.1,0q0.48-1,1-2a0.08,0.08,0,0,0,0-.11Zm1.42,3.52L15.7,29a0.08,0.08,0,0,0,.1,0q0.43-.92.92-1.8a0.08,0.08,0,0,0,0-.11L15,26a0.08,0.08,0,0,0-.11,0q-0.54,1-1,2A0.08,0.08,0,0,0,13.88,28.15ZM9.75,30.69c-0.24.78-.45,1.57-0.63,2.38a0.08,0.08,0,0,0,.06.1l2,0.43a0.08,0.08,0,0,0,.09-0.06c0.17-.74.36-1.48,0.58-2.2a0.08,0.08,0,0,0-.05-0.1l-1.91-.6A0.08,0.08,0,0,0,9.75,30.69ZM9,46.19l2-.4a0.08,0.08,0,0,0,.06-0.09c-0.15-.74-0.26-1.49-0.35-2.25a0.08,0.08,0,0,0-.09-0.07l-2,.23a0.08,0.08,0,0,0-.07.09c0.1,0.82.22,1.63,0.38,2.43A0.08,0.08,0,0,0,9,46.19Zm7.22-26.88a0.08,0.08,0,0,0-.11,0c-0.54.62-1.06,1.25-1.56,1.91a0.08,0.08,0,0,0,0,.11l1.61,1.19a0.08,0.08,0,0,0,.11,0c0.46-.61.94-1.19,1.44-1.76a0.08,0.08,0,0,0,0-.11ZM9.85,49.36l1.91-.6a0.08,0.08,0,0,0,.05-0.1c-0.22-.72-0.41-1.46-0.58-2.2a0.08,0.08,0,0,0-.09-0.06l-2,.43a0.08,0.08,0,0,0-.06.1c0.18,0.8.39,1.6,0.63,2.38A0.08,0.08,0,0,0,9.85,49.36Zm-1.5-8.95q0,1.24.13,2.46a0.08,0.08,0,0,0,.09.07l2-.19a0.08,0.08,0,0,0,.07-0.09q-0.1-1.13-.12-2.27a0.08,0.08,0,0,0-.08-0.08l-2,0A0.08,0.08,0,0,0,8.34,40.41ZM18.76,31q-0.34.78-.61,1.59a0.08,0.08,0,0,0,.05.1l1.91,0.64a0.08,0.08,0,0,0,.1,0c0.16-.48.34-1,0.54-1.42a0.08,0.08,0,0,0,0-.1L18.87,31A0.08,0.08,0,0,0,18.76,31Zm2.44-4.18a0.08,0.08,0,0,0-.11,0c-0.33.46-.64,0.94-0.93,1.43a0.08,0.08,0,0,0,0,.11l1.73,1a0.08,0.08,0,0,0,.11,0q0.39-.65.83-1.27a0.08,0.08,0,0,0,0-.11Zm1.46,3,1.75,1a0.08,0.08,0,0,0,.11,0c0.22-.36.45-0.71,0.69-1.06a0.08,0.08,0,0,0,0-.11l-1.65-1.18a0.08,0.08,0,0,0-.11,0c-0.28.4-.54,0.8-0.79,1.21A0.08,0.08,0,0,0,22.67,29.87ZM20.55,23.1a0.08,0.08,0,0,0-.11,0c-0.43.49-.84,1-1.24,1.52a0.08,0.08,0,0,0,0,.11l1.6,1.18a0.08,0.08,0,0,0,.11,0c0.36-.47.73-0.93,1.12-1.37a0.08,0.08,0,0,0,0-.11Zm3.68,0.19q-0.62.58-1.2,1.2a0.08,0.08,0,0,0,0,.12L24.51,26a0.08,0.08,0,0,0,.11,0q0.52-.56,1.07-1.07a0.08,0.08,0,0,0,0-.11l-1.36-1.48A0.08,0.08,0,0,0,24.23,23.29Zm-6.29,10c-0.17.54-.31,1.09-0.44,1.65a0.08,0.08,0,0,0,.06.1l2,0.43a0.08,0.08,0,0,0,.09-0.06c0.11-.5.24-1,0.39-1.47a0.08,0.08,0,0,0-.05-0.1L18,33.22A0.08,0.08,0,0,0,17.94,33.28Zm8.12-11.52c-0.45.34-.89,0.7-1.32,1.08a0.08,0.08,0,0,0,0,.11l1.33,1.5a0.08,0.08,0,0,0,.11,0c0.38-.33.77-0.66,1.18-1a0.08,0.08,0,0,0,0-.11l-1.2-1.62A0.08,0.08,0,0,0,26.06,21.76Zm-7,8.76,1.83,0.83a0.08,0.08,0,0,0,.1,0q0.32-.69.69-1.35a0.08,0.08,0,0,0,0-.11l-1.75-1a0.08,0.08,0,0,0-.11,0q-0.42.74-.78,1.52A0.08,0.08,0,0,0,19.08,30.52ZM35,29.78a0.08,0.08,0,0,0-.11,0l-0.62.32a0.08,0.08,0,0,0,0,.11L35,31.49c0.21-.12.42-0.22,0.64-0.32Zm-1.73-8.63c-0.46.16-.91,0.33-1.36,0.52a0.08,0.08,0,0,0,0,.11l0.81,1.86a0.08,0.08,0,0,0,.1,0q0.58-.25,1.18-0.45a0.08,0.08,0,0,0,0-.1L33.38,21.2A0.08,0.08,0,0,0,33.27,21.15ZM17.11,37.88A0.08,0.08,0,0,0,17,38q-0.07.84-.09,1.7a0.08,0.08,0,0,0,.08.08l2,0a0.08,0.08,0,0,0,.08-0.08q0-.77.08-1.52a0.08,0.08,0,0,0-.07-0.09Zm11-17.43a0.08,0.08,0,0,0-.11,0c-0.49.29-1,.6-1.43,0.93a0.08,0.08,0,0,0,0,.11l1.17,1.63a0.08,0.08,0,0,0,.11,0q0.62-.44,1.27-0.83a0.08,0.08,0,0,0,0-.11ZM20.37,60.93a0.08,0.08,0,0,0,.11,0l1.35-1.47a0.08,0.08,0,0,0,0-.11q-0.74-.69-1.43-1.43a0.08,0.08,0,0,0-.11,0l-1.47,1.35a0.08,0.08,0,0,0,0,.11Q19.56,60.17,20.37,60.93Zm13.82-37q-0.57.2-1.12,0.43a0.08,0.08,0,0,0,0,.11l0.8,1.85a0.08,0.08,0,0,0,.1,0c0.31-.13.63-0.25,0.95-0.36a0.08,0.08,0,0,0,0-.1l-0.64-1.91A0.08,0.08,0,0,0,34.19,23.89Zm-4.69-1c-0.42.25-.82,0.52-1.21,0.79a0.08,0.08,0,0,0,0,.11l1.18,1.65a0.08,0.08,0,0,0,.11,0c0.34-.24.7-0.47,1.06-0.69a0.08,0.08,0,0,0,0-.11l-1-1.75A0.08,0.08,0,0,0,29.5,22.9ZM30,22.7l1,1.76a0.08,0.08,0,0,0,.11,0q0.55-.31,1.13-0.58a0.08,0.08,0,0,0,0-.1L31.45,22a0.08,0.08,0,0,0-.11,0q-0.66.31-1.29,0.66A0.08,0.08,0,0,0,30,22.7Zm2.35-4.28c-0.54.18-1.07,0.39-1.59,0.61a0.08,0.08,0,0,0,0,.11L31.53,21a0.08,0.08,0,0,0,.1,0c0.46-.2.94-0.38,1.42-0.54a0.08,0.08,0,0,0,0-.1l-0.64-1.91A0.08,0.08,0,0,0,32.36,18.42ZM17.11,42.12l2-.19a0.08,0.08,0,0,0,.07-0.09q-0.07-.75-0.08-1.52A0.08,0.08,0,0,0,19,40.24l-2,0a0.08,0.08,0,0,0-.08.08q0,0.86.09,1.7A0.08,0.08,0,0,0,17.11,42.12ZM24.34,56.7l1.36-1.48a0.08,0.08,0,0,0,0-.11Q25.14,54.6,24.62,54a0.08,0.08,0,0,0-.11,0L23,55.39a0.08,0.08,0,0,0,0,.12q0.58,0.62,1.2,1.2A0.08,0.08,0,0,0,24.34,56.7Zm-2,2.11a0.08,0.08,0,0,0,.12,0l1.34-1.47a0.08,0.08,0,0,0,0-.11Q23.1,56.63,22.5,56a0.08,0.08,0,0,0-.11,0l-1.47,1.34a0.08,0.08,0,0,0,0,.12Q21.58,58.15,22.3,58.81Zm-3.11-3.44c0.39,0.52.81,1,1.24,1.52a0.08,0.08,0,0,0,.11,0L22,55.58a0.08,0.08,0,0,0,0-.11c-0.39-.44-0.76-0.9-1.12-1.37a0.08,0.08,0,0,0-.11,0l-1.6,1.18A0.08,0.08,0,0,0,19.19,55.37ZM16.25,29.86a0.08,0.08,0,0,0-.11,0c-0.26.6-.49,1.21-0.7,1.83a0.08,0.08,0,0,0,.05.1l1.89,0.63a0.08,0.08,0,0,0,.1,0q0.29-.84.63-1.66a0.08,0.08,0,0,0,0-.1ZM31.45,58l0.84-1.84a0.08,0.08,0,0,0,0-.1q-0.57-.27-1.13-0.58a0.08,0.08,0,0,0-.11,0L30,57.3a0.08,0.08,0,0,0,0,.11q0.63,0.35,1.29.66A0.08,0.08,0,0,0,31.45,58ZM28,59.57a0.08,0.08,0,0,0,.11,0l1-1.73a0.08,0.08,0,0,0,0-.11q-0.65-.39-1.27-0.83a0.08,0.08,0,0,0-.11,0l-1.17,1.63a0.08,0.08,0,0,0,0,.11C27.08,59,27.55,59.28,28,59.57ZM19.82,51.1a0.08,0.08,0,0,0,.11,0l1.75-1a0.08,0.08,0,0,0,0-.11q-0.37-.66-0.69-1.35a0.08,0.08,0,0,0-.1,0l-1.83.83a0.08,0.08,0,0,0,0,.11Q19.4,50.36,19.82,51.1Zm10.33,9.59a0.08,0.08,0,0,0,.11,0l0.83-1.83a0.08,0.08,0,0,0,0-.1Q30.36,58.39,29.7,58a0.08,0.08,0,0,0-.11,0l-1,1.75a0.08,0.08,0,0,0,0,.11Q29.37,60.33,30.15,60.69Zm-4.09-2.45a0.08,0.08,0,0,0,.11,0l1.19-1.62a0.08,0.08,0,0,0,0-.11c-0.41-.31-0.8-0.63-1.18-1a0.08,0.08,0,0,0-.11,0L24.73,57a0.08,0.08,0,0,0,0,.11C25.16,57.54,25.6,57.9,26.06,58.24ZM14.16,39.72l2,0a0.08,0.08,0,0,0,.08-0.08q0-.89.09-1.77a0.08,0.08,0,0,0-.07-0.09l-2-.19a0.08,0.08,0,0,0-.09.07q-0.09,1-.1,2A0.08,0.08,0,0,0,14.16,39.72Zm-0.53-11a0.08,0.08,0,0,0-.11,0q-0.43,1-.79,2.06a0.08,0.08,0,0,0,.05.1l1.89,0.63a0.08,0.08,0,0,0,.1,0q0.33-1,.72-1.89a0.08,0.08,0,0,0,0-.1Zm0.64,13.68,2-.19a0.08,0.08,0,0,0,.07-0.09q-0.08-.88-0.09-1.77a0.08,0.08,0,0,0-.08-0.08l-2,0a0.08,0.08,0,0,0-.08.08q0,1,.1,2A0.08,0.08,0,0,0,14.26,42.39Zm19,16.46a0.08,0.08,0,0,0,.1-0.05L34,56.88a0.08,0.08,0,0,0,0-.1c-0.4-.14-0.8-0.29-1.18-0.45a0.08,0.08,0,0,0-.1,0l-0.81,1.86a0.08,0.08,0,0,0,0,.11C32.36,58.52,32.81,58.7,33.27,58.85ZM16.81,34.78c0.13-.58.28-1.15,0.45-1.71a0.08,0.08,0,0,0-.05-0.1l-1.9-.6a0.08,0.08,0,0,0-.1.05c-0.19.62-.36,1.25-0.5,1.89a0.08,0.08,0,0,0,.06.1l1.94,0.43A0.08,0.08,0,0,0,16.81,34.78Zm1.23,12L20,46.17a0.08,0.08,0,0,0,.05-0.1c-0.15-.48-0.28-1-0.39-1.47a0.08,0.08,0,0,0-.09-0.06l-2,.43a0.08,0.08,0,0,0-.06.1c0.13,0.56.27,1.11,0.44,1.65A0.08,0.08,0,0,0,18,46.78ZM18.87,49l1.84-.8a0.08,0.08,0,0,0,0-.1c-0.2-.46-0.38-0.94-0.54-1.42a0.08,0.08,0,0,0-.1,0l-1.91.64a0.08,0.08,0,0,0-.05.1c0.18,0.54.39,1.07,0.61,1.59A0.08,0.08,0,0,0,18.87,49Z"/></svg>